<svg width="303" height="124" viewBox="0 0 303 124" fill="none" xmlns="http://www.w3.org/2000/svg">
<rect width="303" height="124" rx="20" fill="#7BC4D0"/>
<path d="M21.2642 41.5V26.9545H27.0881C28.1581 26.9545 29.0507 27.1132 29.7656 27.4304C30.4806 27.7476 31.018 28.188 31.3778 28.7514C31.7377 29.3101 31.9176 29.9541 31.9176 30.6832C31.9176 31.2514 31.804 31.7509 31.5767 32.1818C31.3494 32.608 31.0369 32.9583 30.6392 33.233C30.2462 33.5028 29.7964 33.6946 29.2898 33.8082V33.9503C29.8438 33.974 30.3622 34.1302 30.8452 34.419C31.3329 34.7079 31.7282 35.1127 32.0312 35.6335C32.3343 36.1496 32.4858 36.7652 32.4858 37.4801C32.4858 38.2519 32.294 38.9408 31.9105 39.5469C31.5317 40.1482 30.9706 40.6241 30.2273 40.9744C29.4839 41.3248 28.5677 41.5 27.4787 41.5H21.2642ZM24.3395 38.9858H26.8466C27.7036 38.9858 28.3286 38.8224 28.7216 38.4957C29.1146 38.1643 29.3111 37.724 29.3111 37.1747C29.3111 36.7723 29.214 36.4171 29.0199 36.1094C28.8258 35.8016 28.5488 35.5601 28.1889 35.3849C27.8338 35.2098 27.41 35.1222 26.9176 35.1222H24.3395V38.9858ZM24.3395 33.0412H26.6193C27.0407 33.0412 27.4148 32.9678 27.7415 32.821C28.0729 32.6695 28.3333 32.4564 28.5227 32.1818C28.7169 31.9072 28.8139 31.5781 28.8139 31.1946C28.8139 30.669 28.6269 30.2453 28.2528 29.9233C27.8835 29.6013 27.358 29.4403 26.6761 29.4403H24.3395V33.0412ZM34.43 41.5V30.5909H37.3633V32.4943H37.4769C37.6758 31.8172 38.0096 31.3059 38.4783 30.9602C38.9471 30.6098 39.4869 30.4347 40.0977 30.4347C40.2492 30.4347 40.4125 30.4441 40.5877 30.4631C40.7629 30.482 40.9168 30.508 41.0494 30.5412V33.2259C40.9073 33.1832 40.7108 33.1454 40.4599 33.1122C40.2089 33.0791 39.9793 33.0625 39.771 33.0625C39.3259 33.0625 38.9281 33.1596 38.5778 33.3537C38.2321 33.5431 37.9575 33.8082 37.7539 34.1491C37.555 34.4901 37.4556 34.883 37.4556 35.3281V41.5H34.43ZM47.0774 41.7131C45.9553 41.7131 44.9893 41.4858 44.1797 41.0312C43.3748 40.572 42.7545 39.9233 42.3189 39.0852C41.8833 38.2424 41.6655 37.2457 41.6655 36.0952C41.6655 34.973 41.8833 33.9882 42.3189 33.1406C42.7545 32.2931 43.3677 31.6326 44.1584 31.1591C44.9538 30.6856 45.8866 30.4489 46.9567 30.4489C47.6764 30.4489 48.3464 30.5649 48.9666 30.7969C49.5916 31.0241 50.1361 31.3674 50.6001 31.8267C51.0689 32.286 51.4335 32.8636 51.6939 33.5597C51.9543 34.2509 52.0845 35.0606 52.0845 35.9886V36.8196H42.8729V34.9446H49.2365C49.2365 34.509 49.1418 34.1231 48.9524 33.7869C48.763 33.4508 48.5002 33.188 48.1641 32.9986C47.8326 32.8045 47.4467 32.7074 47.0064 32.7074C46.5471 32.7074 46.1399 32.8139 45.7848 33.027C45.4344 33.2353 45.1598 33.517 44.9609 33.8722C44.7621 34.2225 44.6603 34.6132 44.6555 35.044V36.8267C44.6555 37.3665 44.755 37.8329 44.9538 38.2259C45.1574 38.6188 45.4439 38.9219 45.8132 39.1349C46.1825 39.348 46.6205 39.4545 47.1271 39.4545C47.4633 39.4545 47.7711 39.4072 48.0504 39.3125C48.3298 39.2178 48.5689 39.0758 48.7678 38.8864C48.9666 38.697 49.1181 38.465 49.2223 38.1903L52.0206 38.375C51.8786 39.0473 51.5874 39.6345 51.147 40.1364C50.7114 40.6335 50.148 41.0218 49.4567 41.3011C48.7701 41.5758 47.977 41.7131 47.0774 41.7131ZM57.1697 41.706C56.4737 41.706 55.8535 41.5852 55.3089 41.3438C54.7644 41.0975 54.3336 40.7353 54.0163 40.2571C53.7038 39.7741 53.5476 39.1728 53.5476 38.4531C53.5476 37.8471 53.6589 37.3381 53.8814 36.9261C54.1039 36.5142 54.407 36.1828 54.7905 35.9318C55.174 35.6809 55.6096 35.4915 56.0973 35.3636C56.5897 35.2358 57.1058 35.1458 57.6456 35.0938C58.2801 35.0275 58.7914 34.9659 59.1797 34.9091C59.5679 34.8475 59.8497 34.7576 60.0249 34.6392C60.2 34.5208 60.2876 34.3456 60.2876 34.1136V34.071C60.2876 33.6212 60.1456 33.2732 59.8615 33.027C59.5821 32.7808 59.1844 32.6577 58.6683 32.6577C58.1238 32.6577 57.6906 32.7784 57.3686 33.0199C57.0466 33.2566 56.8336 33.5549 56.7294 33.9148L53.9311 33.6875C54.0732 33.0246 54.3525 32.4517 54.7692 31.9688C55.1858 31.4811 55.7232 31.107 56.3814 30.8466C57.0443 30.5814 57.8113 30.4489 58.6825 30.4489C59.2886 30.4489 59.8686 30.5199 60.4226 30.6619C60.9813 30.804 61.4761 31.0241 61.907 31.3224C62.3426 31.6207 62.6858 32.0043 62.9368 32.473C63.1877 32.937 63.3132 33.4934 63.3132 34.142V41.5H60.4439V39.9872H60.3587C60.1835 40.3281 59.9491 40.6288 59.6555 40.8892C59.362 41.1449 59.0092 41.3461 58.5973 41.4929C58.1854 41.6349 57.7095 41.706 57.1697 41.706ZM58.0362 39.6179C58.4813 39.6179 58.8743 39.5303 59.2152 39.3551C59.5561 39.1752 59.8236 38.9337 60.0178 38.6307C60.2119 38.3277 60.3089 37.9844 60.3089 37.6009V36.4432C60.2143 36.5047 60.084 36.5616 59.9183 36.6136C59.7573 36.661 59.575 36.706 59.3714 36.7486C59.1679 36.7865 58.9643 36.822 58.7607 36.8551C58.5571 36.8835 58.3724 36.9096 58.2067 36.9332C57.8516 36.9853 57.5414 37.0682 57.2763 37.1818C57.0111 37.2955 56.8052 37.4493 56.6584 37.6435C56.5116 37.8329 56.4382 38.0696 56.4382 38.3537C56.4382 38.7656 56.5874 39.0805 56.8857 39.2983C57.1887 39.5114 57.5722 39.6179 58.0362 39.6179ZM71.4631 30.5909V32.8636H64.8935V30.5909H71.4631ZM66.3849 27.9773H69.4105V38.1477C69.4105 38.4271 69.4531 38.6449 69.5384 38.8011C69.6236 38.9527 69.742 39.0592 69.8935 39.1207C70.0497 39.1823 70.2296 39.2131 70.4332 39.2131C70.5753 39.2131 70.7173 39.2012 70.8594 39.1776C71.0014 39.1491 71.1103 39.1278 71.1861 39.1136L71.6619 41.3651C71.5104 41.4124 71.2973 41.4669 71.0227 41.5284C70.7481 41.5947 70.4143 41.6349 70.0213 41.6491C69.2921 41.6776 68.6529 41.5805 68.1037 41.358C67.5592 41.1354 67.1354 40.7898 66.8324 40.321C66.5294 39.8523 66.3802 39.2604 66.3849 38.5455V27.9773ZM76.6939 35.1932V41.5H73.6683V26.9545H76.6087V32.5156H76.7365C76.9827 31.8717 77.3804 31.3674 77.9297 31.0028C78.4789 30.6335 79.1679 30.4489 79.9964 30.4489C80.754 30.4489 81.4145 30.6146 81.978 30.946C82.5462 31.2727 82.9865 31.7438 83.299 32.3594C83.6162 32.9702 83.7725 33.7017 83.7678 34.554V41.5H80.7422V35.0938C80.7469 34.4214 80.5765 33.8982 80.2308 33.5241C79.8899 33.1501 79.4117 32.9631 78.7962 32.9631C78.3842 32.9631 78.0196 33.0507 77.7024 33.2259C77.3899 33.401 77.1437 33.6567 76.9638 33.9929C76.7886 34.3243 76.6986 34.7244 76.6939 35.1932ZM94.1087 41.5L89.9467 26.9545H93.3061L95.7138 37.0611H95.8345L98.4908 26.9545H101.367L104.016 37.0824H104.144L106.552 26.9545H109.911L105.749 41.5H102.752L99.9822 31.9901H99.8686L97.1058 41.5H94.1087ZM115.257 41.7131C114.154 41.7131 113.2 41.4787 112.395 41.0099C111.595 40.5365 110.977 39.8783 110.542 39.0355C110.106 38.188 109.888 37.2055 109.888 36.0881C109.888 34.9612 110.106 33.9763 110.542 33.1335C110.977 32.286 111.595 31.6278 112.395 31.1591C113.2 30.6856 114.154 30.4489 115.257 30.4489C116.361 30.4489 117.312 30.6856 118.113 31.1591C118.917 31.6278 119.538 32.286 119.973 33.1335C120.409 33.9763 120.627 34.9612 120.627 36.0881C120.627 37.2055 120.409 38.188 119.973 39.0355C119.538 39.8783 118.917 40.5365 118.113 41.0099C117.312 41.4787 116.361 41.7131 115.257 41.7131ZM115.272 39.3693C115.774 39.3693 116.193 39.2273 116.529 38.9432C116.865 38.6544 117.118 38.2614 117.289 37.7642C117.464 37.267 117.551 36.7012 117.551 36.0668C117.551 35.4323 117.464 34.8665 117.289 34.3693C117.118 33.8722 116.865 33.4792 116.529 33.1903C116.193 32.9015 115.774 32.7571 115.272 32.7571C114.765 32.7571 114.339 32.9015 113.993 33.1903C113.652 33.4792 113.394 33.8722 113.219 34.3693C113.049 34.8665 112.963 35.4323 112.963 36.0668C112.963 36.7012 113.049 37.267 113.219 37.7642C113.394 38.2614 113.652 38.6544 113.993 38.9432C114.339 39.2273 114.765 39.3693 115.272 39.3693ZM122.594 41.5V30.5909H125.527V32.4943H125.641C125.84 31.8172 126.174 31.3059 126.642 30.9602C127.111 30.6098 127.651 30.4347 128.262 30.4347C128.413 30.4347 128.577 30.4441 128.752 30.4631C128.927 30.482 129.081 30.508 129.213 30.5412V33.2259C129.071 33.1832 128.875 33.1454 128.624 33.1122C128.373 33.0791 128.143 33.0625 127.935 33.0625C127.49 33.0625 127.092 33.1596 126.742 33.3537C126.396 33.5431 126.122 33.8082 125.918 34.1491C125.719 34.4901 125.62 34.883 125.62 35.3281V41.5H122.594ZM133.519 38.3608L133.526 34.7315H133.967L137.461 30.5909H140.934L136.239 36.0739H135.522L133.519 38.3608ZM130.778 41.5V26.9545H133.803V41.5H130.778ZM137.596 41.5L134.386 36.7486L136.403 34.6108L141.14 41.5H137.596Z" fill="#FCFCFC"/>
<rect x="152" y="20" width="29" height="29" rx="10" fill="#FCFCFC"/>
<path d="M166.5 35.5706C166.048 36.2511 165.376 36.7816 164.561 37.0528L162.948 37.5902C162.882 37.6121 162.815 37.6227 162.75 37.6227C162.488 37.6227 162.245 37.4571 162.158 37.1953C162.048 36.8678 162.225 36.5142 162.553 36.4048L164.166 35.8674C165.188 35.5269 165.875 34.574 165.875 33.4961V27.6249C165.875 27.2799 166.155 27 166.5 27C166.846 27 167.125 27.2799 167.125 27.6249V33.4961C167.125 34.574 167.813 35.5269 168.835 35.8674L170.448 36.4048C170.775 36.5142 170.952 36.8678 170.843 37.1953C170.755 37.4571 170.512 37.6227 170.25 37.6227C170.185 37.6227 170.119 37.6121 170.053 37.5902L168.44 37.0528C167.625 36.7816 166.952 36.2505 166.5 35.5706ZM165.25 38.2475C164.905 38.2475 164.625 38.5275 164.625 38.8724C164.625 39.5091 164.195 40.0678 163.58 40.2315L161.895 40.6814C161.764 40.7251 161.64 40.7282 161.497 40.747C161.171 40.747 160.849 40.6126 160.614 40.3777C160.379 40.1434 160.25 39.8303 160.25 39.4954C160.25 38.7137 160.339 37.932 160.515 37.1709L161.55 32.6856C161.813 31.5453 162.815 30.7486 163.986 30.7486C164.331 30.7486 164.611 30.4686 164.611 30.1237C164.611 29.7788 164.331 29.4988 163.986 29.4988C162.229 29.4988 160.726 30.6942 160.331 32.4051L159.297 36.8903C159.101 37.7426 159 38.6193 159 39.4954C159 40.164 159.259 40.7914 159.731 41.2619C160.199 41.7293 160.842 41.9967 161.498 41.9967H161.501C161.768 41.9967 162.035 41.953 162.254 41.878L163.901 41.4393C165.063 41.13 165.875 40.0746 165.875 38.8724C165.875 38.5275 165.596 38.2475 165.25 38.2475ZM173.704 36.891L172.669 32.4057C172.274 30.6948 170.771 29.4995 169.014 29.4995C168.669 29.4995 168.389 29.7794 168.389 30.1243C168.389 30.4692 168.669 30.7492 169.014 30.7492C170.185 30.7492 171.187 31.5459 171.45 32.6863L172.485 37.1715C172.661 37.932 172.75 38.7137 172.75 39.4954C172.75 39.8297 172.621 40.1434 172.386 40.3777C172.151 40.612 171.829 40.747 171.503 40.747C171.343 40.7407 171.236 40.7251 171.069 40.6701L169.42 40.2315C168.805 40.0678 168.375 39.5085 168.375 38.8724C168.375 38.5275 168.095 38.2475 167.75 38.2475C167.404 38.2475 167.125 38.5275 167.125 38.8724C167.125 40.0746 167.937 41.13 169.098 41.4393L170.709 41.8674C170.967 41.9536 171.254 42.0136 171.502 41.9973C172.158 41.9973 172.801 41.7299 173.269 41.2625C173.741 40.792 174 40.1646 174 39.496C174 38.62 173.901 37.7433 173.704 36.891Z" fill="#7BC4D0"/>
<path d="M20.8608 71V62.2727H24.2017C24.8324 62.2727 25.3565 62.3722 25.7741 62.571C26.1946 62.767 26.5085 63.0355 26.7159 63.3764C26.9261 63.7173 27.0312 64.1037 27.0312 64.5355C27.0312 64.8906 26.9631 65.1946 26.8267 65.4474C26.6903 65.6974 26.5071 65.9006 26.277 66.0568C26.0469 66.2131 25.7898 66.3253 25.5057 66.3935V66.4787C25.8153 66.4957 26.1122 66.5909 26.3963 66.7642C26.6832 66.9347 26.9176 67.1761 27.0994 67.4886C27.2813 67.8011 27.3722 68.179 27.3722 68.6222C27.3722 69.0739 27.2628 69.4801 27.044 69.8409C26.8253 70.1989 26.4957 70.4815 26.0554 70.6889C25.6151 70.8963 25.0611 71 24.3935 71H20.8608ZM22.4418 69.679H24.142C24.7159 69.679 25.1293 69.5696 25.3821 69.3509C25.6378 69.1293 25.7656 68.8452 25.7656 68.4986C25.7656 68.2401 25.7017 68.0071 25.5739 67.7997C25.446 67.5895 25.2642 67.4247 25.0284 67.3054C24.7926 67.1832 24.5114 67.1222 24.1847 67.1222H22.4418V69.679ZM22.4418 65.9844H24.0057C24.2784 65.9844 24.5241 65.9347 24.7429 65.8352C24.9616 65.733 25.1335 65.5895 25.2585 65.4048C25.3864 65.2173 25.4503 64.9957 25.4503 64.7401C25.4503 64.402 25.331 64.1236 25.0923 63.9048C24.8565 63.6861 24.5057 63.5767 24.0398 63.5767H22.4418V65.9844ZM28.6793 71V64.4545H30.1751V65.5455H30.2433C30.3626 65.1676 30.5671 64.8764 30.8569 64.6719C31.1495 64.4645 31.4833 64.3608 31.8583 64.3608C31.9435 64.3608 32.0387 64.3651 32.1438 64.3736C32.2518 64.3793 32.3413 64.3892 32.4123 64.4034V65.8224C32.3469 65.7997 32.2433 65.7798 32.1012 65.7628C31.962 65.7429 31.8271 65.733 31.6964 65.733C31.4151 65.733 31.1623 65.794 30.9379 65.9162C30.7163 66.0355 30.5415 66.2017 30.4137 66.4148C30.2859 66.6278 30.2219 66.8736 30.2219 67.152V71H28.6793ZM36.0653 71.1278C35.4091 71.1278 34.8423 70.9915 34.3651 70.7188C33.8906 70.4432 33.5256 70.054 33.2699 69.5511C33.0142 69.0455 32.8864 68.4503 32.8864 67.7656C32.8864 67.0923 33.0142 66.5014 33.2699 65.9929C33.5284 65.4815 33.8892 65.0838 34.3523 64.7997C34.8153 64.5128 35.3594 64.3693 35.9844 64.3693C36.3878 64.3693 36.7685 64.4347 37.1264 64.5653C37.4872 64.6932 37.8054 64.892 38.081 65.1619C38.3594 65.4318 38.5781 65.7756 38.7372 66.1932C38.8963 66.608 38.9759 67.1023 38.9759 67.6761V68.1491H33.6108V67.1094H37.4972C37.4943 66.8139 37.4304 66.5511 37.3054 66.321C37.1804 66.0881 37.0057 65.9048 36.7812 65.7713C36.5597 65.6378 36.3011 65.571 36.0057 65.571C35.6903 65.571 35.4134 65.6477 35.1747 65.8011C34.9361 65.9517 34.75 66.1506 34.6165 66.3977C34.4858 66.642 34.419 66.9105 34.4162 67.2031V68.1108C34.4162 68.4915 34.4858 68.8182 34.625 69.0909C34.7642 69.3608 34.9588 69.5682 35.2088 69.7131C35.4588 69.8551 35.7514 69.9261 36.0866 69.9261C36.3111 69.9261 36.5142 69.8949 36.696 69.8324C36.8778 69.767 37.0355 69.6719 37.169 69.5469C37.3026 69.4219 37.4034 69.267 37.4716 69.0824L38.9119 69.2443C38.821 69.625 38.6477 69.9574 38.392 70.2415C38.1392 70.5227 37.8153 70.7415 37.4205 70.8977C37.0256 71.0511 36.5739 71.1278 36.0653 71.1278ZM42.1644 71.1321C41.7496 71.1321 41.3761 71.0582 41.0437 70.9105C40.7141 70.7599 40.4528 70.5384 40.2596 70.2457C40.0692 69.9531 39.9741 69.5923 39.9741 69.1634C39.9741 68.794 40.0423 68.4886 40.1786 68.2472C40.315 68.0057 40.5011 67.8125 40.7369 67.6676C40.9727 67.5227 41.2383 67.4134 41.5337 67.3395C41.832 67.2628 42.1403 67.2074 42.4585 67.1733C42.842 67.1335 43.1531 67.098 43.3917 67.0668C43.6303 67.0327 43.8036 66.9815 43.9116 66.9134C44.0224 66.8423 44.0778 66.733 44.0778 66.5852V66.5597C44.0778 66.2386 43.9826 65.9901 43.7923 65.8139C43.6019 65.6378 43.3278 65.5497 42.9698 65.5497C42.592 65.5497 42.2923 65.6321 42.0707 65.7969C41.8519 65.9616 41.7042 66.1562 41.6275 66.3807L40.1871 66.1761C40.3008 65.7784 40.4883 65.446 40.7496 65.179C41.011 64.9091 41.3306 64.7074 41.7085 64.5739C42.0863 64.4375 42.5039 64.3693 42.9613 64.3693C43.2766 64.3693 43.5906 64.4062 43.9031 64.4801C44.2156 64.554 44.5011 64.6761 44.7596 64.8466C45.0181 65.0142 45.2255 65.2429 45.3817 65.5327C45.5408 65.8224 45.6204 66.1847 45.6204 66.6193V71H44.1374V70.1009H44.0863C43.9925 70.2827 43.8604 70.4531 43.69 70.6122C43.5224 70.7685 43.3107 70.8949 43.055 70.9915C42.8022 71.0852 42.5053 71.1321 42.1644 71.1321ZM42.565 69.9986C42.8746 69.9986 43.1431 69.9375 43.3704 69.8153C43.5977 69.6903 43.7724 69.5256 43.8945 69.321C44.0195 69.1165 44.082 68.8935 44.082 68.652V67.8807C44.0337 67.9205 43.9513 67.9574 43.8349 67.9915C43.7212 68.0256 43.5934 68.0554 43.4513 68.081C43.3093 68.1065 43.1687 68.1293 43.0295 68.1491C42.8903 68.169 42.7695 68.1861 42.6673 68.2003C42.4371 68.2315 42.2312 68.2827 42.0494 68.3537C41.8675 68.4247 41.7241 68.5241 41.619 68.652C41.5138 68.777 41.4613 68.9389 41.4613 69.1378C41.4613 69.4219 41.565 69.6364 41.7724 69.7812C41.9798 69.9261 42.244 69.9986 42.565 69.9986ZM50.44 64.4545V65.6477H46.6772V64.4545H50.44ZM47.6062 62.8864H49.1488V69.0312C49.1488 69.2386 49.18 69.3977 49.2425 69.5085C49.3079 69.6165 49.3931 69.6903 49.4982 69.7301C49.6033 69.7699 49.7198 69.7898 49.8477 69.7898C49.9442 69.7898 50.0323 69.7827 50.1119 69.7685C50.1942 69.7543 50.2567 69.7415 50.2994 69.7301L50.5593 70.9361C50.4769 70.9645 50.359 70.9957 50.2056 71.0298C50.055 71.0639 49.8704 71.0838 49.6516 71.0895C49.2653 71.1009 48.9173 71.0426 48.6076 70.9148C48.2979 70.7841 48.0522 70.5824 47.8704 70.3097C47.6914 70.0369 47.6033 69.696 47.6062 69.2869V62.8864ZM53.4134 67.1648V71H51.8707V62.2727H53.3793V65.5668H53.456C53.6094 65.1974 53.8466 64.9062 54.1676 64.6932C54.4915 64.4773 54.9034 64.3693 55.4034 64.3693C55.858 64.3693 56.2543 64.4645 56.5923 64.6548C56.9304 64.8452 57.1918 65.1236 57.3764 65.4901C57.5639 65.8565 57.6577 66.304 57.6577 66.8324V71H56.1151V67.071C56.1151 66.6307 56.0014 66.2884 55.7741 66.044C55.5497 65.7969 55.2344 65.6733 54.8281 65.6733C54.5554 65.6733 54.3111 65.733 54.0952 65.8523C53.8821 65.9687 53.7145 66.1378 53.5923 66.3594C53.473 66.581 53.4134 66.8494 53.4134 67.1648ZM64.1115 71L61.6484 62.2727H63.3487L64.9212 68.6861H65.0021L66.6811 62.2727H68.228L69.9112 68.6903H69.9879L71.5604 62.2727H73.2607L70.7976 71H69.2379L67.4908 64.8764H67.4226L65.6712 71H64.1115ZM76.4759 71.1278C75.8366 71.1278 75.2827 70.9872 74.8139 70.706C74.3452 70.4247 73.9815 70.0312 73.723 69.5256C73.4673 69.0199 73.3395 68.429 73.3395 67.7528C73.3395 67.0767 73.4673 66.4844 73.723 65.9759C73.9815 65.4673 74.3452 65.0724 74.8139 64.7912C75.2827 64.5099 75.8366 64.3693 76.4759 64.3693C77.1151 64.3693 77.669 64.5099 78.1378 64.7912C78.6065 65.0724 78.9688 65.4673 79.2244 65.9759C79.483 66.4844 79.6122 67.0767 79.6122 67.7528C79.6122 68.429 79.483 69.0199 79.2244 69.5256C78.9688 70.0312 78.6065 70.4247 78.1378 70.706C77.669 70.9872 77.1151 71.1278 76.4759 71.1278ZM76.4844 69.892C76.831 69.892 77.1207 69.7969 77.3537 69.6065C77.5866 69.4134 77.7599 69.1548 77.8736 68.831C77.9901 68.5071 78.0483 68.1463 78.0483 67.7486C78.0483 67.348 77.9901 66.9858 77.8736 66.6619C77.7599 66.3352 77.5866 66.0753 77.3537 65.8821C77.1207 65.6889 76.831 65.5923 76.4844 65.5923C76.1293 65.5923 75.8338 65.6889 75.598 65.8821C75.3651 66.0753 75.1903 66.3352 75.0739 66.6619C74.9602 66.9858 74.9034 67.348 74.9034 67.7486C74.9034 68.1463 74.9602 68.5071 75.0739 68.831C75.1903 69.1548 75.3651 69.4134 75.598 69.6065C75.8338 69.7969 76.1293 69.892 76.4844 69.892ZM80.9215 71V64.4545H82.4173V65.5455H82.4854C82.6048 65.1676 82.8093 64.8764 83.0991 64.6719C83.3917 64.4645 83.7255 64.3608 84.1005 64.3608C84.1857 64.3608 84.2809 64.3651 84.386 64.3736C84.494 64.3793 84.5835 64.3892 84.6545 64.4034V65.8224C84.5891 65.7997 84.4854 65.7798 84.3434 65.7628C84.2042 65.7429 84.0692 65.733 83.9386 65.733C83.6573 65.733 83.4045 65.794 83.18 65.9162C82.9585 66.0355 82.7837 66.2017 82.6559 66.4148C82.5281 66.6278 82.4641 66.8736 82.4641 67.152V71H80.9215ZM87.0856 68.946L87.0813 67.0838H87.3285L89.6808 64.4545H91.4833L88.5898 67.6761H88.2702L87.0856 68.946ZM85.6793 71V62.2727H87.2219V71H85.6793ZM89.7873 71L87.6566 68.0213L88.6964 66.9347L91.6325 71H89.7873ZM95.4879 71V64.4545H97.0305V71H95.4879ZM96.2635 63.5256C96.0192 63.5256 95.8089 63.4446 95.6328 63.2827C95.4567 63.1179 95.3686 62.9205 95.3686 62.6903C95.3686 62.4574 95.4567 62.2599 95.6328 62.098C95.8089 61.9332 96.0192 61.8509 96.2635 61.8509C96.5107 61.8509 96.7209 61.9332 96.8942 62.098C97.0703 62.2599 97.1584 62.4574 97.1584 62.6903C97.1584 62.9205 97.0703 63.1179 96.8942 63.2827C96.7209 63.4446 96.5107 63.5256 96.2635 63.5256ZM103.79 66.1847L102.384 66.3381C102.344 66.196 102.275 66.0625 102.175 65.9375C102.078 65.8125 101.948 65.7116 101.783 65.6349C101.618 65.5582 101.417 65.5199 101.178 65.5199C100.857 65.5199 100.587 65.5895 100.368 65.7287C100.152 65.8679 100.046 66.0483 100.049 66.2699C100.046 66.4602 100.115 66.6151 100.257 66.7344C100.402 66.8537 100.641 66.9517 100.973 67.0284L102.09 67.267C102.709 67.4006 103.169 67.6122 103.471 67.902C103.775 68.1918 103.928 68.571 103.931 69.0398C103.928 69.4517 103.807 69.8153 103.569 70.1307C103.333 70.4432 103.005 70.6875 102.584 70.8636C102.164 71.0398 101.681 71.1278 101.135 71.1278C100.334 71.1278 99.6893 70.9602 99.2006 70.625C98.712 70.2869 98.4208 69.8168 98.3271 69.2145L99.8313 69.0696C99.8995 69.3651 100.044 69.5881 100.266 69.7386C100.488 69.8892 100.776 69.9645 101.131 69.9645C101.498 69.9645 101.792 69.8892 102.013 69.7386C102.238 69.5881 102.35 69.402 102.35 69.1804C102.35 68.9929 102.277 68.8381 102.132 68.7159C101.99 68.5937 101.769 68.5 101.468 68.4347L100.351 68.2003C99.7234 68.0696 99.2589 67.8494 98.9577 67.5398C98.6566 67.2273 98.5075 66.8324 98.5103 66.3551C98.5075 65.9517 98.6168 65.6023 98.8384 65.3068C99.0629 65.0085 99.3739 64.7784 99.7717 64.6165C100.172 64.4517 100.634 64.3693 101.157 64.3693C101.924 64.3693 102.527 64.5327 102.968 64.8594C103.411 65.1861 103.685 65.6278 103.79 66.1847ZM110.063 71.1321C109.648 71.1321 109.275 71.0582 108.942 70.9105C108.613 70.7599 108.351 70.5384 108.158 70.2457C107.968 69.9531 107.873 69.5923 107.873 69.1634C107.873 68.794 107.941 68.4886 108.077 68.2472C108.213 68.0057 108.4 67.8125 108.635 67.6676C108.871 67.5227 109.137 67.4134 109.432 67.3395C109.73 67.2628 110.039 67.2074 110.357 67.1733C110.74 67.1335 111.051 67.098 111.29 67.0668C111.529 67.0327 111.702 66.9815 111.81 66.9134C111.921 66.8423 111.976 66.733 111.976 66.5852V66.5597C111.976 66.2386 111.881 65.9901 111.691 65.8139C111.5 65.6378 111.226 65.5497 110.868 65.5497C110.49 65.5497 110.191 65.6321 109.969 65.7969C109.75 65.9616 109.603 66.1562 109.526 66.3807L108.086 66.1761C108.199 65.7784 108.387 65.446 108.648 65.179C108.909 64.9091 109.229 64.7074 109.607 64.5739C109.985 64.4375 110.402 64.3693 110.86 64.3693C111.175 64.3693 111.489 64.4062 111.801 64.4801C112.114 64.554 112.4 64.6761 112.658 64.8466C112.917 65.0142 113.124 65.2429 113.28 65.5327C113.439 65.8224 113.519 66.1847 113.519 66.6193V71H112.036V70.1009H111.985C111.891 70.2827 111.759 70.4531 111.588 70.6122C111.421 70.7685 111.209 70.8949 110.953 70.9915C110.701 71.0852 110.404 71.1321 110.063 71.1321ZM110.463 69.9986C110.773 69.9986 111.042 69.9375 111.269 69.8153C111.496 69.6903 111.671 69.5256 111.793 69.321C111.918 69.1165 111.98 68.8935 111.98 68.652V67.8807C111.932 67.9205 111.85 67.9574 111.733 67.9915C111.62 68.0256 111.492 68.0554 111.35 68.081C111.208 68.1065 111.067 68.1293 110.928 68.1491C110.789 68.169 110.668 68.1861 110.566 68.2003C110.336 68.2315 110.13 68.2827 109.948 68.3537C109.766 68.4247 109.623 68.5241 109.517 68.652C109.412 68.777 109.36 68.9389 109.36 69.1378C109.36 69.4219 109.463 69.6364 109.671 69.7812C109.878 69.9261 110.142 69.9986 110.463 69.9986ZM119.453 68.946L119.449 67.0838H119.696L122.048 64.4545H123.85L120.957 67.6761H120.637L119.453 68.946ZM118.047 71V62.2727H119.589V71H118.047ZM122.154 71L120.024 68.0213L121.064 66.9347L124 71H122.154ZM127.507 71.1278C126.85 71.1278 126.284 70.9915 125.806 70.7188C125.332 70.4432 124.967 70.054 124.711 69.5511C124.456 69.0455 124.328 68.4503 124.328 67.7656C124.328 67.0923 124.456 66.5014 124.711 65.9929C124.97 65.4815 125.331 65.0838 125.794 64.7997C126.257 64.5128 126.801 64.3693 127.426 64.3693C127.829 64.3693 128.21 64.4347 128.568 64.5653C128.929 64.6932 129.247 64.892 129.522 65.1619C129.801 65.4318 130.02 65.7756 130.179 66.1932C130.338 66.608 130.417 67.1023 130.417 67.6761V68.1491H125.052V67.1094H128.939C128.936 66.8139 128.872 66.5511 128.747 66.321C128.622 66.0881 128.447 65.9048 128.223 65.7713C128.001 65.6378 127.743 65.571 127.447 65.571C127.132 65.571 126.855 65.6477 126.616 65.8011C126.377 65.9517 126.191 66.1506 126.058 66.3977C125.927 66.642 125.86 66.9105 125.858 67.2031V68.1108C125.858 68.4915 125.927 68.8182 126.066 69.0909C126.206 69.3608 126.4 69.5682 126.65 69.7131C126.9 69.8551 127.193 69.9261 127.528 69.9261C127.752 69.9261 127.956 69.8949 128.137 69.8324C128.319 69.767 128.477 69.6719 128.61 69.5469C128.744 69.4219 128.845 69.267 128.913 69.0824L130.353 69.2443C130.262 69.625 130.089 69.9574 129.833 70.2415C129.581 70.5227 129.257 70.7415 128.862 70.8977C128.467 71.0511 128.015 71.1278 127.507 71.1278ZM132.494 73.4545C132.283 73.4545 132.089 73.4375 131.91 73.4034C131.734 73.3722 131.593 73.3352 131.488 73.2926L131.846 72.0909C132.07 72.1563 132.271 72.1875 132.447 72.1847C132.623 72.1818 132.778 72.1264 132.911 72.0185C133.048 71.9134 133.163 71.7372 133.256 71.4901L133.388 71.1364L131.015 64.4545H132.651L134.16 69.3977H134.228L135.741 64.4545H137.381L134.761 71.7926C134.638 72.1392 134.477 72.4361 134.275 72.6832C134.073 72.9332 133.826 73.1236 133.533 73.2543C133.244 73.3878 132.897 73.4545 132.494 73.4545ZM141.425 73.4545V64.4545H142.942V65.5369H143.032C143.112 65.3778 143.224 65.2088 143.369 65.0298C143.513 64.848 143.71 64.6932 143.957 64.5653C144.204 64.4347 144.519 64.3693 144.903 64.3693C145.408 64.3693 145.864 64.4986 146.271 64.7571C146.68 65.0128 147.004 65.392 147.242 65.8949C147.484 66.3949 147.604 67.0085 147.604 67.7358C147.604 68.4545 147.487 69.0653 147.251 69.5682C147.015 70.071 146.694 70.4545 146.288 70.7188C145.881 70.983 145.421 71.1151 144.907 71.1151C144.532 71.1151 144.221 71.0526 143.974 70.9276C143.727 70.8026 143.528 70.652 143.377 70.4759C143.229 70.2969 143.114 70.1278 143.032 69.9688H142.968V73.4545H141.425ZM142.938 67.7273C142.938 68.1506 142.998 68.5213 143.117 68.8395C143.239 69.1577 143.414 69.4062 143.641 69.5852C143.871 69.7614 144.15 69.8494 144.477 69.8494C144.817 69.8494 145.103 69.7585 145.333 69.5767C145.563 69.392 145.737 69.1406 145.853 68.8224C145.972 68.5014 146.032 68.1364 146.032 67.7273C146.032 67.321 145.974 66.9602 145.857 66.6449C145.741 66.3295 145.567 66.0824 145.337 65.9034C145.107 65.7244 144.82 65.6349 144.477 65.6349C144.147 65.6349 143.867 65.7216 143.637 65.8949C143.407 66.0682 143.232 66.3111 143.113 66.6236C142.996 66.9361 142.938 67.304 142.938 67.7273ZM148.925 71V64.4545H150.468V71H148.925ZM149.701 63.5256C149.457 63.5256 149.246 63.4446 149.07 63.2827C148.894 63.1179 148.806 62.9205 148.806 62.6903C148.806 62.4574 148.894 62.2599 149.07 62.098C149.246 61.9332 149.457 61.8509 149.701 61.8509C149.948 61.8509 150.158 61.9332 150.332 62.098C150.508 62.2599 150.596 62.4574 150.596 62.6903C150.596 62.9205 150.508 63.1179 150.332 63.2827C150.158 63.4446 149.948 63.5256 149.701 63.5256ZM153.597 62.2727V71H152.054V62.2727H153.597ZM156.726 62.2727V71H155.183V62.2727H156.726ZM160.196 71.1321C159.781 71.1321 159.407 71.0582 159.075 70.9105C158.745 70.7599 158.484 70.5384 158.291 70.2457C158.1 69.9531 158.005 69.5923 158.005 69.1634C158.005 68.794 158.074 68.4886 158.21 68.2472C158.346 68.0057 158.532 67.8125 158.768 67.6676C159.004 67.5227 159.27 67.4134 159.565 67.3395C159.863 67.2628 160.172 67.2074 160.49 67.1733C160.873 67.1335 161.184 67.098 161.423 67.0668C161.662 67.0327 161.835 66.9815 161.943 66.9134C162.054 66.8423 162.109 66.733 162.109 66.5852V66.5597C162.109 66.2386 162.014 65.9901 161.824 65.8139C161.633 65.6378 161.359 65.5497 161.001 65.5497C160.623 65.5497 160.324 65.6321 160.102 65.7969C159.883 65.9616 159.735 66.1562 159.659 66.3807L158.218 66.1761C158.332 65.7784 158.52 65.446 158.781 65.179C159.042 64.9091 159.362 64.7074 159.74 64.5739C160.118 64.4375 160.535 64.3693 160.993 64.3693C161.308 64.3693 161.622 64.4062 161.934 64.4801C162.247 64.554 162.532 64.6761 162.791 64.8466C163.049 65.0142 163.257 65.2429 163.413 65.5327C163.572 65.8224 163.652 66.1847 163.652 66.6193V71H162.169V70.1009H162.118C162.024 70.2827 161.892 70.4531 161.721 70.6122C161.554 70.7685 161.342 70.8949 161.086 70.9915C160.833 71.0852 160.537 71.1321 160.196 71.1321ZM160.596 69.9986C160.906 69.9986 161.174 69.9375 161.402 69.8153C161.629 69.6903 161.804 69.5256 161.926 69.321C162.051 69.1165 162.113 68.8935 162.113 68.652V67.8807C162.065 67.9205 161.983 67.9574 161.866 67.9915C161.752 68.0256 161.625 68.0554 161.483 68.081C161.341 68.1065 161.2 68.1293 161.061 68.1491C160.922 68.169 160.801 68.1861 160.699 68.2003C160.468 68.2315 160.262 68.2827 160.081 68.3537C159.899 68.4247 159.755 68.5241 159.65 68.652C159.545 68.777 159.493 68.9389 159.493 69.1378C159.493 69.4219 159.596 69.6364 159.804 69.7812C160.011 69.9261 160.275 69.9986 160.596 69.9986ZM165.203 71V64.4545H166.699V65.5455H166.767C166.886 65.1676 167.091 64.8764 167.38 64.6719C167.673 64.4645 168.007 64.3608 168.382 64.3608C168.467 64.3608 168.562 64.3651 168.667 64.3736C168.775 64.3793 168.865 64.3892 168.936 64.4034V65.8224C168.87 65.7997 168.767 65.7798 168.625 65.7628C168.485 65.7429 168.35 65.733 168.22 65.733C167.939 65.733 167.686 65.794 167.461 65.9162C167.24 66.0355 167.065 66.2017 166.937 66.4148C166.809 66.6278 166.745 66.8736 166.745 67.152V71H165.203ZM175.792 71.1278C175.153 71.1278 174.599 70.9872 174.13 70.706C173.662 70.4247 173.298 70.0312 173.039 69.5256C172.784 69.0199 172.656 68.429 172.656 67.7528C172.656 67.0767 172.784 66.4844 173.039 65.9759C173.298 65.4673 173.662 65.0724 174.13 64.7912C174.599 64.5099 175.153 64.3693 175.792 64.3693C176.431 64.3693 176.985 64.5099 177.454 64.7912C177.923 65.0724 178.285 65.4673 178.541 65.9759C178.799 66.4844 178.929 67.0767 178.929 67.7528C178.929 68.429 178.799 69.0199 178.541 69.5256C178.285 70.0312 177.923 70.4247 177.454 70.706C176.985 70.9872 176.431 71.1278 175.792 71.1278ZM175.801 69.892C176.147 69.892 176.437 69.7969 176.67 69.6065C176.903 69.4134 177.076 69.1548 177.19 68.831C177.306 68.5071 177.365 68.1463 177.365 67.7486C177.365 67.348 177.306 66.9858 177.19 66.6619C177.076 66.3352 176.903 66.0753 176.67 65.8821C176.437 65.6889 176.147 65.5923 175.801 65.5923C175.446 65.5923 175.15 65.6889 174.914 65.8821C174.681 66.0753 174.507 66.3352 174.39 66.6619C174.277 66.9858 174.22 67.348 174.22 67.7486C174.22 68.1463 174.277 68.5071 174.39 68.831C174.507 69.1548 174.681 69.4134 174.914 69.6065C175.15 69.7969 175.446 69.892 175.801 69.892ZM183.553 64.4545V65.6477H179.684V64.4545H183.553ZM180.651 71V63.8366C180.651 63.3963 180.742 63.0298 180.924 62.7372C181.109 62.4446 181.356 62.2259 181.665 62.081C181.975 61.9361 182.319 61.8636 182.697 61.8636C182.964 61.8636 183.201 61.8849 183.408 61.9276C183.616 61.9702 183.769 62.0085 183.869 62.0426L183.562 63.2358C183.496 63.2159 183.414 63.196 183.315 63.1761C183.215 63.1534 183.104 63.142 182.982 63.142C182.695 63.142 182.492 63.2116 182.373 63.3509C182.256 63.4872 182.198 63.6832 182.198 63.9389V71H180.651ZM187.806 71V62.2727H189.349V65.5369H189.413C189.492 65.3778 189.604 65.2088 189.749 65.0298C189.894 64.848 190.09 64.6932 190.337 64.5653C190.585 64.4347 190.9 64.3693 191.283 64.3693C191.789 64.3693 192.245 64.4986 192.651 64.7571C193.06 65.0128 193.384 65.392 193.623 65.8949C193.864 66.3949 193.985 67.0085 193.985 67.7358C193.985 68.4545 193.867 69.0653 193.631 69.5682C193.396 70.071 193.075 70.4545 192.668 70.7188C192.262 70.983 191.802 71.1151 191.288 71.1151C190.913 71.1151 190.602 71.0526 190.354 70.9276C190.107 70.8026 189.908 70.652 189.758 70.4759C189.61 70.2969 189.495 70.1278 189.413 69.9688H189.323V71H187.806ZM189.319 67.7273C189.319 68.1506 189.379 68.5213 189.498 68.8395C189.62 69.1577 189.795 69.4062 190.022 69.5852C190.252 69.7614 190.531 69.8494 190.857 69.8494C191.198 69.8494 191.484 69.7585 191.714 69.5767C191.944 69.392 192.117 69.1406 192.234 68.8224C192.353 68.5014 192.413 68.1364 192.413 67.7273C192.413 67.321 192.354 66.9602 192.238 66.6449C192.121 66.3295 191.948 66.0824 191.718 65.9034C191.488 65.7244 191.201 65.6349 190.857 65.6349C190.528 65.6349 190.248 65.7216 190.018 65.8949C189.788 66.0682 189.613 66.3111 189.494 66.6236C189.377 66.9361 189.319 67.304 189.319 67.7273ZM198.194 71.1278C197.538 71.1278 196.971 70.9915 196.494 70.7188C196.02 70.4432 195.654 70.054 195.399 69.5511C195.143 69.0455 195.015 68.4503 195.015 67.7656C195.015 67.0923 195.143 66.5014 195.399 65.9929C195.657 65.4815 196.018 65.0838 196.481 64.7997C196.944 64.5128 197.488 64.3693 198.113 64.3693C198.517 64.3693 198.897 64.4347 199.255 64.5653C199.616 64.6932 199.934 64.892 200.21 65.1619C200.488 65.4318 200.707 65.7756 200.866 66.1932C201.025 66.608 201.105 67.1023 201.105 67.6761V68.1491H195.74V67.1094H199.626C199.623 66.8139 199.559 66.5511 199.434 66.321C199.309 66.0881 199.135 65.9048 198.91 65.7713C198.689 65.6378 198.43 65.571 198.135 65.571C197.819 65.571 197.542 65.6477 197.304 65.8011C197.065 65.9517 196.879 66.1506 196.745 66.3977C196.615 66.642 196.548 66.9105 196.545 67.2031V68.1108C196.545 68.4915 196.615 68.8182 196.754 69.0909C196.893 69.3608 197.088 69.5682 197.338 69.7131C197.588 69.8551 197.88 69.9261 198.216 69.9261C198.44 69.9261 198.643 69.8949 198.825 69.8324C199.007 69.767 199.164 69.6719 199.298 69.5469C199.431 69.4219 199.532 69.267 199.6 69.0824L201.041 69.2443C200.95 69.625 200.777 69.9574 200.521 70.2415C200.268 70.5227 199.944 70.7415 199.549 70.8977C199.154 71.0511 198.703 71.1278 198.194 71.1278ZM202.41 71V64.4545H203.952V71H202.41ZM203.185 63.5256C202.941 63.5256 202.731 63.4446 202.555 63.2827C202.379 63.1179 202.29 62.9205 202.29 62.6903C202.29 62.4574 202.379 62.2599 202.555 62.098C202.731 61.9332 202.941 61.8509 203.185 61.8509C203.433 61.8509 203.643 61.9332 203.816 62.098C203.992 62.2599 204.08 62.4574 204.08 62.6903C204.08 62.9205 203.992 63.1179 203.816 63.2827C203.643 63.4446 203.433 63.5256 203.185 63.5256ZM207.081 67.1648V71H205.539V64.4545H207.013V65.5668H207.09C207.24 65.2003 207.48 64.9091 207.81 64.6932C208.142 64.4773 208.553 64.3693 209.042 64.3693C209.493 64.3693 209.887 64.4659 210.222 64.6591C210.56 64.8523 210.821 65.1321 211.006 65.4986C211.194 65.8651 211.286 66.3097 211.283 66.8324V71H209.74V67.071C209.74 66.6335 209.627 66.2912 209.4 66.044C209.175 65.7969 208.864 65.6733 208.466 65.6733C208.196 65.6733 207.956 65.733 207.746 65.8523C207.539 65.9687 207.375 66.1378 207.256 66.3594C207.14 66.581 207.081 66.8494 207.081 67.1648ZM215.698 73.5909C215.144 73.5909 214.668 73.5156 214.27 73.3651C213.873 73.2173 213.553 73.0185 213.311 72.7685C213.07 72.5185 212.902 72.2415 212.809 71.9375L214.198 71.6009C214.26 71.7287 214.351 71.8551 214.471 71.9801C214.59 72.108 214.75 72.2131 214.952 72.2955C215.157 72.3807 215.414 72.4233 215.723 72.4233C216.161 72.4233 216.523 72.3168 216.81 72.1037C217.097 71.8935 217.24 71.5469 217.24 71.0639V69.8239H217.164C217.084 69.983 216.968 70.1463 216.814 70.3139C216.664 70.4815 216.463 70.6222 216.213 70.7358C215.966 70.8494 215.655 70.9062 215.28 70.9062C214.777 70.9062 214.321 70.7884 213.912 70.5526C213.506 70.3139 213.182 69.9588 212.941 69.4872C212.702 69.0128 212.583 68.419 212.583 67.706C212.583 66.9872 212.702 66.3807 212.941 65.8864C213.182 65.3892 213.507 65.0128 213.917 64.7571C214.326 64.4986 214.782 64.3693 215.284 64.3693C215.668 64.3693 215.983 64.4347 216.23 64.5653C216.48 64.6932 216.679 64.848 216.827 65.0298C216.975 65.2088 217.087 65.3778 217.164 65.5369H217.249V64.4545H218.77V71.1065C218.77 71.6662 218.637 72.1293 218.37 72.4957C218.103 72.8622 217.738 73.1364 217.275 73.3182C216.811 73.5 216.286 73.5909 215.698 73.5909ZM215.711 69.696C216.037 69.696 216.316 69.6165 216.546 69.4574C216.776 69.2983 216.951 69.0696 217.07 68.7713C217.189 68.473 217.249 68.1151 217.249 67.6974C217.249 67.2855 217.189 66.9247 217.07 66.6151C216.953 66.3054 216.78 66.0653 216.55 65.8949C216.323 65.7216 216.043 65.6349 215.711 65.6349C215.367 65.6349 215.08 65.7244 214.85 65.9034C214.62 66.0824 214.446 66.3281 214.33 66.6406C214.213 66.9503 214.155 67.3026 214.155 67.6974C214.155 68.098 214.213 68.4489 214.33 68.75C214.449 69.0483 214.624 69.2812 214.854 69.4489C215.087 69.6136 215.373 69.696 215.711 69.696ZM223.328 71V64.4545H224.802V65.5668H224.879C225.015 65.1918 225.241 64.8991 225.556 64.6889C225.872 64.4759 226.248 64.3693 226.686 64.3693C227.129 64.3693 227.502 64.4773 227.806 64.6932C228.113 64.9062 228.329 65.1974 228.454 65.5668H228.522C228.667 65.2031 228.912 64.9134 229.255 64.6974C229.602 64.4787 230.012 64.3693 230.487 64.3693C231.089 64.3693 231.581 64.5597 231.961 64.9403C232.342 65.321 232.532 65.8764 232.532 66.6065V71H230.985V66.8452C230.985 66.4389 230.877 66.142 230.662 65.9545C230.446 65.7642 230.181 65.669 229.869 65.669C229.497 65.669 229.206 65.7855 228.995 66.0185C228.788 66.2486 228.684 66.5483 228.684 66.9176V71H227.172V66.7812C227.172 66.4432 227.069 66.1733 226.865 65.9716C226.663 65.7699 226.399 65.669 226.072 65.669C225.85 65.669 225.649 65.7259 225.467 65.8395C225.285 65.9503 225.14 66.108 225.032 66.3125C224.924 66.5142 224.87 66.75 224.87 67.0199V71H223.328ZM236.952 71.1278C236.313 71.1278 235.759 70.9872 235.29 70.706C234.822 70.4247 234.458 70.0312 234.2 69.5256C233.944 69.0199 233.816 68.429 233.816 67.7528C233.816 67.0767 233.944 66.4844 234.2 65.9759C234.458 65.4673 234.822 65.0724 235.29 64.7912C235.759 64.5099 236.313 64.3693 236.952 64.3693C237.592 64.3693 238.146 64.5099 238.614 64.7912C239.083 65.0724 239.445 65.4673 239.701 65.9759C239.96 66.4844 240.089 67.0767 240.089 67.7528C240.089 68.429 239.96 69.0199 239.701 69.5256C239.445 70.0312 239.083 70.4247 238.614 70.706C238.146 70.9872 237.592 71.1278 236.952 71.1278ZM236.961 69.892C237.308 69.892 237.597 69.7969 237.83 69.6065C238.063 69.4134 238.237 69.1548 238.35 68.831C238.467 68.5071 238.525 68.1463 238.525 67.7486C238.525 67.348 238.467 66.9858 238.35 66.6619C238.237 66.3352 238.063 66.0753 237.83 65.8821C237.597 65.6889 237.308 65.5923 236.961 65.5923C236.606 65.5923 236.31 65.6889 236.075 65.8821C235.842 66.0753 235.667 66.3352 235.55 66.6619C235.437 66.9858 235.38 67.348 235.38 67.7486C235.38 68.1463 235.437 68.5071 235.55 68.831C235.667 69.1548 235.842 69.4134 236.075 69.6065C236.31 69.7969 236.606 69.892 236.961 69.892ZM241.398 71V64.4545H242.894V65.5455H242.962C243.081 65.1676 243.286 64.8764 243.576 64.6719C243.868 64.4645 244.202 64.3608 244.577 64.3608C244.662 64.3608 244.757 64.3651 244.863 64.3736C244.971 64.3793 245.06 64.3892 245.131 64.4034V65.8224C245.066 65.7997 244.962 65.7798 244.82 65.7628C244.681 65.7429 244.546 65.733 244.415 65.733C244.134 65.733 243.881 65.794 243.657 65.9162C243.435 66.0355 243.26 66.2017 243.132 66.4148C243.005 66.6278 242.941 66.8736 242.941 67.152V71H241.398ZM248.784 71.1278C248.128 71.1278 247.561 70.9915 247.084 70.7188C246.609 70.4432 246.244 70.054 245.989 69.5511C245.733 69.0455 245.605 68.4503 245.605 67.7656C245.605 67.0923 245.733 66.5014 245.989 65.9929C246.247 65.4815 246.608 65.0838 247.071 64.7997C247.534 64.5128 248.078 64.3693 248.703 64.3693C249.107 64.3693 249.487 64.4347 249.845 64.5653C250.206 64.6932 250.524 64.892 250.8 65.1619C251.078 65.4318 251.297 65.7756 251.456 66.1932C251.615 66.608 251.695 67.1023 251.695 67.6761V68.1491H246.33V67.1094H250.216C250.213 66.8139 250.149 66.5511 250.024 66.321C249.899 66.0881 249.724 65.9048 249.5 65.7713C249.278 65.6378 249.02 65.571 248.724 65.571C248.409 65.571 248.132 65.6477 247.893 65.8011C247.655 65.9517 247.469 66.1506 247.335 66.3977C247.205 66.642 247.138 66.9105 247.135 67.2031V68.1108C247.135 68.4915 247.205 68.8182 247.344 69.0909C247.483 69.3608 247.678 69.5682 247.928 69.7131C248.178 69.8551 248.47 69.9261 248.805 69.9261C249.03 69.9261 249.233 69.8949 249.415 69.8324C249.597 69.767 249.754 69.6719 249.888 69.5469C250.021 69.4219 250.122 69.267 250.19 69.0824L251.631 69.2443C251.54 69.625 251.366 69.9574 251.111 70.2415C250.858 70.5227 250.534 70.7415 250.139 70.8977C249.744 71.0511 249.293 71.1278 248.784 71.1278ZM20.7926 86V79.4545H22.267V80.5668H22.3438C22.4801 80.1918 22.706 79.8991 23.0213 79.6889C23.3366 79.4759 23.7131 79.3693 24.1506 79.3693C24.5938 79.3693 24.9673 79.4773 25.2713 79.6932C25.5781 79.9062 25.794 80.1974 25.919 80.5668H25.9872C26.1321 80.2031 26.3764 79.9134 26.7202 79.6974C27.0668 79.4787 27.4773 79.3693 27.9517 79.3693C28.554 79.3693 29.0455 79.5597 29.4261 79.9403C29.8068 80.321 29.9972 80.8764 29.9972 81.6065V86H28.4503V81.8452C28.4503 81.4389 28.3423 81.142 28.1264 80.9545C27.9105 80.7642 27.6463 80.669 27.3338 80.669C26.9616 80.669 26.6705 80.7855 26.4602 81.0185C26.2528 81.2486 26.1491 81.5483 26.1491 81.9176V86H24.6364V81.7812C24.6364 81.4432 24.5341 81.1733 24.3295 80.9716C24.1278 80.7699 23.8636 80.669 23.5369 80.669C23.3153 80.669 23.1136 80.7259 22.9318 80.8395C22.75 80.9503 22.6051 81.108 22.4972 81.3125C22.3892 81.5142 22.3352 81.75 22.3352 82.0199V86H20.7926ZM31.5621 86V79.4545H33.1048V86H31.5621ZM32.3377 78.5256C32.0934 78.5256 31.8832 78.4446 31.707 78.2827C31.5309 78.1179 31.4428 77.9205 31.4428 77.6903C31.4428 77.4574 31.5309 77.2599 31.707 77.098C31.8832 76.9332 32.0934 76.8509 32.3377 76.8509C32.5849 76.8509 32.7951 76.9332 32.9684 77.098C33.1445 77.2599 33.2326 77.4574 33.2326 77.6903C33.2326 77.9205 33.1445 78.1179 32.9684 78.2827C32.7951 78.4446 32.5849 78.5256 32.3377 78.5256ZM36.2337 82.1648V86H34.6911V79.4545H36.1655V80.5668H36.2422C36.3928 80.2003 36.6328 79.9091 36.9624 79.6932C37.2947 79.4773 37.7053 79.3693 38.1939 79.3693C38.6456 79.3693 39.0391 79.4659 39.3743 79.6591C39.7124 79.8523 39.9737 80.1321 40.1584 80.4986C40.3459 80.8651 40.4382 81.3097 40.4354 81.8324V86H38.8928V82.071C38.8928 81.6335 38.7791 81.2912 38.5518 81.044C38.3274 80.7969 38.0163 80.6733 37.6186 80.6733C37.3487 80.6733 37.1087 80.733 36.8984 80.8523C36.6911 80.9687 36.5277 81.1378 36.4084 81.3594C36.2919 81.581 36.2337 81.8494 36.2337 82.1648ZM44.4325 86.1151C43.9183 86.1151 43.4581 85.983 43.0518 85.7188C42.6456 85.4545 42.3246 85.071 42.0888 84.5682C41.853 84.0653 41.7351 83.4545 41.7351 82.7358C41.7351 82.0085 41.8544 81.3949 42.093 80.8949C42.3345 80.392 42.6598 80.0128 43.0689 79.7571C43.478 79.4986 43.9339 79.3693 44.4368 79.3693C44.8203 79.3693 45.1357 79.4347 45.3828 79.5653C45.63 79.6932 45.826 79.848 45.9709 80.0298C46.1158 80.2088 46.228 80.3778 46.3075 80.5369H46.3714V77.2727H47.9183V86H46.4013V84.9688H46.3075C46.228 85.1278 46.1129 85.2969 45.9624 85.4759C45.8118 85.652 45.6129 85.8026 45.3658 85.9276C45.1186 86.0526 44.8075 86.1151 44.4325 86.1151ZM44.8629 84.8494C45.1896 84.8494 45.468 84.7614 45.6982 84.5852C45.9283 84.4062 46.103 84.1577 46.2223 83.8395C46.3416 83.5213 46.4013 83.1506 46.4013 82.7273C46.4013 82.304 46.3416 81.9361 46.2223 81.6236C46.1058 81.3111 45.9325 81.0682 45.7024 80.8949C45.4751 80.7216 45.1953 80.6349 44.8629 80.6349C44.5192 80.6349 44.2322 80.7244 44.0021 80.9034C43.772 81.0824 43.5987 81.3295 43.4822 81.6449C43.3658 81.9602 43.3075 82.321 43.3075 82.7273C43.3075 83.1364 43.3658 83.5014 43.4822 83.8224C43.6016 84.1406 43.7763 84.392 44.0064 84.5767C44.2393 84.7585 44.5249 84.8494 44.8629 84.8494ZM52.8775 79.4545V80.6477H49.0082V79.4545H52.8775ZM49.9755 86V78.8366C49.9755 78.3963 50.0664 78.0298 50.2482 77.7372C50.4329 77.4446 50.68 77.2259 50.9897 77.081C51.2994 76.9361 51.6431 76.8636 52.021 76.8636C52.288 76.8636 52.5252 76.8849 52.7326 76.9276C52.94 76.9702 53.0934 77.0085 53.1928 77.0426L52.886 78.2358C52.8207 78.2159 52.7383 78.196 52.6388 78.1761C52.5394 78.1534 52.4286 78.142 52.3065 78.142C52.0195 78.142 51.8164 78.2116 51.6971 78.3509C51.5806 78.4872 51.5224 78.6832 51.5224 78.9389V86H49.9755ZM58.2575 83.2472V79.4545H59.8001V86H58.3043V84.8366H58.2362C58.0884 85.2031 57.8455 85.5028 57.5075 85.7358C57.1722 85.9687 56.7589 86.0852 56.2674 86.0852C55.8384 86.0852 55.4592 85.9901 55.1296 85.7997C54.8029 85.6065 54.5472 85.3267 54.3626 84.9602C54.1779 84.5909 54.0856 84.1449 54.0856 83.6222V79.4545H55.6282V83.3835C55.6282 83.7983 55.7418 84.1278 55.9691 84.3722C56.1964 84.6165 56.4947 84.7386 56.864 84.7386C57.0913 84.7386 57.3114 84.6832 57.5245 84.5724C57.7376 84.4616 57.9123 84.2969 58.0487 84.0781C58.1879 83.8565 58.2575 83.5795 58.2575 83.2472ZM62.929 77.2727V86H61.3864V77.2727H62.929ZM67.4918 86V79.4545H69.0344V86H67.4918ZM68.2674 78.5256C68.0231 78.5256 67.8129 78.4446 67.6367 78.2827C67.4606 78.1179 67.3725 77.9205 67.3725 77.6903C67.3725 77.4574 67.4606 77.2599 67.6367 77.098C67.8129 76.9332 68.0231 76.8509 68.2674 76.8509C68.5146 76.8509 68.7248 76.9332 68.8981 77.098C69.0742 77.2599 69.1623 77.4574 69.1623 77.6903C69.1623 77.9205 69.0742 78.1179 68.8981 78.2827C68.7248 78.4446 68.5146 78.5256 68.2674 78.5256ZM72.1634 82.1648V86H70.6207V79.4545H72.0952V80.5668H72.1719C72.3224 80.2003 72.5625 79.9091 72.892 79.6932C73.2244 79.4773 73.6349 79.3693 74.1236 79.3693C74.5753 79.3693 74.9688 79.4659 75.304 79.6591C75.642 79.8523 75.9034 80.1321 76.0881 80.4986C76.2756 80.8651 76.3679 81.3097 76.3651 81.8324V86H74.8224V82.071C74.8224 81.6335 74.7088 81.2912 74.4815 81.044C74.2571 80.7969 73.946 80.6733 73.5483 80.6733C73.2784 80.6733 73.0384 80.733 72.8281 80.8523C72.6207 80.9687 72.4574 81.1378 72.3381 81.3594C72.2216 81.581 72.1634 81.8494 72.1634 82.1648ZM83.7649 86.1278C83.1257 86.1278 82.5717 85.9872 82.103 85.706C81.6342 85.4247 81.2706 85.0312 81.0121 84.5256C80.7564 84.0199 80.6286 83.429 80.6286 82.7528C80.6286 82.0767 80.7564 81.4844 81.0121 80.9759C81.2706 80.4673 81.6342 80.0724 82.103 79.7912C82.5717 79.5099 83.1257 79.3693 83.7649 79.3693C84.4041 79.3693 84.9581 79.5099 85.4268 79.7912C85.8956 80.0724 86.2578 80.4673 86.5135 80.9759C86.772 81.4844 86.9013 82.0767 86.9013 82.7528C86.9013 83.429 86.772 84.0199 86.5135 84.5256C86.2578 85.0312 85.8956 85.4247 85.4268 85.706C84.9581 85.9872 84.4041 86.1278 83.7649 86.1278ZM83.7734 84.892C84.12 84.892 84.4098 84.7969 84.6428 84.6065C84.8757 84.4134 85.049 84.1548 85.1626 83.831C85.2791 83.5071 85.3374 83.1463 85.3374 82.7486C85.3374 82.348 85.2791 81.9858 85.1626 81.6619C85.049 81.3352 84.8757 81.0753 84.6428 80.8821C84.4098 80.6889 84.12 80.5923 83.7734 80.5923C83.4183 80.5923 83.1229 80.6889 82.8871 80.8821C82.6541 81.0753 82.4794 81.3352 82.3629 81.6619C82.2493 81.9858 82.1925 82.348 82.1925 82.7486C82.1925 83.1463 82.2493 83.5071 82.3629 83.831C82.4794 84.1548 82.6541 84.4134 82.8871 84.6065C83.1229 84.7969 83.4183 84.892 83.7734 84.892ZM92.3825 83.2472V79.4545H93.9251V86H92.4293V84.8366H92.3612C92.2134 85.2031 91.9705 85.5028 91.6325 85.7358C91.2972 85.9687 90.8839 86.0852 90.3924 86.0852C89.9634 86.0852 89.5842 85.9901 89.2546 85.7997C88.9279 85.6065 88.6722 85.3267 88.4876 84.9602C88.3029 84.5909 88.2106 84.1449 88.2106 83.6222V79.4545H89.7532V83.3835C89.7532 83.7983 89.8668 84.1278 90.0941 84.3722C90.3214 84.6165 90.6197 84.7386 90.989 84.7386C91.2163 84.7386 91.4364 84.6832 91.6495 84.5724C91.8626 84.4616 92.0373 84.2969 92.1737 84.0781C92.3129 83.8565 92.3825 83.5795 92.3825 83.2472ZM98.7798 79.4545V80.6477H95.017V79.4545H98.7798ZM95.946 77.8864H97.4886V84.0312C97.4886 84.2386 97.5199 84.3977 97.5824 84.5085C97.6477 84.6165 97.733 84.6903 97.8381 84.7301C97.9432 84.7699 98.0597 84.7898 98.1875 84.7898C98.2841 84.7898 98.3722 84.7827 98.4517 84.7685C98.5341 84.7543 98.5966 84.7415 98.6392 84.7301L98.8991 85.9361C98.8168 85.9645 98.6989 85.9957 98.5455 86.0298C98.3949 86.0639 98.2102 86.0838 97.9915 86.0895C97.6051 86.1009 97.2571 86.0426 96.9474 85.9148C96.6378 85.7841 96.392 85.5824 96.2102 85.3097C96.0313 85.0369 95.9432 84.696 95.946 84.2869V77.8864ZM105.475 86.1151C104.961 86.1151 104.501 85.983 104.095 85.7188C103.689 85.4545 103.368 85.071 103.132 84.5682C102.896 84.0653 102.778 83.4545 102.778 82.7358C102.778 82.0085 102.897 81.3949 103.136 80.8949C103.377 80.392 103.703 80.0128 104.112 79.7571C104.521 79.4986 104.977 79.3693 105.48 79.3693C105.863 79.3693 106.179 79.4347 106.426 79.5653C106.673 79.6932 106.869 79.848 107.014 80.0298C107.159 80.2088 107.271 80.3778 107.35 80.5369H107.414V77.2727H108.961V86H107.444V84.9688H107.35C107.271 85.1278 107.156 85.2969 107.005 85.4759C106.855 85.652 106.656 85.8026 106.409 85.9276C106.162 86.0526 105.85 86.1151 105.475 86.1151ZM105.906 84.8494C106.233 84.8494 106.511 84.7614 106.741 84.5852C106.971 84.4062 107.146 84.1577 107.265 83.8395C107.385 83.5213 107.444 83.1506 107.444 82.7273C107.444 82.304 107.385 81.9361 107.265 81.6236C107.149 81.3111 106.975 81.0682 106.745 80.8949C106.518 80.7216 106.238 80.6349 105.906 80.6349C105.562 80.6349 105.275 80.7244 105.045 80.9034C104.815 81.0824 104.642 81.3295 104.525 81.6449C104.409 81.9602 104.35 82.321 104.35 82.7273C104.35 83.1364 104.409 83.5014 104.525 83.8224C104.645 84.1406 104.819 84.392 105.049 84.5767C105.282 84.7585 105.568 84.8494 105.906 84.8494ZM112.489 86.1321C112.074 86.1321 111.7 86.0582 111.368 85.9105C111.038 85.7599 110.777 85.5384 110.584 85.2457C110.393 84.9531 110.298 84.5923 110.298 84.1634C110.298 83.794 110.366 83.4886 110.503 83.2472C110.639 83.0057 110.825 82.8125 111.061 82.6676C111.297 82.5227 111.563 82.4134 111.858 82.3395C112.156 82.2628 112.464 82.2074 112.783 82.1733C113.166 82.1335 113.477 82.098 113.716 82.0668C113.955 82.0327 114.128 81.9815 114.236 81.9134C114.347 81.8423 114.402 81.733 114.402 81.5852V81.5597C114.402 81.2386 114.307 80.9901 114.116 80.8139C113.926 80.6378 113.652 80.5497 113.294 80.5497C112.916 80.5497 112.616 80.6321 112.395 80.7969C112.176 80.9616 112.028 81.1562 111.952 81.3807L110.511 81.1761C110.625 80.7784 110.813 80.446 111.074 80.179C111.335 79.9091 111.655 79.7074 112.033 79.5739C112.411 79.4375 112.828 79.3693 113.286 79.3693C113.601 79.3693 113.915 79.4062 114.227 79.4801C114.54 79.554 114.825 79.6761 115.084 79.8466C115.342 80.0142 115.55 80.2429 115.706 80.5327C115.865 80.8224 115.945 81.1847 115.945 81.6193V86H114.462V85.1009H114.411C114.317 85.2827 114.185 85.4531 114.014 85.6122C113.847 85.7685 113.635 85.8949 113.379 85.9915C113.126 86.0852 112.83 86.1321 112.489 86.1321ZM112.889 84.9986C113.199 84.9986 113.467 84.9375 113.695 84.8153C113.922 84.6903 114.097 84.5256 114.219 84.321C114.344 84.1165 114.406 83.8935 114.406 83.652V82.8807C114.358 82.9205 114.276 82.9574 114.159 82.9915C114.045 83.0256 113.918 83.0554 113.776 83.081C113.634 83.1065 113.493 83.1293 113.354 83.1491C113.214 83.169 113.094 83.1861 112.991 83.2003C112.761 83.2315 112.555 83.2827 112.374 83.3537C112.192 83.4247 112.048 83.5241 111.943 83.652C111.838 83.777 111.786 83.9389 111.786 84.1378C111.786 84.4219 111.889 84.6364 112.097 84.7812C112.304 84.9261 112.568 84.9986 112.889 84.9986ZM118.22 88.4545C118.01 88.4545 117.815 88.4375 117.636 88.4034C117.46 88.3722 117.32 88.3352 117.214 88.2926L117.572 87.0909C117.797 87.1563 117.997 87.1875 118.173 87.1847C118.349 87.1818 118.504 87.1264 118.638 87.0185C118.774 86.9134 118.889 86.7372 118.983 86.4901L119.115 86.1364L116.741 79.4545H118.378L119.886 84.3977H119.955L121.467 79.4545H123.108L120.487 86.7926C120.365 87.1392 120.203 87.4361 120.001 87.6832C119.8 87.9332 119.553 88.1236 119.26 88.2543C118.97 88.3878 118.624 88.4545 118.22 88.4545ZM130.42 79.4545V80.6477H126.658V79.4545H130.42ZM127.587 77.8864H129.129V84.0312C129.129 84.2386 129.161 84.3977 129.223 84.5085C129.288 84.6165 129.374 84.6903 129.479 84.7301C129.584 84.7699 129.7 84.7898 129.828 84.7898C129.925 84.7898 130.013 84.7827 130.092 84.7685C130.175 84.7543 130.237 84.7415 130.28 84.7301L130.54 85.9361C130.457 85.9645 130.339 85.9957 130.186 86.0298C130.036 86.0639 129.851 86.0838 129.632 86.0895C129.246 86.1009 128.898 86.0426 128.588 85.9148C128.278 85.7841 128.033 85.5824 127.851 85.3097C127.672 85.0369 127.584 84.696 127.587 84.2869V77.8864ZM134.495 86.1278C133.856 86.1278 133.302 85.9872 132.833 85.706C132.365 85.4247 132.001 85.0312 131.743 84.5256C131.487 84.0199 131.359 83.429 131.359 82.7528C131.359 82.0767 131.487 81.4844 131.743 80.9759C132.001 80.4673 132.365 80.0724 132.833 79.7912C133.302 79.5099 133.856 79.3693 134.495 79.3693C135.135 79.3693 135.689 79.5099 136.157 79.7912C136.626 80.0724 136.988 80.4673 137.244 80.9759C137.502 81.4844 137.632 82.0767 137.632 82.7528C137.632 83.429 137.502 84.0199 137.244 84.5256C136.988 85.0312 136.626 85.4247 136.157 85.706C135.689 85.9872 135.135 86.1278 134.495 86.1278ZM134.504 84.892C134.85 84.892 135.14 84.7969 135.373 84.6065C135.606 84.4134 135.779 84.1548 135.893 83.831C136.01 83.5071 136.068 83.1463 136.068 82.7486C136.068 82.348 136.01 81.9858 135.893 81.6619C135.779 81.3352 135.606 81.0753 135.373 80.8821C135.14 80.6889 134.85 80.5923 134.504 80.5923C134.149 80.5923 133.853 80.6889 133.618 80.8821C133.385 81.0753 133.21 81.3352 133.093 81.6619C132.98 81.9858 132.923 82.348 132.923 82.7486C132.923 83.1463 132.98 83.5071 133.093 83.831C133.21 84.1548 133.385 84.4134 133.618 84.6065C133.853 84.7969 134.149 84.892 134.504 84.892ZM144.347 86.1151C143.832 86.1151 143.372 85.983 142.966 85.7188C142.56 85.4545 142.239 85.071 142.003 84.5682C141.767 84.0653 141.649 83.4545 141.649 82.7358C141.649 82.0085 141.768 81.3949 142.007 80.8949C142.249 80.392 142.574 80.0128 142.983 79.7571C143.392 79.4986 143.848 79.3693 144.351 79.3693C144.734 79.3693 145.05 79.4347 145.297 79.5653C145.544 79.6932 145.74 79.848 145.885 80.0298C146.03 80.2088 146.142 80.3778 146.222 80.5369H146.286V77.2727H147.832V86H146.315V84.9688H146.222C146.142 85.1278 146.027 85.2969 145.876 85.4759C145.726 85.652 145.527 85.8026 145.28 85.9276C145.033 86.0526 144.722 86.1151 144.347 86.1151ZM144.777 84.8494C145.104 84.8494 145.382 84.7614 145.612 84.5852C145.842 84.4062 146.017 84.1577 146.136 83.8395C146.256 83.5213 146.315 83.1506 146.315 82.7273C146.315 82.304 146.256 81.9361 146.136 81.6236C146.02 81.3111 145.847 81.0682 145.616 80.8949C145.389 80.7216 145.109 80.6349 144.777 80.6349C144.433 80.6349 144.146 80.7244 143.916 80.9034C143.686 81.0824 143.513 81.3295 143.396 81.6449C143.28 81.9602 143.222 82.321 143.222 82.7273C143.222 83.1364 143.28 83.5014 143.396 83.8224C143.516 84.1406 143.69 84.392 143.92 84.5767C144.153 84.7585 144.439 84.8494 144.777 84.8494ZM151.36 86.1321C150.945 86.1321 150.571 86.0582 150.239 85.9105C149.909 85.7599 149.648 85.5384 149.455 85.2457C149.265 84.9531 149.169 84.5923 149.169 84.1634C149.169 83.794 149.238 83.4886 149.374 83.2472C149.51 83.0057 149.696 82.8125 149.932 82.6676C150.168 82.5227 150.434 82.4134 150.729 82.3395C151.027 82.2628 151.336 82.2074 151.654 82.1733C152.037 82.1335 152.348 82.098 152.587 82.0668C152.826 82.0327 152.999 81.9815 153.107 81.9134C153.218 81.8423 153.273 81.733 153.273 81.5852V81.5597C153.273 81.2386 153.178 80.9901 152.988 80.8139C152.797 80.6378 152.523 80.5497 152.165 80.5497C151.787 80.5497 151.488 80.6321 151.266 80.7969C151.047 80.9616 150.9 81.1562 150.823 81.3807L149.382 81.1761C149.496 80.7784 149.684 80.446 149.945 80.179C150.206 79.9091 150.526 79.7074 150.904 79.5739C151.282 79.4375 151.699 79.3693 152.157 79.3693C152.472 79.3693 152.786 79.4062 153.098 79.4801C153.411 79.554 153.696 79.6761 153.955 79.8466C154.213 80.0142 154.421 80.2429 154.577 80.5327C154.736 80.8224 154.816 81.1847 154.816 81.6193V86H153.333V85.1009H153.282C153.188 85.2827 153.056 85.4531 152.885 85.6122C152.718 85.7685 152.506 85.8949 152.25 85.9915C151.998 86.0852 151.701 86.1321 151.36 86.1321ZM151.76 84.9986C152.07 84.9986 152.338 84.9375 152.566 84.8153C152.793 84.6903 152.968 84.5256 153.09 84.321C153.215 84.1165 153.277 83.8935 153.277 83.652V82.8807C153.229 82.9205 153.147 82.9574 153.03 82.9915C152.917 83.0256 152.789 83.0554 152.647 83.081C152.505 83.1065 152.364 83.1293 152.225 83.1491C152.086 83.169 151.965 83.1861 151.863 83.2003C151.632 83.2315 151.426 83.2827 151.245 83.3537C151.063 83.4247 150.919 83.5241 150.814 83.652C150.709 83.777 150.657 83.9389 150.657 84.1378C150.657 84.4219 150.76 84.6364 150.968 84.7812C151.175 84.9261 151.439 84.9986 151.76 84.9986ZM157.091 88.4545C156.881 88.4545 156.686 88.4375 156.507 88.4034C156.331 88.3722 156.191 88.3352 156.086 88.2926L156.444 87.0909C156.668 87.1563 156.868 87.1875 157.044 87.1847C157.221 87.1818 157.375 87.1264 157.509 87.0185C157.645 86.9134 157.76 86.7372 157.854 86.4901L157.986 86.1364L155.613 79.4545H157.249L158.757 84.3977H158.826L160.338 79.4545H161.979L159.358 86.7926C159.236 87.1392 159.074 87.4361 158.873 87.6832C158.671 87.9332 158.424 88.1236 158.131 88.2543C157.841 88.3878 157.495 88.4545 157.091 88.4545ZM164.447 84.8068L164.392 85.2756C164.352 85.6335 164.281 85.9972 164.179 86.3665C164.08 86.7386 163.974 87.081 163.864 87.3935C163.753 87.706 163.663 87.9517 163.595 88.1307H162.555C162.595 87.9574 162.649 87.7216 162.717 87.4233C162.788 87.125 162.857 86.7898 162.922 86.4176C162.987 86.0455 163.031 85.6676 163.054 85.2841L163.084 84.8068H164.447ZM170.425 82.1648V86H168.882V77.2727H170.391V80.5668H170.468C170.621 80.1974 170.858 79.9062 171.179 79.6932C171.503 79.4773 171.915 79.3693 172.415 79.3693C172.87 79.3693 173.266 79.4645 173.604 79.6548C173.942 79.8452 174.203 80.1236 174.388 80.4901C174.576 80.8565 174.669 81.304 174.669 81.8324V86H173.127V82.071C173.127 81.6307 173.013 81.2884 172.786 81.044C172.561 80.7969 172.246 80.6733 171.84 80.6733C171.567 80.6733 171.323 80.733 171.107 80.8523C170.894 80.9687 170.726 81.1378 170.604 81.3594C170.485 81.581 170.425 81.8494 170.425 82.1648ZM179.14 86.1278C178.483 86.1278 177.917 85.9915 177.439 85.7188C176.965 85.4432 176.6 85.054 176.344 84.5511C176.088 84.0455 175.961 83.4503 175.961 82.7656C175.961 82.0923 176.088 81.5014 176.344 80.9929C176.603 80.4815 176.963 80.0838 177.426 79.7997C177.89 79.5128 178.434 79.3693 179.059 79.3693C179.462 79.3693 179.843 79.4347 180.201 79.5653C180.561 79.6932 180.88 79.892 181.155 80.1619C181.434 80.4318 181.652 80.7756 181.811 81.1932C181.971 81.608 182.05 82.1023 182.05 82.6761V83.1491H176.685V82.1094H180.571C180.569 81.8139 180.505 81.5511 180.38 81.321C180.255 81.0881 180.08 80.9048 179.855 80.7713C179.634 80.6378 179.375 80.571 179.08 80.571C178.765 80.571 178.488 80.6477 178.249 80.8011C178.01 80.9517 177.824 81.1506 177.691 81.3977C177.56 81.642 177.493 81.9105 177.49 82.2031V83.1108C177.49 83.4915 177.56 83.8182 177.699 84.0909C177.838 84.3608 178.033 84.5682 178.283 84.7131C178.533 84.8551 178.826 84.9261 179.161 84.9261C179.385 84.9261 179.588 84.8949 179.77 84.8324C179.952 84.767 180.11 84.6719 180.243 84.5469C180.377 84.4219 180.478 84.267 180.546 84.0824L181.986 84.2443C181.895 84.625 181.722 84.9574 181.466 85.2415C181.213 85.5227 180.89 85.7415 180.495 85.8977C180.1 86.0511 179.648 86.1278 179.14 86.1278ZM183.355 86V79.4545H184.851V80.5455H184.919C185.038 80.1676 185.243 79.8764 185.533 79.6719C185.825 79.4645 186.159 79.3608 186.534 79.3608C186.619 79.3608 186.714 79.3651 186.82 79.3736C186.928 79.3793 187.017 79.3892 187.088 79.4034V80.8224C187.023 80.7997 186.919 80.7798 186.777 80.7628C186.638 80.7429 186.503 80.733 186.372 80.733C186.091 80.733 185.838 80.794 185.614 80.9162C185.392 81.0355 185.217 81.2017 185.089 81.4148C184.962 81.6278 184.898 81.8736 184.898 82.152V86H183.355ZM190.741 86.1278C190.085 86.1278 189.518 85.9915 189.041 85.7188C188.566 85.4432 188.201 85.054 187.946 84.5511C187.69 84.0455 187.562 83.4503 187.562 82.7656C187.562 82.0923 187.69 81.5014 187.946 80.9929C188.204 80.4815 188.565 80.0838 189.028 79.7997C189.491 79.5128 190.035 79.3693 190.66 79.3693C191.064 79.3693 191.444 79.4347 191.802 79.5653C192.163 79.6932 192.481 79.892 192.757 80.1619C193.035 80.4318 193.254 80.7756 193.413 81.1932C193.572 81.608 193.652 82.1023 193.652 82.6761V83.1491H188.287V82.1094H192.173C192.17 81.8139 192.106 81.5511 191.981 81.321C191.856 81.0881 191.681 80.9048 191.457 80.7713C191.235 80.6378 190.977 80.571 190.681 80.571C190.366 80.571 190.089 80.6477 189.85 80.8011C189.612 80.9517 189.426 81.1506 189.292 81.3977C189.162 81.642 189.095 81.9105 189.092 82.2031V83.1108C189.092 83.4915 189.162 83.8182 189.301 84.0909C189.44 84.3608 189.635 84.5682 189.885 84.7131C190.135 84.8551 190.427 84.9261 190.762 84.9261C190.987 84.9261 191.19 84.8949 191.372 84.8324C191.554 84.767 191.711 84.6719 191.845 84.5469C191.978 84.4219 192.079 84.267 192.147 84.0824L193.588 84.2443C193.497 84.625 193.324 84.9574 193.068 85.2415C192.815 85.5227 192.491 85.7415 192.096 85.8977C191.701 86.0511 191.25 86.1278 190.741 86.1278ZM198.892 88.4545C198.682 88.4545 198.487 88.4375 198.308 88.4034C198.132 88.3722 197.991 88.3352 197.886 88.2926L198.244 87.0909C198.469 87.1563 198.669 87.1875 198.845 87.1847C199.021 87.1818 199.176 87.1264 199.31 87.0185C199.446 86.9134 199.561 86.7372 199.655 86.4901L199.787 86.1364L197.413 79.4545H199.05L200.558 84.3977H200.626L202.139 79.4545H203.78L201.159 86.7926C201.037 87.1392 200.875 87.4361 200.673 87.6832C200.472 87.9332 200.224 88.1236 199.932 88.2543C199.642 88.3878 199.295 88.4545 198.892 88.4545ZM207.48 86.1278C206.841 86.1278 206.287 85.9872 205.818 85.706C205.349 85.4247 204.985 85.0312 204.727 84.5256C204.471 84.0199 204.343 83.429 204.343 82.7528C204.343 82.0767 204.471 81.4844 204.727 80.9759C204.985 80.4673 205.349 80.0724 205.818 79.7912C206.287 79.5099 206.841 79.3693 207.48 79.3693C208.119 79.3693 208.673 79.5099 209.142 79.7912C209.61 80.0724 209.973 80.4673 210.228 80.9759C210.487 81.4844 210.616 82.0767 210.616 82.7528C210.616 83.429 210.487 84.0199 210.228 84.5256C209.973 85.0312 209.61 85.4247 209.142 85.706C208.673 85.9872 208.119 86.1278 207.48 86.1278ZM207.488 84.892C207.835 84.892 208.125 84.7969 208.358 84.6065C208.591 84.4134 208.764 84.1548 208.877 83.831C208.994 83.5071 209.052 83.1463 209.052 82.7486C209.052 82.348 208.994 81.9858 208.877 81.6619C208.764 81.3352 208.591 81.0753 208.358 80.8821C208.125 80.6889 207.835 80.5923 207.488 80.5923C207.133 80.5923 206.838 80.6889 206.602 80.8821C206.369 81.0753 206.194 81.3352 206.078 81.6619C205.964 81.9858 205.907 82.348 205.907 82.7486C205.907 83.1463 205.964 83.5071 206.078 83.831C206.194 84.1548 206.369 84.4134 206.602 84.6065C206.838 84.7969 207.133 84.892 207.488 84.892ZM216.097 83.2472V79.4545H217.64V86H216.144V84.8366H216.076C215.928 85.2031 215.685 85.5028 215.347 85.7358C215.012 85.9687 214.599 86.0852 214.107 86.0852C213.678 86.0852 213.299 85.9901 212.969 85.7997C212.643 85.6065 212.387 85.3267 212.202 84.9602C212.018 84.5909 211.925 84.1449 211.925 83.6222V79.4545H213.468V83.3835C213.468 83.7983 213.582 84.1278 213.809 84.3722C214.036 84.6165 214.335 84.7386 214.704 84.7386C214.931 84.7386 215.151 84.6832 215.364 84.5724C215.577 84.4616 215.752 84.2969 215.888 84.0781C216.028 83.8565 216.097 83.5795 216.097 83.2472ZM225.058 86.1278C224.404 86.1278 223.843 85.9844 223.375 85.6974C222.909 85.4105 222.549 85.0142 222.297 84.5085C222.047 84 221.922 83.4148 221.922 82.7528C221.922 82.0881 222.049 81.5014 222.305 80.9929C222.561 80.4815 222.922 80.0838 223.387 79.7997C223.856 79.5128 224.41 79.3693 225.049 79.3693C225.581 79.3693 226.051 79.4673 226.46 79.6634C226.872 79.8565 227.2 80.1307 227.444 80.4858C227.689 80.8381 227.828 81.25 227.862 81.7216H226.387C226.328 81.4062 226.186 81.1435 225.961 80.9332C225.74 80.7202 225.443 80.6136 225.071 80.6136C224.755 80.6136 224.478 80.6989 224.24 80.8693C224.001 81.0369 223.815 81.2784 223.681 81.5938C223.551 81.9091 223.485 82.2869 223.485 82.7273C223.485 83.1733 223.551 83.5568 223.681 83.8778C223.812 84.196 223.995 84.4418 224.231 84.6151C224.47 84.7855 224.75 84.8707 225.071 84.8707C225.298 84.8707 225.501 84.8281 225.68 84.7429C225.862 84.6548 226.014 84.5284 226.136 84.3636C226.258 84.1989 226.342 83.9986 226.387 83.7628H227.862C227.825 84.2259 227.689 84.6364 227.453 84.9943C227.217 85.3494 226.896 85.6278 226.49 85.8295C226.083 86.0284 225.606 86.1278 225.058 86.1278ZM231.012 86.1321C230.597 86.1321 230.224 86.0582 229.891 85.9105C229.562 85.7599 229.3 85.5384 229.107 85.2457C228.917 84.9531 228.822 84.5923 228.822 84.1634C228.822 83.794 228.89 83.4886 229.026 83.2472C229.163 83.0057 229.349 82.8125 229.585 82.6676C229.82 82.5227 230.086 82.4134 230.381 82.3395C230.68 82.2628 230.988 82.2074 231.306 82.1733C231.69 82.1335 232.001 82.098 232.239 82.0668C232.478 82.0327 232.651 81.9815 232.759 81.9134C232.87 81.8423 232.925 81.733 232.925 81.5852V81.5597C232.925 81.2386 232.83 80.9901 232.64 80.8139C232.45 80.6378 232.175 80.5497 231.817 80.5497C231.44 80.5497 231.14 80.6321 230.918 80.7969C230.7 80.9616 230.552 81.1562 230.475 81.3807L229.035 81.1761C229.148 80.7784 229.336 80.446 229.597 80.179C229.859 79.9091 230.178 79.7074 230.556 79.5739C230.934 79.4375 231.352 79.3693 231.809 79.3693C232.124 79.3693 232.438 79.4062 232.751 79.4801C233.063 79.554 233.349 79.6761 233.607 79.8466C233.866 80.0142 234.073 80.2429 234.229 80.5327C234.388 80.8224 234.468 81.1847 234.468 81.6193V86H232.985V85.1009H232.934C232.84 85.2827 232.708 85.4531 232.538 85.6122C232.37 85.7685 232.158 85.8949 231.903 85.9915C231.65 86.0852 231.353 86.1321 231.012 86.1321ZM231.413 84.9986C231.722 84.9986 231.991 84.9375 232.218 84.8153C232.445 84.6903 232.62 84.5256 232.742 84.321C232.867 84.1165 232.93 83.8935 232.93 83.652V82.8807C232.881 82.9205 232.799 82.9574 232.683 82.9915C232.569 83.0256 232.441 83.0554 232.299 83.081C232.157 83.1065 232.016 83.1293 231.877 83.1491C231.738 83.169 231.617 83.1861 231.515 83.2003C231.285 83.2315 231.079 83.2827 230.897 83.3537C230.715 83.4247 230.572 83.5241 230.467 83.652C230.362 83.777 230.309 83.9389 230.309 84.1378C230.309 84.4219 230.413 84.6364 230.62 84.7812C230.827 84.9261 231.092 84.9986 231.413 84.9986ZM237.562 82.1648V86H236.019V79.4545H237.494V80.5668H237.57C237.721 80.2003 237.961 79.9091 238.29 79.6932C238.623 79.4773 239.033 79.3693 239.522 79.3693C239.974 79.3693 240.367 79.4659 240.702 79.6591C241.04 79.8523 241.302 80.1321 241.487 80.4986C241.674 80.8651 241.766 81.3097 241.763 81.8324V86H240.221V82.071C240.221 81.6335 240.107 81.2912 239.88 81.044C239.656 80.7969 239.344 80.6733 238.947 80.6733C238.677 80.6733 238.437 80.733 238.227 80.8523C238.019 80.9687 237.856 81.1378 237.737 81.3594C237.62 81.581 237.562 81.8494 237.562 82.1648ZM251.482 81.1847L250.075 81.3381C250.036 81.196 249.966 81.0625 249.866 80.9375C249.77 80.8125 249.639 80.7116 249.474 80.6349C249.31 80.5582 249.108 80.5199 248.869 80.5199C248.548 80.5199 248.278 80.5895 248.06 80.7287C247.844 80.8679 247.737 81.0483 247.74 81.2699C247.737 81.4602 247.807 81.6151 247.949 81.7344C248.094 81.8537 248.332 81.9517 248.665 82.0284L249.781 82.267C250.401 82.4006 250.861 82.6122 251.162 82.902C251.466 83.1918 251.619 83.571 251.622 84.0398C251.619 84.4517 251.499 84.8153 251.26 85.1307C251.024 85.4432 250.696 85.6875 250.276 85.8636C249.855 86.0398 249.372 86.1278 248.827 86.1278C248.026 86.1278 247.381 85.9602 246.892 85.625C246.403 85.2869 246.112 84.8168 246.018 84.2145L247.523 84.0696C247.591 84.3651 247.736 84.5881 247.957 84.7386C248.179 84.8892 248.467 84.9645 248.822 84.9645C249.189 84.9645 249.483 84.8892 249.705 84.7386C249.929 84.5881 250.041 84.402 250.041 84.1804C250.041 83.9929 249.969 83.8381 249.824 83.7159C249.682 83.5937 249.46 83.5 249.159 83.4347L248.043 83.2003C247.415 83.0696 246.95 82.8494 246.649 82.5398C246.348 82.2273 246.199 81.8324 246.202 81.3551C246.199 80.9517 246.308 80.6023 246.53 80.3068C246.754 80.0085 247.065 79.7784 247.463 79.6165C247.864 79.4517 248.325 79.3693 248.848 79.3693C249.615 79.3693 250.219 79.5327 250.659 79.8594C251.102 80.1861 251.376 80.6278 251.482 81.1847ZM255.792 86.1278C255.136 86.1278 254.569 85.9915 254.092 85.7188C253.617 85.4432 253.252 85.054 252.996 84.5511C252.741 84.0455 252.613 83.4503 252.613 82.7656C252.613 82.0923 252.741 81.5014 252.996 80.9929C253.255 80.4815 253.616 80.0838 254.079 79.7997C254.542 79.5128 255.086 79.3693 255.711 79.3693C256.114 79.3693 256.495 79.4347 256.853 79.5653C257.214 79.6932 257.532 79.892 257.808 80.1619C258.086 80.4318 258.305 80.7756 258.464 81.1932C258.623 81.608 258.702 82.1023 258.702 82.6761V83.1491H253.337V82.1094H257.224C257.221 81.8139 257.157 81.5511 257.032 81.321C256.907 81.0881 256.732 80.9048 256.508 80.7713C256.286 80.6378 256.028 80.571 255.732 80.571C255.417 80.571 255.14 80.6477 254.901 80.8011C254.663 80.9517 254.477 81.1506 254.343 81.3977C254.212 81.642 254.146 81.9105 254.143 82.2031V83.1108C254.143 83.4915 254.212 83.8182 254.352 84.0909C254.491 84.3608 254.685 84.5682 254.935 84.7131C255.185 84.8551 255.478 84.9261 255.813 84.9261C256.038 84.9261 256.241 84.8949 256.423 84.8324C256.604 84.767 256.762 84.6719 256.896 84.5469C257.029 84.4219 257.13 84.267 257.198 84.0824L258.638 84.2443C258.548 84.625 258.374 84.9574 258.119 85.2415C257.866 85.5227 257.542 85.7415 257.147 85.8977C256.752 86.0511 256.3 86.1278 255.792 86.1278ZM262.905 86.1278C262.249 86.1278 261.682 85.9915 261.205 85.7188C260.73 85.4432 260.365 85.054 260.11 84.5511C259.854 84.0455 259.726 83.4503 259.726 82.7656C259.726 82.0923 259.854 81.5014 260.11 80.9929C260.368 80.4815 260.729 80.0838 261.192 79.7997C261.655 79.5128 262.199 79.3693 262.824 79.3693C263.228 79.3693 263.608 79.4347 263.966 79.5653C264.327 79.6932 264.645 79.892 264.921 80.1619C265.199 80.4318 265.418 80.7756 265.577 81.1932C265.736 81.608 265.816 82.1023 265.816 82.6761V83.1491H260.451V82.1094H264.337C264.334 81.8139 264.27 81.5511 264.145 81.321C264.02 81.0881 263.846 80.9048 263.621 80.7713C263.4 80.6378 263.141 80.571 262.846 80.571C262.53 80.571 262.253 80.6477 262.015 80.8011C261.776 80.9517 261.59 81.1506 261.456 81.3977C261.326 81.642 261.259 81.9105 261.256 82.2031V83.1108C261.256 83.4915 261.326 83.8182 261.465 84.0909C261.604 84.3608 261.799 84.5682 262.049 84.7131C262.299 84.8551 262.591 84.9261 262.926 84.9261C263.151 84.9261 263.354 84.8949 263.536 84.8324C263.718 84.767 263.875 84.6719 264.009 84.5469C264.142 84.4219 264.243 84.267 264.311 84.0824L265.752 84.2443C265.661 84.625 265.488 84.9574 265.232 85.2415C264.979 85.5227 264.655 85.7415 264.26 85.8977C263.865 86.0511 263.414 86.1278 262.905 86.1278ZM21.7514 103.455C21.5412 103.455 21.3466 103.438 21.1676 103.403C20.9915 103.372 20.8509 103.335 20.7457 103.293L21.1037 102.091C21.3281 102.156 21.5284 102.188 21.7045 102.185C21.8807 102.182 22.0355 102.126 22.169 102.018C22.3054 101.913 22.4205 101.737 22.5142 101.49L22.6463 101.136L20.2727 94.4545H21.9091L23.4176 99.3977H23.4858L24.9986 94.4545H26.6392L24.0185 101.793C23.8963 102.139 23.7344 102.436 23.5327 102.683C23.331 102.933 23.0838 103.124 22.7912 103.254C22.5014 103.388 22.1548 103.455 21.7514 103.455ZM30.3391 101.128C29.6999 101.128 29.146 100.987 28.6772 100.706C28.2085 100.425 27.8448 100.031 27.5863 99.5256C27.3306 99.0199 27.2028 98.429 27.2028 97.7528C27.2028 97.0767 27.3306 96.4844 27.5863 95.9759C27.8448 95.4673 28.2085 95.0724 28.6772 94.7912C29.146 94.5099 29.6999 94.3693 30.3391 94.3693C30.9783 94.3693 31.5323 94.5099 32.0011 94.7912C32.4698 95.0724 32.832 95.4673 33.0877 95.9759C33.3462 96.4844 33.4755 97.0767 33.4755 97.7528C33.4755 98.429 33.3462 99.0199 33.0877 99.5256C32.832 100.031 32.4698 100.425 32.0011 100.706C31.5323 100.987 30.9783 101.128 30.3391 101.128ZM30.3477 99.892C30.6942 99.892 30.984 99.7969 31.217 99.6065C31.4499 99.4134 31.6232 99.1548 31.7369 98.831C31.8533 98.5071 31.9116 98.1463 31.9116 97.7486C31.9116 97.348 31.8533 96.9858 31.7369 96.6619C31.6232 96.3352 31.4499 96.0753 31.217 95.8821C30.984 95.6889 30.6942 95.5923 30.3477 95.5923C29.9925 95.5923 29.6971 95.6889 29.4613 95.8821C29.2283 96.0753 29.0536 96.3352 28.9371 96.6619C28.8235 96.9858 28.7667 97.348 28.7667 97.7486C28.7667 98.1463 28.8235 98.5071 28.9371 98.831C29.0536 99.1548 29.2283 99.4134 29.4613 99.6065C29.6971 99.7969 29.9925 99.892 30.3477 99.892ZM38.9567 98.2472V94.4545H40.4993V101H39.0036V99.8366H38.9354C38.7876 100.203 38.5447 100.503 38.2067 100.736C37.8714 100.969 37.4581 101.085 36.9666 101.085C36.5376 101.085 36.1584 100.99 35.8288 100.8C35.5021 100.607 35.2464 100.327 35.0618 99.9602C34.8771 99.5909 34.7848 99.1449 34.7848 98.6222V94.4545H36.3274V98.3835C36.3274 98.7983 36.4411 99.1278 36.6683 99.3722C36.8956 99.6165 37.1939 99.7386 37.5632 99.7386C37.7905 99.7386 38.0107 99.6832 38.2237 99.5724C38.4368 99.4616 38.6115 99.2969 38.7479 99.0781C38.8871 98.8565 38.9567 98.5795 38.9567 98.2472ZM42.0856 101V94.4545H43.5813V95.5455H43.6495C43.7688 95.1676 43.9734 94.8764 44.2631 94.6719C44.5558 94.4645 44.8896 94.3608 45.2646 94.3608C45.3498 94.3608 45.445 94.3651 45.5501 94.3736C45.658 94.3793 45.7475 94.3892 45.8185 94.4034V95.8224C45.7532 95.7997 45.6495 95.7798 45.5075 95.7628C45.3683 95.7429 45.2333 95.733 45.1026 95.733C44.8214 95.733 44.5685 95.794 44.3441 95.9162C44.1225 96.0355 43.9478 96.2017 43.82 96.4148C43.6921 96.6278 43.6282 96.8736 43.6282 97.152V101H42.0856ZM54.9933 96.1847L53.587 96.3381C53.5472 96.196 53.4776 96.0625 53.3782 95.9375C53.2816 95.8125 53.1509 95.7116 52.9862 95.6349C52.8214 95.5582 52.6197 95.5199 52.381 95.5199C52.06 95.5199 51.7901 95.5895 51.5714 95.7287C51.3555 95.8679 51.2489 96.0483 51.2518 96.2699C51.2489 96.4602 51.3185 96.6151 51.4606 96.7344C51.6055 96.8537 51.8441 96.9517 52.1765 97.0284L53.293 97.267C53.9123 97.4006 54.3725 97.6122 54.6737 97.902C54.9776 98.1918 55.131 98.571 55.1339 99.0398C55.131 99.4517 55.0103 99.8153 54.7717 100.131C54.5359 100.443 54.2077 100.687 53.7873 100.864C53.3668 101.04 52.8839 101.128 52.3384 101.128C51.5373 101.128 50.8924 100.96 50.4038 100.625C49.9151 100.287 49.6239 99.8168 49.5302 99.2145L51.0344 99.0696C51.1026 99.3651 51.2475 99.5881 51.4691 99.7386C51.6907 99.8892 51.979 99.9645 52.3342 99.9645C52.7006 99.9645 52.9947 99.8892 53.2163 99.7386C53.4407 99.5881 53.5529 99.402 53.5529 99.1804C53.5529 98.9929 53.4805 98.8381 53.3356 98.7159C53.1935 98.5937 52.9719 98.5 52.6708 98.4347L51.5543 98.2003C50.9265 98.0696 50.462 97.8494 50.1609 97.5398C49.8597 97.2273 49.7106 96.8324 49.7134 96.3551C49.7106 95.9517 49.82 95.6023 50.0415 95.3068C50.266 95.0085 50.5771 94.7784 50.9748 94.6165C51.3754 94.4517 51.837 94.3693 52.3597 94.3693C53.1268 94.3693 53.7305 94.5327 54.1708 94.8594C54.614 95.1861 54.8881 95.6278 54.9933 96.1847ZM59.6744 94.4545V95.6477H55.9116V94.4545H59.6744ZM56.8406 92.8864H58.3832V99.0312C58.3832 99.2386 58.4144 99.3977 58.4769 99.5085C58.5423 99.6165 58.6275 99.6903 58.7326 99.7301C58.8377 99.7699 58.9542 99.7898 59.082 99.7898C59.1786 99.7898 59.2667 99.7827 59.3462 99.7685C59.4286 99.7543 59.4911 99.7415 59.5337 99.7301L59.7937 100.936C59.7113 100.964 59.5934 100.996 59.44 101.03C59.2894 101.064 59.1048 101.084 58.886 101.089C58.4996 101.101 58.1516 101.043 57.842 100.915C57.5323 100.784 57.2866 100.582 57.1048 100.31C56.9258 100.037 56.8377 99.696 56.8406 99.2869V92.8864ZM62.848 101.132C62.4332 101.132 62.0597 101.058 61.7273 100.911C61.3977 100.76 61.1364 100.538 60.9432 100.246C60.7528 99.9531 60.6577 99.5923 60.6577 99.1634C60.6577 98.794 60.7259 98.4886 60.8622 98.2472C60.9986 98.0057 61.1847 97.8125 61.4205 97.6676C61.6563 97.5227 61.9219 97.4134 62.2173 97.3395C62.5156 97.2628 62.8239 97.2074 63.142 97.1733C63.5256 97.1335 63.8366 97.098 64.0753 97.0668C64.3139 97.0327 64.4872 96.9815 64.5952 96.9134C64.706 96.8423 64.7614 96.733 64.7614 96.5852V96.5597C64.7614 96.2386 64.6662 95.9901 64.4759 95.8139C64.2855 95.6378 64.0114 95.5497 63.6534 95.5497C63.2756 95.5497 62.9759 95.6321 62.7543 95.7969C62.5355 95.9616 62.3878 96.1562 62.3111 96.3807L60.8707 96.1761C60.9844 95.7784 61.1719 95.446 61.4332 95.179C61.6946 94.9091 62.0142 94.7074 62.392 94.5739C62.7699 94.4375 63.1875 94.3693 63.6449 94.3693C63.9602 94.3693 64.2741 94.4062 64.5866 94.4801C64.8991 94.554 65.1847 94.6761 65.4432 94.8466C65.7017 95.0142 65.9091 95.2429 66.0653 95.5327C66.2244 95.8224 66.304 96.1847 66.304 96.6193V101H64.821V100.101H64.7699C64.6761 100.283 64.544 100.453 64.3736 100.612C64.206 100.768 63.9943 100.895 63.7386 100.991C63.4858 101.085 63.1889 101.132 62.848 101.132ZM63.2486 99.9986C63.5582 99.9986 63.8267 99.9375 64.054 99.8153C64.2813 99.6903 64.456 99.5256 64.5781 99.321C64.7031 99.1165 64.7656 98.8935 64.7656 98.652V97.8807C64.7173 97.9205 64.6349 97.9574 64.5185 97.9915C64.4048 98.0256 64.277 98.0554 64.1349 98.081C63.9929 98.1065 63.8523 98.1293 63.7131 98.1491C63.5739 98.169 63.4531 98.1861 63.3509 98.2003C63.1207 98.2315 62.9148 98.2827 62.733 98.3537C62.5511 98.4247 62.4077 98.5241 62.3026 98.652C62.1974 98.777 62.1449 98.9389 62.1449 99.1378C62.1449 99.4219 62.2486 99.6364 62.456 99.7812C62.6634 99.9261 62.9276 99.9986 63.2486 99.9986ZM71.1236 94.4545V95.6477H67.3608V94.4545H71.1236ZM68.2898 92.8864H69.8324V99.0312C69.8324 99.2386 69.8636 99.3977 69.9261 99.5085C69.9915 99.6165 70.0767 99.6903 70.1818 99.7301C70.2869 99.7699 70.4034 99.7898 70.5312 99.7898C70.6278 99.7898 70.7159 99.7827 70.7955 99.7685C70.8778 99.7543 70.9403 99.7415 70.983 99.7301L71.2429 100.936C71.1605 100.964 71.0426 100.996 70.8892 101.03C70.7386 101.064 70.554 101.084 70.3352 101.089C69.9489 101.101 69.6009 101.043 69.2912 100.915C68.9815 100.784 68.7358 100.582 68.554 100.31C68.375 100.037 68.2869 99.696 68.2898 99.2869V92.8864ZM72.4137 101V94.4545H73.9563V101H72.4137ZM73.1893 93.5256C72.945 93.5256 72.7347 93.4446 72.5586 93.2827C72.3825 93.1179 72.2944 92.9205 72.2944 92.6903C72.2944 92.4574 72.3825 92.2599 72.5586 92.098C72.7347 91.9332 72.945 91.8509 73.1893 91.8509C73.4364 91.8509 73.6467 91.9332 73.82 92.098C73.9961 92.2599 74.0842 92.4574 74.0842 92.6903C74.0842 92.9205 73.9961 93.1179 73.82 93.2827C73.6467 93.4446 73.4364 93.5256 73.1893 93.5256ZM80.7159 96.1847L79.3097 96.3381C79.2699 96.196 79.2003 96.0625 79.1009 95.9375C79.0043 95.8125 78.8736 95.7116 78.7088 95.6349C78.544 95.5582 78.3423 95.5199 78.1037 95.5199C77.7827 95.5199 77.5128 95.5895 77.294 95.7287C77.0781 95.8679 76.9716 96.0483 76.9744 96.2699C76.9716 96.4602 77.0412 96.6151 77.1832 96.7344C77.3281 96.8537 77.5668 96.9517 77.8991 97.0284L79.0156 97.267C79.6349 97.4006 80.0952 97.6122 80.3963 97.902C80.7003 98.1918 80.8537 98.571 80.8565 99.0398C80.8537 99.4517 80.733 99.8153 80.4943 100.131C80.2585 100.443 79.9304 100.687 79.5099 100.864C79.0895 101.04 78.6065 101.128 78.0611 101.128C77.2599 101.128 76.6151 100.96 76.1264 100.625C75.6378 100.287 75.3466 99.8168 75.2528 99.2145L76.7571 99.0696C76.8253 99.3651 76.9702 99.5881 77.1918 99.7386C77.4134 99.8892 77.7017 99.9645 78.0568 99.9645C78.4233 99.9645 78.7173 99.8892 78.9389 99.7386C79.1634 99.5881 79.2756 99.402 79.2756 99.1804C79.2756 98.9929 79.2031 98.8381 79.0582 98.7159C78.9162 98.5937 78.6946 98.5 78.3935 98.4347L77.277 98.2003C76.6491 98.0696 76.1847 97.8494 75.8835 97.5398C75.5824 97.2273 75.4332 96.8324 75.4361 96.3551C75.4332 95.9517 75.5426 95.6023 75.7642 95.3068C75.9886 95.0085 76.2997 94.7784 76.6974 94.6165C77.098 94.4517 77.5597 94.3693 78.0824 94.3693C78.8494 94.3693 79.4531 94.5327 79.8935 94.8594C80.3366 95.1861 80.6108 95.6278 80.7159 96.1847ZM85.397 94.4545V95.6477H81.6342V94.4545H85.397ZM82.5632 92.8864H84.1058V99.0312C84.1058 99.2386 84.1371 99.3977 84.1996 99.5085C84.2649 99.6165 84.3501 99.6903 84.4553 99.7301C84.5604 99.7699 84.6768 99.7898 84.8047 99.7898C84.9013 99.7898 84.9893 99.7827 85.0689 99.7685C85.1513 99.7543 85.2138 99.7415 85.2564 99.7301L85.5163 100.936C85.4339 100.964 85.3161 100.996 85.1626 101.03C85.0121 101.064 84.8274 101.084 84.6087 101.089C84.2223 101.101 83.8743 101.043 83.5646 100.915C83.255 100.784 83.0092 100.582 82.8274 100.31C82.6484 100.037 82.5604 99.696 82.5632 99.2869V92.8864ZM86.6871 101V94.4545H88.2298V101H86.6871ZM87.4627 93.5256C87.2184 93.5256 87.0082 93.4446 86.832 93.2827C86.6559 93.1179 86.5678 92.9205 86.5678 92.6903C86.5678 92.4574 86.6559 92.2599 86.832 92.098C87.0082 91.9332 87.2184 91.8509 87.4627 91.8509C87.7099 91.8509 87.9201 91.9332 88.0934 92.098C88.2695 92.2599 88.3576 92.4574 88.3576 92.6903C88.3576 92.9205 88.2695 93.1179 88.0934 93.2827C87.9201 93.4446 87.7099 93.5256 87.4627 93.5256ZM92.6712 101.128C92.0178 101.128 91.4567 100.984 90.9879 100.697C90.522 100.411 90.1626 100.014 89.9098 99.5085C89.6598 99 89.5348 98.4148 89.5348 97.7528C89.5348 97.0881 89.6626 96.5014 89.9183 95.9929C90.174 95.4815 90.5348 95.0838 91.0007 94.7997C91.4695 94.5128 92.0234 94.3693 92.6626 94.3693C93.1939 94.3693 93.6641 94.4673 94.0732 94.6634C94.4851 94.8565 94.8132 95.1307 95.0575 95.4858C95.3018 95.8381 95.4411 96.25 95.4751 96.7216H94.0007C93.9411 96.4062 93.799 96.1435 93.5746 95.9332C93.353 95.7202 93.0561 95.6136 92.6839 95.6136C92.3686 95.6136 92.0916 95.6989 91.853 95.8693C91.6143 96.0369 91.4283 96.2784 91.2947 96.5938C91.1641 96.9091 91.0987 97.2869 91.0987 97.7273C91.0987 98.1733 91.1641 98.5568 91.2947 98.8778C91.4254 99.196 91.6087 99.4418 91.8445 99.6151C92.0831 99.7855 92.3629 99.8707 92.6839 99.8707C92.9112 99.8707 93.1143 99.8281 93.2933 99.7429C93.4751 99.6548 93.6271 99.5284 93.7493 99.3636C93.8714 99.1989 93.9553 98.9986 94.0007 98.7628H95.4751C95.4382 99.2259 95.3018 99.6364 95.0661 99.9943C94.8303 100.349 94.5092 100.628 94.103 100.83C93.6967 101.028 93.2195 101.128 92.6712 101.128ZM101.915 96.1847L100.509 96.3381C100.469 96.196 100.4 96.0625 100.3 95.9375C100.203 95.8125 100.073 95.7116 99.908 95.6349C99.7433 95.5582 99.5415 95.5199 99.3029 95.5199C98.9819 95.5199 98.712 95.5895 98.4933 95.7287C98.2773 95.8679 98.1708 96.0483 98.1737 96.2699C98.1708 96.4602 98.2404 96.6151 98.3825 96.7344C98.5273 96.8537 98.766 96.9517 99.0984 97.0284L100.215 97.267C100.834 97.4006 101.294 97.6122 101.596 97.902C101.9 98.1918 102.053 98.571 102.056 99.0398C102.053 99.4517 101.932 99.8153 101.694 100.131C101.458 100.443 101.13 100.687 100.709 100.864C100.289 101.04 99.8058 101.128 99.2603 101.128C98.4592 101.128 97.8143 100.96 97.3256 100.625C96.837 100.287 96.5458 99.8168 96.4521 99.2145L97.9563 99.0696C98.0245 99.3651 98.1694 99.5881 98.391 99.7386C98.6126 99.8892 98.9009 99.9645 99.256 99.9645C99.6225 99.9645 99.9165 99.8892 100.138 99.7386C100.363 99.5881 100.475 99.402 100.475 99.1804C100.475 98.9929 100.402 98.8381 100.257 98.7159C100.115 98.5937 99.8938 98.5 99.5927 98.4347L98.4762 98.2003C97.8484 98.0696 97.3839 97.8494 97.0827 97.5398C96.7816 97.2273 96.6325 96.8324 96.6353 96.3551C96.6325 95.9517 96.7418 95.6023 96.9634 95.3068C97.1879 95.0085 97.4989 94.7784 97.8967 94.6165C98.2972 94.4517 98.7589 94.3693 99.2816 94.3693C100.049 94.3693 100.652 94.5327 101.093 94.8594C101.536 95.1861 101.81 95.6278 101.915 96.1847ZM109.62 94.4545V95.6477H105.75V94.4545H109.62ZM106.718 101V93.8366C106.718 93.3963 106.809 93.0298 106.99 92.7372C107.175 92.4446 107.422 92.2259 107.732 92.081C108.042 91.9361 108.385 91.8636 108.763 91.8636C109.03 91.8636 109.267 91.8849 109.475 91.9276C109.682 91.9702 109.836 92.0085 109.935 92.0426L109.628 93.2358C109.563 93.2159 109.48 93.196 109.381 93.1761C109.282 93.1534 109.171 93.142 109.049 93.142C108.762 93.142 108.559 93.2116 108.439 93.3509C108.323 93.4872 108.265 93.6832 108.265 93.9389V101H106.718ZM113.437 101.128C112.798 101.128 112.244 100.987 111.775 100.706C111.306 100.425 110.942 100.031 110.684 99.5256C110.428 99.0199 110.3 98.429 110.3 97.7528C110.3 97.0767 110.428 96.4844 110.684 95.9759C110.942 95.4673 111.306 95.0724 111.775 94.7912C112.244 94.5099 112.798 94.3693 113.437 94.3693C114.076 94.3693 114.63 94.5099 115.099 94.7912C115.567 95.0724 115.93 95.4673 116.185 95.9759C116.444 96.4844 116.573 97.0767 116.573 97.7528C116.573 98.429 116.444 99.0199 116.185 99.5256C115.93 100.031 115.567 100.425 115.099 100.706C114.63 100.987 114.076 101.128 113.437 101.128ZM113.445 99.892C113.792 99.892 114.082 99.7969 114.315 99.6065C114.548 99.4134 114.721 99.1548 114.835 98.831C114.951 98.5071 115.009 98.1463 115.009 97.7486C115.009 97.348 114.951 96.9858 114.835 96.6619C114.721 96.3352 114.548 96.0753 114.315 95.8821C114.082 95.6889 113.792 95.5923 113.445 95.5923C113.09 95.5923 112.795 95.6889 112.559 95.8821C112.326 96.0753 112.151 96.3352 112.035 96.6619C111.921 96.9858 111.864 97.348 111.864 97.7486C111.864 98.1463 111.921 98.5071 112.035 98.831C112.151 99.1548 112.326 99.4134 112.559 99.6065C112.795 99.7969 113.09 99.892 113.445 99.892ZM117.882 101V94.4545H119.378V95.5455H119.446C119.566 95.1676 119.77 94.8764 120.06 94.6719C120.353 94.4645 120.686 94.3608 121.061 94.3608C121.147 94.3608 121.242 94.3651 121.347 94.3736C121.455 94.3793 121.544 94.3892 121.615 94.4034V95.8224C121.55 95.7997 121.446 95.7798 121.304 95.7628C121.165 95.7429 121.03 95.733 120.9 95.733C120.618 95.733 120.365 95.794 120.141 95.9162C119.919 96.0355 119.745 96.2017 119.617 96.4148C119.489 96.6278 119.425 96.8736 119.425 97.152V101H117.882ZM125.685 101V92.2727H127.228V95.5369H127.292C127.371 95.3778 127.483 95.2088 127.628 95.0298C127.773 94.848 127.969 94.6932 128.216 94.5653C128.463 94.4347 128.779 94.3693 129.162 94.3693C129.668 94.3693 130.124 94.4986 130.53 94.7571C130.939 95.0128 131.263 95.392 131.502 95.8949C131.743 96.3949 131.864 97.0085 131.864 97.7358C131.864 98.4545 131.746 99.0653 131.51 99.5682C131.275 100.071 130.953 100.455 130.547 100.719C130.141 100.983 129.681 101.115 129.167 101.115C128.792 101.115 128.48 101.053 128.233 100.928C127.986 100.803 127.787 100.652 127.637 100.476C127.489 100.297 127.374 100.128 127.292 99.9688H127.202V101H125.685ZM127.198 97.7273C127.198 98.1506 127.257 98.5213 127.377 98.8395C127.499 99.1577 127.674 99.4062 127.901 99.5852C128.131 99.7614 128.409 99.8494 128.736 99.8494C129.077 99.8494 129.363 99.7585 129.593 99.5767C129.823 99.392 129.996 99.1406 130.113 98.8224C130.232 98.5014 130.292 98.1364 130.292 97.7273C130.292 97.321 130.233 96.9602 130.117 96.6449C130 96.3295 129.827 96.0824 129.597 95.9034C129.367 95.7244 129.08 95.6349 128.736 95.6349C128.407 95.6349 128.127 95.7216 127.897 95.8949C127.667 96.0682 127.492 96.3111 127.373 96.6236C127.256 96.9361 127.198 97.304 127.198 97.7273ZM133.175 101V94.4545H134.671V95.5455H134.739C134.859 95.1676 135.063 94.8764 135.353 94.6719C135.646 94.4645 135.979 94.3608 136.354 94.3608C136.44 94.3608 136.535 94.3651 136.64 94.3736C136.748 94.3793 136.837 94.3892 136.908 94.4034V95.8224C136.843 95.7997 136.739 95.7798 136.597 95.7628C136.458 95.7429 136.323 95.733 136.192 95.733C135.911 95.733 135.658 95.794 135.434 95.9162C135.212 96.0355 135.038 96.2017 134.91 96.4148C134.782 96.6278 134.718 96.8736 134.718 97.152V101H133.175ZM140.561 101.128C139.905 101.128 139.338 100.991 138.861 100.719C138.387 100.443 138.022 100.054 137.766 99.5511C137.51 99.0455 137.382 98.4503 137.382 97.7656C137.382 97.0923 137.51 96.5014 137.766 95.9929C138.025 95.4815 138.385 95.0838 138.848 94.7997C139.311 94.5128 139.855 94.3693 140.48 94.3693C140.884 94.3693 141.265 94.4347 141.623 94.5653C141.983 94.6932 142.301 94.892 142.577 95.1619C142.855 95.4318 143.074 95.7756 143.233 96.1932C143.392 96.608 143.472 97.1023 143.472 97.6761V98.1491H138.107V97.1094H141.993C141.99 96.8139 141.926 96.5511 141.801 96.321C141.676 96.0881 141.502 95.9048 141.277 95.7713C141.056 95.6378 140.797 95.571 140.502 95.571C140.186 95.571 139.909 95.6477 139.671 95.8011C139.432 95.9517 139.246 96.1506 139.113 96.3977C138.982 96.642 138.915 96.9105 138.912 97.2031V98.1108C138.912 98.4915 138.982 98.8182 139.121 99.0909C139.26 99.3608 139.455 99.5682 139.705 99.7131C139.955 99.8551 140.248 99.9261 140.583 99.9261C140.807 99.9261 141.01 99.8949 141.192 99.8324C141.374 99.767 141.532 99.6719 141.665 99.5469C141.799 99.4219 141.9 99.267 141.968 99.0824L143.408 99.2443C143.317 99.625 143.144 99.9574 142.888 100.241C142.635 100.523 142.311 100.741 141.917 100.898C141.522 101.051 141.07 101.128 140.561 101.128ZM146.661 101.132C146.246 101.132 145.872 101.058 145.54 100.911C145.21 100.76 144.949 100.538 144.756 100.246C144.565 99.9531 144.47 99.5923 144.47 99.1634C144.47 98.794 144.538 98.4886 144.675 98.2472C144.811 98.0057 144.997 97.8125 145.233 97.6676C145.469 97.5227 145.734 97.4134 146.03 97.3395C146.328 97.2628 146.636 97.2074 146.955 97.1733C147.338 97.1335 147.649 97.098 147.888 97.0668C148.126 97.0327 148.3 96.9815 148.408 96.9134C148.518 96.8423 148.574 96.733 148.574 96.5852V96.5597C148.574 96.2386 148.479 95.9901 148.288 95.8139C148.098 95.6378 147.824 95.5497 147.466 95.5497C147.088 95.5497 146.788 95.6321 146.567 95.7969C146.348 95.9616 146.2 96.1562 146.124 96.3807L144.683 96.1761C144.797 95.7784 144.984 95.446 145.246 95.179C145.507 94.9091 145.827 94.7074 146.205 94.5739C146.582 94.4375 147 94.3693 147.457 94.3693C147.773 94.3693 148.087 94.4062 148.399 94.4801C148.712 94.554 148.997 94.6761 149.256 94.8466C149.514 95.0142 149.722 95.2429 149.878 95.5327C150.037 95.8224 150.116 96.1847 150.116 96.6193V101H148.634V100.101H148.582C148.489 100.283 148.357 100.453 148.186 100.612C148.018 100.768 147.807 100.895 147.551 100.991C147.298 101.085 147.001 101.132 146.661 101.132ZM147.061 99.9986C147.371 99.9986 147.639 99.9375 147.866 99.8153C148.094 99.6903 148.268 99.5256 148.391 99.321C148.516 99.1165 148.578 98.8935 148.578 98.652V97.8807C148.53 97.9205 148.447 97.9574 148.331 97.9915C148.217 98.0256 148.089 98.0554 147.947 98.081C147.805 98.1065 147.665 98.1293 147.526 98.1491C147.386 98.169 147.266 98.1861 147.163 98.2003C146.933 98.2315 146.727 98.2827 146.545 98.3537C146.364 98.4247 146.22 98.5241 146.115 98.652C146.01 98.777 145.957 98.9389 145.957 99.1378C145.957 99.4219 146.061 99.6364 146.268 99.7812C146.476 99.9261 146.74 99.9986 147.061 99.9986ZM154.936 94.4545V95.6477H151.173V94.4545H154.936ZM152.102 92.8864H153.645V99.0312C153.645 99.2386 153.676 99.3977 153.739 99.5085C153.804 99.6165 153.889 99.6903 153.994 99.7301C154.099 99.7699 154.216 99.7898 154.344 99.7898C154.44 99.7898 154.528 99.7827 154.608 99.7685C154.69 99.7543 154.753 99.7415 154.795 99.7301L155.055 100.936C154.973 100.964 154.855 100.996 154.702 101.03C154.551 101.064 154.366 101.084 154.148 101.089C153.761 101.101 153.413 101.043 153.104 100.915C152.794 100.784 152.548 100.582 152.366 100.31C152.188 100.037 152.099 99.696 152.102 99.2869V92.8864ZM157.909 97.1648V101H156.367V92.2727H157.875V95.5668H157.952C158.105 95.1974 158.343 94.9062 158.664 94.6932C158.988 94.4773 159.4 94.3693 159.9 94.3693C160.354 94.3693 160.75 94.4645 161.088 94.6548C161.426 94.8452 161.688 95.1236 161.873 95.4901C162.06 95.8565 162.154 96.304 162.154 96.8324V101H160.611V97.071C160.611 96.6307 160.498 96.2884 160.27 96.044C160.046 95.7969 159.73 95.6733 159.324 95.6733C159.051 95.6733 158.807 95.733 158.591 95.8523C158.378 95.9687 158.211 96.1378 158.088 96.3594C157.969 96.581 157.909 96.8494 157.909 97.1648ZM168.054 101L166.204 94.4545H167.777L168.927 99.0568H168.987L170.163 94.4545H171.718L172.895 99.0312H172.958L174.092 94.4545H175.669L173.815 101H172.208L170.981 96.5767H170.892L169.664 101H168.054ZM179.413 101.128C178.774 101.128 178.22 100.987 177.751 100.706C177.283 100.425 176.919 100.031 176.661 99.5256C176.405 99.0199 176.277 98.429 176.277 97.7528C176.277 97.0767 176.405 96.4844 176.661 95.9759C176.919 95.4673 177.283 95.0724 177.751 94.7912C178.22 94.5099 178.774 94.3693 179.413 94.3693C180.053 94.3693 180.607 94.5099 181.075 94.7912C181.544 95.0724 181.906 95.4673 182.162 95.9759C182.42 96.4844 182.55 97.0767 182.55 97.7528C182.55 98.429 182.42 99.0199 182.162 99.5256C181.906 100.031 181.544 100.425 181.075 100.706C180.607 100.987 180.053 101.128 179.413 101.128ZM179.422 99.892C179.768 99.892 180.058 99.7969 180.291 99.6065C180.524 99.4134 180.697 99.1548 180.811 98.831C180.928 98.5071 180.986 98.1463 180.986 97.7486C180.986 97.348 180.928 96.9858 180.811 96.6619C180.697 96.3352 180.524 96.0753 180.291 95.8821C180.058 95.6889 179.768 95.5923 179.422 95.5923C179.067 95.5923 178.771 95.6889 178.536 95.8821C178.303 96.0753 178.128 96.3352 178.011 96.6619C177.898 96.9858 177.841 97.348 177.841 97.7486C177.841 98.1463 177.898 98.5071 178.011 98.831C178.128 99.1548 178.303 99.4134 178.536 99.6065C178.771 99.7969 179.067 99.892 179.422 99.892ZM183.859 101V94.4545H185.355V95.5455H185.423C185.542 95.1676 185.747 94.8764 186.037 94.6719C186.329 94.4645 186.663 94.3608 187.038 94.3608C187.123 94.3608 187.218 94.3651 187.324 94.3736C187.431 94.3793 187.521 94.3892 187.592 94.4034V95.8224C187.527 95.7997 187.423 95.7798 187.281 95.7628C187.142 95.7429 187.007 95.733 186.876 95.733C186.595 95.733 186.342 95.794 186.118 95.9162C185.896 96.0355 185.721 96.2017 185.593 96.4148C185.466 96.6278 185.402 96.8736 185.402 97.152V101H183.859ZM190.023 98.946L190.019 97.0838H190.266L192.618 94.4545H194.421L191.527 97.6761H191.208L190.023 98.946ZM188.617 101V92.2727H190.159V101H188.617ZM192.725 101L190.594 98.0213L191.634 96.9347L194.57 101H192.725Z" fill="#FCFCFC"/>
</svg>
