<svg width="303" height="116" viewBox="0 0 303 116" fill="none" xmlns="http://www.w3.org/2000/svg">
<rect width="303" height="116" rx="20" fill="#D87AB8"/>
<path d="M21.2642 30.4545H25.0568L29.0625 40.2273H29.233L33.2386 30.4545H37.0312V45H34.0483V35.5327H33.9276L30.1634 44.929H28.1321L24.3679 35.4972H24.2472V45H21.2642V30.4545ZM39.5082 45V34.0909H42.5337V45H39.5082ZM41.0281 32.6847C40.5782 32.6847 40.1924 32.5355 39.8704 32.2372C39.5531 31.9342 39.3945 31.572 39.3945 31.1506C39.3945 30.7339 39.5531 30.3764 39.8704 30.0781C40.1924 29.7751 40.5782 29.6236 41.0281 29.6236C41.4779 29.6236 41.8614 29.7751 42.1786 30.0781C42.5006 30.3764 42.6616 30.7339 42.6616 31.1506C42.6616 31.572 42.5006 31.9342 42.1786 32.2372C41.8614 32.5355 41.4779 32.6847 41.0281 32.6847ZM47.983 38.6932V45H44.9574V34.0909H47.8409V36.0156H47.9688C48.2102 35.3812 48.6151 34.8793 49.1832 34.5099C49.7514 34.1359 50.4403 33.9489 51.25 33.9489C52.0076 33.9489 52.6681 34.1146 53.2315 34.446C53.795 34.7775 54.233 35.2509 54.5455 35.8665C54.858 36.4773 55.0142 37.2064 55.0142 38.054V45H51.9886V38.5938C51.9934 37.9261 51.8229 37.4053 51.4773 37.0312C51.1316 36.6525 50.6558 36.4631 50.0497 36.4631C49.6425 36.4631 49.2827 36.5507 48.9702 36.7259C48.6624 36.901 48.4209 37.1567 48.2457 37.4929C48.0753 37.8243 47.9877 38.2244 47.983 38.6932ZM61.4187 45.1776C60.5901 45.1776 59.8396 44.9645 59.1673 44.5384C58.4996 44.1075 57.9693 43.4754 57.5763 42.642C57.1881 41.804 56.994 40.7765 56.994 39.5597C56.994 38.3097 57.1952 37.2704 57.5977 36.4418C58.0001 35.6084 58.5352 34.9858 59.2028 34.5739C59.8751 34.1572 60.6114 33.9489 61.4116 33.9489C62.0224 33.9489 62.5314 34.053 62.9386 34.2614C63.3505 34.465 63.6819 34.7206 63.9329 35.0284C64.1886 35.3314 64.3827 35.6297 64.5153 35.9233H64.6076V30.4545H67.6261V45H64.6431V43.2528H64.5153C64.3732 43.5559 64.172 43.8565 63.9116 44.1548C63.6559 44.4484 63.3221 44.6922 62.9102 44.8864C62.503 45.0805 62.0058 45.1776 61.4187 45.1776ZM62.3775 42.7699C62.8652 42.7699 63.2771 42.6373 63.6133 42.3722C63.9542 42.1023 64.2146 41.7259 64.3945 41.2429C64.5792 40.7599 64.6715 40.1941 64.6715 39.5455C64.6715 38.8968 64.5816 38.3333 64.4016 37.8551C64.2217 37.3769 63.9613 37.0076 63.6204 36.7472C63.2795 36.4867 62.8652 36.3565 62.3775 36.3565C61.8803 36.3565 61.4613 36.4915 61.1204 36.7614C60.7795 37.0312 60.5214 37.4053 60.3462 37.8835C60.171 38.3617 60.0835 38.9157 60.0835 39.5455C60.0835 40.1799 60.171 40.741 60.3462 41.2287C60.5262 41.7116 60.7842 42.0904 61.1204 42.3651C61.4613 42.6349 61.8803 42.7699 62.3775 42.7699ZM75.9801 34.0909V36.3636H69.2472V34.0909H75.9801ZM70.7884 45V33.3026C70.7884 32.5118 70.9422 31.8561 71.25 31.3352C71.5625 30.8144 71.9886 30.4238 72.5284 30.1634C73.0682 29.9029 73.6813 29.7727 74.3679 29.7727C74.8319 29.7727 75.2557 29.8082 75.6392 29.8793C76.0275 29.9503 76.3163 30.0142 76.5057 30.071L75.9659 32.3438C75.8475 32.3059 75.7008 32.2704 75.5256 32.2372C75.3551 32.2041 75.1799 32.1875 75 32.1875C74.5549 32.1875 74.2448 32.2917 74.0696 32.5C73.8944 32.7036 73.8068 32.9901 73.8068 33.3594V45H70.7884ZM84.8242 40.3551V34.0909H87.8498V45H84.945V43.0185H84.8313C84.5851 43.6577 84.1755 44.1714 83.6026 44.5597C83.0344 44.9479 82.3408 45.142 81.5217 45.142C80.7925 45.142 80.1509 44.9763 79.5969 44.6449C79.043 44.3134 78.6097 43.8423 78.2972 43.2315C77.9895 42.6207 77.8332 41.8892 77.8285 41.0369V34.0909H80.854V40.4972C80.8588 41.1411 81.0316 41.6501 81.3725 42.0241C81.7134 42.3982 82.1703 42.5852 82.7433 42.5852C83.1078 42.5852 83.4487 42.5024 83.766 42.3366C84.0832 42.1662 84.3389 41.9152 84.533 41.5838C84.7319 41.2524 84.829 40.8428 84.8242 40.3551ZM93.2955 30.4545V45H90.2699V30.4545H93.2955ZM98.7447 38.6932V45H95.7191V34.0909H98.6026V36.0156H98.7305C98.9719 35.3812 99.3768 34.8793 99.945 34.5099C100.513 34.1359 101.202 33.9489 102.012 33.9489C102.769 33.9489 103.43 34.1146 103.993 34.446C104.557 34.7775 104.995 35.2509 105.307 35.8665C105.62 36.4773 105.776 37.2064 105.776 38.054V45H102.75V38.5938C102.755 37.9261 102.585 37.4053 102.239 37.0312C101.893 36.6525 101.417 36.4631 100.811 36.4631C100.404 36.4631 100.044 36.5507 99.7319 36.7259C99.4241 36.901 99.1826 37.1567 99.0075 37.4929C98.837 37.8243 98.7494 38.2244 98.7447 38.6932ZM113.132 45.2131C112.01 45.2131 111.044 44.9858 110.234 44.5312C109.429 44.072 108.809 43.4233 108.374 42.5852C107.938 41.7424 107.72 40.7457 107.72 39.5952C107.72 38.473 107.938 37.4882 108.374 36.6406C108.809 35.7931 109.422 35.1326 110.213 34.6591C111.009 34.1856 111.941 33.9489 113.011 33.9489C113.731 33.9489 114.401 34.0649 115.021 34.2969C115.646 34.5241 116.191 34.8674 116.655 35.3267C117.124 35.786 117.488 36.3636 117.749 37.0597C118.009 37.7509 118.139 38.5606 118.139 39.4886V40.3196H108.928V38.4446H115.291C115.291 38.009 115.196 37.6231 115.007 37.2869C114.818 36.9508 114.555 36.688 114.219 36.4986C113.887 36.3045 113.501 36.2074 113.061 36.2074C112.602 36.2074 112.195 36.3139 111.839 36.527C111.489 36.7353 111.214 37.017 111.016 37.3722C110.817 37.7225 110.715 38.1132 110.71 38.544V40.3267C110.71 40.8665 110.81 41.3329 111.009 41.7259C111.212 42.1188 111.499 42.4219 111.868 42.6349C112.237 42.848 112.675 42.9545 113.182 42.9545C113.518 42.9545 113.826 42.9072 114.105 42.8125C114.384 42.7178 114.624 42.5758 114.822 42.3864C115.021 42.197 115.173 41.965 115.277 41.6903L118.075 41.875C117.933 42.5473 117.642 43.1345 117.202 43.6364C116.766 44.1335 116.203 44.5218 115.511 44.8011C114.825 45.0758 114.032 45.2131 113.132 45.2131ZM129.19 37.2017L126.42 37.3722C126.373 37.1354 126.271 36.9223 126.115 36.733C125.959 36.5388 125.753 36.3849 125.497 36.2713C125.246 36.1529 124.946 36.0938 124.595 36.0938C124.126 36.0938 123.731 36.1932 123.409 36.392C123.087 36.5862 122.926 36.8466 122.926 37.1733C122.926 37.4337 123.03 37.6539 123.239 37.8338C123.447 38.0137 123.804 38.1581 124.311 38.267L126.286 38.6648C127.346 38.8826 128.137 39.233 128.658 39.7159C129.179 40.1989 129.439 40.8333 129.439 41.6193C129.439 42.3343 129.228 42.9616 128.807 43.5014C128.39 44.0412 127.817 44.4626 127.088 44.7656C126.364 45.0639 125.528 45.2131 124.581 45.2131C123.137 45.2131 121.986 44.9124 121.129 44.3111C120.277 43.705 119.777 42.8812 119.631 41.8395L122.607 41.6832C122.696 42.1236 122.914 42.4598 123.26 42.6918C123.606 42.919 124.048 43.0327 124.588 43.0327C125.118 43.0327 125.545 42.9309 125.866 42.7273C126.193 42.5189 126.359 42.2514 126.364 41.9247C126.359 41.6501 126.243 41.4252 126.016 41.25C125.788 41.0701 125.438 40.9328 124.964 40.8381L123.075 40.4616C122.01 40.2486 121.217 39.8793 120.696 39.3537C120.18 38.8281 119.922 38.1581 119.922 37.3438C119.922 36.643 120.111 36.0393 120.49 35.5327C120.874 35.026 121.411 34.6354 122.102 34.3608C122.798 34.0862 123.613 33.9489 124.545 33.9489C125.923 33.9489 127.008 34.2401 127.798 34.8224C128.594 35.4048 129.058 36.1979 129.19 37.2017ZM140.421 37.2017L137.651 37.3722C137.604 37.1354 137.502 36.9223 137.346 36.733C137.189 36.5388 136.983 36.3849 136.728 36.2713C136.477 36.1529 136.176 36.0938 135.826 36.0938C135.357 36.0938 134.962 36.1932 134.64 36.392C134.318 36.5862 134.157 36.8466 134.157 37.1733C134.157 37.4337 134.261 37.6539 134.469 37.8338C134.677 38.0137 135.035 38.1581 135.542 38.267L137.516 38.6648C138.577 38.8826 139.367 39.233 139.888 39.7159C140.409 40.1989 140.669 40.8333 140.669 41.6193C140.669 42.3343 140.459 42.9616 140.037 43.5014C139.621 44.0412 139.048 44.4626 138.319 44.7656C137.594 45.0639 136.758 45.2131 135.811 45.2131C134.367 45.2131 133.217 44.9124 132.36 44.3111C131.507 43.705 131.008 42.8812 130.861 41.8395L133.837 41.6832C133.927 42.1236 134.145 42.4598 134.49 42.6918C134.836 42.919 135.279 43.0327 135.819 43.0327C136.349 43.0327 136.775 42.9309 137.097 42.7273C137.424 42.5189 137.589 42.2514 137.594 41.9247C137.589 41.6501 137.473 41.4252 137.246 41.25C137.019 41.0701 136.668 40.9328 136.195 40.8381L134.306 40.4616C133.24 40.2486 132.447 39.8793 131.926 39.3537C131.41 38.8281 131.152 38.1581 131.152 37.3438C131.152 36.643 131.342 36.0393 131.721 35.5327C132.104 35.026 132.641 34.6354 133.333 34.3608C134.029 34.0862 134.843 33.9489 135.776 33.9489C137.154 33.9489 138.238 34.2401 139.029 34.8224C139.824 35.4048 140.288 36.1979 140.421 37.2017Z" fill="#FCFCFC"/>
<rect x="152" y="20" width="36" height="36" rx="10" fill="#FCFCFC"/>
<path d="M172.119 34.1682C171.639 33.6013 170.925 33.2811 170.158 33.3411C169.785 32.9143 169.245 32.6675 168.665 32.6675C168.085 32.6675 167.498 32.9476 167.118 33.4078C166.078 33.6546 165.331 34.575 165.331 35.6688C165.331 35.7289 165.331 35.7822 165.338 35.8422C164.911 36.2157 164.664 36.756 164.664 37.3362C164.664 38.4367 165.564 39.3371 166.664 39.3371C166.898 39.3371 167.118 39.2971 167.331 39.2237V42.6719C167.331 43.0387 167.631 43.3388 167.998 43.3388C168.365 43.3388 168.665 43.0387 168.665 42.6719V38.6501C169.158 38.5834 169.605 38.3567 169.958 38.0032H171.332C172.432 38.0032 173.332 37.1028 173.332 36.0023C173.332 35.1886 172.852 34.4816 172.119 34.1682ZM171.332 36.6693H169.658C169.452 36.6693 169.252 36.7693 169.125 36.936C168.932 37.1895 168.645 37.3362 168.331 37.3362C168.251 37.3362 168.158 37.3229 168.045 37.2895C167.731 37.1962 167.398 37.3429 167.258 37.6297C167.145 37.8631 166.918 38.0032 166.664 38.0032C166.298 38.0032 165.998 37.703 165.998 37.3362C165.998 37.0828 166.138 36.856 166.371 36.7426C166.664 36.5959 166.804 36.2624 166.711 35.9556C166.678 35.8422 166.664 35.7555 166.664 35.6688C166.664 35.1553 167.051 34.7284 167.571 34.6817C167.791 34.6617 167.985 34.535 168.091 34.3483C168.211 34.1348 168.425 34.0081 168.665 34.0081C168.918 34.0081 169.145 34.1482 169.258 34.3816C169.405 34.6751 169.738 34.8151 170.045 34.7217C170.158 34.6884 170.245 34.6751 170.332 34.6751C170.659 34.6751 170.972 34.8418 171.159 35.1153C171.245 35.242 171.372 35.3353 171.519 35.3754C171.805 35.4621 171.999 35.7155 171.999 36.009C171.999 36.3758 171.699 36.6759 171.332 36.6759V36.6693ZM175.199 32.9476C173.572 30.7734 170.999 29.6996 168.298 30.0731C164.971 30.5266 162.33 33.3011 162.03 36.6559C161.864 38.5034 162.39 40.3242 163.504 41.7848C163.824 42.1983 163.997 42.7586 163.997 43.3522V43.9991C163.997 45.0996 164.897 46 165.998 46H170.665C171.765 46 172.666 45.0996 172.666 43.9991H172.992C174.659 43.9991 176.08 42.7519 176.3 41.1045L176.446 39.9974H176.666C177.533 39.9974 178 39.3104 178 38.6635C178 37.7164 176.046 33.9814 175.199 32.941V32.9476ZM175.86 38.6701C175.526 38.6701 175.239 38.9169 175.199 39.2504L174.979 40.9311C174.846 41.9249 173.993 42.6719 172.999 42.6719H172.006C171.639 42.6719 171.339 42.972 171.339 43.3388V44.0058C171.339 44.3726 171.039 44.6728 170.672 44.6728H165.998C165.631 44.6728 165.331 44.3726 165.331 44.0058V43.3588C165.331 42.4718 165.057 41.6248 164.564 40.9778C163.651 39.784 163.217 38.29 163.357 36.776C163.604 34.0281 165.758 31.7671 168.485 31.3936C168.772 31.3536 169.058 31.3336 169.338 31.3336C171.225 31.3336 172.979 32.2006 174.153 33.768C175.026 34.8485 176.586 38.0699 176.673 38.6701H175.873H175.86Z" fill="#D87AB8"/>
<path d="M20.8608 69.2727H22.7955L25.3864 75.5966H25.4886L28.0795 69.2727H30.0142V78H28.4972V72.0043H28.4162L26.0043 77.9744H24.8707L22.4588 71.9915H22.3778V78H20.8608V69.2727ZM31.6676 78V71.4545H33.2102V78H31.6676ZM32.4432 70.5256C32.1989 70.5256 31.9886 70.4446 31.8125 70.2827C31.6364 70.1179 31.5483 69.9205 31.5483 69.6903C31.5483 69.4574 31.6364 69.2599 31.8125 69.098C31.9886 68.9332 32.1989 68.8509 32.4432 68.8509C32.6903 68.8509 32.9006 68.9332 33.0739 69.098C33.25 69.2599 33.3381 69.4574 33.3381 69.6903C33.3381 69.9205 33.25 70.1179 33.0739 70.2827C32.9006 70.4446 32.6903 70.5256 32.4432 70.5256ZM36.3391 74.1648V78H34.7965V71.4545H36.271V72.5668H36.3477C36.4982 72.2003 36.7383 71.9091 37.0678 71.6932C37.4002 71.4773 37.8107 71.3693 38.2994 71.3693C38.7511 71.3693 39.1445 71.4659 39.4798 71.6591C39.8178 71.8523 40.0792 72.1321 40.2638 72.4986C40.4513 72.8651 40.5437 73.3097 40.5408 73.8324V78H38.9982V74.071C38.9982 73.6335 38.8846 73.2912 38.6573 73.044C38.4329 72.7969 38.1218 72.6733 37.7241 72.6733C37.4542 72.6733 37.2141 72.733 37.0039 72.8523C36.7965 72.9687 36.6332 73.1378 36.5138 73.3594C36.3974 73.581 36.3391 73.8494 36.3391 74.1648ZM45.4244 71.4545V72.6477H41.555V71.4545H45.4244ZM42.5224 78V70.8366C42.5224 70.3963 42.6133 70.0298 42.7951 69.7372C42.9798 69.4446 43.2269 69.2259 43.5366 69.081C43.8462 68.9361 44.19 68.8636 44.5678 68.8636C44.8349 68.8636 45.0721 68.8849 45.2795 68.9276C45.4869 68.9702 45.6403 69.0085 45.7397 69.0426L45.4329 70.2358C45.3675 70.2159 45.2852 70.196 45.1857 70.1761C45.0863 70.1534 44.9755 70.142 44.8533 70.142C44.5664 70.142 44.3633 70.2116 44.244 70.3509C44.1275 70.4872 44.0692 70.6832 44.0692 70.9389V78H42.5224ZM50.8043 75.2472V71.4545H52.3469V78H50.8512V76.8366H50.783C50.6353 77.2031 50.3924 77.5028 50.0543 77.7358C49.7191 77.9687 49.3058 78.0852 48.8143 78.0852C48.3853 78.0852 48.006 77.9901 47.6765 77.7997C47.3498 77.6065 47.0941 77.3267 46.9094 76.9602C46.7248 76.5909 46.6325 76.1449 46.6325 75.6222V71.4545H48.1751V75.3835C48.1751 75.7983 48.2887 76.1278 48.516 76.3722C48.7433 76.6165 49.0415 76.7386 49.4109 76.7386C49.6381 76.7386 49.8583 76.6832 50.0714 76.5724C50.2844 76.4616 50.4592 76.2969 50.5955 76.0781C50.7347 75.8565 50.8043 75.5795 50.8043 75.2472ZM55.4759 69.2727V78H53.9332V69.2727H55.4759ZM58.6048 74.1648V78H57.0621V71.4545H58.5366V72.5668H58.6133C58.7638 72.2003 59.0039 71.9091 59.3335 71.6932C59.6658 71.4773 60.0763 71.3693 60.565 71.3693C61.0167 71.3693 61.4102 71.4659 61.7454 71.6591C62.0835 71.8523 62.3448 72.1321 62.5295 72.4986C62.717 72.8651 62.8093 73.3097 62.8065 73.8324V78H61.2638V74.071C61.2638 73.6335 61.1502 73.2912 60.9229 73.044C60.6985 72.7969 60.3874 72.6733 59.9897 72.6733C59.7198 72.6733 59.4798 72.733 59.2695 72.8523C59.0621 72.9687 58.8988 73.1378 58.7795 73.3594C58.663 73.581 58.6048 73.8494 58.6048 74.1648ZM67.2724 78.1278C66.6161 78.1278 66.0494 77.9915 65.5721 77.7188C65.0977 77.4432 64.7326 77.054 64.4769 76.5511C64.2212 76.0455 64.0934 75.4503 64.0934 74.7656C64.0934 74.0923 64.2212 73.5014 64.4769 72.9929C64.7354 72.4815 65.0962 72.0838 65.5593 71.7997C66.0224 71.5128 66.5664 71.3693 67.1914 71.3693C67.5948 71.3693 67.9755 71.4347 68.3335 71.5653C68.6942 71.6932 69.0124 71.892 69.288 72.1619C69.5664 72.4318 69.7852 72.7756 69.9442 73.1932C70.1033 73.608 70.1829 74.1023 70.1829 74.6761V75.1491H64.8178V74.1094H68.7042C68.7013 73.8139 68.6374 73.5511 68.5124 73.321C68.3874 73.0881 68.2127 72.9048 67.9883 72.7713C67.7667 72.6378 67.5082 72.571 67.2127 72.571C66.8974 72.571 66.6204 72.6477 66.3817 72.8011C66.1431 72.9517 65.957 73.1506 65.8235 73.3977C65.6928 73.642 65.6261 73.9105 65.6232 74.2031V75.1108C65.6232 75.4915 65.6928 75.8182 65.832 76.0909C65.9712 76.3608 66.1658 76.5682 66.4158 76.7131C66.6658 76.8551 66.9585 76.9261 67.2937 76.9261C67.5181 76.9261 67.7212 76.8949 67.9031 76.8324C68.0849 76.767 68.2425 76.6719 68.3761 76.5469C68.5096 76.4219 68.6104 76.267 68.6786 76.0824L70.119 76.2443C70.0281 76.625 69.8548 76.9574 69.5991 77.2415C69.3462 77.5227 69.0224 77.7415 68.6275 77.8977C68.2326 78.0511 67.7809 78.1278 67.2724 78.1278ZM76.6612 73.1847L75.255 73.3381C75.2152 73.196 75.1456 73.0625 75.0462 72.9375C74.9496 72.8125 74.8189 72.7116 74.6541 72.6349C74.4893 72.5582 74.2876 72.5199 74.049 72.5199C73.728 72.5199 73.4581 72.5895 73.2393 72.7287C73.0234 72.8679 72.9169 73.0483 72.9197 73.2699C72.9169 73.4602 72.9865 73.6151 73.1286 73.7344C73.2734 73.8537 73.5121 73.9517 73.8445 74.0284L74.9609 74.267C75.5803 74.4006 76.0405 74.6122 76.3416 74.902C76.6456 75.1918 76.799 75.571 76.8018 76.0398C76.799 76.4517 76.6783 76.8153 76.4396 77.1307C76.2038 77.4432 75.8757 77.6875 75.4553 77.8636C75.0348 78.0398 74.5518 78.1278 74.0064 78.1278C73.2053 78.1278 72.5604 77.9602 72.0717 77.625C71.5831 77.2869 71.2919 76.8168 71.1982 76.2145L72.7024 76.0696C72.7706 76.3651 72.9155 76.5881 73.1371 76.7386C73.3587 76.8892 73.647 76.9645 74.0021 76.9645C74.3686 76.9645 74.6626 76.8892 74.8842 76.7386C75.1087 76.5881 75.2209 76.402 75.2209 76.1804C75.2209 75.9929 75.1484 75.8381 75.0036 75.7159C74.8615 75.5937 74.6399 75.5 74.3388 75.4347L73.2223 75.2003C72.5945 75.0696 72.13 74.8494 71.8288 74.5398C71.5277 74.2273 71.3786 73.8324 71.3814 73.3551C71.3786 72.9517 71.4879 72.6023 71.7095 72.3068C71.9339 72.0085 72.245 71.7784 72.6428 71.6165C73.0433 71.4517 73.505 71.3693 74.0277 71.3693C74.7947 71.3693 75.3984 71.5327 75.8388 71.8594C76.282 72.1861 76.5561 72.6278 76.6612 73.1847ZM83.2472 73.1847L81.8409 73.3381C81.8011 73.196 81.7315 73.0625 81.6321 72.9375C81.5355 72.8125 81.4048 72.7116 81.2401 72.6349C81.0753 72.5582 80.8736 72.5199 80.6349 72.5199C80.3139 72.5199 80.044 72.5895 79.8253 72.7287C79.6094 72.8679 79.5028 73.0483 79.5057 73.2699C79.5028 73.4602 79.5724 73.6151 79.7145 73.7344C79.8594 73.8537 80.098 73.9517 80.4304 74.0284L81.5469 74.267C82.1662 74.4006 82.6264 74.6122 82.9276 74.902C83.2315 75.1918 83.3849 75.571 83.3878 76.0398C83.3849 76.4517 83.2642 76.8153 83.0256 77.1307C82.7898 77.4432 82.4616 77.6875 82.0412 77.8636C81.6207 78.0398 81.1378 78.1278 80.5923 78.1278C79.7912 78.1278 79.1463 77.9602 78.6577 77.625C78.169 77.2869 77.8778 76.8168 77.7841 76.2145L79.2884 76.0696C79.3565 76.3651 79.5014 76.5881 79.723 76.7386C79.9446 76.8892 80.233 76.9645 80.5881 76.9645C80.9545 76.9645 81.2486 76.8892 81.4702 76.7386C81.6946 76.5881 81.8068 76.402 81.8068 76.1804C81.8068 75.9929 81.7344 75.8381 81.5895 75.7159C81.4474 75.5937 81.2259 75.5 80.9247 75.4347L79.8082 75.2003C79.1804 75.0696 78.7159 74.8494 78.4148 74.5398C78.1136 74.2273 77.9645 73.8324 77.9673 73.3551C77.9645 72.9517 78.0739 72.6023 78.2955 72.3068C78.5199 72.0085 78.831 71.7784 79.2287 71.6165C79.6293 71.4517 80.0909 71.3693 80.6136 71.3693C81.3807 71.3693 81.9844 71.5327 82.4247 71.8594C82.8679 72.1861 83.142 72.6278 83.2472 73.1847ZM87.7045 69.2727H89.6392L92.2301 75.5966H92.3324L94.9233 69.2727H96.858V78H95.3409V72.0043H95.2599L92.848 77.9744H91.7145L89.3026 71.9915H89.2216V78H87.7045V69.2727ZM101.409 78.1278C100.753 78.1278 100.186 77.9915 99.7088 77.7188C99.2344 77.4432 98.8693 77.054 98.6136 76.5511C98.358 76.0455 98.2301 75.4503 98.2301 74.7656C98.2301 74.0923 98.358 73.5014 98.6136 72.9929C98.8722 72.4815 99.233 72.0838 99.696 71.7997C100.159 71.5128 100.703 71.3693 101.328 71.3693C101.732 71.3693 102.112 71.4347 102.47 71.5653C102.831 71.6932 103.149 71.892 103.425 72.1619C103.703 72.4318 103.922 72.7756 104.081 73.1932C104.24 73.608 104.32 74.1023 104.32 74.6761V75.1491H98.9545V74.1094H102.841C102.838 73.8139 102.774 73.5511 102.649 73.321C102.524 73.0881 102.349 72.9048 102.125 72.7713C101.903 72.6378 101.645 72.571 101.349 72.571C101.034 72.571 100.757 72.6477 100.518 72.8011C100.28 72.9517 100.094 73.1506 99.9602 73.3977C99.8295 73.642 99.7628 73.9105 99.7599 74.2031V75.1108C99.7599 75.4915 99.8295 75.8182 99.9688 76.0909C100.108 76.3608 100.303 76.5682 100.553 76.7131C100.803 76.8551 101.095 76.9261 101.43 76.9261C101.655 76.9261 101.858 76.8949 102.04 76.8324C102.222 76.767 102.379 76.6719 102.513 76.5469C102.646 76.4219 102.747 76.267 102.815 76.0824L104.256 76.2443C104.165 76.625 103.991 76.9574 103.736 77.2415C103.483 77.5227 103.159 77.7415 102.764 77.8977C102.369 78.0511 101.918 78.1278 101.409 78.1278ZM108.054 78.1151C107.539 78.1151 107.079 77.983 106.673 77.7188C106.267 77.4545 105.946 77.071 105.71 76.5682C105.474 76.0653 105.356 75.4545 105.356 74.7358C105.356 74.0085 105.475 73.3949 105.714 72.8949C105.956 72.392 106.281 72.0128 106.69 71.7571C107.099 71.4986 107.555 71.3693 108.058 71.3693C108.441 71.3693 108.757 71.4347 109.004 71.5653C109.251 71.6932 109.447 71.848 109.592 72.0298C109.737 72.2088 109.849 72.3778 109.929 72.5369H109.993V69.2727H111.539V78H110.022V76.9688H109.929C109.849 77.1278 109.734 77.2969 109.583 77.4759C109.433 77.652 109.234 77.8026 108.987 77.9276C108.74 78.0526 108.429 78.1151 108.054 78.1151ZM108.484 76.8494C108.811 76.8494 109.089 76.7614 109.319 76.5852C109.549 76.4062 109.724 76.1577 109.843 75.8395C109.963 75.5213 110.022 75.1506 110.022 74.7273C110.022 74.304 109.963 73.9361 109.843 73.6236C109.727 73.3111 109.554 73.0682 109.324 72.8949C109.096 72.7216 108.816 72.6349 108.484 72.6349C108.14 72.6349 107.853 72.7244 107.623 72.9034C107.393 73.0824 107.22 73.3295 107.103 73.6449C106.987 73.9602 106.929 74.321 106.929 74.7273C106.929 75.1364 106.987 75.5014 107.103 75.8224C107.223 76.1406 107.397 76.392 107.627 76.5767C107.86 76.7585 108.146 76.8494 108.484 76.8494ZM113.183 78V71.4545H114.726V78H113.183ZM113.959 70.5256C113.714 70.5256 113.504 70.4446 113.328 70.2827C113.152 70.1179 113.064 69.9205 113.064 69.6903C113.064 69.4574 113.152 69.2599 113.328 69.098C113.504 68.9332 113.714 68.8509 113.959 68.8509C114.206 68.8509 114.416 68.9332 114.589 69.098C114.766 69.2599 114.854 69.4574 114.854 69.6903C114.854 69.9205 114.766 70.1179 114.589 70.2827C114.416 70.4446 114.206 70.5256 113.959 70.5256ZM119.581 71.4545V72.6477H115.818V71.4545H119.581ZM116.747 69.8864H118.289V76.0312C118.289 76.2386 118.321 76.3977 118.383 76.5085C118.449 76.6165 118.534 76.6903 118.639 76.7301C118.744 76.7699 118.86 76.7898 118.988 76.7898C119.085 76.7898 119.173 76.7827 119.252 76.7685C119.335 76.7543 119.397 76.7415 119.44 76.7301L119.7 77.9361C119.618 77.9645 119.5 77.9957 119.346 78.0298C119.196 78.0639 119.011 78.0838 118.792 78.0895C118.406 78.1009 118.058 78.0426 117.748 77.9148C117.439 77.7841 117.193 77.5824 117.011 77.3097C116.832 77.0369 116.744 76.696 116.747 76.2869V69.8864ZM122.754 78.1321C122.339 78.1321 121.966 78.0582 121.634 77.9105C121.304 77.7599 121.043 77.5384 120.849 77.2457C120.659 76.9531 120.564 76.5923 120.564 76.1634C120.564 75.794 120.632 75.4886 120.768 75.2472C120.905 75.0057 121.091 74.8125 121.327 74.6676C121.563 74.5227 121.828 74.4134 122.124 74.3395C122.422 74.2628 122.73 74.2074 123.048 74.1733C123.432 74.1335 123.743 74.098 123.982 74.0668C124.22 74.0327 124.393 73.9815 124.501 73.9134C124.612 73.8423 124.668 73.733 124.668 73.5852V73.5597C124.668 73.2386 124.572 72.9901 124.382 72.8139C124.192 72.6378 123.918 72.5497 123.56 72.5497C123.182 72.5497 122.882 72.6321 122.661 72.7969C122.442 72.9616 122.294 73.1562 122.217 73.3807L120.777 73.1761C120.891 72.7784 121.078 72.446 121.339 72.179C121.601 71.9091 121.92 71.7074 122.298 71.5739C122.676 71.4375 123.094 71.3693 123.551 71.3693C123.866 71.3693 124.18 71.4062 124.493 71.4801C124.805 71.554 125.091 71.6761 125.349 71.8466C125.608 72.0142 125.815 72.2429 125.972 72.5327C126.131 72.8224 126.21 73.1847 126.21 73.6193V78H124.727V77.1009H124.676C124.582 77.2827 124.45 77.4531 124.28 77.6122C124.112 77.7685 123.901 77.8949 123.645 77.9915C123.392 78.0852 123.095 78.1321 122.754 78.1321ZM123.155 76.9986C123.464 76.9986 123.733 76.9375 123.96 76.8153C124.188 76.6903 124.362 76.5256 124.484 76.321C124.609 76.1165 124.672 75.8935 124.672 75.652V74.8807C124.624 74.9205 124.541 74.9574 124.425 74.9915C124.311 75.0256 124.183 75.0554 124.041 75.081C123.899 75.1065 123.759 75.1293 123.619 75.1491C123.48 75.169 123.359 75.1861 123.257 75.2003C123.027 75.2315 122.821 75.2827 122.639 75.3537C122.457 75.4247 122.314 75.5241 122.209 75.652C122.104 75.777 122.051 75.9389 122.051 76.1378C122.051 76.4219 122.155 76.6364 122.362 76.7812C122.57 76.9261 122.834 76.9986 123.155 76.9986ZM131.03 71.4545V72.6477H127.267V71.4545H131.03ZM128.196 69.8864H129.739V76.0312C129.739 76.2386 129.77 76.3977 129.832 76.5085C129.898 76.6165 129.983 76.6903 130.088 76.7301C130.193 76.7699 130.31 76.7898 130.438 76.7898C130.534 76.7898 130.622 76.7827 130.702 76.7685C130.784 76.7543 130.847 76.7415 130.889 76.7301L131.149 77.9361C131.067 77.9645 130.949 77.9957 130.795 78.0298C130.645 78.0639 130.46 78.0838 130.241 78.0895C129.855 78.1009 129.507 78.0426 129.197 77.9148C128.888 77.7841 128.642 77.5824 128.46 77.3097C128.281 77.0369 128.193 76.696 128.196 76.2869V69.8864ZM132.32 78V71.4545H133.863V78H132.32ZM133.096 70.5256C132.851 70.5256 132.641 70.4446 132.465 70.2827C132.289 70.1179 132.201 69.9205 132.201 69.6903C132.201 69.4574 132.289 69.2599 132.465 69.098C132.641 68.9332 132.851 68.8509 133.096 68.8509C133.343 68.8509 133.553 68.9332 133.726 69.098C133.902 69.2599 133.99 69.4574 133.99 69.6903C133.99 69.9205 133.902 70.1179 133.726 70.2827C133.553 70.4446 133.343 70.5256 133.096 70.5256ZM138.304 78.1278C137.665 78.1278 137.111 77.9872 136.642 77.706C136.173 77.4247 135.81 77.0312 135.551 76.5256C135.295 76.0199 135.168 75.429 135.168 74.7528C135.168 74.0767 135.295 73.4844 135.551 72.9759C135.81 72.4673 136.173 72.0724 136.642 71.7912C137.111 71.5099 137.665 71.3693 138.304 71.3693C138.943 71.3693 139.497 71.5099 139.966 71.7912C140.435 72.0724 140.797 72.4673 141.053 72.9759C141.311 73.4844 141.44 74.0767 141.44 74.7528C141.44 75.429 141.311 76.0199 141.053 76.5256C140.797 77.0312 140.435 77.4247 139.966 77.706C139.497 77.9872 138.943 78.1278 138.304 78.1278ZM138.312 76.892C138.659 76.892 138.949 76.7969 139.182 76.6065C139.415 76.4134 139.588 76.1548 139.702 75.831C139.818 75.5071 139.876 75.1463 139.876 74.7486C139.876 74.348 139.818 73.9858 139.702 73.6619C139.588 73.3352 139.415 73.0753 139.182 72.8821C138.949 72.6889 138.659 72.5923 138.312 72.5923C137.957 72.5923 137.662 72.6889 137.426 72.8821C137.193 73.0753 137.018 73.3352 136.902 73.6619C136.788 73.9858 136.732 74.348 136.732 74.7486C136.732 75.1463 136.788 75.5071 136.902 75.831C137.018 76.1548 137.193 76.4134 137.426 76.6065C137.662 76.7969 137.957 76.892 138.312 76.892ZM144.292 74.1648V78H142.75V71.4545H144.224V72.5668H144.301C144.451 72.2003 144.691 71.9091 145.021 71.6932C145.353 71.4773 145.764 71.3693 146.252 71.3693C146.704 71.3693 147.098 71.4659 147.433 71.6591C147.771 71.8523 148.032 72.1321 148.217 72.4986C148.404 72.8651 148.497 73.3097 148.494 73.8324V78H146.951V74.071C146.951 73.6335 146.838 73.2912 146.61 73.044C146.386 72.7969 146.075 72.6733 145.677 72.6733C145.407 72.6733 145.167 72.733 144.957 72.8523C144.75 72.9687 144.586 73.1378 144.467 73.3594C144.35 73.581 144.292 73.8494 144.292 74.1648ZM154.39 78L152.54 71.4545H154.113L155.263 76.0568H155.323L156.499 71.4545H158.054L159.23 76.0312H159.294L160.428 71.4545H162.005L160.151 78H158.544L157.317 73.5767H157.228L156 78H154.39ZM163.082 78V71.4545H164.624V78H163.082ZM163.857 70.5256C163.613 70.5256 163.403 70.4446 163.227 70.2827C163.05 70.1179 162.962 69.9205 162.962 69.6903C162.962 69.4574 163.05 69.2599 163.227 69.098C163.403 68.9332 163.613 68.8509 163.857 68.8509C164.104 68.8509 164.315 68.9332 164.488 69.098C164.664 69.2599 164.752 69.4574 164.752 69.6903C164.752 69.9205 164.664 70.1179 164.488 70.2827C164.315 70.4446 164.104 70.5256 163.857 70.5256ZM167.753 69.2727V78H166.211V69.2727H167.753ZM170.882 69.2727V78H169.339V69.2727H170.882ZM178.292 80.5909C177.738 80.5909 177.262 80.5156 176.864 80.3651C176.466 80.2173 176.147 80.0185 175.905 79.7685C175.664 79.5185 175.496 79.2415 175.402 78.9375L176.792 78.6009C176.854 78.7287 176.945 78.8551 177.064 78.9801C177.184 79.108 177.344 79.2131 177.546 79.2955C177.75 79.3807 178.007 79.4233 178.317 79.4233C178.755 79.4233 179.117 79.3168 179.404 79.1037C179.691 78.8935 179.834 78.5469 179.834 78.0639V76.8239H179.757C179.678 76.983 179.561 77.1463 179.408 77.3139C179.257 77.4815 179.057 77.6222 178.807 77.7358C178.56 77.8494 178.249 77.9062 177.874 77.9062C177.371 77.9062 176.915 77.7884 176.506 77.5526C176.1 77.3139 175.776 76.9588 175.534 76.4872C175.296 76.0128 175.176 75.419 175.176 74.706C175.176 73.9872 175.296 73.3807 175.534 72.8864C175.776 72.3892 176.101 72.0128 176.51 71.7571C176.919 71.4986 177.375 71.3693 177.878 71.3693C178.262 71.3693 178.577 71.4347 178.824 71.5653C179.074 71.6932 179.273 71.848 179.421 72.0298C179.569 72.2088 179.681 72.3778 179.757 72.5369H179.843V71.4545H181.364V78.1065C181.364 78.6662 181.23 79.1293 180.963 79.4957C180.696 79.8622 180.331 80.1364 179.868 80.3182C179.405 80.5 178.88 80.5909 178.292 80.5909ZM178.304 76.696C178.631 76.696 178.909 76.6165 179.14 76.4574C179.37 76.2983 179.544 76.0696 179.664 75.7713C179.783 75.473 179.843 75.1151 179.843 74.6974C179.843 74.2855 179.783 73.9247 179.664 73.6151C179.547 73.3054 179.374 73.0653 179.144 72.8949C178.917 72.7216 178.637 72.6349 178.304 72.6349C177.961 72.6349 177.674 72.7244 177.444 72.9034C177.213 73.0824 177.04 73.3281 176.924 73.6406C176.807 73.9503 176.749 74.3026 176.749 74.6974C176.749 75.098 176.807 75.4489 176.924 75.75C177.043 76.0483 177.218 76.2812 177.448 76.4489C177.681 76.6136 177.966 76.696 178.304 76.696ZM182.945 78V71.4545H184.488V78H182.945ZM183.721 70.5256C183.476 70.5256 183.266 70.4446 183.09 70.2827C182.914 70.1179 182.826 69.9205 182.826 69.6903C182.826 69.4574 182.914 69.2599 183.09 69.098C183.266 68.9332 183.476 68.8509 183.721 68.8509C183.968 68.8509 184.178 68.9332 184.351 69.098C184.527 69.2599 184.615 69.4574 184.615 69.6903C184.615 69.9205 184.527 70.1179 184.351 70.2827C184.178 70.4446 183.968 70.5256 183.721 70.5256ZM191.92 71.4545L189.589 78H187.885L185.554 71.4545H187.199L188.703 76.3168H188.771L190.28 71.4545H191.92ZM195.663 78.1278C195.007 78.1278 194.44 77.9915 193.963 77.7188C193.488 77.4432 193.123 77.054 192.868 76.5511C192.612 76.0455 192.484 75.4503 192.484 74.7656C192.484 74.0923 192.612 73.5014 192.868 72.9929C193.126 72.4815 193.487 72.0838 193.95 71.7997C194.413 71.5128 194.957 71.3693 195.582 71.3693C195.985 71.3693 196.366 71.4347 196.724 71.5653C197.085 71.6932 197.403 71.892 197.679 72.1619C197.957 72.4318 198.176 72.7756 198.335 73.1932C198.494 73.608 198.574 74.1023 198.574 74.6761V75.1491H193.208V74.1094H197.095C197.092 73.8139 197.028 73.5511 196.903 73.321C196.778 73.0881 196.603 72.9048 196.379 72.7713C196.157 72.6378 195.899 72.571 195.603 72.571C195.288 72.571 195.011 72.6477 194.772 72.8011C194.534 72.9517 194.348 73.1506 194.214 73.3977C194.083 73.642 194.017 73.9105 194.014 74.2031V75.1108C194.014 75.4915 194.083 75.8182 194.223 76.0909C194.362 76.3608 194.556 76.5682 194.806 76.7131C195.056 76.8551 195.349 76.9261 195.684 76.9261C195.909 76.9261 196.112 76.8949 196.294 76.8324C196.475 76.767 196.633 76.6719 196.767 76.5469C196.9 76.4219 197.001 76.267 197.069 76.0824L198.51 76.2443C198.419 76.625 198.245 76.9574 197.99 77.2415C197.737 77.5227 197.413 77.7415 197.018 77.8977C196.623 78.0511 196.172 78.1278 195.663 78.1278ZM203.814 80.4545C203.604 80.4545 203.409 80.4375 203.23 80.4034C203.054 80.3722 202.913 80.3352 202.808 80.2926L203.166 79.0909C203.391 79.1563 203.591 79.1875 203.767 79.1847C203.943 79.1818 204.098 79.1264 204.232 79.0185C204.368 78.9134 204.483 78.7372 204.577 78.4901L204.709 78.1364L202.335 71.4545H203.972L205.48 76.3977H205.548L207.061 71.4545H208.702L206.081 78.7926C205.959 79.1392 205.797 79.4361 205.595 79.6832C205.393 79.9332 205.146 80.1236 204.854 80.2543C204.564 80.3878 204.217 80.4545 203.814 80.4545ZM212.402 78.1278C211.762 78.1278 211.208 77.9872 210.74 77.706C210.271 77.4247 209.907 77.0312 209.649 76.5256C209.393 76.0199 209.265 75.429 209.265 74.7528C209.265 74.0767 209.393 73.4844 209.649 72.9759C209.907 72.4673 210.271 72.0724 210.74 71.7912C211.208 71.5099 211.762 71.3693 212.402 71.3693C213.041 71.3693 213.595 71.5099 214.064 71.7912C214.532 72.0724 214.895 72.4673 215.15 72.9759C215.409 73.4844 215.538 74.0767 215.538 74.7528C215.538 75.429 215.409 76.0199 215.15 76.5256C214.895 77.0312 214.532 77.4247 214.064 77.706C213.595 77.9872 213.041 78.1278 212.402 78.1278ZM212.41 76.892C212.757 76.892 213.047 76.7969 213.279 76.6065C213.512 76.4134 213.686 76.1548 213.799 75.831C213.916 75.5071 213.974 75.1463 213.974 74.7486C213.974 74.348 213.916 73.9858 213.799 73.6619C213.686 73.3352 213.512 73.0753 213.279 72.8821C213.047 72.6889 212.757 72.5923 212.41 72.5923C212.055 72.5923 211.76 72.6889 211.524 72.8821C211.291 73.0753 211.116 73.3352 211 73.6619C210.886 73.9858 210.829 74.348 210.829 74.7486C210.829 75.1463 210.886 75.5071 211 75.831C211.116 76.1548 211.291 76.4134 211.524 76.6065C211.76 76.7969 212.055 76.892 212.41 76.892ZM221.019 75.2472V71.4545H222.562V78H221.066V76.8366H220.998C220.85 77.2031 220.607 77.5028 220.269 77.7358C219.934 77.9687 219.521 78.0852 219.029 78.0852C218.6 78.0852 218.221 77.9901 217.891 77.7997C217.565 77.6065 217.309 77.3267 217.124 76.9602C216.94 76.5909 216.847 76.1449 216.847 75.6222V71.4545H218.39V75.3835C218.39 75.7983 218.504 76.1278 218.731 76.3722C218.958 76.6165 219.256 76.7386 219.626 76.7386C219.853 76.7386 220.073 76.6832 220.286 76.5724C220.499 76.4616 220.674 76.2969 220.81 76.0781C220.95 75.8565 221.019 75.5795 221.019 75.2472ZM230.393 71.4545V72.6477H226.63V71.4545H230.393ZM227.559 69.8864H229.102V76.0312C229.102 76.2386 229.133 76.3977 229.196 76.5085C229.261 76.6165 229.346 76.6903 229.451 76.7301C229.556 76.7699 229.673 76.7898 229.801 76.7898C229.897 76.7898 229.985 76.7827 230.065 76.7685C230.147 76.7543 230.21 76.7415 230.252 76.7301L230.512 77.9361C230.43 77.9645 230.312 77.9957 230.159 78.0298C230.008 78.0639 229.824 78.0838 229.605 78.0895C229.218 78.1009 228.87 78.0426 228.561 77.9148C228.251 77.7841 228.005 77.5824 227.824 77.3097C227.645 77.0369 227.556 76.696 227.559 76.2869V69.8864ZM233.366 74.1648V78H231.824V69.2727H233.332V72.5668H233.409C233.563 72.1974 233.8 71.9062 234.121 71.6932C234.445 71.4773 234.857 71.3693 235.357 71.3693C235.811 71.3693 236.207 71.4645 236.545 71.6548C236.884 71.8452 237.145 72.1236 237.33 72.4901C237.517 72.8565 237.611 73.304 237.611 73.8324V78H236.068V74.071C236.068 73.6307 235.955 73.2884 235.727 73.044C235.503 72.7969 235.188 72.6733 234.781 72.6733C234.509 72.6733 234.264 72.733 234.048 72.8523C233.835 72.9687 233.668 73.1378 233.545 73.3594C233.426 73.581 233.366 73.8494 233.366 74.1648ZM242.081 78.1278C241.425 78.1278 240.858 77.9915 240.381 77.7188C239.906 77.4432 239.541 77.054 239.286 76.5511C239.03 76.0455 238.902 75.4503 238.902 74.7656C238.902 74.0923 239.03 73.5014 239.286 72.9929C239.544 72.4815 239.905 72.0838 240.368 71.7997C240.831 71.5128 241.375 71.3693 242 71.3693C242.403 71.3693 242.784 71.4347 243.142 71.5653C243.503 71.6932 243.821 71.892 244.097 72.1619C244.375 72.4318 244.594 72.7756 244.753 73.1932C244.912 73.608 244.991 74.1023 244.991 74.6761V75.1491H239.626V74.1094H243.513C243.51 73.8139 243.446 73.5511 243.321 73.321C243.196 73.0881 243.021 72.9048 242.797 72.7713C242.575 72.6378 242.317 72.571 242.021 72.571C241.706 72.571 241.429 72.6477 241.19 72.8011C240.952 72.9517 240.766 73.1506 240.632 73.3977C240.501 73.642 240.435 73.9105 240.432 74.2031V75.1108C240.432 75.4915 240.501 75.8182 240.641 76.0909C240.78 76.3608 240.974 76.5682 241.224 76.7131C241.474 76.8551 241.767 76.9261 242.102 76.9261C242.327 76.9261 242.53 76.8949 242.712 76.8324C242.893 76.767 243.051 76.6719 243.185 76.5469C243.318 76.4219 243.419 76.267 243.487 76.0824L244.928 76.2443C244.837 76.625 244.663 76.9574 244.408 77.2415C244.155 77.5227 243.831 77.7415 243.436 77.8977C243.041 78.0511 242.589 78.1278 242.081 78.1278ZM254.446 73.1847L253.04 73.3381C253 73.196 252.931 73.0625 252.831 72.9375C252.735 72.8125 252.604 72.7116 252.439 72.6349C252.275 72.5582 252.073 72.5199 251.834 72.5199C251.513 72.5199 251.243 72.5895 251.025 72.7287C250.809 72.8679 250.702 73.0483 250.705 73.2699C250.702 73.4602 250.772 73.6151 250.914 73.7344C251.059 73.8537 251.297 73.9517 251.63 74.0284L252.746 74.267C253.365 74.4006 253.826 74.6122 254.127 74.902C254.431 75.1918 254.584 75.571 254.587 76.0398C254.584 76.4517 254.463 76.8153 254.225 77.1307C253.989 77.4432 253.661 77.6875 253.24 77.8636C252.82 78.0398 252.337 78.1278 251.792 78.1278C250.99 78.1278 250.346 77.9602 249.857 77.625C249.368 77.2869 249.077 76.8168 248.983 76.2145L250.488 76.0696C250.556 76.3651 250.701 76.5881 250.922 76.7386C251.144 76.8892 251.432 76.9645 251.787 76.9645C252.154 76.9645 252.448 76.8892 252.669 76.7386C252.894 76.5881 253.006 76.402 253.006 76.1804C253.006 75.9929 252.934 75.8381 252.789 75.7159C252.647 75.5937 252.425 75.5 252.124 75.4347L251.007 75.2003C250.38 75.0696 249.915 74.8494 249.614 74.5398C249.313 74.2273 249.164 73.8324 249.167 73.3551C249.164 72.9517 249.273 72.6023 249.495 72.3068C249.719 72.0085 250.03 71.7784 250.428 71.6165C250.828 71.4517 251.29 71.3693 251.813 71.3693C252.58 71.3693 253.184 71.5327 253.624 71.8594C254.067 72.1861 254.341 72.6278 254.446 73.1847ZM257.265 75.946L257.261 74.0838H257.508L259.86 71.4545H261.663L258.77 74.6761H258.45L257.265 75.946ZM255.859 78V69.2727H257.402V78H255.859ZM259.967 78L257.836 75.0213L258.876 73.9347L261.812 78H259.967ZM262.691 78V71.4545H264.234V78H262.691ZM263.467 70.5256C263.222 70.5256 263.012 70.4446 262.836 70.2827C262.66 70.1179 262.572 69.9205 262.572 69.6903C262.572 69.4574 262.66 69.2599 262.836 69.098C263.012 68.9332 263.222 68.8509 263.467 68.8509C263.714 68.8509 263.924 68.9332 264.097 69.098C264.273 69.2599 264.362 69.4574 264.362 69.6903C264.362 69.9205 264.273 70.1179 264.097 70.2827C263.924 70.4446 263.714 70.5256 263.467 70.5256ZM267.363 69.2727V78H265.82V69.2727H267.363ZM270.491 69.2727V78H268.949V69.2727H270.491ZM277.251 73.1847L275.845 73.3381C275.805 73.196 275.735 73.0625 275.636 72.9375C275.539 72.8125 275.409 72.7116 275.244 72.6349C275.079 72.5582 274.877 72.5199 274.639 72.5199C274.318 72.5199 274.048 72.5895 273.829 72.7287C273.613 72.8679 273.507 73.0483 273.51 73.2699C273.507 73.4602 273.576 73.6151 273.718 73.7344C273.863 73.8537 274.102 73.9517 274.434 74.0284L275.551 74.267C276.17 74.4006 276.63 74.6122 276.931 74.902C277.235 75.1918 277.389 75.571 277.392 76.0398C277.389 76.4517 277.268 76.8153 277.029 77.1307C276.794 77.4432 276.466 77.6875 276.045 77.8636C275.625 78.0398 275.142 78.1278 274.596 78.1278C273.795 78.1278 273.15 77.9602 272.662 77.625C272.173 77.2869 271.882 76.8168 271.788 76.2145L273.292 76.0696C273.36 76.3651 273.505 76.5881 273.727 76.7386C273.949 76.8892 274.237 76.9645 274.592 76.9645C274.958 76.9645 275.252 76.8892 275.474 76.7386C275.699 76.5881 275.811 76.402 275.811 76.1804C275.811 75.9929 275.738 75.8381 275.593 75.7159C275.451 75.5937 275.23 75.5 274.929 75.4347L273.812 75.2003C273.184 75.0696 272.72 74.8494 272.419 74.5398C272.118 74.2273 271.968 73.8324 271.971 73.3551C271.968 72.9517 272.078 72.6023 272.299 72.3068C272.524 72.0085 272.835 71.7784 273.233 71.6165C273.633 71.4517 274.095 71.3693 274.618 71.3693C275.385 71.3693 275.988 71.5327 276.429 71.8594C276.872 72.1861 277.146 72.6278 277.251 73.1847ZM24.0611 86.4545V87.6477H20.2983V86.4545H24.0611ZM21.2273 84.8864H22.7699V91.0312C22.7699 91.2386 22.8011 91.3977 22.8636 91.5085C22.929 91.6165 23.0142 91.6903 23.1193 91.7301C23.2244 91.7699 23.3409 91.7898 23.4688 91.7898C23.5653 91.7898 23.6534 91.7827 23.733 91.7685C23.8153 91.7543 23.8778 91.7415 23.9205 91.7301L24.1804 92.9361C24.098 92.9645 23.9801 92.9957 23.8267 93.0298C23.6761 93.0639 23.4915 93.0838 23.2727 93.0895C22.8864 93.1009 22.5384 93.0426 22.2287 92.9148C21.919 92.7841 21.6733 92.5824 21.4915 92.3097C21.3125 92.0369 21.2244 91.696 21.2273 91.2869V84.8864ZM28.136 93.1278C27.4968 93.1278 26.9428 92.9872 26.4741 92.706C26.0053 92.4247 25.6417 92.0312 25.3832 91.5256C25.1275 91.0199 24.9996 90.429 24.9996 89.7528C24.9996 89.0767 25.1275 88.4844 25.3832 87.9759C25.6417 87.4673 26.0053 87.0724 26.4741 86.7912C26.9428 86.5099 27.4968 86.3693 28.136 86.3693C28.7752 86.3693 29.3292 86.5099 29.7979 86.7912C30.2667 87.0724 30.6289 87.4673 30.8846 87.9759C31.1431 88.4844 31.2724 89.0767 31.2724 89.7528C31.2724 90.429 31.1431 91.0199 30.8846 91.5256C30.6289 92.0312 30.2667 92.4247 29.7979 92.706C29.3292 92.9872 28.7752 93.1278 28.136 93.1278ZM28.1445 91.892C28.4911 91.892 28.7809 91.7969 29.0138 91.6065C29.2468 91.4134 29.4201 91.1548 29.5337 90.831C29.6502 90.5071 29.7085 90.1463 29.7085 89.7486C29.7085 89.348 29.6502 88.9858 29.5337 88.6619C29.4201 88.3352 29.2468 88.0753 29.0138 87.8821C28.7809 87.6889 28.4911 87.5923 28.1445 87.5923C27.7894 87.5923 27.494 87.6889 27.2582 87.8821C27.0252 88.0753 26.8505 88.3352 26.734 88.6619C26.6204 88.9858 26.5636 89.348 26.5636 89.7486C26.5636 90.1463 26.6204 90.5071 26.734 90.831C26.8505 91.1548 27.0252 91.4134 27.2582 91.6065C27.494 91.7969 27.7894 91.892 28.1445 91.892ZM35.6264 93V84.2727H37.169V87.5369H37.233C37.3125 87.3778 37.4247 87.2088 37.5696 87.0298C37.7145 86.848 37.9105 86.6932 38.1577 86.5653C38.4048 86.4347 38.7202 86.3693 39.1037 86.3693C39.6094 86.3693 40.0653 86.4986 40.4716 86.7571C40.8807 87.0128 41.2045 87.392 41.4432 87.8949C41.6847 88.3949 41.8054 89.0085 41.8054 89.7358C41.8054 90.4545 41.6875 91.0653 41.4517 91.5682C41.2159 92.071 40.8949 92.4545 40.4886 92.7188C40.0824 92.983 39.6222 93.1151 39.108 93.1151C38.733 93.1151 38.4219 93.0526 38.1747 92.9276C37.9276 92.8026 37.7287 92.652 37.5781 92.4759C37.4304 92.2969 37.3153 92.1278 37.233 91.9688H37.1435V93H35.6264ZM37.1392 89.7273C37.1392 90.1506 37.1989 90.5213 37.3182 90.8395C37.4403 91.1577 37.6151 91.4062 37.8423 91.5852C38.0724 91.7614 38.3509 91.8494 38.6776 91.8494C39.0185 91.8494 39.304 91.7585 39.5341 91.5767C39.7642 91.392 39.9375 91.1406 40.054 90.8224C40.1733 90.5014 40.233 90.1364 40.233 89.7273C40.233 89.321 40.1747 88.9602 40.0582 88.6449C39.9418 88.3295 39.7685 88.0824 39.5384 87.9034C39.3082 87.7244 39.0213 87.6349 38.6776 87.6349C38.348 87.6349 38.0682 87.7216 37.8381 87.8949C37.608 88.0682 37.4332 88.3111 37.3139 88.6236C37.1974 88.9361 37.1392 89.304 37.1392 89.7273ZM46.0146 93.1278C45.3583 93.1278 44.7915 92.9915 44.3143 92.7188C43.8398 92.4432 43.4748 92.054 43.2191 91.5511C42.9634 91.0455 42.8356 90.4503 42.8356 89.7656C42.8356 89.0923 42.9634 88.5014 43.2191 87.9929C43.4776 87.4815 43.8384 87.0838 44.3015 86.7997C44.7646 86.5128 45.3086 86.3693 45.9336 86.3693C46.337 86.3693 46.7177 86.4347 47.0756 86.5653C47.4364 86.6932 47.7546 86.892 48.0302 87.1619C48.3086 87.4318 48.5273 87.7756 48.6864 88.1932C48.8455 88.608 48.9251 89.1023 48.9251 89.6761V90.1491H43.56V89.1094H47.4464C47.4435 88.8139 47.3796 88.5511 47.2546 88.321C47.1296 88.0881 46.9549 87.9048 46.7305 87.7713C46.5089 87.6378 46.2504 87.571 45.9549 87.571C45.6396 87.571 45.3626 87.6477 45.1239 87.8011C44.8853 87.9517 44.6992 88.1506 44.5657 88.3977C44.435 88.642 44.3683 88.9105 44.3654 89.2031V90.1108C44.3654 90.4915 44.435 90.8182 44.5742 91.0909C44.7134 91.3608 44.908 91.5682 45.158 91.7131C45.408 91.8551 45.7006 91.9261 46.0359 91.9261C46.2603 91.9261 46.4634 91.8949 46.6452 91.8324C46.8271 91.767 46.9847 91.6719 47.1183 91.5469C47.2518 91.4219 47.3526 91.267 47.4208 91.0824L48.8612 91.2443C48.7702 91.625 48.5969 91.9574 48.3413 92.2415C48.0884 92.5227 47.7646 92.7415 47.3697 92.8977C46.9748 93.0511 46.5231 93.1278 46.0146 93.1278ZM56.0618 93.1278C55.4084 93.1278 54.8473 92.9844 54.3786 92.6974C53.9126 92.4105 53.5533 92.0142 53.3004 91.5085C53.0504 91 52.9254 90.4148 52.9254 89.7528C52.9254 89.0881 53.0533 88.5014 53.3089 87.9929C53.5646 87.4815 53.9254 87.0838 54.3913 86.7997C54.8601 86.5128 55.4141 86.3693 56.0533 86.3693C56.5845 86.3693 57.0547 86.4673 57.4638 86.6634C57.8757 86.8565 58.2038 87.1307 58.4482 87.4858C58.6925 87.8381 58.8317 88.25 58.8658 88.7216H57.3913C57.3317 88.4062 57.1896 88.1435 56.9652 87.9332C56.7436 87.7202 56.4467 87.6136 56.0746 87.6136C55.7592 87.6136 55.4822 87.6989 55.2436 87.8693C55.005 88.0369 54.8189 88.2784 54.6854 88.5938C54.5547 88.9091 54.4893 89.2869 54.4893 89.7273C54.4893 90.1733 54.5547 90.5568 54.6854 90.8778C54.8161 91.196 54.9993 91.4418 55.2351 91.6151C55.4737 91.7855 55.7536 91.8707 56.0746 91.8707C56.3018 91.8707 56.505 91.8281 56.6839 91.7429C56.8658 91.6548 57.0178 91.5284 57.1399 91.3636C57.2621 91.1989 57.3459 90.9986 57.3913 90.7628H58.8658C58.8288 91.2259 58.6925 91.6364 58.4567 91.9943C58.2209 92.3494 57.8999 92.6278 57.4936 92.8295C57.0874 93.0284 56.6101 93.1278 56.0618 93.1278ZM62.016 93.1321C61.6012 93.1321 61.2276 93.0582 60.8952 92.9105C60.5657 92.7599 60.3043 92.5384 60.1112 92.2457C59.9208 91.9531 59.8256 91.5923 59.8256 91.1634C59.8256 90.794 59.8938 90.4886 60.0302 90.2472C60.1665 90.0057 60.3526 89.8125 60.5884 89.6676C60.8242 89.5227 61.0898 89.4134 61.3853 89.3395C61.6836 89.2628 61.9918 89.2074 62.31 89.1733C62.6935 89.1335 63.0046 89.098 63.2433 89.0668C63.4819 89.0327 63.6552 88.9815 63.7631 88.9134C63.8739 88.8423 63.9293 88.733 63.9293 88.5852V88.5597C63.9293 88.2386 63.8342 87.9901 63.6438 87.8139C63.4535 87.6378 63.1793 87.5497 62.8214 87.5497C62.4435 87.5497 62.1438 87.6321 61.9222 87.7969C61.7035 87.9616 61.5558 88.1562 61.479 88.3807L60.0387 88.1761C60.1523 87.7784 60.3398 87.446 60.6012 87.179C60.8626 86.9091 61.1822 86.7074 61.56 86.5739C61.9379 86.4375 62.3555 86.3693 62.8129 86.3693C63.1282 86.3693 63.4421 86.4062 63.7546 86.4801C64.0671 86.554 64.3526 86.6761 64.6112 86.8466C64.8697 87.0142 65.0771 87.2429 65.2333 87.5327C65.3924 87.8224 65.4719 88.1847 65.4719 88.6193V93H63.989V92.1009H63.9379C63.8441 92.2827 63.712 92.4531 63.5415 92.6122C63.3739 92.7685 63.1623 92.8949 62.9066 92.9915C62.6538 93.0852 62.3569 93.1321 62.016 93.1321ZM62.4165 91.9986C62.7262 91.9986 62.9947 91.9375 63.2219 91.8153C63.4492 91.6903 63.6239 91.5256 63.7461 91.321C63.8711 91.1165 63.9336 90.8935 63.9336 90.652V89.8807C63.8853 89.9205 63.8029 89.9574 63.6864 89.9915C63.5728 90.0256 63.445 90.0554 63.3029 90.081C63.1609 90.1065 63.0202 90.1293 62.881 90.1491C62.7418 90.169 62.6211 90.1861 62.5188 90.2003C62.2887 90.2315 62.0827 90.2827 61.9009 90.3537C61.7191 90.4247 61.5756 90.5241 61.4705 90.652C61.3654 90.777 61.3129 90.9389 61.3129 91.1378C61.3129 91.4219 61.4165 91.6364 61.6239 91.7812C61.8313 91.9261 62.0955 91.9986 62.4165 91.9986ZM68.5657 84.2727V93H67.0231V84.2727H68.5657ZM70.152 93V86.4545H71.6264V87.5668H71.7031C71.8395 87.1918 72.0653 86.8991 72.3807 86.6889C72.696 86.4759 73.0724 86.3693 73.5099 86.3693C73.9531 86.3693 74.3267 86.4773 74.6307 86.6932C74.9375 86.9062 75.1534 87.1974 75.2784 87.5668H75.3466C75.4915 87.2031 75.7358 86.9134 76.0795 86.6974C76.4261 86.4787 76.8366 86.3693 77.3111 86.3693C77.9134 86.3693 78.4048 86.5597 78.7855 86.9403C79.1662 87.321 79.3565 87.8764 79.3565 88.6065V93H77.8097V88.8452C77.8097 88.4389 77.7017 88.142 77.4858 87.9545C77.2699 87.7642 77.0057 87.669 76.6932 87.669C76.321 87.669 76.0298 87.7855 75.8196 88.0185C75.6122 88.2486 75.5085 88.5483 75.5085 88.9176V93H73.9957V88.7812C73.9957 88.4432 73.8935 88.1733 73.6889 87.9716C73.4872 87.7699 73.223 87.669 72.8963 87.669C72.6747 87.669 72.473 87.7259 72.2912 87.8395C72.1094 87.9503 71.9645 88.108 71.8565 88.3125C71.7486 88.5142 71.6946 88.75 71.6946 89.0199V93H70.152ZM83.8981 93V86.4545H85.4407V93H83.8981ZM84.6737 85.5256C84.4293 85.5256 84.2191 85.4446 84.043 85.2827C83.8668 85.1179 83.7788 84.9205 83.7788 84.6903C83.7788 84.4574 83.8668 84.2599 84.043 84.098C84.2191 83.9332 84.4293 83.8509 84.6737 83.8509C84.9208 83.8509 85.131 83.9332 85.3043 84.098C85.4805 84.2599 85.5685 84.4574 85.5685 84.6903C85.5685 84.9205 85.4805 85.1179 85.3043 85.2827C85.131 85.4446 84.9208 85.5256 84.6737 85.5256ZM88.5696 89.1648V93H87.027V86.4545H88.5014V87.5668H88.5781C88.7287 87.2003 88.9688 86.9091 89.2983 86.6932C89.6307 86.4773 90.0412 86.3693 90.5298 86.3693C90.9815 86.3693 91.375 86.4659 91.7102 86.6591C92.0483 86.8523 92.3097 87.1321 92.4943 87.4986C92.6818 87.8651 92.7741 88.3097 92.7713 88.8324V93H91.2287V89.071C91.2287 88.6335 91.1151 88.2912 90.8878 88.044C90.6634 87.7969 90.3523 87.6733 89.9545 87.6733C89.6847 87.6733 89.4446 87.733 89.2344 87.8523C89.027 87.9687 88.8636 88.1378 88.7443 88.3594C88.6278 88.581 88.5696 88.8494 88.5696 89.1648ZM99.1996 93.1321C98.7848 93.1321 98.4112 93.0582 98.0788 92.9105C97.7493 92.7599 97.4879 92.5384 97.2947 92.2457C97.1044 91.9531 97.0092 91.5923 97.0092 91.1634C97.0092 90.794 97.0774 90.4886 97.2138 90.2472C97.3501 90.0057 97.5362 89.8125 97.772 89.6676C98.0078 89.5227 98.2734 89.4134 98.5689 89.3395C98.8672 89.2628 99.1754 89.2074 99.4936 89.1733C99.8771 89.1335 100.188 89.098 100.427 89.0668C100.665 89.0327 100.839 88.9815 100.947 88.9134C101.058 88.8423 101.113 88.733 101.113 88.5852V88.5597C101.113 88.2386 101.018 87.9901 100.827 87.8139C100.637 87.6378 100.363 87.5497 100.005 87.5497C99.6271 87.5497 99.3274 87.6321 99.1058 87.7969C98.8871 87.9616 98.7393 88.1562 98.6626 88.3807L97.2223 88.1761C97.3359 87.7784 97.5234 87.446 97.7848 87.179C98.0462 86.9091 98.3658 86.7074 98.7436 86.5739C99.1214 86.4375 99.5391 86.3693 99.9964 86.3693C100.312 86.3693 100.626 86.4062 100.938 86.4801C101.251 86.554 101.536 86.6761 101.795 86.8466C102.053 87.0142 102.261 87.2429 102.417 87.5327C102.576 87.8224 102.656 88.1847 102.656 88.6193V93H101.173V92.1009H101.121C101.028 92.2827 100.896 92.4531 100.725 92.6122C100.558 92.7685 100.346 92.8949 100.09 92.9915C99.8374 93.0852 99.5405 93.1321 99.1996 93.1321ZM99.6001 91.9986C99.9098 91.9986 100.178 91.9375 100.406 91.8153C100.633 91.6903 100.808 91.5256 100.93 91.321C101.055 91.1165 101.117 90.8935 101.117 90.652V89.8807C101.069 89.9205 100.987 89.9574 100.87 89.9915C100.756 90.0256 100.629 90.0554 100.487 90.081C100.344 90.1065 100.204 90.1293 100.065 90.1491C99.9254 90.169 99.8047 90.1861 99.7024 90.2003C99.4723 90.2315 99.2663 90.2827 99.0845 90.3537C98.9027 90.4247 98.7592 90.5241 98.6541 90.652C98.549 90.777 98.4964 90.9389 98.4964 91.1378C98.4964 91.4219 98.6001 91.6364 98.8075 91.7812C99.0149 91.9261 99.2791 91.9986 99.6001 91.9986ZM105.749 89.1648V93H104.207V86.4545H105.681V87.5668H105.758C105.908 87.2003 106.148 86.9091 106.478 86.6932C106.81 86.4773 107.221 86.3693 107.71 86.3693C108.161 86.3693 108.555 86.4659 108.89 86.6591C109.228 86.8523 109.489 87.1321 109.674 87.4986C109.862 87.8651 109.954 88.3097 109.951 88.8324V93H108.408V89.071C108.408 88.6335 108.295 88.2912 108.067 88.044C107.843 87.7969 107.532 87.6733 107.134 87.6733C106.864 87.6733 106.624 87.733 106.414 87.8523C106.207 87.9687 106.043 88.1378 105.924 88.3594C105.808 88.581 105.749 88.8494 105.749 89.1648ZM112.244 95.4545C112.033 95.4545 111.839 95.4375 111.66 95.4034C111.484 95.3722 111.343 95.3352 111.238 95.2926L111.596 94.0909C111.82 94.1563 112.021 94.1875 112.197 94.1847C112.373 94.1818 112.528 94.1264 112.661 94.0185C112.798 93.9134 112.913 93.7372 113.006 93.4901L113.138 93.1364L110.765 86.4545H112.401L113.91 91.3977H113.978L115.491 86.4545H117.131L114.511 93.7926C114.388 94.1392 114.227 94.4361 114.025 94.6832C113.823 94.9332 113.576 95.1236 113.283 95.2543C112.994 95.3878 112.647 95.4545 112.244 95.4545ZM126.349 88.1847L124.942 88.3381C124.903 88.196 124.833 88.0625 124.734 87.9375C124.637 87.8125 124.506 87.7116 124.342 87.6349C124.177 87.5582 123.975 87.5199 123.737 87.5199C123.415 87.5199 123.146 87.5895 122.927 87.7287C122.711 87.8679 122.604 88.0483 122.607 88.2699C122.604 88.4602 122.674 88.6151 122.816 88.7344C122.961 88.8537 123.2 88.9517 123.532 89.0284L124.648 89.267C125.268 89.4006 125.728 89.6122 126.029 89.902C126.333 90.1918 126.487 90.571 126.489 91.0398C126.487 91.4517 126.366 91.8153 126.127 92.1307C125.891 92.4432 125.563 92.6875 125.143 92.8636C124.722 93.0398 124.239 93.1278 123.694 93.1278C122.893 93.1278 122.248 92.9602 121.759 92.625C121.271 92.2869 120.979 91.8168 120.886 91.2145L122.39 91.0696C122.458 91.3651 122.603 91.5881 122.825 91.7386C123.046 91.8892 123.335 91.9645 123.69 91.9645C124.056 91.9645 124.35 91.8892 124.572 91.7386C124.796 91.5881 124.908 91.402 124.908 91.1804C124.908 90.9929 124.836 90.8381 124.691 90.7159C124.549 90.5937 124.327 90.5 124.026 90.4347L122.91 90.2003C122.282 90.0696 121.817 89.8494 121.516 89.5398C121.215 89.2273 121.066 88.8324 121.069 88.3551C121.066 87.9517 121.175 87.6023 121.397 87.3068C121.621 87.0085 121.933 86.7784 122.33 86.6165C122.731 86.4517 123.192 86.3693 123.715 86.3693C124.482 86.3693 125.086 86.5327 125.526 86.8594C125.969 87.1861 126.244 87.6278 126.349 88.1847ZM127.761 93V86.4545H129.304V93H127.761ZM128.537 85.5256C128.293 85.5256 128.082 85.4446 127.906 85.2827C127.73 85.1179 127.642 84.9205 127.642 84.6903C127.642 84.4574 127.73 84.2599 127.906 84.098C128.082 83.9332 128.293 83.8509 128.537 83.8509C128.784 83.8509 128.994 83.9332 129.168 84.098C129.344 84.2599 129.432 84.4574 129.432 84.6903C129.432 84.9205 129.344 85.1179 129.168 85.2827C128.994 85.4446 128.784 85.5256 128.537 85.5256ZM134.159 86.4545V87.6477H130.396V86.4545H134.159ZM131.325 84.8864H132.868V91.0312C132.868 91.2386 132.899 91.3977 132.961 91.5085C133.027 91.6165 133.112 91.6903 133.217 91.7301C133.322 91.7699 133.439 91.7898 133.566 91.7898C133.663 91.7898 133.751 91.7827 133.831 91.7685C133.913 91.7543 133.975 91.7415 134.018 91.7301L134.278 92.9361C134.196 92.9645 134.078 92.9957 133.924 93.0298C133.774 93.0639 133.589 93.0838 133.37 93.0895C132.984 93.1009 132.636 93.0426 132.326 92.9148C132.017 92.7841 131.771 92.5824 131.589 92.3097C131.41 92.0369 131.322 91.696 131.325 91.2869V84.8864ZM139.621 90.2472V86.4545H141.163V93H139.668V91.8366H139.599C139.452 92.2031 139.209 92.5028 138.871 92.7358C138.536 92.9687 138.122 93.0852 137.631 93.0852C137.202 93.0852 136.822 92.9901 136.493 92.7997C136.166 92.6065 135.911 92.3267 135.726 91.9602C135.541 91.5909 135.449 91.1449 135.449 90.6222V86.4545H136.991V90.3835C136.991 90.7983 137.105 91.1278 137.332 91.3722C137.56 91.6165 137.858 91.7386 138.227 91.7386C138.455 91.7386 138.675 91.6832 138.888 91.5724C139.101 91.4616 139.276 91.2969 139.412 91.0781C139.551 90.8565 139.621 90.5795 139.621 90.2472ZM144.633 93.1321C144.218 93.1321 143.845 93.0582 143.512 92.9105C143.183 92.7599 142.922 92.5384 142.728 92.2457C142.538 91.9531 142.443 91.5923 142.443 91.1634C142.443 90.794 142.511 90.4886 142.647 90.2472C142.784 90.0057 142.97 89.8125 143.206 89.6676C143.441 89.5227 143.707 89.4134 144.002 89.3395C144.301 89.2628 144.609 89.2074 144.927 89.1733C145.311 89.1335 145.622 89.098 145.86 89.0668C146.099 89.0327 146.272 88.9815 146.38 88.9134C146.491 88.8423 146.547 88.733 146.547 88.5852V88.5597C146.547 88.2386 146.451 87.9901 146.261 87.8139C146.071 87.6378 145.797 87.5497 145.439 87.5497C145.061 87.5497 144.761 87.6321 144.539 87.7969C144.321 87.9616 144.173 88.1562 144.096 88.3807L142.656 88.1761C142.77 87.7784 142.957 87.446 143.218 87.179C143.48 86.9091 143.799 86.7074 144.177 86.5739C144.555 86.4375 144.973 86.3693 145.43 86.3693C145.745 86.3693 146.059 86.4062 146.372 86.4801C146.684 86.554 146.97 86.6761 147.228 86.8466C147.487 87.0142 147.694 87.2429 147.85 87.5327C148.01 87.8224 148.089 88.1847 148.089 88.6193V93H146.606V92.1009H146.555C146.461 92.2827 146.329 92.4531 146.159 92.6122C145.991 92.7685 145.779 92.8949 145.524 92.9915C145.271 93.0852 144.974 93.1321 144.633 93.1321ZM145.034 91.9986C145.343 91.9986 145.612 91.9375 145.839 91.8153C146.066 91.6903 146.241 91.5256 146.363 91.321C146.488 91.1165 146.551 90.8935 146.551 90.652V89.8807C146.502 89.9205 146.42 89.9574 146.304 89.9915C146.19 90.0256 146.062 90.0554 145.92 90.081C145.778 90.1065 145.637 90.1293 145.498 90.1491C145.359 90.169 145.238 90.1861 145.136 90.2003C144.906 90.2315 144.7 90.2827 144.518 90.3537C144.336 90.4247 144.193 90.5241 144.088 90.652C143.983 90.777 143.93 90.9389 143.93 91.1378C143.93 91.4219 144.034 91.6364 144.241 91.7812C144.449 91.9261 144.713 91.9986 145.034 91.9986ZM152.909 86.4545V87.6477H149.146V86.4545H152.909ZM150.075 84.8864H151.618V91.0312C151.618 91.2386 151.649 91.3977 151.711 91.5085C151.777 91.6165 151.862 91.6903 151.967 91.7301C152.072 91.7699 152.189 91.7898 152.316 91.7898C152.413 91.7898 152.501 91.7827 152.581 91.7685C152.663 91.7543 152.725 91.7415 152.768 91.7301L153.028 92.9361C152.946 92.9645 152.828 92.9957 152.674 93.0298C152.524 93.0639 152.339 93.0838 152.12 93.0895C151.734 93.1009 151.386 93.0426 151.076 92.9148C150.767 92.7841 150.521 92.5824 150.339 92.3097C150.16 92.0369 150.072 91.696 150.075 91.2869V84.8864ZM154.199 93V86.4545H155.741V93H154.199ZM154.974 85.5256C154.73 85.5256 154.52 85.4446 154.344 85.2827C154.168 85.1179 154.08 84.9205 154.08 84.6903C154.08 84.4574 154.168 84.2599 154.344 84.098C154.52 83.9332 154.73 83.8509 154.974 83.8509C155.222 83.8509 155.432 83.9332 155.605 84.098C155.781 84.2599 155.869 84.4574 155.869 84.6903C155.869 84.9205 155.781 85.1179 155.605 85.2827C155.432 85.4446 155.222 85.5256 154.974 85.5256ZM160.183 93.1278C159.544 93.1278 158.99 92.9872 158.521 92.706C158.052 92.4247 157.689 92.0312 157.43 91.5256C157.174 91.0199 157.047 90.429 157.047 89.7528C157.047 89.0767 157.174 88.4844 157.43 87.9759C157.689 87.4673 158.052 87.0724 158.521 86.7912C158.99 86.5099 159.544 86.3693 160.183 86.3693C160.822 86.3693 161.376 86.5099 161.845 86.7912C162.314 87.0724 162.676 87.4673 162.931 87.9759C163.19 88.4844 163.319 89.0767 163.319 89.7528C163.319 90.429 163.19 91.0199 162.931 91.5256C162.676 92.0312 162.314 92.4247 161.845 92.706C161.376 92.9872 160.822 93.1278 160.183 93.1278ZM160.191 91.892C160.538 91.892 160.828 91.7969 161.061 91.6065C161.294 91.4134 161.467 91.1548 161.581 90.831C161.697 90.5071 161.755 90.1463 161.755 89.7486C161.755 89.348 161.697 88.9858 161.581 88.6619C161.467 88.3352 161.294 88.0753 161.061 87.8821C160.828 87.6889 160.538 87.5923 160.191 87.5923C159.836 87.5923 159.541 87.6889 159.305 87.8821C159.072 88.0753 158.897 88.3352 158.781 88.6619C158.667 88.9858 158.61 89.348 158.61 89.7486C158.61 90.1463 158.667 90.5071 158.781 90.831C158.897 91.1548 159.072 91.4134 159.305 91.6065C159.541 91.7969 159.836 91.892 160.191 91.892ZM166.171 89.1648V93H164.629V86.4545H166.103V87.5668H166.18C166.33 87.2003 166.57 86.9091 166.9 86.6932C167.232 86.4773 167.643 86.3693 168.131 86.3693C168.583 86.3693 168.977 86.4659 169.312 86.6591C169.65 86.8523 169.911 87.1321 170.096 87.4986C170.283 87.8651 170.376 88.3097 170.373 88.8324V93H168.83V89.071C168.83 88.6335 168.717 88.2912 168.489 88.044C168.265 87.7969 167.954 87.6733 167.556 87.6733C167.286 87.6733 167.046 87.733 166.836 87.8523C166.629 87.9687 166.465 88.1378 166.346 88.3594C166.229 88.581 166.171 88.8494 166.171 89.1648Z" fill="#FCFCFC"/>
</svg>
