<svg width="323" height="136" viewBox="0 0 323 136" fill="none" xmlns="http://www.w3.org/2000/svg">
<g filter="url(#filter0_d_532_2064)">
<rect x="10" y="9" width="303" height="116" rx="20" fill="#D87AB8" shape-rendering="crispEdges"/>
<path d="M31.2642 39.4545H35.0568L39.0625 49.2273H39.233L43.2386 39.4545H47.0312V54H44.0483V44.5327H43.9276L40.1634 53.929H38.1321L34.3679 44.4972H34.2472V54H31.2642V39.4545ZM49.5082 54V43.0909H52.5337V54H49.5082ZM51.0281 41.6847C50.5782 41.6847 50.1924 41.5355 49.8704 41.2372C49.5531 40.9342 49.3945 40.572 49.3945 40.1506C49.3945 39.7339 49.5531 39.3764 49.8704 39.0781C50.1924 38.7751 50.5782 38.6236 51.0281 38.6236C51.4779 38.6236 51.8614 38.7751 52.1786 39.0781C52.5006 39.3764 52.6616 39.7339 52.6616 40.1506C52.6616 40.572 52.5006 40.9342 52.1786 41.2372C51.8614 41.5355 51.4779 41.6847 51.0281 41.6847ZM57.983 47.6932V54H54.9574V43.0909H57.8409V45.0156H57.9688C58.2102 44.3812 58.6151 43.8793 59.1832 43.5099C59.7514 43.1359 60.4403 42.9489 61.25 42.9489C62.0076 42.9489 62.6681 43.1146 63.2315 43.446C63.795 43.7775 64.233 44.2509 64.5455 44.8665C64.858 45.4773 65.0142 46.2064 65.0142 47.054V54H61.9886V47.5938C61.9934 46.9261 61.8229 46.4053 61.4773 46.0312C61.1316 45.6525 60.6558 45.4631 60.0497 45.4631C59.6425 45.4631 59.2827 45.5507 58.9702 45.7259C58.6624 45.901 58.4209 46.1567 58.2457 46.4929C58.0753 46.8243 57.9877 47.2244 57.983 47.6932ZM71.4187 54.1776C70.5901 54.1776 69.8396 53.9645 69.1673 53.5384C68.4996 53.1075 67.9693 52.4754 67.5763 51.642C67.1881 50.804 66.994 49.7765 66.994 48.5597C66.994 47.3097 67.1952 46.2704 67.5977 45.4418C68.0001 44.6084 68.5352 43.9858 69.2028 43.5739C69.8751 43.1572 70.6114 42.9489 71.4116 42.9489C72.0224 42.9489 72.5314 43.053 72.9386 43.2614C73.3505 43.465 73.6819 43.7206 73.9329 44.0284C74.1886 44.3314 74.3827 44.6297 74.5153 44.9233H74.6076V39.4545H77.6261V54H74.6431V52.2528H74.5153C74.3732 52.5559 74.172 52.8565 73.9116 53.1548C73.6559 53.4484 73.3221 53.6922 72.9102 53.8864C72.503 54.0805 72.0058 54.1776 71.4187 54.1776ZM72.3775 51.7699C72.8652 51.7699 73.2771 51.6373 73.6133 51.3722C73.9542 51.1023 74.2146 50.7259 74.3945 50.2429C74.5792 49.7599 74.6715 49.1941 74.6715 48.5455C74.6715 47.8968 74.5816 47.3333 74.4016 46.8551C74.2217 46.3769 73.9613 46.0076 73.6204 45.7472C73.2795 45.4867 72.8652 45.3565 72.3775 45.3565C71.8803 45.3565 71.4613 45.4915 71.1204 45.7614C70.7795 46.0312 70.5214 46.4053 70.3462 46.8835C70.171 47.3617 70.0835 47.9157 70.0835 48.5455C70.0835 49.1799 70.171 49.741 70.3462 50.2287C70.5262 50.7116 70.7842 51.0904 71.1204 51.3651C71.4613 51.6349 71.8803 51.7699 72.3775 51.7699ZM85.9801 43.0909V45.3636H79.2472V43.0909H85.9801ZM80.7884 54V42.3026C80.7884 41.5118 80.9422 40.8561 81.25 40.3352C81.5625 39.8144 81.9886 39.4238 82.5284 39.1634C83.0682 38.9029 83.6813 38.7727 84.3679 38.7727C84.8319 38.7727 85.2557 38.8082 85.6392 38.8793C86.0275 38.9503 86.3163 39.0142 86.5057 39.071L85.9659 41.3438C85.8475 41.3059 85.7008 41.2704 85.5256 41.2372C85.3551 41.2041 85.1799 41.1875 85 41.1875C84.5549 41.1875 84.2448 41.2917 84.0696 41.5C83.8944 41.7036 83.8068 41.9901 83.8068 42.3594V54H80.7884ZM94.8242 49.3551V43.0909H97.8498V54H94.945V52.0185H94.8313C94.5851 52.6577 94.1755 53.1714 93.6026 53.5597C93.0344 53.9479 92.3408 54.142 91.5217 54.142C90.7925 54.142 90.1509 53.9763 89.5969 53.6449C89.043 53.3134 88.6097 52.8423 88.2972 52.2315C87.9895 51.6207 87.8332 50.8892 87.8285 50.0369V43.0909H90.854V49.4972C90.8588 50.1411 91.0316 50.6501 91.3725 51.0241C91.7134 51.3982 92.1703 51.5852 92.7433 51.5852C93.1078 51.5852 93.4487 51.5024 93.766 51.3366C94.0832 51.1662 94.3389 50.9152 94.533 50.5838C94.7319 50.2524 94.829 49.8428 94.8242 49.3551ZM103.295 39.4545V54H100.27V39.4545H103.295ZM108.745 47.6932V54H105.719V43.0909H108.603V45.0156H108.73C108.972 44.3812 109.377 43.8793 109.945 43.5099C110.513 43.1359 111.202 42.9489 112.012 42.9489C112.769 42.9489 113.43 43.1146 113.993 43.446C114.557 43.7775 114.995 44.2509 115.307 44.8665C115.62 45.4773 115.776 46.2064 115.776 47.054V54H112.75V47.5938C112.755 46.9261 112.585 46.4053 112.239 46.0312C111.893 45.6525 111.417 45.4631 110.811 45.4631C110.404 45.4631 110.044 45.5507 109.732 45.7259C109.424 45.901 109.183 46.1567 109.007 46.4929C108.837 46.8243 108.749 47.2244 108.745 47.6932ZM123.132 54.2131C122.01 54.2131 121.044 53.9858 120.234 53.5312C119.429 53.072 118.809 52.4233 118.374 51.5852C117.938 50.7424 117.72 49.7457 117.72 48.5952C117.72 47.473 117.938 46.4882 118.374 45.6406C118.809 44.7931 119.422 44.1326 120.213 43.6591C121.009 43.1856 121.941 42.9489 123.011 42.9489C123.731 42.9489 124.401 43.0649 125.021 43.2969C125.646 43.5241 126.191 43.8674 126.655 44.3267C127.124 44.786 127.488 45.3636 127.749 46.0597C128.009 46.7509 128.139 47.5606 128.139 48.4886V49.3196H118.928V47.4446H125.291C125.291 47.009 125.196 46.6231 125.007 46.2869C124.818 45.9508 124.555 45.688 124.219 45.4986C123.887 45.3045 123.501 45.2074 123.061 45.2074C122.602 45.2074 122.195 45.3139 121.839 45.527C121.489 45.7353 121.214 46.017 121.016 46.3722C120.817 46.7225 120.715 47.1132 120.71 47.544V49.3267C120.71 49.8665 120.81 50.3329 121.009 50.7259C121.212 51.1188 121.499 51.4219 121.868 51.6349C122.237 51.848 122.675 51.9545 123.182 51.9545C123.518 51.9545 123.826 51.9072 124.105 51.8125C124.384 51.7178 124.624 51.5758 124.822 51.3864C125.021 51.197 125.173 50.965 125.277 50.6903L128.075 50.875C127.933 51.5473 127.642 52.1345 127.202 52.6364C126.766 53.1335 126.203 53.5218 125.511 53.8011C124.825 54.0758 124.032 54.2131 123.132 54.2131ZM139.19 46.2017L136.42 46.3722C136.373 46.1354 136.271 45.9223 136.115 45.733C135.959 45.5388 135.753 45.3849 135.497 45.2713C135.246 45.1529 134.946 45.0938 134.595 45.0938C134.126 45.0938 133.731 45.1932 133.409 45.392C133.087 45.5862 132.926 45.8466 132.926 46.1733C132.926 46.4337 133.03 46.6539 133.239 46.8338C133.447 47.0137 133.804 47.1581 134.311 47.267L136.286 47.6648C137.346 47.8826 138.137 48.233 138.658 48.7159C139.179 49.1989 139.439 49.8333 139.439 50.6193C139.439 51.3343 139.228 51.9616 138.807 52.5014C138.39 53.0412 137.817 53.4626 137.088 53.7656C136.364 54.0639 135.528 54.2131 134.581 54.2131C133.137 54.2131 131.986 53.9124 131.129 53.3111C130.277 52.705 129.777 51.8812 129.631 50.8395L132.607 50.6832C132.696 51.1236 132.914 51.4598 133.26 51.6918C133.606 51.919 134.048 52.0327 134.588 52.0327C135.118 52.0327 135.545 51.9309 135.866 51.7273C136.193 51.5189 136.359 51.2514 136.364 50.9247C136.359 50.6501 136.243 50.4252 136.016 50.25C135.788 50.0701 135.438 49.9328 134.964 49.8381L133.075 49.4616C132.01 49.2486 131.217 48.8793 130.696 48.3537C130.18 47.8281 129.922 47.1581 129.922 46.3438C129.922 45.643 130.111 45.0393 130.49 44.5327C130.874 44.026 131.411 43.6354 132.102 43.3608C132.798 43.0862 133.613 42.9489 134.545 42.9489C135.923 42.9489 137.008 43.2401 137.798 43.8224C138.594 44.4048 139.058 45.1979 139.19 46.2017ZM150.421 46.2017L147.651 46.3722C147.604 46.1354 147.502 45.9223 147.346 45.733C147.189 45.5388 146.983 45.3849 146.728 45.2713C146.477 45.1529 146.176 45.0938 145.826 45.0938C145.357 45.0938 144.962 45.1932 144.64 45.392C144.318 45.5862 144.157 45.8466 144.157 46.1733C144.157 46.4337 144.261 46.6539 144.469 46.8338C144.677 47.0137 145.035 47.1581 145.542 47.267L147.516 47.6648C148.577 47.8826 149.367 48.233 149.888 48.7159C150.409 49.1989 150.669 49.8333 150.669 50.6193C150.669 51.3343 150.459 51.9616 150.037 52.5014C149.621 53.0412 149.048 53.4626 148.319 53.7656C147.594 54.0639 146.758 54.2131 145.811 54.2131C144.367 54.2131 143.217 53.9124 142.36 53.3111C141.507 52.705 141.008 51.8812 140.861 50.8395L143.837 50.6832C143.927 51.1236 144.145 51.4598 144.49 51.6918C144.836 51.919 145.279 52.0327 145.819 52.0327C146.349 52.0327 146.775 51.9309 147.097 51.7273C147.424 51.5189 147.589 51.2514 147.594 50.9247C147.589 50.6501 147.473 50.4252 147.246 50.25C147.019 50.0701 146.668 49.9328 146.195 49.8381L144.306 49.4616C143.24 49.2486 142.447 48.8793 141.926 48.3537C141.41 47.8281 141.152 47.1581 141.152 46.3438C141.152 45.643 141.342 45.0393 141.721 44.5327C142.104 44.026 142.641 43.6354 143.333 43.3608C144.029 43.0862 144.843 42.9489 145.776 42.9489C147.154 42.9489 148.238 43.2401 149.029 43.8224C149.824 44.4048 150.288 45.1979 150.421 46.2017Z" fill="#FCFCFC"/>
<rect x="162" y="29" width="36" height="36" rx="10" fill="#FCFCFC"/>
<path d="M182.119 43.1682C181.639 42.6013 180.925 42.2811 180.158 42.3411C179.785 41.9143 179.245 41.6675 178.665 41.6675C178.085 41.6675 177.498 41.9476 177.118 42.4078C176.078 42.6546 175.331 43.575 175.331 44.6688C175.331 44.7289 175.331 44.7822 175.338 44.8422C174.911 45.2157 174.664 45.756 174.664 46.3362C174.664 47.4367 175.564 48.3371 176.664 48.3371C176.898 48.3371 177.118 48.2971 177.331 48.2237V51.6719C177.331 52.0387 177.631 52.3388 177.998 52.3388C178.365 52.3388 178.665 52.0387 178.665 51.6719V47.6501C179.158 47.5834 179.605 47.3567 179.958 47.0032H181.332C182.432 47.0032 183.332 46.1028 183.332 45.0023C183.332 44.1886 182.852 43.4816 182.119 43.1682ZM181.332 45.6693H179.658C179.452 45.6693 179.252 45.7693 179.125 45.936C178.932 46.1895 178.645 46.3362 178.331 46.3362C178.251 46.3362 178.158 46.3229 178.045 46.2895C177.731 46.1962 177.398 46.3429 177.258 46.6297C177.145 46.8631 176.918 47.0032 176.664 47.0032C176.298 47.0032 175.998 46.703 175.998 46.3362C175.998 46.0828 176.138 45.856 176.371 45.7426C176.664 45.5959 176.804 45.2624 176.711 44.9556C176.678 44.8422 176.664 44.7555 176.664 44.6688C176.664 44.1553 177.051 43.7284 177.571 43.6817C177.791 43.6617 177.985 43.535 178.091 43.3483C178.211 43.1348 178.425 43.0081 178.665 43.0081C178.918 43.0081 179.145 43.1482 179.258 43.3816C179.405 43.6751 179.738 43.8151 180.045 43.7217C180.158 43.6884 180.245 43.6751 180.332 43.6751C180.659 43.6751 180.972 43.8418 181.159 44.1153C181.245 44.242 181.372 44.3353 181.519 44.3754C181.805 44.4621 181.999 44.7155 181.999 45.009C181.999 45.3758 181.699 45.6759 181.332 45.6759V45.6693ZM185.199 41.9476C183.572 39.7734 180.999 38.6996 178.298 39.0731C174.971 39.5266 172.33 42.3011 172.03 45.6559C171.864 47.5034 172.39 49.3242 173.504 50.7848C173.824 51.1983 173.997 51.7586 173.997 52.3522V52.9991C173.997 54.0996 174.897 55 175.998 55H180.665C181.765 55 182.666 54.0996 182.666 52.9991H182.992C184.659 52.9991 186.08 51.7519 186.3 50.1045L186.446 48.9974H186.666C187.533 48.9974 188 48.3104 188 47.6635C188 46.7164 186.046 42.9814 185.199 41.941V41.9476ZM185.86 47.6701C185.526 47.6701 185.239 47.9169 185.199 48.2504L184.979 49.9311C184.846 50.9249 183.993 51.6719 182.999 51.6719H182.006C181.639 51.6719 181.339 51.972 181.339 52.3388V53.0058C181.339 53.3726 181.039 53.6728 180.672 53.6728H175.998C175.631 53.6728 175.331 53.3726 175.331 53.0058V52.3588C175.331 51.4718 175.057 50.6248 174.564 49.9778C173.651 48.784 173.217 47.29 173.357 45.776C173.604 43.0281 175.758 40.7671 178.485 40.3936C178.772 40.3536 179.058 40.3336 179.338 40.3336C181.225 40.3336 182.979 41.2006 184.153 42.768C185.026 43.8485 186.586 47.0699 186.673 47.6701H185.873H185.86Z" fill="#D87AB8"/>
<path d="M30.8608 78.2727H32.7955L35.3864 84.5966H35.4886L38.0795 78.2727H40.0142V87H38.4972V81.0043H38.4162L36.0043 86.9744H34.8707L32.4588 80.9915H32.3778V87H30.8608V78.2727ZM41.6676 87V80.4545H43.2102V87H41.6676ZM42.4432 79.5256C42.1989 79.5256 41.9886 79.4446 41.8125 79.2827C41.6364 79.1179 41.5483 78.9205 41.5483 78.6903C41.5483 78.4574 41.6364 78.2599 41.8125 78.098C41.9886 77.9332 42.1989 77.8509 42.4432 77.8509C42.6903 77.8509 42.9006 77.9332 43.0739 78.098C43.25 78.2599 43.3381 78.4574 43.3381 78.6903C43.3381 78.9205 43.25 79.1179 43.0739 79.2827C42.9006 79.4446 42.6903 79.5256 42.4432 79.5256ZM46.3391 83.1648V87H44.7965V80.4545H46.271V81.5668H46.3477C46.4982 81.2003 46.7383 80.9091 47.0678 80.6932C47.4002 80.4773 47.8107 80.3693 48.2994 80.3693C48.7511 80.3693 49.1445 80.4659 49.4798 80.6591C49.8178 80.8523 50.0792 81.1321 50.2638 81.4986C50.4513 81.8651 50.5437 82.3097 50.5408 82.8324V87H48.9982V83.071C48.9982 82.6335 48.8846 82.2912 48.6573 82.044C48.4329 81.7969 48.1218 81.6733 47.7241 81.6733C47.4542 81.6733 47.2141 81.733 47.0039 81.8523C46.7965 81.9687 46.6332 82.1378 46.5138 82.3594C46.3974 82.581 46.3391 82.8494 46.3391 83.1648ZM55.4244 80.4545V81.6477H51.555V80.4545H55.4244ZM52.5224 87V79.8366C52.5224 79.3963 52.6133 79.0298 52.7951 78.7372C52.9798 78.4446 53.2269 78.2259 53.5366 78.081C53.8462 77.9361 54.19 77.8636 54.5678 77.8636C54.8349 77.8636 55.0721 77.8849 55.2795 77.9276C55.4869 77.9702 55.6403 78.0085 55.7397 78.0426L55.4329 79.2358C55.3675 79.2159 55.2852 79.196 55.1857 79.1761C55.0863 79.1534 54.9755 79.142 54.8533 79.142C54.5664 79.142 54.3633 79.2116 54.244 79.3509C54.1275 79.4872 54.0692 79.6832 54.0692 79.9389V87H52.5224ZM60.8043 84.2472V80.4545H62.3469V87H60.8512V85.8366H60.783C60.6353 86.2031 60.3924 86.5028 60.0543 86.7358C59.7191 86.9687 59.3058 87.0852 58.8143 87.0852C58.3853 87.0852 58.006 86.9901 57.6765 86.7997C57.3498 86.6065 57.0941 86.3267 56.9094 85.9602C56.7248 85.5909 56.6325 85.1449 56.6325 84.6222V80.4545H58.1751V84.3835C58.1751 84.7983 58.2887 85.1278 58.516 85.3722C58.7433 85.6165 59.0415 85.7386 59.4109 85.7386C59.6381 85.7386 59.8583 85.6832 60.0714 85.5724C60.2844 85.4616 60.4592 85.2969 60.5955 85.0781C60.7347 84.8565 60.8043 84.5795 60.8043 84.2472ZM65.4759 78.2727V87H63.9332V78.2727H65.4759ZM68.6048 83.1648V87H67.0621V80.4545H68.5366V81.5668H68.6133C68.7638 81.2003 69.0039 80.9091 69.3335 80.6932C69.6658 80.4773 70.0763 80.3693 70.565 80.3693C71.0167 80.3693 71.4102 80.4659 71.7454 80.6591C72.0835 80.8523 72.3448 81.1321 72.5295 81.4986C72.717 81.8651 72.8093 82.3097 72.8065 82.8324V87H71.2638V83.071C71.2638 82.6335 71.1502 82.2912 70.9229 82.044C70.6985 81.7969 70.3874 81.6733 69.9897 81.6733C69.7198 81.6733 69.4798 81.733 69.2695 81.8523C69.0621 81.9687 68.8988 82.1378 68.7795 82.3594C68.663 82.581 68.6048 82.8494 68.6048 83.1648ZM77.2724 87.1278C76.6161 87.1278 76.0494 86.9915 75.5721 86.7188C75.0977 86.4432 74.7326 86.054 74.4769 85.5511C74.2212 85.0455 74.0934 84.4503 74.0934 83.7656C74.0934 83.0923 74.2212 82.5014 74.4769 81.9929C74.7354 81.4815 75.0962 81.0838 75.5593 80.7997C76.0224 80.5128 76.5664 80.3693 77.1914 80.3693C77.5948 80.3693 77.9755 80.4347 78.3335 80.5653C78.6942 80.6932 79.0124 80.892 79.288 81.1619C79.5664 81.4318 79.7852 81.7756 79.9442 82.1932C80.1033 82.608 80.1829 83.1023 80.1829 83.6761V84.1491H74.8178V83.1094H78.7042C78.7013 82.8139 78.6374 82.5511 78.5124 82.321C78.3874 82.0881 78.2127 81.9048 77.9883 81.7713C77.7667 81.6378 77.5082 81.571 77.2127 81.571C76.8974 81.571 76.6204 81.6477 76.3817 81.8011C76.1431 81.9517 75.957 82.1506 75.8235 82.3977C75.6928 82.642 75.6261 82.9105 75.6232 83.2031V84.1108C75.6232 84.4915 75.6928 84.8182 75.832 85.0909C75.9712 85.3608 76.1658 85.5682 76.4158 85.7131C76.6658 85.8551 76.9585 85.9261 77.2937 85.9261C77.5181 85.9261 77.7212 85.8949 77.9031 85.8324C78.0849 85.767 78.2425 85.6719 78.3761 85.5469C78.5096 85.4219 78.6104 85.267 78.6786 85.0824L80.119 85.2443C80.0281 85.625 79.8548 85.9574 79.5991 86.2415C79.3462 86.5227 79.0224 86.7415 78.6275 86.8977C78.2326 87.0511 77.7809 87.1278 77.2724 87.1278ZM86.6612 82.1847L85.255 82.3381C85.2152 82.196 85.1456 82.0625 85.0462 81.9375C84.9496 81.8125 84.8189 81.7116 84.6541 81.6349C84.4893 81.5582 84.2876 81.5199 84.049 81.5199C83.728 81.5199 83.4581 81.5895 83.2393 81.7287C83.0234 81.8679 82.9169 82.0483 82.9197 82.2699C82.9169 82.4602 82.9865 82.6151 83.1286 82.7344C83.2734 82.8537 83.5121 82.9517 83.8445 83.0284L84.9609 83.267C85.5803 83.4006 86.0405 83.6122 86.3416 83.902C86.6456 84.1918 86.799 84.571 86.8018 85.0398C86.799 85.4517 86.6783 85.8153 86.4396 86.1307C86.2038 86.4432 85.8757 86.6875 85.4553 86.8636C85.0348 87.0398 84.5518 87.1278 84.0064 87.1278C83.2053 87.1278 82.5604 86.9602 82.0717 86.625C81.5831 86.2869 81.2919 85.8168 81.1982 85.2145L82.7024 85.0696C82.7706 85.3651 82.9155 85.5881 83.1371 85.7386C83.3587 85.8892 83.647 85.9645 84.0021 85.9645C84.3686 85.9645 84.6626 85.8892 84.8842 85.7386C85.1087 85.5881 85.2209 85.402 85.2209 85.1804C85.2209 84.9929 85.1484 84.8381 85.0036 84.7159C84.8615 84.5937 84.6399 84.5 84.3388 84.4347L83.2223 84.2003C82.5945 84.0696 82.13 83.8494 81.8288 83.5398C81.5277 83.2273 81.3786 82.8324 81.3814 82.3551C81.3786 81.9517 81.4879 81.6023 81.7095 81.3068C81.9339 81.0085 82.245 80.7784 82.6428 80.6165C83.0433 80.4517 83.505 80.3693 84.0277 80.3693C84.7947 80.3693 85.3984 80.5327 85.8388 80.8594C86.282 81.1861 86.5561 81.6278 86.6612 82.1847ZM93.2472 82.1847L91.8409 82.3381C91.8011 82.196 91.7315 82.0625 91.6321 81.9375C91.5355 81.8125 91.4048 81.7116 91.2401 81.6349C91.0753 81.5582 90.8736 81.5199 90.6349 81.5199C90.3139 81.5199 90.044 81.5895 89.8253 81.7287C89.6094 81.8679 89.5028 82.0483 89.5057 82.2699C89.5028 82.4602 89.5724 82.6151 89.7145 82.7344C89.8594 82.8537 90.098 82.9517 90.4304 83.0284L91.5469 83.267C92.1662 83.4006 92.6264 83.6122 92.9276 83.902C93.2315 84.1918 93.3849 84.571 93.3878 85.0398C93.3849 85.4517 93.2642 85.8153 93.0256 86.1307C92.7898 86.4432 92.4616 86.6875 92.0412 86.8636C91.6207 87.0398 91.1378 87.1278 90.5923 87.1278C89.7912 87.1278 89.1463 86.9602 88.6577 86.625C88.169 86.2869 87.8778 85.8168 87.7841 85.2145L89.2884 85.0696C89.3565 85.3651 89.5014 85.5881 89.723 85.7386C89.9446 85.8892 90.233 85.9645 90.5881 85.9645C90.9545 85.9645 91.2486 85.8892 91.4702 85.7386C91.6946 85.5881 91.8068 85.402 91.8068 85.1804C91.8068 84.9929 91.7344 84.8381 91.5895 84.7159C91.4474 84.5937 91.2259 84.5 90.9247 84.4347L89.8082 84.2003C89.1804 84.0696 88.7159 83.8494 88.4148 83.5398C88.1136 83.2273 87.9645 82.8324 87.9673 82.3551C87.9645 81.9517 88.0739 81.6023 88.2955 81.3068C88.5199 81.0085 88.831 80.7784 89.2287 80.6165C89.6293 80.4517 90.0909 80.3693 90.6136 80.3693C91.3807 80.3693 91.9844 80.5327 92.4247 80.8594C92.8679 81.1861 93.142 81.6278 93.2472 82.1847ZM97.7045 78.2727H99.6392L102.23 84.5966H102.332L104.923 78.2727H106.858V87H105.341V81.0043H105.26L102.848 86.9744H101.714L99.3026 80.9915H99.2216V87H97.7045V78.2727ZM111.409 87.1278C110.753 87.1278 110.186 86.9915 109.709 86.7188C109.234 86.4432 108.869 86.054 108.614 85.5511C108.358 85.0455 108.23 84.4503 108.23 83.7656C108.23 83.0923 108.358 82.5014 108.614 81.9929C108.872 81.4815 109.233 81.0838 109.696 80.7997C110.159 80.5128 110.703 80.3693 111.328 80.3693C111.732 80.3693 112.112 80.4347 112.47 80.5653C112.831 80.6932 113.149 80.892 113.425 81.1619C113.703 81.4318 113.922 81.7756 114.081 82.1932C114.24 82.608 114.32 83.1023 114.32 83.6761V84.1491H108.955V83.1094H112.841C112.838 82.8139 112.774 82.5511 112.649 82.321C112.524 82.0881 112.349 81.9048 112.125 81.7713C111.903 81.6378 111.645 81.571 111.349 81.571C111.034 81.571 110.757 81.6477 110.518 81.8011C110.28 81.9517 110.094 82.1506 109.96 82.3977C109.83 82.642 109.763 82.9105 109.76 83.2031V84.1108C109.76 84.4915 109.83 84.8182 109.969 85.0909C110.108 85.3608 110.303 85.5682 110.553 85.7131C110.803 85.8551 111.095 85.9261 111.43 85.9261C111.655 85.9261 111.858 85.8949 112.04 85.8324C112.222 85.767 112.379 85.6719 112.513 85.5469C112.646 85.4219 112.747 85.267 112.815 85.0824L114.256 85.2443C114.165 85.625 113.991 85.9574 113.736 86.2415C113.483 86.5227 113.159 86.7415 112.764 86.8977C112.369 87.0511 111.918 87.1278 111.409 87.1278ZM118.054 87.1151C117.539 87.1151 117.079 86.983 116.673 86.7188C116.267 86.4545 115.946 86.071 115.71 85.5682C115.474 85.0653 115.356 84.4545 115.356 83.7358C115.356 83.0085 115.475 82.3949 115.714 81.8949C115.956 81.392 116.281 81.0128 116.69 80.7571C117.099 80.4986 117.555 80.3693 118.058 80.3693C118.441 80.3693 118.757 80.4347 119.004 80.5653C119.251 80.6932 119.447 80.848 119.592 81.0298C119.737 81.2088 119.849 81.3778 119.929 81.5369H119.993V78.2727H121.539V87H120.022V85.9688H119.929C119.849 86.1278 119.734 86.2969 119.583 86.4759C119.433 86.652 119.234 86.8026 118.987 86.9276C118.74 87.0526 118.429 87.1151 118.054 87.1151ZM118.484 85.8494C118.811 85.8494 119.089 85.7614 119.319 85.5852C119.549 85.4062 119.724 85.1577 119.843 84.8395C119.963 84.5213 120.022 84.1506 120.022 83.7273C120.022 83.304 119.963 82.9361 119.843 82.6236C119.727 82.3111 119.554 82.0682 119.324 81.8949C119.096 81.7216 118.816 81.6349 118.484 81.6349C118.14 81.6349 117.853 81.7244 117.623 81.9034C117.393 82.0824 117.22 82.3295 117.103 82.6449C116.987 82.9602 116.929 83.321 116.929 83.7273C116.929 84.1364 116.987 84.5014 117.103 84.8224C117.223 85.1406 117.397 85.392 117.627 85.5767C117.86 85.7585 118.146 85.8494 118.484 85.8494ZM123.183 87V80.4545H124.726V87H123.183ZM123.959 79.5256C123.714 79.5256 123.504 79.4446 123.328 79.2827C123.152 79.1179 123.064 78.9205 123.064 78.6903C123.064 78.4574 123.152 78.2599 123.328 78.098C123.504 77.9332 123.714 77.8509 123.959 77.8509C124.206 77.8509 124.416 77.9332 124.589 78.098C124.766 78.2599 124.854 78.4574 124.854 78.6903C124.854 78.9205 124.766 79.1179 124.589 79.2827C124.416 79.4446 124.206 79.5256 123.959 79.5256ZM129.581 80.4545V81.6477H125.818V80.4545H129.581ZM126.747 78.8864H128.289V85.0312C128.289 85.2386 128.321 85.3977 128.383 85.5085C128.449 85.6165 128.534 85.6903 128.639 85.7301C128.744 85.7699 128.86 85.7898 128.988 85.7898C129.085 85.7898 129.173 85.7827 129.252 85.7685C129.335 85.7543 129.397 85.7415 129.44 85.7301L129.7 86.9361C129.618 86.9645 129.5 86.9957 129.346 87.0298C129.196 87.0639 129.011 87.0838 128.792 87.0895C128.406 87.1009 128.058 87.0426 127.748 86.9148C127.439 86.7841 127.193 86.5824 127.011 86.3097C126.832 86.0369 126.744 85.696 126.747 85.2869V78.8864ZM132.754 87.1321C132.339 87.1321 131.966 87.0582 131.634 86.9105C131.304 86.7599 131.043 86.5384 130.849 86.2457C130.659 85.9531 130.564 85.5923 130.564 85.1634C130.564 84.794 130.632 84.4886 130.768 84.2472C130.905 84.0057 131.091 83.8125 131.327 83.6676C131.563 83.5227 131.828 83.4134 132.124 83.3395C132.422 83.2628 132.73 83.2074 133.048 83.1733C133.432 83.1335 133.743 83.098 133.982 83.0668C134.22 83.0327 134.393 82.9815 134.501 82.9134C134.612 82.8423 134.668 82.733 134.668 82.5852V82.5597C134.668 82.2386 134.572 81.9901 134.382 81.8139C134.192 81.6378 133.918 81.5497 133.56 81.5497C133.182 81.5497 132.882 81.6321 132.661 81.7969C132.442 81.9616 132.294 82.1562 132.217 82.3807L130.777 82.1761C130.891 81.7784 131.078 81.446 131.339 81.179C131.601 80.9091 131.92 80.7074 132.298 80.5739C132.676 80.4375 133.094 80.3693 133.551 80.3693C133.866 80.3693 134.18 80.4062 134.493 80.4801C134.805 80.554 135.091 80.6761 135.349 80.8466C135.608 81.0142 135.815 81.2429 135.972 81.5327C136.131 81.8224 136.21 82.1847 136.21 82.6193V87H134.727V86.1009H134.676C134.582 86.2827 134.45 86.4531 134.28 86.6122C134.112 86.7685 133.901 86.8949 133.645 86.9915C133.392 87.0852 133.095 87.1321 132.754 87.1321ZM133.155 85.9986C133.464 85.9986 133.733 85.9375 133.96 85.8153C134.188 85.6903 134.362 85.5256 134.484 85.321C134.609 85.1165 134.672 84.8935 134.672 84.652V83.8807C134.624 83.9205 134.541 83.9574 134.425 83.9915C134.311 84.0256 134.183 84.0554 134.041 84.081C133.899 84.1065 133.759 84.1293 133.619 84.1491C133.48 84.169 133.359 84.1861 133.257 84.2003C133.027 84.2315 132.821 84.2827 132.639 84.3537C132.457 84.4247 132.314 84.5241 132.209 84.652C132.104 84.777 132.051 84.9389 132.051 85.1378C132.051 85.4219 132.155 85.6364 132.362 85.7812C132.57 85.9261 132.834 85.9986 133.155 85.9986ZM141.03 80.4545V81.6477H137.267V80.4545H141.03ZM138.196 78.8864H139.739V85.0312C139.739 85.2386 139.77 85.3977 139.832 85.5085C139.898 85.6165 139.983 85.6903 140.088 85.7301C140.193 85.7699 140.31 85.7898 140.438 85.7898C140.534 85.7898 140.622 85.7827 140.702 85.7685C140.784 85.7543 140.847 85.7415 140.889 85.7301L141.149 86.9361C141.067 86.9645 140.949 86.9957 140.795 87.0298C140.645 87.0639 140.46 87.0838 140.241 87.0895C139.855 87.1009 139.507 87.0426 139.197 86.9148C138.888 86.7841 138.642 86.5824 138.46 86.3097C138.281 86.0369 138.193 85.696 138.196 85.2869V78.8864ZM142.32 87V80.4545H143.863V87H142.32ZM143.096 79.5256C142.851 79.5256 142.641 79.4446 142.465 79.2827C142.289 79.1179 142.201 78.9205 142.201 78.6903C142.201 78.4574 142.289 78.2599 142.465 78.098C142.641 77.9332 142.851 77.8509 143.096 77.8509C143.343 77.8509 143.553 77.9332 143.726 78.098C143.902 78.2599 143.99 78.4574 143.99 78.6903C143.99 78.9205 143.902 79.1179 143.726 79.2827C143.553 79.4446 143.343 79.5256 143.096 79.5256ZM148.304 87.1278C147.665 87.1278 147.111 86.9872 146.642 86.706C146.173 86.4247 145.81 86.0312 145.551 85.5256C145.295 85.0199 145.168 84.429 145.168 83.7528C145.168 83.0767 145.295 82.4844 145.551 81.9759C145.81 81.4673 146.173 81.0724 146.642 80.7912C147.111 80.5099 147.665 80.3693 148.304 80.3693C148.943 80.3693 149.497 80.5099 149.966 80.7912C150.435 81.0724 150.797 81.4673 151.053 81.9759C151.311 82.4844 151.44 83.0767 151.44 83.7528C151.44 84.429 151.311 85.0199 151.053 85.5256C150.797 86.0312 150.435 86.4247 149.966 86.706C149.497 86.9872 148.943 87.1278 148.304 87.1278ZM148.312 85.892C148.659 85.892 148.949 85.7969 149.182 85.6065C149.415 85.4134 149.588 85.1548 149.702 84.831C149.818 84.5071 149.876 84.1463 149.876 83.7486C149.876 83.348 149.818 82.9858 149.702 82.6619C149.588 82.3352 149.415 82.0753 149.182 81.8821C148.949 81.6889 148.659 81.5923 148.312 81.5923C147.957 81.5923 147.662 81.6889 147.426 81.8821C147.193 82.0753 147.018 82.3352 146.902 82.6619C146.788 82.9858 146.732 83.348 146.732 83.7486C146.732 84.1463 146.788 84.5071 146.902 84.831C147.018 85.1548 147.193 85.4134 147.426 85.6065C147.662 85.7969 147.957 85.892 148.312 85.892ZM154.292 83.1648V87H152.75V80.4545H154.224V81.5668H154.301C154.451 81.2003 154.691 80.9091 155.021 80.6932C155.353 80.4773 155.764 80.3693 156.252 80.3693C156.704 80.3693 157.098 80.4659 157.433 80.6591C157.771 80.8523 158.032 81.1321 158.217 81.4986C158.404 81.8651 158.497 82.3097 158.494 82.8324V87H156.951V83.071C156.951 82.6335 156.838 82.2912 156.61 82.044C156.386 81.7969 156.075 81.6733 155.677 81.6733C155.407 81.6733 155.167 81.733 154.957 81.8523C154.75 81.9687 154.586 82.1378 154.467 82.3594C154.35 82.581 154.292 82.8494 154.292 83.1648ZM164.39 87L162.54 80.4545H164.113L165.263 85.0568H165.323L166.499 80.4545H168.054L169.23 85.0312H169.294L170.428 80.4545H172.005L170.151 87H168.544L167.317 82.5767H167.228L166 87H164.39ZM173.082 87V80.4545H174.624V87H173.082ZM173.857 79.5256C173.613 79.5256 173.403 79.4446 173.227 79.2827C173.05 79.1179 172.962 78.9205 172.962 78.6903C172.962 78.4574 173.05 78.2599 173.227 78.098C173.403 77.9332 173.613 77.8509 173.857 77.8509C174.104 77.8509 174.315 77.9332 174.488 78.098C174.664 78.2599 174.752 78.4574 174.752 78.6903C174.752 78.9205 174.664 79.1179 174.488 79.2827C174.315 79.4446 174.104 79.5256 173.857 79.5256ZM177.753 78.2727V87H176.211V78.2727H177.753ZM180.882 78.2727V87H179.339V78.2727H180.882ZM188.292 89.5909C187.738 89.5909 187.262 89.5156 186.864 89.3651C186.466 89.2173 186.147 89.0185 185.905 88.7685C185.664 88.5185 185.496 88.2415 185.402 87.9375L186.792 87.6009C186.854 87.7287 186.945 87.8551 187.064 87.9801C187.184 88.108 187.344 88.2131 187.546 88.2955C187.75 88.3807 188.007 88.4233 188.317 88.4233C188.755 88.4233 189.117 88.3168 189.404 88.1037C189.691 87.8935 189.834 87.5469 189.834 87.0639V85.8239H189.757C189.678 85.983 189.561 86.1463 189.408 86.3139C189.257 86.4815 189.057 86.6222 188.807 86.7358C188.56 86.8494 188.249 86.9062 187.874 86.9062C187.371 86.9062 186.915 86.7884 186.506 86.5526C186.1 86.3139 185.776 85.9588 185.534 85.4872C185.296 85.0128 185.176 84.419 185.176 83.706C185.176 82.9872 185.296 82.3807 185.534 81.8864C185.776 81.3892 186.101 81.0128 186.51 80.7571C186.919 80.4986 187.375 80.3693 187.878 80.3693C188.262 80.3693 188.577 80.4347 188.824 80.5653C189.074 80.6932 189.273 80.848 189.421 81.0298C189.569 81.2088 189.681 81.3778 189.757 81.5369H189.843V80.4545H191.364V87.1065C191.364 87.6662 191.23 88.1293 190.963 88.4957C190.696 88.8622 190.331 89.1364 189.868 89.3182C189.405 89.5 188.88 89.5909 188.292 89.5909ZM188.304 85.696C188.631 85.696 188.909 85.6165 189.14 85.4574C189.37 85.2983 189.544 85.0696 189.664 84.7713C189.783 84.473 189.843 84.1151 189.843 83.6974C189.843 83.2855 189.783 82.9247 189.664 82.6151C189.547 82.3054 189.374 82.0653 189.144 81.8949C188.917 81.7216 188.637 81.6349 188.304 81.6349C187.961 81.6349 187.674 81.7244 187.444 81.9034C187.213 82.0824 187.04 82.3281 186.924 82.6406C186.807 82.9503 186.749 83.3026 186.749 83.6974C186.749 84.098 186.807 84.4489 186.924 84.75C187.043 85.0483 187.218 85.2812 187.448 85.4489C187.681 85.6136 187.966 85.696 188.304 85.696ZM192.945 87V80.4545H194.488V87H192.945ZM193.721 79.5256C193.476 79.5256 193.266 79.4446 193.09 79.2827C192.914 79.1179 192.826 78.9205 192.826 78.6903C192.826 78.4574 192.914 78.2599 193.09 78.098C193.266 77.9332 193.476 77.8509 193.721 77.8509C193.968 77.8509 194.178 77.9332 194.351 78.098C194.527 78.2599 194.615 78.4574 194.615 78.6903C194.615 78.9205 194.527 79.1179 194.351 79.2827C194.178 79.4446 193.968 79.5256 193.721 79.5256ZM201.92 80.4545L199.589 87H197.885L195.554 80.4545H197.199L198.703 85.3168H198.771L200.28 80.4545H201.92ZM205.663 87.1278C205.007 87.1278 204.44 86.9915 203.963 86.7188C203.488 86.4432 203.123 86.054 202.868 85.5511C202.612 85.0455 202.484 84.4503 202.484 83.7656C202.484 83.0923 202.612 82.5014 202.868 81.9929C203.126 81.4815 203.487 81.0838 203.95 80.7997C204.413 80.5128 204.957 80.3693 205.582 80.3693C205.985 80.3693 206.366 80.4347 206.724 80.5653C207.085 80.6932 207.403 80.892 207.679 81.1619C207.957 81.4318 208.176 81.7756 208.335 82.1932C208.494 82.608 208.574 83.1023 208.574 83.6761V84.1491H203.208V83.1094H207.095C207.092 82.8139 207.028 82.5511 206.903 82.321C206.778 82.0881 206.603 81.9048 206.379 81.7713C206.157 81.6378 205.899 81.571 205.603 81.571C205.288 81.571 205.011 81.6477 204.772 81.8011C204.534 81.9517 204.348 82.1506 204.214 82.3977C204.083 82.642 204.017 82.9105 204.014 83.2031V84.1108C204.014 84.4915 204.083 84.8182 204.223 85.0909C204.362 85.3608 204.556 85.5682 204.806 85.7131C205.056 85.8551 205.349 85.9261 205.684 85.9261C205.909 85.9261 206.112 85.8949 206.294 85.8324C206.475 85.767 206.633 85.6719 206.767 85.5469C206.9 85.4219 207.001 85.267 207.069 85.0824L208.51 85.2443C208.419 85.625 208.245 85.9574 207.99 86.2415C207.737 86.5227 207.413 86.7415 207.018 86.8977C206.623 87.0511 206.172 87.1278 205.663 87.1278ZM213.814 89.4545C213.604 89.4545 213.409 89.4375 213.23 89.4034C213.054 89.3722 212.913 89.3352 212.808 89.2926L213.166 88.0909C213.391 88.1563 213.591 88.1875 213.767 88.1847C213.943 88.1818 214.098 88.1264 214.232 88.0185C214.368 87.9134 214.483 87.7372 214.577 87.4901L214.709 87.1364L212.335 80.4545H213.972L215.48 85.3977H215.548L217.061 80.4545H218.702L216.081 87.7926C215.959 88.1392 215.797 88.4361 215.595 88.6832C215.393 88.9332 215.146 89.1236 214.854 89.2543C214.564 89.3878 214.217 89.4545 213.814 89.4545ZM222.402 87.1278C221.762 87.1278 221.208 86.9872 220.74 86.706C220.271 86.4247 219.907 86.0312 219.649 85.5256C219.393 85.0199 219.265 84.429 219.265 83.7528C219.265 83.0767 219.393 82.4844 219.649 81.9759C219.907 81.4673 220.271 81.0724 220.74 80.7912C221.208 80.5099 221.762 80.3693 222.402 80.3693C223.041 80.3693 223.595 80.5099 224.064 80.7912C224.532 81.0724 224.895 81.4673 225.15 81.9759C225.409 82.4844 225.538 83.0767 225.538 83.7528C225.538 84.429 225.409 85.0199 225.15 85.5256C224.895 86.0312 224.532 86.4247 224.064 86.706C223.595 86.9872 223.041 87.1278 222.402 87.1278ZM222.41 85.892C222.757 85.892 223.047 85.7969 223.279 85.6065C223.512 85.4134 223.686 85.1548 223.799 84.831C223.916 84.5071 223.974 84.1463 223.974 83.7486C223.974 83.348 223.916 82.9858 223.799 82.6619C223.686 82.3352 223.512 82.0753 223.279 81.8821C223.047 81.6889 222.757 81.5923 222.41 81.5923C222.055 81.5923 221.76 81.6889 221.524 81.8821C221.291 82.0753 221.116 82.3352 221 82.6619C220.886 82.9858 220.829 83.348 220.829 83.7486C220.829 84.1463 220.886 84.5071 221 84.831C221.116 85.1548 221.291 85.4134 221.524 85.6065C221.76 85.7969 222.055 85.892 222.41 85.892ZM231.019 84.2472V80.4545H232.562V87H231.066V85.8366H230.998C230.85 86.2031 230.607 86.5028 230.269 86.7358C229.934 86.9687 229.521 87.0852 229.029 87.0852C228.6 87.0852 228.221 86.9901 227.891 86.7997C227.565 86.6065 227.309 86.3267 227.124 85.9602C226.94 85.5909 226.847 85.1449 226.847 84.6222V80.4545H228.39V84.3835C228.39 84.7983 228.504 85.1278 228.731 85.3722C228.958 85.6165 229.256 85.7386 229.626 85.7386C229.853 85.7386 230.073 85.6832 230.286 85.5724C230.499 85.4616 230.674 85.2969 230.81 85.0781C230.95 84.8565 231.019 84.5795 231.019 84.2472ZM240.393 80.4545V81.6477H236.63V80.4545H240.393ZM237.559 78.8864H239.102V85.0312C239.102 85.2386 239.133 85.3977 239.196 85.5085C239.261 85.6165 239.346 85.6903 239.451 85.7301C239.556 85.7699 239.673 85.7898 239.801 85.7898C239.897 85.7898 239.985 85.7827 240.065 85.7685C240.147 85.7543 240.21 85.7415 240.252 85.7301L240.512 86.9361C240.43 86.9645 240.312 86.9957 240.159 87.0298C240.008 87.0639 239.824 87.0838 239.605 87.0895C239.218 87.1009 238.87 87.0426 238.561 86.9148C238.251 86.7841 238.005 86.5824 237.824 86.3097C237.645 86.0369 237.556 85.696 237.559 85.2869V78.8864ZM243.366 83.1648V87H241.824V78.2727H243.332V81.5668H243.409C243.563 81.1974 243.8 80.9062 244.121 80.6932C244.445 80.4773 244.857 80.3693 245.357 80.3693C245.811 80.3693 246.207 80.4645 246.545 80.6548C246.884 80.8452 247.145 81.1236 247.33 81.4901C247.517 81.8565 247.611 82.304 247.611 82.8324V87H246.068V83.071C246.068 82.6307 245.955 82.2884 245.727 82.044C245.503 81.7969 245.188 81.6733 244.781 81.6733C244.509 81.6733 244.264 81.733 244.048 81.8523C243.835 81.9687 243.668 82.1378 243.545 82.3594C243.426 82.581 243.366 82.8494 243.366 83.1648ZM252.081 87.1278C251.425 87.1278 250.858 86.9915 250.381 86.7188C249.906 86.4432 249.541 86.054 249.286 85.5511C249.03 85.0455 248.902 84.4503 248.902 83.7656C248.902 83.0923 249.03 82.5014 249.286 81.9929C249.544 81.4815 249.905 81.0838 250.368 80.7997C250.831 80.5128 251.375 80.3693 252 80.3693C252.403 80.3693 252.784 80.4347 253.142 80.5653C253.503 80.6932 253.821 80.892 254.097 81.1619C254.375 81.4318 254.594 81.7756 254.753 82.1932C254.912 82.608 254.991 83.1023 254.991 83.6761V84.1491H249.626V83.1094H253.513C253.51 82.8139 253.446 82.5511 253.321 82.321C253.196 82.0881 253.021 81.9048 252.797 81.7713C252.575 81.6378 252.317 81.571 252.021 81.571C251.706 81.571 251.429 81.6477 251.19 81.8011C250.952 81.9517 250.766 82.1506 250.632 82.3977C250.501 82.642 250.435 82.9105 250.432 83.2031V84.1108C250.432 84.4915 250.501 84.8182 250.641 85.0909C250.78 85.3608 250.974 85.5682 251.224 85.7131C251.474 85.8551 251.767 85.9261 252.102 85.9261C252.327 85.9261 252.53 85.8949 252.712 85.8324C252.893 85.767 253.051 85.6719 253.185 85.5469C253.318 85.4219 253.419 85.267 253.487 85.0824L254.928 85.2443C254.837 85.625 254.663 85.9574 254.408 86.2415C254.155 86.5227 253.831 86.7415 253.436 86.8977C253.041 87.0511 252.589 87.1278 252.081 87.1278ZM264.446 82.1847L263.04 82.3381C263 82.196 262.931 82.0625 262.831 81.9375C262.735 81.8125 262.604 81.7116 262.439 81.6349C262.275 81.5582 262.073 81.5199 261.834 81.5199C261.513 81.5199 261.243 81.5895 261.025 81.7287C260.809 81.8679 260.702 82.0483 260.705 82.2699C260.702 82.4602 260.772 82.6151 260.914 82.7344C261.059 82.8537 261.297 82.9517 261.63 83.0284L262.746 83.267C263.365 83.4006 263.826 83.6122 264.127 83.902C264.431 84.1918 264.584 84.571 264.587 85.0398C264.584 85.4517 264.463 85.8153 264.225 86.1307C263.989 86.4432 263.661 86.6875 263.24 86.8636C262.82 87.0398 262.337 87.1278 261.792 87.1278C260.99 87.1278 260.346 86.9602 259.857 86.625C259.368 86.2869 259.077 85.8168 258.983 85.2145L260.488 85.0696C260.556 85.3651 260.701 85.5881 260.922 85.7386C261.144 85.8892 261.432 85.9645 261.787 85.9645C262.154 85.9645 262.448 85.8892 262.669 85.7386C262.894 85.5881 263.006 85.402 263.006 85.1804C263.006 84.9929 262.934 84.8381 262.789 84.7159C262.647 84.5937 262.425 84.5 262.124 84.4347L261.007 84.2003C260.38 84.0696 259.915 83.8494 259.614 83.5398C259.313 83.2273 259.164 82.8324 259.167 82.3551C259.164 81.9517 259.273 81.6023 259.495 81.3068C259.719 81.0085 260.03 80.7784 260.428 80.6165C260.828 80.4517 261.29 80.3693 261.813 80.3693C262.58 80.3693 263.184 80.5327 263.624 80.8594C264.067 81.1861 264.341 81.6278 264.446 82.1847ZM267.265 84.946L267.261 83.0838H267.508L269.86 80.4545H271.663L268.77 83.6761H268.45L267.265 84.946ZM265.859 87V78.2727H267.402V87H265.859ZM269.967 87L267.836 84.0213L268.876 82.9347L271.812 87H269.967ZM272.691 87V80.4545H274.234V87H272.691ZM273.467 79.5256C273.222 79.5256 273.012 79.4446 272.836 79.2827C272.66 79.1179 272.572 78.9205 272.572 78.6903C272.572 78.4574 272.66 78.2599 272.836 78.098C273.012 77.9332 273.222 77.8509 273.467 77.8509C273.714 77.8509 273.924 77.9332 274.097 78.098C274.273 78.2599 274.362 78.4574 274.362 78.6903C274.362 78.9205 274.273 79.1179 274.097 79.2827C273.924 79.4446 273.714 79.5256 273.467 79.5256ZM277.363 78.2727V87H275.82V78.2727H277.363ZM280.491 78.2727V87H278.949V78.2727H280.491ZM287.251 82.1847L285.845 82.3381C285.805 82.196 285.735 82.0625 285.636 81.9375C285.539 81.8125 285.409 81.7116 285.244 81.6349C285.079 81.5582 284.877 81.5199 284.639 81.5199C284.318 81.5199 284.048 81.5895 283.829 81.7287C283.613 81.8679 283.507 82.0483 283.51 82.2699C283.507 82.4602 283.576 82.6151 283.718 82.7344C283.863 82.8537 284.102 82.9517 284.434 83.0284L285.551 83.267C286.17 83.4006 286.63 83.6122 286.931 83.902C287.235 84.1918 287.389 84.571 287.392 85.0398C287.389 85.4517 287.268 85.8153 287.029 86.1307C286.794 86.4432 286.466 86.6875 286.045 86.8636C285.625 87.0398 285.142 87.1278 284.596 87.1278C283.795 87.1278 283.15 86.9602 282.662 86.625C282.173 86.2869 281.882 85.8168 281.788 85.2145L283.292 85.0696C283.36 85.3651 283.505 85.5881 283.727 85.7386C283.949 85.8892 284.237 85.9645 284.592 85.9645C284.958 85.9645 285.252 85.8892 285.474 85.7386C285.699 85.5881 285.811 85.402 285.811 85.1804C285.811 84.9929 285.738 84.8381 285.593 84.7159C285.451 84.5937 285.23 84.5 284.929 84.4347L283.812 84.2003C283.184 84.0696 282.72 83.8494 282.419 83.5398C282.118 83.2273 281.968 82.8324 281.971 82.3551C281.968 81.9517 282.078 81.6023 282.299 81.3068C282.524 81.0085 282.835 80.7784 283.233 80.6165C283.633 80.4517 284.095 80.3693 284.618 80.3693C285.385 80.3693 285.988 80.5327 286.429 80.8594C286.872 81.1861 287.146 81.6278 287.251 82.1847ZM34.0611 95.4545V96.6477H30.2983V95.4545H34.0611ZM31.2273 93.8864H32.7699V100.031C32.7699 100.239 32.8011 100.398 32.8636 100.509C32.929 100.616 33.0142 100.69 33.1193 100.73C33.2244 100.77 33.3409 100.79 33.4688 100.79C33.5653 100.79 33.6534 100.783 33.733 100.768C33.8153 100.754 33.8778 100.741 33.9205 100.73L34.1804 101.936C34.098 101.964 33.9801 101.996 33.8267 102.03C33.6761 102.064 33.4915 102.084 33.2727 102.089C32.8864 102.101 32.5384 102.043 32.2287 101.915C31.919 101.784 31.6733 101.582 31.4915 101.31C31.3125 101.037 31.2244 100.696 31.2273 100.287V93.8864ZM38.136 102.128C37.4968 102.128 36.9428 101.987 36.4741 101.706C36.0053 101.425 35.6417 101.031 35.3832 100.526C35.1275 100.02 34.9996 99.429 34.9996 98.7528C34.9996 98.0767 35.1275 97.4844 35.3832 96.9759C35.6417 96.4673 36.0053 96.0724 36.4741 95.7912C36.9428 95.5099 37.4968 95.3693 38.136 95.3693C38.7752 95.3693 39.3292 95.5099 39.7979 95.7912C40.2667 96.0724 40.6289 96.4673 40.8846 96.9759C41.1431 97.4844 41.2724 98.0767 41.2724 98.7528C41.2724 99.429 41.1431 100.02 40.8846 100.526C40.6289 101.031 40.2667 101.425 39.7979 101.706C39.3292 101.987 38.7752 102.128 38.136 102.128ZM38.1445 100.892C38.4911 100.892 38.7809 100.797 39.0138 100.607C39.2468 100.413 39.4201 100.155 39.5337 99.831C39.6502 99.5071 39.7085 99.1463 39.7085 98.7486C39.7085 98.348 39.6502 97.9858 39.5337 97.6619C39.4201 97.3352 39.2468 97.0753 39.0138 96.8821C38.7809 96.6889 38.4911 96.5923 38.1445 96.5923C37.7894 96.5923 37.494 96.6889 37.2582 96.8821C37.0252 97.0753 36.8505 97.3352 36.734 97.6619C36.6204 97.9858 36.5636 98.348 36.5636 98.7486C36.5636 99.1463 36.6204 99.5071 36.734 99.831C36.8505 100.155 37.0252 100.413 37.2582 100.607C37.494 100.797 37.7894 100.892 38.1445 100.892ZM45.6264 102V93.2727H47.169V96.5369H47.233C47.3125 96.3778 47.4247 96.2088 47.5696 96.0298C47.7145 95.848 47.9105 95.6932 48.1577 95.5653C48.4048 95.4347 48.7202 95.3693 49.1037 95.3693C49.6094 95.3693 50.0653 95.4986 50.4716 95.7571C50.8807 96.0128 51.2045 96.392 51.4432 96.8949C51.6847 97.3949 51.8054 98.0085 51.8054 98.7358C51.8054 99.4545 51.6875 100.065 51.4517 100.568C51.2159 101.071 50.8949 101.455 50.4886 101.719C50.0824 101.983 49.6222 102.115 49.108 102.115C48.733 102.115 48.4219 102.053 48.1747 101.928C47.9276 101.803 47.7287 101.652 47.5781 101.476C47.4304 101.297 47.3153 101.128 47.233 100.969H47.1435V102H45.6264ZM47.1392 98.7273C47.1392 99.1506 47.1989 99.5213 47.3182 99.8395C47.4403 100.158 47.6151 100.406 47.8423 100.585C48.0724 100.761 48.3509 100.849 48.6776 100.849C49.0185 100.849 49.304 100.759 49.5341 100.577C49.7642 100.392 49.9375 100.141 50.054 99.8224C50.1733 99.5014 50.233 99.1364 50.233 98.7273C50.233 98.321 50.1747 97.9602 50.0582 97.6449C49.9418 97.3295 49.7685 97.0824 49.5384 96.9034C49.3082 96.7244 49.0213 96.6349 48.6776 96.6349C48.348 96.6349 48.0682 96.7216 47.8381 96.8949C47.608 97.0682 47.4332 97.3111 47.3139 97.6236C47.1974 97.9361 47.1392 98.304 47.1392 98.7273ZM56.0146 102.128C55.3583 102.128 54.7915 101.991 54.3143 101.719C53.8398 101.443 53.4748 101.054 53.2191 100.551C52.9634 100.045 52.8356 99.4503 52.8356 98.7656C52.8356 98.0923 52.9634 97.5014 53.2191 96.9929C53.4776 96.4815 53.8384 96.0838 54.3015 95.7997C54.7646 95.5128 55.3086 95.3693 55.9336 95.3693C56.337 95.3693 56.7177 95.4347 57.0756 95.5653C57.4364 95.6932 57.7546 95.892 58.0302 96.1619C58.3086 96.4318 58.5273 96.7756 58.6864 97.1932C58.8455 97.608 58.9251 98.1023 58.9251 98.6761V99.1491H53.56V98.1094H57.4464C57.4435 97.8139 57.3796 97.5511 57.2546 97.321C57.1296 97.0881 56.9549 96.9048 56.7305 96.7713C56.5089 96.6378 56.2504 96.571 55.9549 96.571C55.6396 96.571 55.3626 96.6477 55.1239 96.8011C54.8853 96.9517 54.6992 97.1506 54.5657 97.3977C54.435 97.642 54.3683 97.9105 54.3654 98.2031V99.1108C54.3654 99.4915 54.435 99.8182 54.5742 100.091C54.7134 100.361 54.908 100.568 55.158 100.713C55.408 100.855 55.7006 100.926 56.0359 100.926C56.2603 100.926 56.4634 100.895 56.6452 100.832C56.8271 100.767 56.9847 100.672 57.1183 100.547C57.2518 100.422 57.3526 100.267 57.4208 100.082L58.8612 100.244C58.7702 100.625 58.5969 100.957 58.3413 101.241C58.0884 101.523 57.7646 101.741 57.3697 101.898C56.9748 102.051 56.5231 102.128 56.0146 102.128ZM66.0618 102.128C65.4084 102.128 64.8473 101.984 64.3786 101.697C63.9126 101.411 63.5533 101.014 63.3004 100.509C63.0504 100 62.9254 99.4148 62.9254 98.7528C62.9254 98.0881 63.0533 97.5014 63.3089 96.9929C63.5646 96.4815 63.9254 96.0838 64.3913 95.7997C64.8601 95.5128 65.4141 95.3693 66.0533 95.3693C66.5845 95.3693 67.0547 95.4673 67.4638 95.6634C67.8757 95.8565 68.2038 96.1307 68.4482 96.4858C68.6925 96.8381 68.8317 97.25 68.8658 97.7216H67.3913C67.3317 97.4062 67.1896 97.1435 66.9652 96.9332C66.7436 96.7202 66.4467 96.6136 66.0746 96.6136C65.7592 96.6136 65.4822 96.6989 65.2436 96.8693C65.005 97.0369 64.8189 97.2784 64.6854 97.5938C64.5547 97.9091 64.4893 98.2869 64.4893 98.7273C64.4893 99.1733 64.5547 99.5568 64.6854 99.8778C64.8161 100.196 64.9993 100.442 65.2351 100.615C65.4737 100.786 65.7536 100.871 66.0746 100.871C66.3018 100.871 66.505 100.828 66.6839 100.743C66.8658 100.655 67.0178 100.528 67.1399 100.364C67.2621 100.199 67.3459 99.9986 67.3913 99.7628H68.8658C68.8288 100.226 68.6925 100.636 68.4567 100.994C68.2209 101.349 67.8999 101.628 67.4936 101.83C67.0874 102.028 66.6101 102.128 66.0618 102.128ZM72.016 102.132C71.6012 102.132 71.2276 102.058 70.8952 101.911C70.5657 101.76 70.3043 101.538 70.1112 101.246C69.9208 100.953 69.8256 100.592 69.8256 100.163C69.8256 99.794 69.8938 99.4886 70.0302 99.2472C70.1665 99.0057 70.3526 98.8125 70.5884 98.6676C70.8242 98.5227 71.0898 98.4134 71.3853 98.3395C71.6836 98.2628 71.9918 98.2074 72.31 98.1733C72.6935 98.1335 73.0046 98.098 73.2433 98.0668C73.4819 98.0327 73.6552 97.9815 73.7631 97.9134C73.8739 97.8423 73.9293 97.733 73.9293 97.5852V97.5597C73.9293 97.2386 73.8342 96.9901 73.6438 96.8139C73.4535 96.6378 73.1793 96.5497 72.8214 96.5497C72.4435 96.5497 72.1438 96.6321 71.9222 96.7969C71.7035 96.9616 71.5558 97.1562 71.479 97.3807L70.0387 97.1761C70.1523 96.7784 70.3398 96.446 70.6012 96.179C70.8626 95.9091 71.1822 95.7074 71.56 95.5739C71.9379 95.4375 72.3555 95.3693 72.8129 95.3693C73.1282 95.3693 73.4421 95.4062 73.7546 95.4801C74.0671 95.554 74.3526 95.6761 74.6112 95.8466C74.8697 96.0142 75.0771 96.2429 75.2333 96.5327C75.3924 96.8224 75.4719 97.1847 75.4719 97.6193V102H73.989V101.101H73.9379C73.8441 101.283 73.712 101.453 73.5415 101.612C73.3739 101.768 73.1623 101.895 72.9066 101.991C72.6538 102.085 72.3569 102.132 72.016 102.132ZM72.4165 100.999C72.7262 100.999 72.9947 100.937 73.2219 100.815C73.4492 100.69 73.6239 100.526 73.7461 100.321C73.8711 100.116 73.9336 99.8935 73.9336 99.652V98.8807C73.8853 98.9205 73.8029 98.9574 73.6864 98.9915C73.5728 99.0256 73.445 99.0554 73.3029 99.081C73.1609 99.1065 73.0202 99.1293 72.881 99.1491C72.7418 99.169 72.6211 99.1861 72.5188 99.2003C72.2887 99.2315 72.0827 99.2827 71.9009 99.3537C71.7191 99.4247 71.5756 99.5241 71.4705 99.652C71.3654 99.777 71.3129 99.9389 71.3129 100.138C71.3129 100.422 71.4165 100.636 71.6239 100.781C71.8313 100.926 72.0955 100.999 72.4165 100.999ZM78.5657 93.2727V102H77.0231V93.2727H78.5657ZM80.152 102V95.4545H81.6264V96.5668H81.7031C81.8395 96.1918 82.0653 95.8991 82.3807 95.6889C82.696 95.4759 83.0724 95.3693 83.5099 95.3693C83.9531 95.3693 84.3267 95.4773 84.6307 95.6932C84.9375 95.9062 85.1534 96.1974 85.2784 96.5668H85.3466C85.4915 96.2031 85.7358 95.9134 86.0795 95.6974C86.4261 95.4787 86.8366 95.3693 87.3111 95.3693C87.9134 95.3693 88.4048 95.5597 88.7855 95.9403C89.1662 96.321 89.3565 96.8764 89.3565 97.6065V102H87.8097V97.8452C87.8097 97.4389 87.7017 97.142 87.4858 96.9545C87.2699 96.7642 87.0057 96.669 86.6932 96.669C86.321 96.669 86.0298 96.7855 85.8196 97.0185C85.6122 97.2486 85.5085 97.5483 85.5085 97.9176V102H83.9957V97.7812C83.9957 97.4432 83.8935 97.1733 83.6889 96.9716C83.4872 96.7699 83.223 96.669 82.8963 96.669C82.6747 96.669 82.473 96.7259 82.2912 96.8395C82.1094 96.9503 81.9645 97.108 81.8565 97.3125C81.7486 97.5142 81.6946 97.75 81.6946 98.0199V102H80.152ZM93.8981 102V95.4545H95.4407V102H93.8981ZM94.6737 94.5256C94.4293 94.5256 94.2191 94.4446 94.043 94.2827C93.8668 94.1179 93.7788 93.9205 93.7788 93.6903C93.7788 93.4574 93.8668 93.2599 94.043 93.098C94.2191 92.9332 94.4293 92.8509 94.6737 92.8509C94.9208 92.8509 95.131 92.9332 95.3043 93.098C95.4805 93.2599 95.5685 93.4574 95.5685 93.6903C95.5685 93.9205 95.4805 94.1179 95.3043 94.2827C95.131 94.4446 94.9208 94.5256 94.6737 94.5256ZM98.5696 98.1648V102H97.027V95.4545H98.5014V96.5668H98.5781C98.7287 96.2003 98.9688 95.9091 99.2983 95.6932C99.6307 95.4773 100.041 95.3693 100.53 95.3693C100.982 95.3693 101.375 95.4659 101.71 95.6591C102.048 95.8523 102.31 96.1321 102.494 96.4986C102.682 96.8651 102.774 97.3097 102.771 97.8324V102H101.229V98.071C101.229 97.6335 101.115 97.2912 100.888 97.044C100.663 96.7969 100.352 96.6733 99.9545 96.6733C99.6847 96.6733 99.4446 96.733 99.2344 96.8523C99.027 96.9687 98.8636 97.1378 98.7443 97.3594C98.6278 97.581 98.5696 97.8494 98.5696 98.1648ZM109.2 102.132C108.785 102.132 108.411 102.058 108.079 101.911C107.749 101.76 107.488 101.538 107.295 101.246C107.104 100.953 107.009 100.592 107.009 100.163C107.009 99.794 107.077 99.4886 107.214 99.2472C107.35 99.0057 107.536 98.8125 107.772 98.6676C108.008 98.5227 108.273 98.4134 108.569 98.3395C108.867 98.2628 109.175 98.2074 109.494 98.1733C109.877 98.1335 110.188 98.098 110.427 98.0668C110.665 98.0327 110.839 97.9815 110.947 97.9134C111.058 97.8423 111.113 97.733 111.113 97.5852V97.5597C111.113 97.2386 111.018 96.9901 110.827 96.8139C110.637 96.6378 110.363 96.5497 110.005 96.5497C109.627 96.5497 109.327 96.6321 109.106 96.7969C108.887 96.9616 108.739 97.1562 108.663 97.3807L107.222 97.1761C107.336 96.7784 107.523 96.446 107.785 96.179C108.046 95.9091 108.366 95.7074 108.744 95.5739C109.121 95.4375 109.539 95.3693 109.996 95.3693C110.312 95.3693 110.626 95.4062 110.938 95.4801C111.251 95.554 111.536 95.6761 111.795 95.8466C112.053 96.0142 112.261 96.2429 112.417 96.5327C112.576 96.8224 112.656 97.1847 112.656 97.6193V102H111.173V101.101H111.121C111.028 101.283 110.896 101.453 110.725 101.612C110.558 101.768 110.346 101.895 110.09 101.991C109.837 102.085 109.54 102.132 109.2 102.132ZM109.6 100.999C109.91 100.999 110.178 100.937 110.406 100.815C110.633 100.69 110.808 100.526 110.93 100.321C111.055 100.116 111.117 99.8935 111.117 99.652V98.8807C111.069 98.9205 110.987 98.9574 110.87 98.9915C110.756 99.0256 110.629 99.0554 110.487 99.081C110.344 99.1065 110.204 99.1293 110.065 99.1491C109.925 99.169 109.805 99.1861 109.702 99.2003C109.472 99.2315 109.266 99.2827 109.085 99.3537C108.903 99.4247 108.759 99.5241 108.654 99.652C108.549 99.777 108.496 99.9389 108.496 100.138C108.496 100.422 108.6 100.636 108.808 100.781C109.015 100.926 109.279 100.999 109.6 100.999ZM115.749 98.1648V102H114.207V95.4545H115.681V96.5668H115.758C115.908 96.2003 116.148 95.9091 116.478 95.6932C116.81 95.4773 117.221 95.3693 117.71 95.3693C118.161 95.3693 118.555 95.4659 118.89 95.6591C119.228 95.8523 119.489 96.1321 119.674 96.4986C119.862 96.8651 119.954 97.3097 119.951 97.8324V102H118.408V98.071C118.408 97.6335 118.295 97.2912 118.067 97.044C117.843 96.7969 117.532 96.6733 117.134 96.6733C116.864 96.6733 116.624 96.733 116.414 96.8523C116.207 96.9687 116.043 97.1378 115.924 97.3594C115.808 97.581 115.749 97.8494 115.749 98.1648ZM122.244 104.455C122.033 104.455 121.839 104.438 121.66 104.403C121.484 104.372 121.343 104.335 121.238 104.293L121.596 103.091C121.82 103.156 122.021 103.188 122.197 103.185C122.373 103.182 122.528 103.126 122.661 103.018C122.798 102.913 122.913 102.737 123.006 102.49L123.138 102.136L120.765 95.4545H122.401L123.91 100.398H123.978L125.491 95.4545H127.131L124.511 102.793C124.388 103.139 124.227 103.436 124.025 103.683C123.823 103.933 123.576 104.124 123.283 104.254C122.994 104.388 122.647 104.455 122.244 104.455ZM136.349 97.1847L134.942 97.3381C134.903 97.196 134.833 97.0625 134.734 96.9375C134.637 96.8125 134.506 96.7116 134.342 96.6349C134.177 96.5582 133.975 96.5199 133.737 96.5199C133.415 96.5199 133.146 96.5895 132.927 96.7287C132.711 96.8679 132.604 97.0483 132.607 97.2699C132.604 97.4602 132.674 97.6151 132.816 97.7344C132.961 97.8537 133.2 97.9517 133.532 98.0284L134.648 98.267C135.268 98.4006 135.728 98.6122 136.029 98.902C136.333 99.1918 136.487 99.571 136.489 100.04C136.487 100.452 136.366 100.815 136.127 101.131C135.891 101.443 135.563 101.687 135.143 101.864C134.722 102.04 134.239 102.128 133.694 102.128C132.893 102.128 132.248 101.96 131.759 101.625C131.271 101.287 130.979 100.817 130.886 100.214L132.39 100.07C132.458 100.365 132.603 100.588 132.825 100.739C133.046 100.889 133.335 100.964 133.69 100.964C134.056 100.964 134.35 100.889 134.572 100.739C134.796 100.588 134.908 100.402 134.908 100.18C134.908 99.9929 134.836 99.8381 134.691 99.7159C134.549 99.5937 134.327 99.5 134.026 99.4347L132.91 99.2003C132.282 99.0696 131.817 98.8494 131.516 98.5398C131.215 98.2273 131.066 97.8324 131.069 97.3551C131.066 96.9517 131.175 96.6023 131.397 96.3068C131.621 96.0085 131.933 95.7784 132.33 95.6165C132.731 95.4517 133.192 95.3693 133.715 95.3693C134.482 95.3693 135.086 95.5327 135.526 95.8594C135.969 96.1861 136.244 96.6278 136.349 97.1847ZM137.761 102V95.4545H139.304V102H137.761ZM138.537 94.5256C138.293 94.5256 138.082 94.4446 137.906 94.2827C137.73 94.1179 137.642 93.9205 137.642 93.6903C137.642 93.4574 137.73 93.2599 137.906 93.098C138.082 92.9332 138.293 92.8509 138.537 92.8509C138.784 92.8509 138.994 92.9332 139.168 93.098C139.344 93.2599 139.432 93.4574 139.432 93.6903C139.432 93.9205 139.344 94.1179 139.168 94.2827C138.994 94.4446 138.784 94.5256 138.537 94.5256ZM144.159 95.4545V96.6477H140.396V95.4545H144.159ZM141.325 93.8864H142.868V100.031C142.868 100.239 142.899 100.398 142.961 100.509C143.027 100.616 143.112 100.69 143.217 100.73C143.322 100.77 143.439 100.79 143.566 100.79C143.663 100.79 143.751 100.783 143.831 100.768C143.913 100.754 143.975 100.741 144.018 100.73L144.278 101.936C144.196 101.964 144.078 101.996 143.924 102.03C143.774 102.064 143.589 102.084 143.37 102.089C142.984 102.101 142.636 102.043 142.326 101.915C142.017 101.784 141.771 101.582 141.589 101.31C141.41 101.037 141.322 100.696 141.325 100.287V93.8864ZM149.621 99.2472V95.4545H151.163V102H149.668V100.837H149.599C149.452 101.203 149.209 101.503 148.871 101.736C148.536 101.969 148.122 102.085 147.631 102.085C147.202 102.085 146.822 101.99 146.493 101.8C146.166 101.607 145.911 101.327 145.726 100.96C145.541 100.591 145.449 100.145 145.449 99.6222V95.4545H146.991V99.3835C146.991 99.7983 147.105 100.128 147.332 100.372C147.56 100.616 147.858 100.739 148.227 100.739C148.455 100.739 148.675 100.683 148.888 100.572C149.101 100.462 149.276 100.297 149.412 100.078C149.551 99.8565 149.621 99.5795 149.621 99.2472ZM154.633 102.132C154.218 102.132 153.845 102.058 153.512 101.911C153.183 101.76 152.922 101.538 152.728 101.246C152.538 100.953 152.443 100.592 152.443 100.163C152.443 99.794 152.511 99.4886 152.647 99.2472C152.784 99.0057 152.97 98.8125 153.206 98.6676C153.441 98.5227 153.707 98.4134 154.002 98.3395C154.301 98.2628 154.609 98.2074 154.927 98.1733C155.311 98.1335 155.622 98.098 155.86 98.0668C156.099 98.0327 156.272 97.9815 156.38 97.9134C156.491 97.8423 156.547 97.733 156.547 97.5852V97.5597C156.547 97.2386 156.451 96.9901 156.261 96.8139C156.071 96.6378 155.797 96.5497 155.439 96.5497C155.061 96.5497 154.761 96.6321 154.539 96.7969C154.321 96.9616 154.173 97.1562 154.096 97.3807L152.656 97.1761C152.77 96.7784 152.957 96.446 153.218 96.179C153.48 95.9091 153.799 95.7074 154.177 95.5739C154.555 95.4375 154.973 95.3693 155.43 95.3693C155.745 95.3693 156.059 95.4062 156.372 95.4801C156.684 95.554 156.97 95.6761 157.228 95.8466C157.487 96.0142 157.694 96.2429 157.85 96.5327C158.01 96.8224 158.089 97.1847 158.089 97.6193V102H156.606V101.101H156.555C156.461 101.283 156.329 101.453 156.159 101.612C155.991 101.768 155.779 101.895 155.524 101.991C155.271 102.085 154.974 102.132 154.633 102.132ZM155.034 100.999C155.343 100.999 155.612 100.937 155.839 100.815C156.066 100.69 156.241 100.526 156.363 100.321C156.488 100.116 156.551 99.8935 156.551 99.652V98.8807C156.502 98.9205 156.42 98.9574 156.304 98.9915C156.19 99.0256 156.062 99.0554 155.92 99.081C155.778 99.1065 155.637 99.1293 155.498 99.1491C155.359 99.169 155.238 99.1861 155.136 99.2003C154.906 99.2315 154.7 99.2827 154.518 99.3537C154.336 99.4247 154.193 99.5241 154.088 99.652C153.983 99.777 153.93 99.9389 153.93 100.138C153.93 100.422 154.034 100.636 154.241 100.781C154.449 100.926 154.713 100.999 155.034 100.999ZM162.909 95.4545V96.6477H159.146V95.4545H162.909ZM160.075 93.8864H161.618V100.031C161.618 100.239 161.649 100.398 161.711 100.509C161.777 100.616 161.862 100.69 161.967 100.73C162.072 100.77 162.189 100.79 162.316 100.79C162.413 100.79 162.501 100.783 162.581 100.768C162.663 100.754 162.725 100.741 162.768 100.73L163.028 101.936C162.946 101.964 162.828 101.996 162.674 102.03C162.524 102.064 162.339 102.084 162.12 102.089C161.734 102.101 161.386 102.043 161.076 101.915C160.767 101.784 160.521 101.582 160.339 101.31C160.16 101.037 160.072 100.696 160.075 100.287V93.8864ZM164.199 102V95.4545H165.741V102H164.199ZM164.974 94.5256C164.73 94.5256 164.52 94.4446 164.344 94.2827C164.168 94.1179 164.08 93.9205 164.08 93.6903C164.08 93.4574 164.168 93.2599 164.344 93.098C164.52 92.9332 164.73 92.8509 164.974 92.8509C165.222 92.8509 165.432 92.9332 165.605 93.098C165.781 93.2599 165.869 93.4574 165.869 93.6903C165.869 93.9205 165.781 94.1179 165.605 94.2827C165.432 94.4446 165.222 94.5256 164.974 94.5256ZM170.183 102.128C169.544 102.128 168.99 101.987 168.521 101.706C168.052 101.425 167.689 101.031 167.43 100.526C167.174 100.02 167.047 99.429 167.047 98.7528C167.047 98.0767 167.174 97.4844 167.43 96.9759C167.689 96.4673 168.052 96.0724 168.521 95.7912C168.99 95.5099 169.544 95.3693 170.183 95.3693C170.822 95.3693 171.376 95.5099 171.845 95.7912C172.314 96.0724 172.676 96.4673 172.931 96.9759C173.19 97.4844 173.319 98.0767 173.319 98.7528C173.319 99.429 173.19 100.02 172.931 100.526C172.676 101.031 172.314 101.425 171.845 101.706C171.376 101.987 170.822 102.128 170.183 102.128ZM170.191 100.892C170.538 100.892 170.828 100.797 171.061 100.607C171.294 100.413 171.467 100.155 171.581 99.831C171.697 99.5071 171.755 99.1463 171.755 98.7486C171.755 98.348 171.697 97.9858 171.581 97.6619C171.467 97.3352 171.294 97.0753 171.061 96.8821C170.828 96.6889 170.538 96.5923 170.191 96.5923C169.836 96.5923 169.541 96.6889 169.305 96.8821C169.072 97.0753 168.897 97.3352 168.781 97.6619C168.667 97.9858 168.61 98.348 168.61 98.7486C168.61 99.1463 168.667 99.5071 168.781 99.831C168.897 100.155 169.072 100.413 169.305 100.607C169.541 100.797 169.836 100.892 170.191 100.892ZM176.171 98.1648V102H174.629V95.4545H176.103V96.5668H176.18C176.33 96.2003 176.57 95.9091 176.9 95.6932C177.232 95.4773 177.643 95.3693 178.131 95.3693C178.583 95.3693 178.977 95.4659 179.312 95.6591C179.65 95.8523 179.911 96.1321 180.096 96.4986C180.283 96.8651 180.376 97.3097 180.373 97.8324V102H178.83V98.071C178.83 97.6335 178.717 97.2912 178.489 97.044C178.265 96.7969 177.954 96.6733 177.556 96.6733C177.286 96.6733 177.046 96.733 176.836 96.8523C176.629 96.9687 176.465 97.1378 176.346 97.3594C176.229 97.581 176.171 97.8494 176.171 98.1648Z" fill="#FCFCFC"/>
</g>
<defs>
<filter id="filter0_d_532_2064" x="0" y="0" width="323" height="136" filterUnits="userSpaceOnUse" color-interpolation-filters="sRGB">
<feFlood flood-opacity="0" result="BackgroundImageFix"/>
<feColorMatrix in="SourceAlpha" type="matrix" values="0 0 0 0 0 0 0 0 0 0 0 0 0 0 0 0 0 0 127 0" result="hardAlpha"/>
<feOffset dy="1"/>
<feGaussianBlur stdDeviation="5"/>
<feComposite in2="hardAlpha" operator="out"/>
<feColorMatrix type="matrix" values="0 0 0 0 0 0 0 0 0 0 0 0 0 0 0 0 0 0 0.1 0"/>
<feBlend mode="normal" in2="BackgroundImageFix" result="effect1_dropShadow_532_2064"/>
<feBlend mode="normal" in="SourceGraphic" in2="effect1_dropShadow_532_2064" result="shape"/>
</filter>
</defs>
</svg>
