<svg width="303" height="124" viewBox="0 0 303 124" fill="none" xmlns="http://www.w3.org/2000/svg">
<rect width="303" height="124" rx="20" fill="#EEA953"/>
<path d="M21.2642 41.5V26.9545H27.0028C28.1061 26.9545 29.0459 27.1652 29.8224 27.5866C30.599 28.0033 31.1908 28.5833 31.598 29.3267C32.0099 30.0653 32.2159 30.9176 32.2159 31.8835C32.2159 32.8494 32.0076 33.7017 31.5909 34.4403C31.1742 35.179 30.5705 35.7543 29.7798 36.1662C28.9938 36.5781 28.0421 36.7841 26.9247 36.7841H23.267V34.3196H26.4276C27.0194 34.3196 27.5071 34.2178 27.8906 34.0142C28.2789 33.8059 28.5677 33.5194 28.7571 33.1548C28.9512 32.7855 29.0483 32.3617 29.0483 31.8835C29.0483 31.4006 28.9512 30.9792 28.7571 30.6193C28.5677 30.2547 28.2789 29.973 27.8906 29.7741C27.5024 29.5705 27.0099 29.4688 26.4134 29.4688H24.3395V41.5H21.2642ZM36.9744 41.706C36.2784 41.706 35.6581 41.5852 35.1136 41.3438C34.5691 41.0975 34.1383 40.7353 33.821 40.2571C33.5085 39.7741 33.3523 39.1728 33.3523 38.4531C33.3523 37.8471 33.4635 37.3381 33.6861 36.9261C33.9086 36.5142 34.2116 36.1828 34.5952 35.9318C34.9787 35.6809 35.4143 35.4915 35.902 35.3636C36.3944 35.2358 36.9105 35.1458 37.4503 35.0938C38.0848 35.0275 38.5961 34.9659 38.9844 34.9091C39.3726 34.8475 39.6544 34.7576 39.8295 34.6392C40.0047 34.5208 40.0923 34.3456 40.0923 34.1136V34.071C40.0923 33.6212 39.9503 33.2732 39.6662 33.027C39.3868 32.7808 38.9891 32.6577 38.473 32.6577C37.9285 32.6577 37.4953 32.7784 37.1733 33.0199C36.8513 33.2566 36.6383 33.5549 36.5341 33.9148L33.7358 33.6875C33.8778 33.0246 34.1572 32.4517 34.5739 31.9688C34.9905 31.4811 35.5279 31.107 36.1861 30.8466C36.849 30.5814 37.616 30.4489 38.4872 30.4489C39.0933 30.4489 39.6733 30.5199 40.2273 30.6619C40.786 30.804 41.2808 31.0241 41.7116 31.3224C42.1473 31.6207 42.4905 32.0043 42.7415 32.473C42.9924 32.937 43.1179 33.4934 43.1179 34.142V41.5H40.2486V39.9872H40.1634C39.9882 40.3281 39.7538 40.6288 39.4602 40.8892C39.1667 41.1449 38.8139 41.3461 38.402 41.4929C37.9901 41.6349 37.5142 41.706 36.9744 41.706ZM37.8409 39.6179C38.286 39.6179 38.679 39.5303 39.0199 39.3551C39.3608 39.1752 39.6283 38.9337 39.8224 38.6307C40.0166 38.3277 40.1136 37.9844 40.1136 37.6009V36.4432C40.0189 36.5047 39.8887 36.5616 39.723 36.6136C39.562 36.661 39.3797 36.706 39.1761 36.7486C38.9725 36.7865 38.7689 36.822 38.5653 36.8551C38.3617 36.8835 38.1771 36.9096 38.0114 36.9332C37.6563 36.9853 37.3461 37.0682 37.081 37.1818C36.8158 37.2955 36.6098 37.4493 36.4631 37.6435C36.3163 37.8329 36.2429 38.0696 36.2429 38.3537C36.2429 38.7656 36.392 39.0805 36.6903 39.2983C36.9934 39.5114 37.3769 39.6179 37.8409 39.6179ZM52.4609 36.8551V30.5909H55.4865V41.5H52.5817V39.5185H52.468C52.2218 40.1577 51.8123 40.6714 51.2393 41.0597C50.6712 41.4479 49.9775 41.642 49.1584 41.642C48.4292 41.642 47.7876 41.4763 47.2337 41.1449C46.6797 40.8134 46.2464 40.3423 45.9339 39.7315C45.6262 39.1207 45.4699 38.3892 45.4652 37.5369V30.5909H48.4908V36.9972C48.4955 37.6411 48.6683 38.1501 49.0092 38.5241C49.3501 38.8982 49.8071 39.0852 50.38 39.0852C50.7446 39.0852 51.0855 39.0024 51.4027 38.8366C51.7199 38.6662 51.9756 38.4152 52.1697 38.0838C52.3686 37.7524 52.4657 37.3428 52.4609 36.8551ZM66.9833 33.7017L64.2134 33.8722C64.1661 33.6354 64.0643 33.4223 63.908 33.233C63.7518 33.0388 63.5458 32.8849 63.2901 32.7713C63.0392 32.6529 62.7385 32.5938 62.3881 32.5938C61.9194 32.5938 61.524 32.6932 61.2021 32.892C60.8801 33.0862 60.7191 33.3466 60.7191 33.6733C60.7191 33.9337 60.8233 34.1539 61.0316 34.3338C61.2399 34.5137 61.5974 34.6581 62.104 34.767L64.0785 35.1648C65.1391 35.3826 65.9298 35.733 66.4506 36.2159C66.9715 36.6989 67.2319 37.3333 67.2319 38.1193C67.2319 38.8343 67.0212 39.4616 66.5998 40.0014C66.1831 40.5412 65.6102 40.9626 64.881 41.2656C64.1566 41.5639 63.3209 41.7131 62.3739 41.7131C60.9298 41.7131 59.7792 41.4124 58.9222 40.8111C58.07 40.205 57.5704 39.3812 57.4237 38.3395L60.3995 38.1832C60.4895 38.6236 60.7073 38.9598 61.0529 39.1918C61.3986 39.419 61.8413 39.5327 62.381 39.5327C62.9113 39.5327 63.3375 39.4309 63.6594 39.2273C63.9862 39.0189 64.1519 38.7514 64.1566 38.4247C64.1519 38.1501 64.0359 37.9252 63.8086 37.75C63.5813 37.5701 63.2309 37.4328 62.7575 37.3381L60.8683 36.9616C59.8029 36.7486 59.0098 36.3793 58.489 35.8537C57.9729 35.3281 57.7148 34.6581 57.7148 33.8438C57.7148 33.143 57.9042 32.5393 58.283 32.0327C58.6665 31.526 59.204 31.1354 59.8952 30.8608C60.5913 30.5862 61.4057 30.4489 62.3384 30.4489C63.7163 30.4489 64.8005 30.7401 65.5913 31.3224C66.3867 31.9048 66.8507 32.6979 66.9833 33.7017ZM69.1371 41.5V30.5909H72.1626V41.5H69.1371ZM70.657 29.1847C70.2071 29.1847 69.8213 29.0355 69.4993 28.7372C69.1821 28.4342 69.0234 28.072 69.0234 27.6506C69.0234 27.2339 69.1821 26.8764 69.4993 26.5781C69.8213 26.2751 70.2071 26.1236 70.657 26.1236C71.1068 26.1236 71.4903 26.2751 71.8075 26.5781C72.1295 26.8764 72.2905 27.2339 72.2905 27.6506C72.2905 28.072 72.1295 28.4342 71.8075 28.7372C71.4903 29.0355 71.1068 29.1847 70.657 29.1847ZM77.6119 35.1932V41.5H74.5863V30.5909H77.4698V32.5156H77.5977C77.8391 31.8812 78.244 31.3793 78.8121 31.0099C79.3803 30.6359 80.0692 30.4489 80.8789 30.4489C81.6365 30.4489 82.297 30.6146 82.8604 30.946C83.4239 31.2775 83.8619 31.7509 84.1744 32.3665C84.4869 32.9773 84.6431 33.7064 84.6431 34.554V41.5H81.6175V35.0938C81.6223 34.4261 81.4518 33.9053 81.1062 33.5312C80.7605 33.1525 80.2847 32.9631 79.6786 32.9631C79.2714 32.9631 78.9116 33.0507 78.5991 33.2259C78.2913 33.401 78.0498 33.6567 77.8746 33.9929C77.7042 34.3243 77.6166 34.7244 77.6119 35.1932ZM91.9425 45.8182C90.9624 45.8182 90.1219 45.6832 89.4212 45.4134C88.7251 45.1482 88.1712 44.786 87.7592 44.3267C87.3473 43.8674 87.0798 43.3513 86.9567 42.7784L89.755 42.402C89.8402 42.6198 89.9751 42.8234 90.1598 43.0128C90.3445 43.2022 90.5883 43.3537 90.8913 43.4673C91.1991 43.5857 91.5732 43.6449 92.0135 43.6449C92.6716 43.6449 93.2138 43.4839 93.6399 43.1619C94.0708 42.8447 94.2862 42.312 94.2862 41.5639V39.5682H94.1584C94.0258 39.8712 93.8269 40.1577 93.5618 40.4276C93.2966 40.6974 92.9557 40.9176 92.5391 41.0881C92.1224 41.2585 91.6252 41.3438 91.0476 41.3438C90.2285 41.3438 89.4827 41.1544 88.8104 40.7756C88.1428 40.392 87.6101 39.8073 87.2124 39.0213C86.8194 38.2306 86.6229 37.2315 86.6229 36.0241C86.6229 34.7884 86.8241 33.7562 87.2266 32.9276C87.629 32.099 88.1641 31.4787 88.8317 31.0668C89.504 30.6548 90.2403 30.4489 91.0405 30.4489C91.6513 30.4489 92.1626 30.553 92.5746 30.7614C92.9865 30.965 93.3179 31.2206 93.5689 31.5284C93.8246 31.8314 94.0211 32.1297 94.1584 32.4233H94.272V30.5909H97.2763V41.6065C97.2763 42.5346 97.049 43.3111 96.5945 43.9361C96.1399 44.5611 95.5102 45.0298 94.7053 45.3423C93.9051 45.6596 92.9841 45.8182 91.9425 45.8182ZM92.0064 39.071C92.4941 39.071 92.906 38.9503 93.2422 38.7088C93.5831 38.4626 93.8435 38.1122 94.0234 37.6577C94.2081 37.1984 94.3004 36.6491 94.3004 36.0099C94.3004 35.3707 94.2105 34.8168 94.0305 34.348C93.8506 33.8745 93.5902 33.5076 93.2493 33.2472C92.9084 32.9867 92.4941 32.8565 92.0064 32.8565C91.5092 32.8565 91.0902 32.9915 90.7493 33.2614C90.4084 33.5265 90.1503 33.8958 89.9751 34.3693C89.8 34.8428 89.7124 35.3897 89.7124 36.0099C89.7124 36.6397 89.8 37.1842 89.9751 37.6435C90.1551 38.098 90.4131 38.4508 90.7493 38.7017C91.0902 38.9479 91.5092 39.071 92.0064 39.071Z" fill="#FCFCFC"/>
<rect x="109" y="20" width="29" height="29" rx="10" fill="#FCFCFC"/>
<g clip-path="url(#clip0_1254_2878)">
<path d="M128.104 36.2044C128.576 36.0194 128.984 35.7002 129.276 35.2862C129.569 34.8722 129.733 34.3816 129.75 33.875C129.75 32.2362 128.188 31.1537 125.5 30.8444C125.824 30.4715 126.001 29.9938 126 29.5C126 27.9812 124.528 27 122.25 27C119.972 27 118.5 27.9812 118.5 29.5C118.505 29.8961 118.618 30.2833 118.827 30.6195C119.036 30.9557 119.334 31.2281 119.688 31.4069C118.265 32.0325 117.875 33.0037 117.875 33.875C117.872 34.3443 118.001 34.805 118.247 35.2045C118.493 35.6039 118.847 35.926 119.268 36.1337C117.121 36.6125 116 37.5356 116 38.875C116 40.9194 118.593 42 123.5 42C128.477 42 131 40.9488 131 38.875C131 37.5894 130.028 36.6975 128.104 36.2044ZM122.25 28.25C123.494 28.25 124.75 28.6369 124.75 29.5C124.75 30.3631 123.494 30.75 122.25 30.75C121.006 30.75 119.75 30.3631 119.75 29.5C119.75 28.6369 121.006 28.25 122.25 28.25ZM123.812 32C125.975 32 128.5 32.4913 128.5 33.875C128.5 35.2587 125.975 35.75 123.812 35.75C122.403 35.75 119.125 35.5675 119.125 33.875C119.125 32.1825 122.403 32 123.812 32ZM123.5 40.75C119.703 40.75 117.25 40.0138 117.25 38.875C117.25 37.7362 119.703 37 123.5 37C127.414 37 129.75 37.7013 129.75 38.875C129.75 40.0487 127.414 40.75 123.5 40.75Z" fill="#EEA953"/>
</g>
<path d="M20.4773 63.598V62.2727H27.4403V63.598H24.7429V71H23.1747V63.598H20.4773ZM29.7074 71.1321C29.2926 71.1321 28.919 71.0582 28.5866 70.9105C28.2571 70.7599 27.9957 70.5384 27.8026 70.2457C27.6122 69.9531 27.517 69.5923 27.517 69.1634C27.517 68.794 27.5852 68.4886 27.7216 68.2472C27.858 68.0057 28.044 67.8125 28.2798 67.6676C28.5156 67.5227 28.7813 67.4134 29.0767 67.3395C29.375 67.2628 29.6832 67.2074 30.0014 67.1733C30.3849 67.1335 30.696 67.098 30.9347 67.0668C31.1733 67.0327 31.3466 66.9815 31.4545 66.9134C31.5653 66.8423 31.6207 66.733 31.6207 66.5852V66.5597C31.6207 66.2386 31.5256 65.9901 31.3352 65.8139C31.1449 65.6378 30.8707 65.5497 30.5128 65.5497C30.1349 65.5497 29.8352 65.6321 29.6136 65.7969C29.3949 65.9616 29.2472 66.1562 29.1705 66.3807L27.7301 66.1761C27.8438 65.7784 28.0313 65.446 28.2926 65.179C28.554 64.9091 28.8736 64.7074 29.2514 64.5739C29.6293 64.4375 30.0469 64.3693 30.5043 64.3693C30.8196 64.3693 31.1335 64.4062 31.446 64.4801C31.7585 64.554 32.044 64.6761 32.3026 64.8466C32.5611 65.0142 32.7685 65.2429 32.9247 65.5327C33.0838 65.8224 33.1634 66.1847 33.1634 66.6193V71H31.6804V70.1009H31.6293C31.5355 70.2827 31.4034 70.4531 31.233 70.6122C31.0653 70.7685 30.8537 70.8949 30.598 70.9915C30.3452 71.0852 30.0483 71.1321 29.7074 71.1321ZM30.108 69.9986C30.4176 69.9986 30.6861 69.9375 30.9134 69.8153C31.1406 69.6903 31.3153 69.5256 31.4375 69.321C31.5625 69.1165 31.625 68.8935 31.625 68.652V67.8807C31.5767 67.9205 31.4943 67.9574 31.3778 67.9915C31.2642 68.0256 31.1364 68.0554 30.9943 68.081C30.8523 68.1065 30.7116 68.1293 30.5724 68.1491C30.4332 68.169 30.3125 68.1861 30.2102 68.2003C29.9801 68.2315 29.7741 68.2827 29.5923 68.3537C29.4105 68.4247 29.267 68.5241 29.1619 68.652C29.0568 68.777 29.0043 68.9389 29.0043 69.1378C29.0043 69.4219 29.108 69.6364 29.3153 69.7812C29.5227 69.9261 29.7869 69.9986 30.108 69.9986ZM36.1207 68.946L36.1165 67.0838H36.3636L38.7159 64.4545H40.5185L37.625 67.6761H37.3054L36.1207 68.946ZM34.7145 71V62.2727H36.2571V71H34.7145ZM38.8224 71L36.6918 68.0213L37.7315 66.9347L40.6676 71H38.8224ZM41.5465 71V64.4545H43.0891V71H41.5465ZM42.3221 63.5256C42.0778 63.5256 41.8675 63.4446 41.6914 63.2827C41.5153 63.1179 41.4272 62.9205 41.4272 62.6903C41.4272 62.4574 41.5153 62.2599 41.6914 62.098C41.8675 61.9332 42.0778 61.8509 42.3221 61.8509C42.5692 61.8509 42.7795 61.9332 42.9528 62.098C43.1289 62.2599 43.217 62.4574 43.217 62.6903C43.217 62.9205 43.1289 63.1179 42.9528 63.2827C42.7795 63.4446 42.5692 63.5256 42.3221 63.5256ZM46.218 67.1648V71H44.6754V64.4545H46.1499V65.5668H46.2266C46.3771 65.2003 46.6172 64.9091 46.9467 64.6932C47.2791 64.4773 47.6896 64.3693 48.1783 64.3693C48.63 64.3693 49.0234 64.4659 49.3587 64.6591C49.6967 64.8523 49.9581 65.1321 50.1428 65.4986C50.3303 65.8651 50.4226 66.3097 50.4197 66.8324V71H48.8771V67.071C48.8771 66.6335 48.7635 66.2912 48.5362 66.044C48.3118 65.7969 48.0007 65.6733 47.603 65.6733C47.3331 65.6733 47.093 65.733 46.8828 65.8523C46.6754 65.9687 46.5121 66.1378 46.3928 66.3594C46.2763 66.581 46.218 66.8494 46.218 67.1648ZM54.8345 73.5909C54.2805 73.5909 53.8047 73.5156 53.407 73.3651C53.0092 73.2173 52.6896 73.0185 52.4482 72.7685C52.2067 72.5185 52.0391 72.2415 51.9453 71.9375L53.3345 71.6009C53.397 71.7287 53.4879 71.8551 53.6072 71.9801C53.7266 72.108 53.8871 72.2131 54.0888 72.2955C54.2933 72.3807 54.5504 72.4233 54.8601 72.4233C55.2976 72.4233 55.6598 72.3168 55.9467 72.1037C56.2337 71.8935 56.3771 71.5469 56.3771 71.0639V69.8239H56.3004C56.2209 69.983 56.1044 70.1463 55.951 70.3139C55.8004 70.4815 55.6001 70.6222 55.3501 70.7358C55.103 70.8494 54.7919 70.9062 54.4169 70.9062C53.9141 70.9062 53.4581 70.7884 53.049 70.5526C52.6428 70.3139 52.3189 69.9588 52.0774 69.4872C51.8388 69.0128 51.7195 68.419 51.7195 67.706C51.7195 66.9872 51.8388 66.3807 52.0774 65.8864C52.3189 65.3892 52.6442 65.0128 53.0533 64.7571C53.4624 64.4986 53.9183 64.3693 54.4212 64.3693C54.8047 64.3693 55.12 64.4347 55.3672 64.5653C55.6172 64.6932 55.8161 64.848 55.9638 65.0298C56.1115 65.2088 56.2237 65.3778 56.3004 65.5369H56.3857V64.4545H57.907V71.1065C57.907 71.6662 57.7734 72.1293 57.5064 72.4957C57.2393 72.8622 56.8743 73.1364 56.4112 73.3182C55.9482 73.5 55.4226 73.5909 54.8345 73.5909ZM54.8473 69.696C55.174 69.696 55.4524 69.6165 55.6825 69.4574C55.9126 69.2983 56.0874 69.0696 56.2067 68.7713C56.326 68.473 56.3857 68.1151 56.3857 67.6974C56.3857 67.2855 56.326 66.9247 56.2067 66.6151C56.0902 66.3054 55.9169 66.0653 55.6868 65.8949C55.4595 65.7216 55.1797 65.6349 54.8473 65.6349C54.5036 65.6349 54.2166 65.7244 53.9865 65.9034C53.7564 66.0824 53.5831 66.3281 53.4666 66.6406C53.3501 66.9503 53.2919 67.3026 53.2919 67.6974C53.2919 68.098 53.3501 68.4489 53.4666 68.75C53.5859 69.0483 53.7607 69.2812 53.9908 69.4489C54.2237 69.6136 54.5092 69.696 54.8473 69.696ZM65.733 64.4545V65.6477H61.9702V64.4545H65.733ZM62.8991 62.8864H64.4418V69.0312C64.4418 69.2386 64.473 69.3977 64.5355 69.5085C64.6009 69.6165 64.6861 69.6903 64.7912 69.7301C64.8963 69.7699 65.0128 69.7898 65.1406 69.7898C65.2372 69.7898 65.3253 69.7827 65.4048 69.7685C65.4872 69.7543 65.5497 69.7415 65.5923 69.7301L65.8523 70.9361C65.7699 70.9645 65.652 70.9957 65.4986 71.0298C65.348 71.0639 65.1634 71.0838 64.9446 71.0895C64.5582 71.1009 64.2102 71.0426 63.9006 70.9148C63.5909 70.7841 63.3452 70.5824 63.1634 70.3097C62.9844 70.0369 62.8963 69.696 62.8991 69.2869V62.8864ZM67.0231 71V64.4545H68.5657V71H67.0231ZM67.7987 63.5256C67.5543 63.5256 67.3441 63.4446 67.168 63.2827C66.9918 63.1179 66.9038 62.9205 66.9038 62.6903C66.9038 62.4574 66.9918 62.2599 67.168 62.098C67.3441 61.9332 67.5543 61.8509 67.7987 61.8509C68.0458 61.8509 68.256 61.9332 68.4293 62.098C68.6055 62.2599 68.6935 62.4574 68.6935 62.6903C68.6935 62.9205 68.6055 63.1179 68.4293 63.2827C68.256 63.4446 68.0458 63.5256 67.7987 63.5256ZM70.152 71V64.4545H71.6264V65.5668H71.7031C71.8395 65.1918 72.0653 64.8991 72.3807 64.6889C72.696 64.4759 73.0724 64.3693 73.5099 64.3693C73.9531 64.3693 74.3267 64.4773 74.6307 64.6932C74.9375 64.9062 75.1534 65.1974 75.2784 65.5668H75.3466C75.4915 65.2031 75.7358 64.9134 76.0795 64.6974C76.4261 64.4787 76.8366 64.3693 77.3111 64.3693C77.9134 64.3693 78.4048 64.5597 78.7855 64.9403C79.1662 65.321 79.3565 65.8764 79.3565 66.6065V71H77.8097V66.8452C77.8097 66.4389 77.7017 66.142 77.4858 65.9545C77.2699 65.7642 77.0057 65.669 76.6932 65.669C76.321 65.669 76.0298 65.7855 75.8196 66.0185C75.6122 66.2486 75.5085 66.5483 75.5085 66.9176V71H73.9957V66.7812C73.9957 66.4432 73.8935 66.1733 73.6889 65.9716C73.4872 65.7699 73.223 65.669 72.8963 65.669C72.6747 65.669 72.473 65.7259 72.2912 65.8395C72.1094 65.9503 71.9645 66.108 71.8565 66.3125C71.7486 66.5142 71.6946 66.75 71.6946 67.0199V71H70.152ZM83.8192 71.1278C83.163 71.1278 82.5962 70.9915 82.119 70.7188C81.6445 70.4432 81.2795 70.054 81.0238 69.5511C80.7681 69.0455 80.6403 68.4503 80.6403 67.7656C80.6403 67.0923 80.7681 66.5014 81.0238 65.9929C81.2823 65.4815 81.6431 65.0838 82.1062 64.7997C82.5692 64.5128 83.1133 64.3693 83.7383 64.3693C84.1417 64.3693 84.5224 64.4347 84.8803 64.5653C85.2411 64.6932 85.5593 64.892 85.8349 65.1619C86.1133 65.4318 86.332 65.7756 86.4911 66.1932C86.6502 66.608 86.7298 67.1023 86.7298 67.6761V68.1491H81.3647V67.1094H85.2511C85.2482 66.8139 85.1843 66.5511 85.0593 66.321C84.9343 66.0881 84.7596 65.9048 84.5352 65.7713C84.3136 65.6378 84.055 65.571 83.7596 65.571C83.4442 65.571 83.1673 65.6477 82.9286 65.8011C82.69 65.9517 82.5039 66.1506 82.3704 66.3977C82.2397 66.642 82.1729 66.9105 82.1701 67.2031V68.1108C82.1701 68.4915 82.2397 68.8182 82.3789 69.0909C82.5181 69.3608 82.7127 69.5682 82.9627 69.7131C83.2127 69.8551 83.5053 69.9261 83.8406 69.9261C84.065 69.9261 84.2681 69.8949 84.4499 69.8324C84.6317 69.767 84.7894 69.6719 84.9229 69.5469C85.0565 69.4219 85.1573 69.267 85.2255 69.0824L86.6658 69.2443C86.5749 69.625 86.4016 69.9574 86.146 70.2415C85.8931 70.5227 85.5692 70.7415 85.1744 70.8977C84.7795 71.0511 84.3278 71.1278 83.8192 71.1278ZM93.8665 71.1278C93.2273 71.1278 92.6733 70.9872 92.2045 70.706C91.7358 70.4247 91.3722 70.0312 91.1136 69.5256C90.858 69.0199 90.7301 68.429 90.7301 67.7528C90.7301 67.0767 90.858 66.4844 91.1136 65.9759C91.3722 65.4673 91.7358 65.0724 92.2045 64.7912C92.6733 64.5099 93.2273 64.3693 93.8665 64.3693C94.5057 64.3693 95.0597 64.5099 95.5284 64.7912C95.9972 65.0724 96.3594 65.4673 96.6151 65.9759C96.8736 66.4844 97.0028 67.0767 97.0028 67.7528C97.0028 68.429 96.8736 69.0199 96.6151 69.5256C96.3594 70.0312 95.9972 70.4247 95.5284 70.706C95.0597 70.9872 94.5057 71.1278 93.8665 71.1278ZM93.875 69.892C94.2216 69.892 94.5114 69.7969 94.7443 69.6065C94.9773 69.4134 95.1506 69.1548 95.2642 68.831C95.3807 68.5071 95.4389 68.1463 95.4389 67.7486C95.4389 67.348 95.3807 66.9858 95.2642 66.6619C95.1506 66.3352 94.9773 66.0753 94.7443 65.8821C94.5114 65.6889 94.2216 65.5923 93.875 65.5923C93.5199 65.5923 93.2244 65.6889 92.9886 65.8821C92.7557 66.0753 92.581 66.3352 92.4645 66.6619C92.3509 66.9858 92.294 67.348 92.294 67.7486C92.294 68.1463 92.3509 68.5071 92.4645 68.831C92.581 69.1548 92.7557 69.4134 92.9886 69.6065C93.2244 69.7969 93.5199 69.892 93.875 69.892ZM102.484 68.2472V64.4545H104.027V71H102.531V69.8366H102.463C102.315 70.2031 102.072 70.5028 101.734 70.7358C101.399 70.9687 100.985 71.0852 100.494 71.0852C100.065 71.0852 99.6857 70.9901 99.3562 70.7997C99.0295 70.6065 98.7738 70.3267 98.5891 69.9602C98.4045 69.5909 98.3121 69.1449 98.3121 68.6222V64.4545H99.8548V68.3835C99.8548 68.7983 99.9684 69.1278 100.196 69.3722C100.423 69.6165 100.721 69.7386 101.091 69.7386C101.318 69.7386 101.538 69.6832 101.751 69.5724C101.964 69.4616 102.139 69.2969 102.275 69.0781C102.414 68.8565 102.484 68.5795 102.484 68.2472ZM108.881 64.4545V65.6477H105.119V64.4545H108.881ZM106.048 62.8864H107.59V69.0312C107.59 69.2386 107.621 69.3977 107.684 69.5085C107.749 69.6165 107.835 69.6903 107.94 69.7301C108.045 69.7699 108.161 69.7898 108.289 69.7898C108.386 69.7898 108.474 69.7827 108.553 69.7685C108.636 69.7543 108.698 69.7415 108.741 69.7301L109.001 70.9361C108.918 70.9645 108.8 70.9957 108.647 71.0298C108.496 71.0639 108.312 71.0838 108.093 71.0895C107.707 71.1009 107.359 71.0426 107.049 70.9148C106.739 70.7841 106.494 70.5824 106.312 70.3097C106.133 70.0369 106.045 69.696 106.048 69.2869V62.8864ZM116.003 71.1278C115.364 71.1278 114.81 70.9872 114.341 70.706C113.873 70.4247 113.509 70.0312 113.25 69.5256C112.995 69.0199 112.867 68.429 112.867 67.7528C112.867 67.0767 112.995 66.4844 113.25 65.9759C113.509 65.4673 113.873 65.0724 114.341 64.7912C114.81 64.5099 115.364 64.3693 116.003 64.3693C116.642 64.3693 117.196 64.5099 117.665 64.7912C118.134 65.0724 118.496 65.4673 118.752 65.9759C119.01 66.4844 119.14 67.0767 119.14 67.7528C119.14 68.429 119.01 69.0199 118.752 69.5256C118.496 70.0312 118.134 70.4247 117.665 70.706C117.196 70.9872 116.642 71.1278 116.003 71.1278ZM116.012 69.892C116.358 69.892 116.648 69.7969 116.881 69.6065C117.114 69.4134 117.287 69.1548 117.401 68.831C117.517 68.5071 117.576 68.1463 117.576 67.7486C117.576 67.348 117.517 66.9858 117.401 66.6619C117.287 66.3352 117.114 66.0753 116.881 65.8821C116.648 65.6889 116.358 65.5923 116.012 65.5923C115.657 65.5923 115.361 65.6889 115.125 65.8821C114.892 66.0753 114.718 66.3352 114.601 66.6619C114.488 66.9858 114.431 67.348 114.431 67.7486C114.431 68.1463 114.488 68.5071 114.601 68.831C114.718 69.1548 114.892 69.4134 115.125 69.6065C115.361 69.7969 115.657 69.892 116.012 69.892ZM123.764 64.4545V65.6477H119.895V64.4545H123.764ZM120.862 71V63.8366C120.862 63.3963 120.953 63.0298 121.135 62.7372C121.32 62.4446 121.567 62.2259 121.876 62.081C122.186 61.9361 122.53 61.8636 122.908 61.8636C123.175 61.8636 123.412 61.8849 123.619 61.9276C123.827 61.9702 123.98 62.0085 124.08 62.0426L123.773 63.2358C123.707 63.2159 123.625 63.196 123.526 63.1761C123.426 63.1534 123.315 63.142 123.193 63.142C122.906 63.142 122.703 63.2116 122.584 63.3509C122.467 63.4872 122.409 63.6832 122.409 63.9389V71H120.862ZM128.908 73.4545C128.697 73.4545 128.503 73.4375 128.324 73.4034C128.148 73.3722 128.007 73.3352 127.902 73.2926L128.26 72.0909C128.484 72.1563 128.685 72.1875 128.861 72.1847C129.037 72.1818 129.192 72.1264 129.325 72.0185C129.462 71.9134 129.577 71.7372 129.67 71.4901L129.803 71.1364L127.429 64.4545H129.065L130.574 69.3977H130.642L132.155 64.4545H133.795L131.175 71.7926C131.053 72.1392 130.891 72.4361 130.689 72.6832C130.487 72.9332 130.24 73.1236 129.947 73.2543C129.658 73.3878 129.311 73.4545 128.908 73.4545ZM137.495 71.1278C136.856 71.1278 136.302 70.9872 135.833 70.706C135.365 70.4247 135.001 70.0312 134.743 69.5256C134.487 69.0199 134.359 68.429 134.359 67.7528C134.359 67.0767 134.487 66.4844 134.743 65.9759C135.001 65.4673 135.365 65.0724 135.833 64.7912C136.302 64.5099 136.856 64.3693 137.495 64.3693C138.135 64.3693 138.689 64.5099 139.157 64.7912C139.626 65.0724 139.988 65.4673 140.244 65.9759C140.502 66.4844 140.632 67.0767 140.632 67.7528C140.632 68.429 140.502 69.0199 140.244 69.5256C139.988 70.0312 139.626 70.4247 139.157 70.706C138.689 70.9872 138.135 71.1278 137.495 71.1278ZM137.504 69.892C137.85 69.892 138.14 69.7969 138.373 69.6065C138.606 69.4134 138.779 69.1548 138.893 68.831C139.01 68.5071 139.068 68.1463 139.068 67.7486C139.068 67.348 139.01 66.9858 138.893 66.6619C138.779 66.3352 138.606 66.0753 138.373 65.8821C138.14 65.6889 137.85 65.5923 137.504 65.5923C137.149 65.5923 136.853 65.6889 136.618 65.8821C136.385 66.0753 136.21 66.3352 136.093 66.6619C135.98 66.9858 135.923 67.348 135.923 67.7486C135.923 68.1463 135.98 68.5071 136.093 68.831C136.21 69.1548 136.385 69.4134 136.618 69.6065C136.853 69.7969 137.149 69.892 137.504 69.892ZM146.113 68.2472V64.4545H147.656V71H146.16V69.8366H146.092C145.944 70.2031 145.701 70.5028 145.363 70.7358C145.028 70.9687 144.614 71.0852 144.123 71.0852C143.694 71.0852 143.315 70.9901 142.985 70.7997C142.658 70.6065 142.403 70.3267 142.218 69.9602C142.033 69.5909 141.941 69.1449 141.941 68.6222V64.4545H143.484V68.3835C143.484 68.7983 143.597 69.1278 143.825 69.3722C144.052 69.6165 144.35 69.7386 144.719 69.7386C144.947 69.7386 145.167 69.6832 145.38 69.5724C145.593 69.4616 145.768 69.2969 145.904 69.0781C146.043 68.8565 146.113 68.5795 146.113 68.2472ZM149.242 71V64.4545H150.738V65.5455H150.806C150.925 65.1676 151.13 64.8764 151.419 64.6719C151.712 64.4645 152.046 64.3608 152.421 64.3608C152.506 64.3608 152.601 64.3651 152.706 64.3736C152.814 64.3793 152.904 64.3892 152.975 64.4034V65.8224C152.909 65.7997 152.806 65.7798 152.664 65.7628C152.525 65.7429 152.39 65.733 152.259 65.733C151.978 65.733 151.725 65.794 151.5 65.9162C151.279 66.0355 151.104 66.2017 150.976 66.4148C150.848 66.6278 150.784 66.8736 150.784 67.152V71H149.242ZM159.405 71.1151C158.891 71.1151 158.431 70.983 158.025 70.7188C157.618 70.4545 157.297 70.071 157.061 69.5682C156.826 69.0653 156.708 68.4545 156.708 67.7358C156.708 67.0085 156.827 66.3949 157.066 65.8949C157.307 65.392 157.632 65.0128 158.042 64.7571C158.451 64.4986 158.907 64.3693 159.409 64.3693C159.793 64.3693 160.108 64.4347 160.355 64.5653C160.603 64.6932 160.799 64.848 160.944 65.0298C161.088 65.2088 161.201 65.3778 161.28 65.5369H161.344V62.2727H162.891V71H161.374V69.9688H161.28C161.201 70.1278 161.086 70.2969 160.935 70.4759C160.784 70.652 160.586 70.8026 160.338 70.9276C160.091 71.0526 159.78 71.1151 159.405 71.1151ZM159.836 69.8494C160.162 69.8494 160.441 69.7614 160.671 69.5852C160.901 69.4062 161.076 69.1577 161.195 68.8395C161.314 68.5213 161.374 68.1506 161.374 67.7273C161.374 67.304 161.314 66.9361 161.195 66.6236C161.078 66.3111 160.905 66.0682 160.675 65.8949C160.448 65.7216 160.168 65.6349 159.836 65.6349C159.492 65.6349 159.205 65.7244 158.975 65.9034C158.745 66.0824 158.571 66.3295 158.455 66.6449C158.338 66.9602 158.28 67.321 158.28 67.7273C158.28 68.1364 158.338 68.5014 158.455 68.8224C158.574 69.1406 158.749 69.392 158.979 69.5767C159.212 69.7585 159.498 69.8494 159.836 69.8494ZM166.418 71.1321C166.004 71.1321 165.63 71.0582 165.298 70.9105C164.968 70.7599 164.707 70.5384 164.513 70.2457C164.323 69.9531 164.228 69.5923 164.228 69.1634C164.228 68.794 164.296 68.4886 164.433 68.2472C164.569 68.0057 164.755 67.8125 164.991 67.6676C165.227 67.5227 165.492 67.4134 165.788 67.3395C166.086 67.2628 166.394 67.2074 166.712 67.1733C167.096 67.1335 167.407 67.098 167.646 67.0668C167.884 67.0327 168.058 66.9815 168.165 66.9134C168.276 66.8423 168.332 66.733 168.332 66.5852V66.5597C168.332 66.2386 168.237 65.9901 168.046 65.8139C167.856 65.6378 167.582 65.5497 167.224 65.5497C166.846 65.5497 166.546 65.6321 166.325 65.7969C166.106 65.9616 165.958 66.1562 165.881 66.3807L164.441 66.1761C164.555 65.7784 164.742 65.446 165.004 65.179C165.265 64.9091 165.585 64.7074 165.962 64.5739C166.34 64.4375 166.758 64.3693 167.215 64.3693C167.531 64.3693 167.844 64.4062 168.157 64.4801C168.469 64.554 168.755 64.6761 169.013 64.8466C169.272 65.0142 169.479 65.2429 169.636 65.5327C169.795 65.8224 169.874 66.1847 169.874 66.6193V71H168.391V70.1009H168.34C168.246 70.2827 168.114 70.4531 167.944 70.6122C167.776 70.7685 167.565 70.8949 167.309 70.9915C167.056 71.0852 166.759 71.1321 166.418 71.1321ZM166.819 69.9986C167.129 69.9986 167.397 69.9375 167.624 69.8153C167.852 69.6903 168.026 69.5256 168.148 69.321C168.273 69.1165 168.336 68.8935 168.336 68.652V67.8807C168.288 67.9205 168.205 67.9574 168.089 67.9915C167.975 68.0256 167.847 68.0554 167.705 68.081C167.563 68.1065 167.423 68.1293 167.283 68.1491C167.144 68.169 167.023 68.1861 166.921 68.2003C166.691 68.2315 166.485 68.2827 166.303 68.3537C166.121 68.4247 165.978 68.5241 165.873 68.652C165.768 68.777 165.715 68.9389 165.715 69.1378C165.715 69.4219 165.819 69.6364 166.026 69.7812C166.234 69.9261 166.498 69.9986 166.819 69.9986ZM172.15 73.4545C171.94 73.4545 171.745 73.4375 171.566 73.4034C171.39 73.3722 171.249 73.3352 171.144 73.2926L171.502 72.0909C171.727 72.1563 171.927 72.1875 172.103 72.1847C172.279 72.1818 172.434 72.1264 172.567 72.0185C172.704 71.9134 172.819 71.7372 172.913 71.4901L173.045 71.1364L170.671 64.4545H172.308L173.816 69.3977H173.884L175.397 64.4545H177.038L174.417 71.7926C174.295 72.1392 174.133 72.4361 173.931 72.6832C173.729 72.9332 173.482 73.1236 173.19 73.2543C172.9 73.3878 172.553 73.4545 172.15 73.4545ZM184.35 64.4545V65.6477H180.587V64.4545H184.35ZM181.516 62.8864H183.059V69.0312C183.059 69.2386 183.09 69.3977 183.153 69.5085C183.218 69.6165 183.303 69.6903 183.408 69.7301C183.513 69.7699 183.63 69.7898 183.758 69.7898C183.854 69.7898 183.942 69.7827 184.022 69.7685C184.104 69.7543 184.167 69.7415 184.21 69.7301L184.469 70.9361C184.387 70.9645 184.269 70.9957 184.116 71.0298C183.965 71.0639 183.781 71.0838 183.562 71.0895C183.175 71.1009 182.827 71.0426 182.518 70.9148C182.208 70.7841 181.962 70.5824 181.781 70.3097C181.602 70.0369 181.513 69.696 181.516 69.2869V62.8864ZM188.425 71.1278C187.786 71.1278 187.232 70.9872 186.763 70.706C186.294 70.4247 185.931 70.0312 185.672 69.5256C185.417 69.0199 185.289 68.429 185.289 67.7528C185.289 67.0767 185.417 66.4844 185.672 65.9759C185.931 65.4673 186.294 65.0724 186.763 64.7912C187.232 64.5099 187.786 64.3693 188.425 64.3693C189.064 64.3693 189.618 64.5099 190.087 64.7912C190.556 65.0724 190.918 65.4673 191.174 65.9759C191.432 66.4844 191.561 67.0767 191.561 67.7528C191.561 68.429 191.432 69.0199 191.174 69.5256C190.918 70.0312 190.556 70.4247 190.087 70.706C189.618 70.9872 189.064 71.1278 188.425 71.1278ZM188.434 69.892C188.78 69.892 189.07 69.7969 189.303 69.6065C189.536 69.4134 189.709 69.1548 189.823 68.831C189.939 68.5071 189.998 68.1463 189.998 67.7486C189.998 67.348 189.939 66.9858 189.823 66.6619C189.709 66.3352 189.536 66.0753 189.303 65.8821C189.07 65.6889 188.78 65.5923 188.434 65.5923C188.078 65.5923 187.783 65.6889 187.547 65.8821C187.314 66.0753 187.14 66.3352 187.023 66.6619C186.909 66.9858 186.853 67.348 186.853 67.7486C186.853 68.1463 186.909 68.5071 187.023 68.831C187.14 69.1548 187.314 69.4134 187.547 69.6065C187.783 69.7969 188.078 69.892 188.434 69.892ZM195.847 73.4545V64.4545H197.364V65.5369H197.454C197.533 65.3778 197.646 65.2088 197.79 65.0298C197.935 64.848 198.131 64.6932 198.379 64.5653C198.626 64.4347 198.941 64.3693 199.325 64.3693C199.83 64.3693 200.286 64.4986 200.692 64.7571C201.102 65.0128 201.425 65.392 201.664 65.8949C201.906 66.3949 202.026 67.0085 202.026 67.7358C202.026 68.4545 201.908 69.0653 201.673 69.5682C201.437 70.071 201.116 70.4545 200.71 70.7188C200.303 70.983 199.843 71.1151 199.329 71.1151C198.954 71.1151 198.643 71.0526 198.396 70.9276C198.148 70.8026 197.95 70.652 197.799 70.4759C197.651 70.2969 197.536 70.1278 197.454 69.9688H197.39V73.4545H195.847ZM197.36 67.7273C197.36 68.1506 197.42 68.5213 197.539 68.8395C197.661 69.1577 197.836 69.4062 198.063 69.5852C198.293 69.7614 198.572 69.8494 198.898 69.8494C199.239 69.8494 199.525 69.7585 199.755 69.5767C199.985 69.392 200.158 69.1406 200.275 68.8224C200.394 68.5014 200.454 68.1364 200.454 67.7273C200.454 67.321 200.396 66.9602 200.279 66.6449C200.163 66.3295 199.989 66.0824 199.759 65.9034C199.529 65.7244 199.242 65.6349 198.898 65.6349C198.569 65.6349 198.289 65.7216 198.059 65.8949C197.829 66.0682 197.654 66.3111 197.535 66.6236C197.418 66.9361 197.36 67.304 197.36 67.7273ZM205.231 71.1321C204.816 71.1321 204.442 71.0582 204.11 70.9105C203.781 70.7599 203.519 70.5384 203.326 70.2457C203.136 69.9531 203.04 69.5923 203.04 69.1634C203.04 68.794 203.109 68.4886 203.245 68.2472C203.381 68.0057 203.567 67.8125 203.803 67.6676C204.039 67.5227 204.305 67.4134 204.6 67.3395C204.898 67.2628 205.207 67.2074 205.525 67.1733C205.908 67.1335 206.219 67.098 206.458 67.0668C206.697 67.0327 206.87 66.9815 206.978 66.9134C207.089 66.8423 207.144 66.733 207.144 66.5852V66.5597C207.144 66.2386 207.049 65.9901 206.859 65.8139C206.668 65.6378 206.394 65.5497 206.036 65.5497C205.658 65.5497 205.359 65.6321 205.137 65.7969C204.918 65.9616 204.771 66.1562 204.694 66.3807L203.254 66.1761C203.367 65.7784 203.555 65.446 203.816 65.179C204.077 64.9091 204.397 64.7074 204.775 64.5739C205.153 64.4375 205.57 64.3693 206.028 64.3693C206.343 64.3693 206.657 64.4062 206.969 64.4801C207.282 64.554 207.567 64.6761 207.826 64.8466C208.085 65.0142 208.292 65.2429 208.448 65.5327C208.607 65.8224 208.687 66.1847 208.687 66.6193V71H207.204V70.1009H207.153C207.059 70.2827 206.927 70.4531 206.756 70.6122C206.589 70.7685 206.377 70.8949 206.121 70.9915C205.869 71.0852 205.572 71.1321 205.231 71.1321ZM205.631 69.9986C205.941 69.9986 206.21 69.9375 206.437 69.8153C206.664 69.6903 206.839 69.5256 206.961 69.321C207.086 69.1165 207.148 68.8935 207.148 68.652V67.8807C207.1 67.9205 207.018 67.9574 206.901 67.9915C206.788 68.0256 206.66 68.0554 206.518 68.081C206.376 68.1065 206.235 68.1293 206.096 68.1491C205.957 68.169 205.836 68.1861 205.734 68.2003C205.504 68.2315 205.298 68.2827 205.116 68.3537C204.934 68.4247 204.79 68.5241 204.685 68.652C204.58 68.777 204.528 68.9389 204.528 69.1378C204.528 69.4219 204.631 69.6364 204.839 69.7812C205.046 69.9261 205.31 69.9986 205.631 69.9986ZM214.41 68.2472V64.4545H215.952V71H214.457V69.8366H214.388C214.241 70.2031 213.998 70.5028 213.66 70.7358C213.325 70.9687 212.911 71.0852 212.42 71.0852C211.991 71.0852 211.612 70.9901 211.282 70.7997C210.955 70.6065 210.7 70.3267 210.515 69.9602C210.33 69.5909 210.238 69.1449 210.238 68.6222V64.4545H211.781V68.3835C211.781 68.7983 211.894 69.1278 212.121 69.3722C212.349 69.6165 212.647 69.7386 213.016 69.7386C213.244 69.7386 213.464 69.6832 213.677 69.5724C213.89 69.4616 214.065 69.2969 214.201 69.0781C214.34 68.8565 214.41 68.5795 214.41 68.2472ZM222.712 66.1847L221.306 66.3381C221.266 66.196 221.196 66.0625 221.097 65.9375C221 65.8125 220.87 65.7116 220.705 65.6349C220.54 65.5582 220.338 65.5199 220.1 65.5199C219.779 65.5199 219.509 65.5895 219.29 65.7287C219.074 65.8679 218.968 66.0483 218.971 66.2699C218.968 66.4602 219.037 66.6151 219.179 66.7344C219.324 66.8537 219.563 66.9517 219.895 67.0284L221.012 67.267C221.631 67.4006 222.091 67.6122 222.392 67.902C222.696 68.1918 222.85 68.571 222.853 69.0398C222.85 69.4517 222.729 69.8153 222.49 70.1307C222.255 70.4432 221.926 70.6875 221.506 70.8636C221.086 71.0398 220.603 71.1278 220.057 71.1278C219.256 71.1278 218.611 70.9602 218.123 70.625C217.634 70.2869 217.343 69.8168 217.249 69.2145L218.753 69.0696C218.821 69.3651 218.966 69.5881 219.188 69.7386C219.409 69.8892 219.698 69.9645 220.053 69.9645C220.419 69.9645 220.713 69.8892 220.935 69.7386C221.159 69.5881 221.272 69.402 221.272 69.1804C221.272 68.9929 221.199 68.8381 221.054 68.7159C220.912 68.5937 220.691 68.5 220.39 68.4347L219.273 68.2003C218.645 68.0696 218.181 67.8494 217.88 67.5398C217.578 67.2273 217.429 66.8324 217.432 66.3551C217.429 65.9517 217.539 65.6023 217.76 65.3068C217.985 65.0085 218.296 64.7784 218.694 64.6165C219.094 64.4517 219.556 64.3693 220.078 64.3693C220.846 64.3693 221.449 64.5327 221.89 64.8594C222.333 65.1861 222.607 65.6278 222.712 66.1847ZM227.022 71.1278C226.366 71.1278 225.799 70.9915 225.322 70.7188C224.848 70.4432 224.483 70.054 224.227 69.5511C223.971 69.0455 223.843 68.4503 223.843 67.7656C223.843 67.0923 223.971 66.5014 224.227 65.9929C224.485 65.4815 224.846 65.0838 225.309 64.7997C225.772 64.5128 226.316 64.3693 226.941 64.3693C227.345 64.3693 227.725 64.4347 228.083 64.5653C228.444 64.6932 228.762 64.892 229.038 65.1619C229.316 65.4318 229.535 65.7756 229.694 66.1932C229.853 66.608 229.933 67.1023 229.933 67.6761V68.1491H224.568V67.1094H228.454C228.451 66.8139 228.387 66.5511 228.262 66.321C228.137 66.0881 227.963 65.9048 227.738 65.7713C227.517 65.6378 227.258 65.571 226.963 65.571C226.647 65.571 226.37 65.6477 226.132 65.8011C225.893 65.9517 225.707 66.1506 225.574 66.3977C225.443 66.642 225.376 66.9105 225.373 67.2031V68.1108C225.373 68.4915 225.443 68.8182 225.582 69.0909C225.721 69.3608 225.916 69.5682 226.166 69.7131C226.416 69.8551 226.708 69.9261 227.044 69.9261C227.268 69.9261 227.471 69.8949 227.653 69.8324C227.835 69.767 227.993 69.6719 228.126 69.5469C228.26 69.4219 228.36 69.267 228.429 69.0824L229.869 69.2443C229.778 69.625 229.605 69.9574 229.349 70.2415C229.096 70.5227 228.772 70.7415 228.377 70.8977C227.983 71.0511 227.531 71.1278 227.022 71.1278ZM236.098 71.1321C235.683 71.1321 235.31 71.0582 234.977 70.9105C234.648 70.7599 234.386 70.5384 234.193 70.2457C234.003 69.9531 233.908 69.5923 233.908 69.1634C233.908 68.794 233.976 68.4886 234.112 68.2472C234.249 68.0057 234.435 67.8125 234.67 67.6676C234.906 67.5227 235.172 67.4134 235.467 67.3395C235.766 67.2628 236.074 67.2074 236.392 67.1733C236.776 67.1335 237.087 67.098 237.325 67.0668C237.564 67.0327 237.737 66.9815 237.845 66.9134C237.956 66.8423 238.011 66.733 238.011 66.5852V66.5597C238.011 66.2386 237.916 65.9901 237.726 65.8139C237.536 65.6378 237.261 65.5497 236.903 65.5497C236.526 65.5497 236.226 65.6321 236.004 65.7969C235.786 65.9616 235.638 66.1562 235.561 66.3807L234.121 66.1761C234.234 65.7784 234.422 65.446 234.683 65.179C234.945 64.9091 235.264 64.7074 235.642 64.5739C236.02 64.4375 236.438 64.3693 236.895 64.3693C237.21 64.3693 237.524 64.4062 237.837 64.4801C238.149 64.554 238.435 64.6761 238.693 64.8466C238.952 65.0142 239.159 65.2429 239.315 65.5327C239.474 65.8224 239.554 66.1847 239.554 66.6193V71H238.071V70.1009H238.02C237.926 70.2827 237.794 70.4531 237.624 70.6122C237.456 70.7685 237.244 70.8949 236.989 70.9915C236.736 71.0852 236.439 71.1321 236.098 71.1321ZM236.499 69.9986C236.808 69.9986 237.077 69.9375 237.304 69.8153C237.531 69.6903 237.706 69.5256 237.828 69.321C237.953 69.1165 238.016 68.8935 238.016 68.652V67.8807C237.967 67.9205 237.885 67.9574 237.768 67.9915C237.655 68.0256 237.527 68.0554 237.385 68.081C237.243 68.1065 237.102 68.1293 236.963 68.1491C236.824 68.169 236.703 68.1861 236.601 68.2003C236.371 68.2315 236.165 68.2827 235.983 68.3537C235.801 68.4247 235.658 68.5241 235.553 68.652C235.447 68.777 235.395 68.9389 235.395 69.1378C235.395 69.4219 235.499 69.6364 235.706 69.7812C235.913 69.9261 236.178 69.9986 236.499 69.9986ZM242.648 67.1648V71H241.105V64.4545H242.58V65.5668H242.656C242.807 65.2003 243.047 64.9091 243.376 64.6932C243.709 64.4773 244.119 64.3693 244.608 64.3693C245.06 64.3693 245.453 64.4659 245.788 64.6591C246.126 64.8523 246.388 65.1321 246.572 65.4986C246.76 65.8651 246.852 66.3097 246.849 66.8324V71H245.307V67.071C245.307 66.6335 245.193 66.2912 244.966 66.044C244.741 65.7969 244.43 65.6733 244.033 65.6733C243.763 65.6733 243.523 65.733 243.312 65.8523C243.105 65.9687 242.942 66.1378 242.822 66.3594C242.706 66.581 242.648 66.8494 242.648 67.1648ZM250.847 71.1151C250.332 71.1151 249.872 70.983 249.466 70.7188C249.06 70.4545 248.739 70.071 248.503 69.5682C248.267 69.0653 248.149 68.4545 248.149 67.7358C248.149 67.0085 248.268 66.3949 248.507 65.8949C248.749 65.392 249.074 65.0128 249.483 64.7571C249.892 64.4986 250.348 64.3693 250.851 64.3693C251.234 64.3693 251.55 64.4347 251.797 64.5653C252.044 64.6932 252.24 64.848 252.385 65.0298C252.53 65.2088 252.642 65.3778 252.722 65.5369H252.786V62.2727H254.332V71H252.815V69.9688H252.722C252.642 70.1278 252.527 70.2969 252.376 70.4759C252.226 70.652 252.027 70.8026 251.78 70.9276C251.533 71.0526 251.222 71.1151 250.847 71.1151ZM251.277 69.8494C251.604 69.8494 251.882 69.7614 252.112 69.5852C252.342 69.4062 252.517 69.1577 252.636 68.8395C252.756 68.5213 252.815 68.1506 252.815 67.7273C252.815 67.304 252.756 66.9361 252.636 66.6236C252.52 66.3111 252.347 66.0682 252.116 65.8949C251.889 65.7216 251.609 65.6349 251.277 65.6349C250.933 65.6349 250.646 65.7244 250.416 65.9034C250.186 66.0824 250.013 66.3295 249.896 66.6449C249.78 66.9602 249.722 67.321 249.722 67.7273C249.722 68.1364 249.78 68.5014 249.896 68.8224C250.016 69.1406 250.19 69.392 250.42 69.5767C250.653 69.7585 250.939 69.8494 251.277 69.8494ZM259.021 71V62.2727H260.564V65.5369H260.627C260.707 65.3778 260.819 65.2088 260.964 65.0298C261.109 64.848 261.305 64.6932 261.552 64.5653C261.799 64.4347 262.115 64.3693 262.498 64.3693C263.004 64.3693 263.46 64.4986 263.866 64.7571C264.275 65.0128 264.599 65.392 264.838 65.8949C265.079 66.3949 265.2 67.0085 265.2 67.7358C265.2 68.4545 265.082 69.0653 264.846 69.5682C264.61 70.071 264.289 70.4545 263.883 70.7188C263.477 70.983 263.017 71.1151 262.502 71.1151C262.127 71.1151 261.816 71.0526 261.569 70.9276C261.322 70.8026 261.123 70.652 260.973 70.4759C260.825 70.2969 260.71 70.1278 260.627 69.9688H260.538V71H259.021ZM260.534 67.7273C260.534 68.1506 260.593 68.5213 260.713 68.8395C260.835 69.1577 261.01 69.4062 261.237 69.5852C261.467 69.7614 261.745 69.8494 262.072 69.8494C262.413 69.8494 262.699 69.7585 262.929 69.5767C263.159 69.392 263.332 69.1406 263.449 68.8224C263.568 68.5014 263.627 68.1364 263.627 67.7273C263.627 67.321 263.569 66.9602 263.453 66.6449C263.336 66.3295 263.163 66.0824 262.933 65.9034C262.703 65.7244 262.416 65.6349 262.072 65.6349C261.743 65.6349 261.463 65.7216 261.233 65.8949C261.002 66.0682 260.828 66.3111 260.708 66.6236C260.592 66.9361 260.534 67.304 260.534 67.7273ZM269.409 71.1278C268.753 71.1278 268.186 70.9915 267.709 70.7188C267.234 70.4432 266.869 70.054 266.614 69.5511C266.358 69.0455 266.23 68.4503 266.23 67.7656C266.23 67.0923 266.358 66.5014 266.614 65.9929C266.872 65.4815 267.233 65.0838 267.696 64.7997C268.159 64.5128 268.703 64.3693 269.328 64.3693C269.732 64.3693 270.112 64.4347 270.47 64.5653C270.831 64.6932 271.149 64.892 271.425 65.1619C271.703 65.4318 271.922 65.7756 272.081 66.1932C272.24 66.608 272.32 67.1023 272.32 67.6761V68.1491H266.955V67.1094H270.841C270.838 66.8139 270.774 66.5511 270.649 66.321C270.524 66.0881 270.349 65.9048 270.125 65.7713C269.903 65.6378 269.645 65.571 269.349 65.571C269.034 65.571 268.757 65.6477 268.518 65.8011C268.28 65.9517 268.094 66.1506 267.96 66.3977C267.83 66.642 267.763 66.9105 267.76 67.2031V68.1108C267.76 68.4915 267.83 68.8182 267.969 69.0909C268.108 69.3608 268.303 69.5682 268.553 69.7131C268.803 69.8551 269.095 69.9261 269.43 69.9261C269.655 69.9261 269.858 69.8949 270.04 69.8324C270.222 69.767 270.379 69.6719 270.513 69.5469C270.646 69.4219 270.747 69.267 270.815 69.0824L272.256 69.2443C272.165 69.625 271.991 69.9574 271.736 70.2415C271.483 70.5227 271.159 70.7415 270.764 70.8977C270.369 71.0511 269.918 71.1278 269.409 71.1278ZM20.7926 88.4545V79.4545H22.3097V80.5369H22.3991C22.4787 80.3778 22.5909 80.2088 22.7358 80.0298C22.8807 79.848 23.0767 79.6932 23.3239 79.5653C23.571 79.4347 23.8864 79.3693 24.2699 79.3693C24.7756 79.3693 25.2315 79.4986 25.6378 79.7571C26.0469 80.0128 26.3707 80.392 26.6094 80.8949C26.8509 81.3949 26.9716 82.0085 26.9716 82.7358C26.9716 83.4545 26.8537 84.0653 26.6179 84.5682C26.3821 85.071 26.0611 85.4545 25.6548 85.7188C25.2486 85.983 24.7884 86.1151 24.2741 86.1151C23.8991 86.1151 23.5881 86.0526 23.3409 85.9276C23.0938 85.8026 22.8949 85.652 22.7443 85.4759C22.5966 85.2969 22.4815 85.1278 22.3991 84.9688H22.3352V88.4545H20.7926ZM22.3054 82.7273C22.3054 83.1506 22.3651 83.5213 22.4844 83.8395C22.6065 84.1577 22.7813 84.4062 23.0085 84.5852C23.2386 84.7614 23.517 84.8494 23.8438 84.8494C24.1847 84.8494 24.4702 84.7585 24.7003 84.5767C24.9304 84.392 25.1037 84.1406 25.2202 83.8224C25.3395 83.5014 25.3991 83.1364 25.3991 82.7273C25.3991 82.321 25.3409 81.9602 25.2244 81.6449C25.108 81.3295 24.9347 81.0824 24.7045 80.9034C24.4744 80.7244 24.1875 80.6349 23.8438 80.6349C23.5142 80.6349 23.2344 80.7216 23.0043 80.8949C22.7741 81.0682 22.5994 81.3111 22.4801 81.6236C22.3636 81.9361 22.3054 82.304 22.3054 82.7273ZM28.2926 86V79.4545H29.7884V80.5455H29.8565C29.9759 80.1676 30.1804 79.8764 30.4702 79.6719C30.7628 79.4645 31.0966 79.3608 31.4716 79.3608C31.5568 79.3608 31.652 79.3651 31.7571 79.3736C31.8651 79.3793 31.9545 79.3892 32.0256 79.4034V80.8224C31.9602 80.7997 31.8565 80.7798 31.7145 80.7628C31.5753 80.7429 31.4403 80.733 31.3097 80.733C31.0284 80.733 30.7756 80.794 30.5511 80.9162C30.3295 81.0355 30.1548 81.2017 30.027 81.4148C29.8991 81.6278 29.8352 81.8736 29.8352 82.152V86H28.2926ZM35.6786 86.1278C35.0224 86.1278 34.4556 85.9915 33.9783 85.7188C33.5039 85.4432 33.1388 85.054 32.8832 84.5511C32.6275 84.0455 32.4996 83.4503 32.4996 82.7656C32.4996 82.0923 32.6275 81.5014 32.8832 80.9929C33.1417 80.4815 33.5025 80.0838 33.9656 79.7997C34.4286 79.5128 34.9727 79.3693 35.5977 79.3693C36.0011 79.3693 36.3817 79.4347 36.7397 79.5653C37.1005 79.6932 37.4187 79.892 37.6942 80.1619C37.9727 80.4318 38.1914 80.7756 38.3505 81.1932C38.5096 81.608 38.5891 82.1023 38.5891 82.6761V83.1491H33.2241V82.1094H37.1104C37.1076 81.8139 37.0437 81.5511 36.9187 81.321C36.7937 81.0881 36.619 80.9048 36.3945 80.7713C36.1729 80.6378 35.9144 80.571 35.619 80.571C35.3036 80.571 35.0266 80.6477 34.788 80.8011C34.5494 80.9517 34.3633 81.1506 34.2298 81.3977C34.0991 81.642 34.0323 81.9105 34.0295 82.2031V83.1108C34.0295 83.4915 34.0991 83.8182 34.2383 84.0909C34.3775 84.3608 34.5721 84.5682 34.8221 84.7131C35.0721 84.8551 35.3647 84.9261 35.6999 84.9261C35.9244 84.9261 36.1275 84.8949 36.3093 84.8324C36.4911 84.767 36.6488 84.6719 36.7823 84.5469C36.9158 84.4219 37.0167 84.267 37.0849 84.0824L38.5252 84.2443C38.4343 84.625 38.261 84.9574 38.0053 85.2415C37.7525 85.5227 37.4286 85.7415 37.0337 85.8977C36.6388 86.0511 36.1871 86.1278 35.6786 86.1278ZM45.0675 81.1847L43.6612 81.3381C43.6214 81.196 43.5518 81.0625 43.4524 80.9375C43.3558 80.8125 43.2251 80.7116 43.0604 80.6349C42.8956 80.5582 42.6939 80.5199 42.4553 80.5199C42.1342 80.5199 41.8643 80.5895 41.6456 80.7287C41.4297 80.8679 41.3232 81.0483 41.326 81.2699C41.3232 81.4602 41.3928 81.6151 41.5348 81.7344C41.6797 81.8537 41.9183 81.9517 42.2507 82.0284L43.3672 82.267C43.9865 82.4006 44.4467 82.6122 44.7479 82.902C45.0518 83.1918 45.2053 83.571 45.2081 84.0398C45.2053 84.4517 45.0845 84.8153 44.8459 85.1307C44.6101 85.4432 44.282 85.6875 43.8615 85.8636C43.4411 86.0398 42.9581 86.1278 42.4126 86.1278C41.6115 86.1278 40.9666 85.9602 40.478 85.625C39.9893 85.2869 39.6982 84.8168 39.6044 84.2145L41.1087 84.0696C41.1768 84.3651 41.3217 84.5881 41.5433 84.7386C41.7649 84.8892 42.0533 84.9645 42.4084 84.9645C42.7749 84.9645 43.0689 84.8892 43.2905 84.7386C43.5149 84.5881 43.6271 84.402 43.6271 84.1804C43.6271 83.9929 43.5547 83.8381 43.4098 83.7159C43.2678 83.5937 43.0462 83.5 42.745 83.4347L41.6286 83.2003C41.0007 83.0696 40.5362 82.8494 40.2351 82.5398C39.9339 82.2273 39.7848 81.8324 39.7876 81.3551C39.7848 80.9517 39.8942 80.6023 40.1158 80.3068C40.3402 80.0085 40.6513 79.7784 41.049 79.6165C41.4496 79.4517 41.9112 79.3693 42.4339 79.3693C43.201 79.3693 43.8047 79.5327 44.245 79.8594C44.6882 80.1861 44.9624 80.6278 45.0675 81.1847ZM49.3778 86.1278C48.7216 86.1278 48.1548 85.9915 47.6776 85.7188C47.2031 85.4432 46.8381 85.054 46.5824 84.5511C46.3267 84.0455 46.1989 83.4503 46.1989 82.7656C46.1989 82.0923 46.3267 81.5014 46.5824 80.9929C46.8409 80.4815 47.2017 80.0838 47.6648 79.7997C48.1278 79.5128 48.6719 79.3693 49.2969 79.3693C49.7003 79.3693 50.081 79.4347 50.4389 79.5653C50.7997 79.6932 51.1179 79.892 51.3935 80.1619C51.6719 80.4318 51.8906 80.7756 52.0497 81.1932C52.2088 81.608 52.2884 82.1023 52.2884 82.6761V83.1491H46.9233V82.1094H50.8097C50.8068 81.8139 50.7429 81.5511 50.6179 81.321C50.4929 81.0881 50.3182 80.9048 50.0938 80.7713C49.8722 80.6378 49.6136 80.571 49.3182 80.571C49.0028 80.571 48.7259 80.6477 48.4872 80.8011C48.2486 80.9517 48.0625 81.1506 47.929 81.3977C47.7983 81.642 47.7315 81.9105 47.7287 82.2031V83.1108C47.7287 83.4915 47.7983 83.8182 47.9375 84.0909C48.0767 84.3608 48.2713 84.5682 48.5213 84.7131C48.7713 84.8551 49.0639 84.9261 49.3991 84.9261C49.6236 84.9261 49.8267 84.8949 50.0085 84.8324C50.1903 84.767 50.348 84.6719 50.4815 84.5469C50.6151 84.4219 50.7159 84.267 50.7841 84.0824L52.2244 84.2443C52.1335 84.625 51.9602 84.9574 51.7045 85.2415C51.4517 85.5227 51.1278 85.7415 50.733 85.8977C50.3381 86.0511 49.8864 86.1278 49.3778 86.1278ZM55.136 82.1648V86H53.5934V79.4545H55.0678V80.5668H55.1445C55.2951 80.2003 55.5352 79.9091 55.8647 79.6932C56.1971 79.4773 56.6076 79.3693 57.0962 79.3693C57.5479 79.3693 57.9414 79.4659 58.2766 79.6591C58.6147 79.8523 58.8761 80.1321 59.0607 80.4986C59.2482 80.8651 59.3406 81.3097 59.3377 81.8324V86H57.7951V82.071C57.7951 81.6335 57.6815 81.2912 57.4542 81.044C57.2298 80.7969 56.9187 80.6733 56.521 80.6733C56.2511 80.6733 56.011 80.733 55.8008 80.8523C55.5934 80.9687 55.43 81.1378 55.3107 81.3594C55.1942 81.581 55.136 81.8494 55.136 82.1648ZM64.1744 79.4545V80.6477H60.4116V79.4545H64.1744ZM61.3406 77.8864H62.8832V84.0312C62.8832 84.2386 62.9144 84.3977 62.9769 84.5085C63.0423 84.6165 63.1275 84.6903 63.2326 84.7301C63.3377 84.7699 63.4542 84.7898 63.582 84.7898C63.6786 84.7898 63.7667 84.7827 63.8462 84.7685C63.9286 84.7543 63.9911 84.7415 64.0337 84.7301L64.2937 85.9361C64.2113 85.9645 64.0934 85.9957 63.94 86.0298C63.7894 86.0639 63.6048 86.0838 63.386 86.0895C62.9996 86.1009 62.6516 86.0426 62.342 85.9148C62.0323 85.7841 61.7866 85.5824 61.6048 85.3097C61.4258 85.0369 61.3377 84.696 61.3406 84.2869V77.8864ZM68.4411 86V79.4545H69.9837V86H68.4411ZM69.2166 78.5256C68.9723 78.5256 68.7621 78.4446 68.5859 78.2827C68.4098 78.1179 68.3217 77.9205 68.3217 77.6903C68.3217 77.4574 68.4098 77.2599 68.5859 77.098C68.7621 76.9332 68.9723 76.8509 69.2166 76.8509C69.4638 76.8509 69.674 76.9332 69.8473 77.098C70.0234 77.2599 70.1115 77.4574 70.1115 77.6903C70.1115 77.9205 70.0234 78.1179 69.8473 78.2827C69.674 78.4446 69.4638 78.5256 69.2166 78.5256ZM73.1126 82.1648V86H71.57V79.4545H73.0444V80.5668H73.1211C73.2717 80.2003 73.5117 79.9091 73.8413 79.6932C74.1737 79.4773 74.5842 79.3693 75.0728 79.3693C75.5245 79.3693 75.918 79.4659 76.2532 79.6591C76.5913 79.8523 76.8526 80.1321 77.0373 80.4986C77.2248 80.8651 77.3171 81.3097 77.3143 81.8324V86H75.7717V82.071C75.7717 81.6335 75.658 81.2912 75.4308 81.044C75.2063 80.7969 74.8952 80.6733 74.4975 80.6733C74.2276 80.6733 73.9876 80.733 73.7773 80.8523C73.57 80.9687 73.4066 81.1378 73.2873 81.3594C73.1708 81.581 73.1126 81.8494 73.1126 82.1648ZM85.1275 79.4545V80.6477H81.3647V79.4545H85.1275ZM82.2937 77.8864H83.8363V84.0312C83.8363 84.2386 83.8675 84.3977 83.93 84.5085C83.9954 84.6165 84.0806 84.6903 84.1857 84.7301C84.2908 84.7699 84.4073 84.7898 84.5352 84.7898C84.6317 84.7898 84.7198 84.7827 84.7994 84.7685C84.8817 84.7543 84.9442 84.7415 84.9869 84.7301L85.2468 85.9361C85.1644 85.9645 85.0465 85.9957 84.8931 86.0298C84.7425 86.0639 84.5579 86.0838 84.3391 86.0895C83.9528 86.1009 83.6048 86.0426 83.2951 85.9148C82.9854 85.7841 82.7397 85.5824 82.5579 85.3097C82.3789 85.0369 82.2908 84.696 82.2937 84.2869V77.8864ZM88.1009 82.1648V86H86.5582V77.2727H88.0668V80.5668H88.1435C88.2969 80.1974 88.5341 79.9062 88.8551 79.6932C89.179 79.4773 89.5909 79.3693 90.0909 79.3693C90.5455 79.3693 90.9418 79.4645 91.2798 79.6548C91.6179 79.8452 91.8793 80.1236 92.0639 80.4901C92.2514 80.8565 92.3452 81.304 92.3452 81.8324V86H90.8026V82.071C90.8026 81.6307 90.6889 81.2884 90.4616 81.044C90.2372 80.7969 89.9219 80.6733 89.5156 80.6733C89.2429 80.6733 88.9986 80.733 88.7827 80.8523C88.5696 80.9687 88.402 81.1378 88.2798 81.3594C88.1605 81.581 88.1009 81.8494 88.1009 82.1648ZM96.8153 86.1278C96.1591 86.1278 95.5923 85.9915 95.1151 85.7188C94.6406 85.4432 94.2756 85.054 94.0199 84.5511C93.7642 84.0455 93.6364 83.4503 93.6364 82.7656C93.6364 82.0923 93.7642 81.5014 94.0199 80.9929C94.2784 80.4815 94.6392 80.0838 95.1023 79.7997C95.5653 79.5128 96.1094 79.3693 96.7344 79.3693C97.1378 79.3693 97.5185 79.4347 97.8764 79.5653C98.2372 79.6932 98.5554 79.892 98.831 80.1619C99.1094 80.4318 99.3281 80.7756 99.4872 81.1932C99.6463 81.608 99.7259 82.1023 99.7259 82.6761V83.1491H94.3608V82.1094H98.2472C98.2443 81.8139 98.1804 81.5511 98.0554 81.321C97.9304 81.0881 97.7557 80.9048 97.5312 80.7713C97.3097 80.6378 97.0511 80.571 96.7557 80.571C96.4403 80.571 96.1634 80.6477 95.9247 80.8011C95.6861 80.9517 95.5 81.1506 95.3665 81.3977C95.2358 81.642 95.169 81.9105 95.1662 82.2031V83.1108C95.1662 83.4915 95.2358 83.8182 95.375 84.0909C95.5142 84.3608 95.7088 84.5682 95.9588 84.7131C96.2088 84.8551 96.5014 84.9261 96.8366 84.9261C97.0611 84.9261 97.2642 84.8949 97.446 84.8324C97.6278 84.767 97.7855 84.6719 97.919 84.5469C98.0526 84.4219 98.1534 84.267 98.2216 84.0824L99.6619 84.2443C99.571 84.625 99.3977 84.9574 99.142 85.2415C98.8892 85.5227 98.5653 85.7415 98.1705 85.8977C97.7756 86.0511 97.3239 86.1278 96.8153 86.1278ZM104.007 86V79.4545H105.482V80.5668H105.559C105.695 80.1918 105.921 79.8991 106.236 79.6889C106.551 79.4759 106.928 79.3693 107.365 79.3693C107.809 79.3693 108.182 79.4773 108.486 79.6932C108.793 79.9062 109.009 80.1974 109.134 80.5668H109.202C109.347 80.2031 109.591 79.9134 109.935 79.6974C110.282 79.4787 110.692 79.3693 111.167 79.3693C111.769 79.3693 112.26 79.5597 112.641 79.9403C113.022 80.321 113.212 80.8764 113.212 81.6065V86H111.665V81.8452C111.665 81.4389 111.557 81.142 111.341 80.9545C111.125 80.7642 110.861 80.669 110.549 80.669C110.176 80.669 109.885 80.7855 109.675 81.0185C109.468 81.2486 109.364 81.5483 109.364 81.9176V86H107.851V81.7812C107.851 81.4432 107.749 81.1733 107.544 80.9716C107.343 80.7699 107.078 80.669 106.752 80.669C106.53 80.669 106.328 80.7259 106.147 80.8395C105.965 80.9503 105.82 81.108 105.712 81.3125C105.604 81.5142 105.55 81.75 105.55 82.0199V86H104.007ZM117.632 86.1278C116.993 86.1278 116.439 85.9872 115.97 85.706C115.501 85.4247 115.138 85.0312 114.879 84.5256C114.624 84.0199 114.496 83.429 114.496 82.7528C114.496 82.0767 114.624 81.4844 114.879 80.9759C115.138 80.4673 115.501 80.0724 115.97 79.7912C116.439 79.5099 116.993 79.3693 117.632 79.3693C118.271 79.3693 118.825 79.5099 119.294 79.7912C119.763 80.0724 120.125 80.4673 120.381 80.9759C120.639 81.4844 120.768 82.0767 120.768 82.7528C120.768 83.429 120.639 84.0199 120.381 84.5256C120.125 85.0312 119.763 85.4247 119.294 85.706C118.825 85.9872 118.271 86.1278 117.632 86.1278ZM117.641 84.892C117.987 84.892 118.277 84.7969 118.51 84.6065C118.743 84.4134 118.916 84.1548 119.03 83.831C119.146 83.5071 119.205 83.1463 119.205 82.7486C119.205 82.348 119.146 81.9858 119.03 81.6619C118.916 81.3352 118.743 81.0753 118.51 80.8821C118.277 80.6889 117.987 80.5923 117.641 80.5923C117.286 80.5923 116.99 80.6889 116.754 80.8821C116.521 81.0753 116.347 81.3352 116.23 81.6619C116.116 81.9858 116.06 82.348 116.06 82.7486C116.06 83.1463 116.116 83.5071 116.23 83.831C116.347 84.1548 116.521 84.4134 116.754 84.6065C116.99 84.7969 117.286 84.892 117.641 84.892ZM122.078 86V79.4545H123.552V80.5668H123.629C123.765 80.1918 123.991 79.8991 124.306 79.6889C124.622 79.4759 124.998 79.3693 125.436 79.3693C125.879 79.3693 126.252 79.4773 126.556 79.6932C126.863 79.9062 127.079 80.1974 127.204 80.5668H127.272C127.417 80.2031 127.662 79.9134 128.005 79.6974C128.352 79.4787 128.762 79.3693 129.237 79.3693C129.839 79.3693 130.331 79.5597 130.711 79.9403C131.092 80.321 131.282 80.8764 131.282 81.6065V86H129.735V81.8452C129.735 81.4389 129.627 81.142 129.412 80.9545C129.196 80.7642 128.931 80.669 128.619 80.669C128.247 80.669 127.956 80.7855 127.745 81.0185C127.538 81.2486 127.434 81.5483 127.434 81.9176V86H125.922V81.7812C125.922 81.4432 125.819 81.1733 125.615 80.9716C125.413 80.7699 125.149 80.669 124.822 80.669C124.6 80.669 124.399 80.7259 124.217 80.8395C124.035 80.9503 123.89 81.108 123.782 81.3125C123.674 81.5142 123.62 81.75 123.62 82.0199V86H122.078ZM135.745 86.1278C135.089 86.1278 134.522 85.9915 134.045 85.7188C133.57 85.4432 133.205 85.054 132.95 84.5511C132.694 84.0455 132.566 83.4503 132.566 82.7656C132.566 82.0923 132.694 81.5014 132.95 80.9929C133.208 80.4815 133.569 80.0838 134.032 79.7997C134.495 79.5128 135.039 79.3693 135.664 79.3693C136.067 79.3693 136.448 79.4347 136.806 79.5653C137.167 79.6932 137.485 79.892 137.761 80.1619C138.039 80.4318 138.258 80.7756 138.417 81.1932C138.576 81.608 138.656 82.1023 138.656 82.6761V83.1491H133.29V82.1094H137.177C137.174 81.8139 137.11 81.5511 136.985 81.321C136.86 81.0881 136.685 80.9048 136.461 80.7713C136.239 80.6378 135.981 80.571 135.685 80.571C135.37 80.571 135.093 80.6477 134.854 80.8011C134.616 80.9517 134.43 81.1506 134.296 81.3977C134.165 81.642 134.099 81.9105 134.096 82.2031V83.1108C134.096 83.4915 134.165 83.8182 134.305 84.0909C134.444 84.3608 134.638 84.5682 134.888 84.7131C135.138 84.8551 135.431 84.9261 135.766 84.9261C135.991 84.9261 136.194 84.8949 136.376 84.8324C136.558 84.767 136.715 84.6719 136.849 84.5469C136.982 84.4219 137.083 84.267 137.151 84.0824L138.592 84.2443C138.501 84.625 138.327 84.9574 138.072 85.2415C137.819 85.5227 137.495 85.7415 137.1 85.8977C136.705 86.0511 136.254 86.1278 135.745 86.1278ZM141.503 82.1648V86H139.961V79.4545H141.435V80.5668H141.512C141.662 80.2003 141.902 79.9091 142.232 79.6932C142.564 79.4773 142.975 79.3693 143.463 79.3693C143.915 79.3693 144.309 79.4659 144.644 79.6591C144.982 79.8523 145.243 80.1321 145.428 80.4986C145.615 80.8651 145.708 81.3097 145.705 81.8324V86H144.162V82.071C144.162 81.6335 144.049 81.2912 143.821 81.044C143.597 80.7969 143.286 80.6733 142.888 80.6733C142.618 80.6733 142.378 80.733 142.168 80.8523C141.961 80.9687 141.797 81.1378 141.678 81.3594C141.561 81.581 141.503 81.8494 141.503 82.1648ZM150.542 79.4545V80.6477H146.779V79.4545H150.542ZM147.708 77.8864H149.25V84.0312C149.25 84.2386 149.282 84.3977 149.344 84.5085C149.409 84.6165 149.495 84.6903 149.6 84.7301C149.705 84.7699 149.821 84.7898 149.949 84.7898C150.046 84.7898 150.134 84.7827 150.213 84.7685C150.296 84.7543 150.358 84.7415 150.401 84.7301L150.661 85.9361C150.578 85.9645 150.461 85.9957 150.307 86.0298C150.157 86.0639 149.972 86.0838 149.753 86.0895C149.367 86.1009 149.019 86.0426 148.709 85.9148C148.4 85.7841 148.154 85.5824 147.972 85.3097C147.793 85.0369 147.705 84.696 147.708 84.2869V77.8864ZM156.159 86L154.31 79.4545H155.882L157.033 84.0568H157.092L158.268 79.4545H159.824L161 84.0312H161.064L162.197 79.4545H163.774L161.92 86H160.314L159.087 81.5767H158.997L157.77 86H156.159ZM164.851 86V79.4545H166.394V86H164.851ZM165.627 78.5256C165.382 78.5256 165.172 78.4446 164.996 78.2827C164.82 78.1179 164.732 77.9205 164.732 77.6903C164.732 77.4574 164.82 77.2599 164.996 77.098C165.172 76.9332 165.382 76.8509 165.627 76.8509C165.874 76.8509 166.084 76.9332 166.257 77.098C166.434 77.2599 166.522 77.4574 166.522 77.6903C166.522 77.9205 166.434 78.1179 166.257 78.2827C166.084 78.4446 165.874 78.5256 165.627 78.5256ZM169.523 77.2727V86H167.98V77.2727H169.523ZM172.652 77.2727V86H171.109V77.2727H172.652ZM177.283 86V77.2727H178.825V80.5369H178.889C178.969 80.3778 179.081 80.2088 179.226 80.0298C179.371 79.848 179.567 79.6932 179.814 79.5653C180.061 79.4347 180.376 79.3693 180.76 79.3693C181.266 79.3693 181.722 79.4986 182.128 79.7571C182.537 80.0128 182.861 80.392 183.099 80.8949C183.341 81.3949 183.462 82.0085 183.462 82.7358C183.462 83.4545 183.344 84.0653 183.108 84.5682C182.872 85.071 182.551 85.4545 182.145 85.7188C181.739 85.983 181.278 86.1151 180.764 86.1151C180.389 86.1151 180.078 86.0526 179.831 85.9276C179.584 85.8026 179.385 85.652 179.234 85.4759C179.087 85.2969 178.972 85.1278 178.889 84.9688H178.8V86H177.283ZM178.795 82.7273C178.795 83.1506 178.855 83.5213 178.974 83.8395C179.097 84.1577 179.271 84.4062 179.499 84.5852C179.729 84.7614 180.007 84.8494 180.334 84.8494C180.675 84.8494 180.96 84.7585 181.19 84.5767C181.42 84.392 181.594 84.1406 181.71 83.8224C181.83 83.5014 181.889 83.1364 181.889 82.7273C181.889 82.321 181.831 81.9602 181.714 81.6449C181.598 81.3295 181.425 81.0824 181.195 80.9034C180.964 80.7244 180.678 80.6349 180.334 80.6349C180.004 80.6349 179.724 80.7216 179.494 80.8949C179.264 81.0682 179.089 81.3111 178.97 81.6236C178.854 81.9361 178.795 82.304 178.795 82.7273ZM184.773 86V79.4545H186.269V80.5455H186.337C186.456 80.1676 186.661 79.8764 186.951 79.6719C187.243 79.4645 187.577 79.3608 187.952 79.3608C188.037 79.3608 188.132 79.3651 188.238 79.3736C188.346 79.3793 188.435 79.3892 188.506 79.4034V80.8224C188.441 80.7997 188.337 80.7798 188.195 80.7628C188.056 80.7429 187.921 80.733 187.79 80.733C187.509 80.733 187.256 80.794 187.032 80.9162C186.81 81.0355 186.635 81.2017 186.507 81.4148C186.38 81.6278 186.316 81.8736 186.316 82.152V86H184.773ZM189.531 86V79.4545H191.074V86H189.531ZM190.306 78.5256C190.062 78.5256 189.852 78.4446 189.676 78.2827C189.5 78.1179 189.412 77.9205 189.412 77.6903C189.412 77.4574 189.5 77.2599 189.676 77.098C189.852 76.9332 190.062 76.8509 190.306 76.8509C190.554 76.8509 190.764 76.9332 190.937 77.098C191.113 77.2599 191.201 77.4574 191.201 77.6903C191.201 77.9205 191.113 78.1179 190.937 78.2827C190.764 78.4446 190.554 78.5256 190.306 78.5256ZM194.202 82.1648V86H192.66V79.4545H194.134V80.5668H194.211C194.362 80.2003 194.602 79.9091 194.931 79.6932C195.263 79.4773 195.674 79.3693 196.163 79.3693C196.614 79.3693 197.008 79.4659 197.343 79.6591C197.681 79.8523 197.942 80.1321 198.127 80.4986C198.315 80.8651 198.407 81.3097 198.404 81.8324V86H196.862V82.071C196.862 81.6335 196.748 81.2912 196.521 81.044C196.296 80.7969 195.985 80.6733 195.587 80.6733C195.317 80.6733 195.077 80.733 194.867 80.8523C194.66 80.9687 194.496 81.1378 194.377 81.3594C194.261 81.581 194.202 81.8494 194.202 82.1648ZM202.819 88.5909C202.265 88.5909 201.789 88.5156 201.391 88.3651C200.994 88.2173 200.674 88.0185 200.433 87.7685C200.191 87.5185 200.023 87.2415 199.93 86.9375L201.319 86.6009C201.381 86.7287 201.472 86.8551 201.592 86.9801C201.711 87.108 201.871 87.2131 202.073 87.2955C202.278 87.3807 202.535 87.4233 202.844 87.4233C203.282 87.4233 203.644 87.3168 203.931 87.1037C204.218 86.8935 204.362 86.5469 204.362 86.0639V84.8239H204.285C204.205 84.983 204.089 85.1463 203.935 85.3139C203.785 85.4815 203.585 85.6222 203.335 85.7358C203.087 85.8494 202.776 85.9062 202.401 85.9062C201.898 85.9062 201.442 85.7884 201.033 85.5526C200.627 85.3139 200.303 84.9588 200.062 84.4872C199.823 84.0128 199.704 83.419 199.704 82.706C199.704 81.9872 199.823 81.3807 200.062 80.8864C200.303 80.3892 200.629 80.0128 201.038 79.7571C201.447 79.4986 201.903 79.3693 202.406 79.3693C202.789 79.3693 203.104 79.4347 203.352 79.5653C203.602 79.6932 203.8 79.848 203.948 80.0298C204.096 80.2088 204.208 80.3778 204.285 80.5369H204.37V79.4545H205.891V86.1065C205.891 86.6662 205.758 87.1293 205.491 87.4957C205.224 87.8622 204.859 88.1364 204.396 88.3182C203.933 88.5 203.407 88.5909 202.819 88.5909ZM202.832 84.696C203.158 84.696 203.437 84.6165 203.667 84.4574C203.897 84.2983 204.072 84.0696 204.191 83.7713C204.31 83.473 204.37 83.1151 204.37 82.6974C204.37 82.2855 204.31 81.9247 204.191 81.6151C204.075 81.3054 203.901 81.0653 203.671 80.8949C203.444 80.7216 203.164 80.6349 202.832 80.6349C202.488 80.6349 202.201 80.7244 201.971 80.9034C201.741 81.0824 201.567 81.3281 201.451 81.6406C201.335 81.9503 201.276 82.3026 201.276 82.6974C201.276 83.098 201.335 83.4489 201.451 83.75C201.57 84.0483 201.745 84.2812 201.975 84.4489C202.208 84.6136 202.494 84.696 202.832 84.696ZM213.347 86.1278C212.69 86.1278 212.124 85.9915 211.646 85.7188C211.172 85.4432 210.807 85.054 210.551 84.5511C210.295 84.0455 210.168 83.4503 210.168 82.7656C210.168 82.0923 210.295 81.5014 210.551 80.9929C210.81 80.4815 211.17 80.0838 211.634 79.7997C212.097 79.5128 212.641 79.3693 213.266 79.3693C213.669 79.3693 214.05 79.4347 214.408 79.5653C214.768 79.6932 215.087 79.892 215.362 80.1619C215.641 80.4318 215.859 80.7756 216.018 81.1932C216.178 81.608 216.257 82.1023 216.257 82.6761V83.1491H210.892V82.1094H214.778C214.776 81.8139 214.712 81.5511 214.587 81.321C214.462 81.0881 214.287 80.9048 214.062 80.7713C213.841 80.6378 213.582 80.571 213.287 80.571C212.972 80.571 212.695 80.6477 212.456 80.8011C212.217 80.9517 212.031 81.1506 211.898 81.3977C211.767 81.642 211.7 81.9105 211.697 82.2031V83.1108C211.697 83.4915 211.767 83.8182 211.906 84.0909C212.045 84.3608 212.24 84.5682 212.49 84.7131C212.74 84.8551 213.033 84.9261 213.368 84.9261C213.592 84.9261 213.795 84.8949 213.977 84.8324C214.159 84.767 214.317 84.6719 214.45 84.5469C214.584 84.4219 214.685 84.267 214.753 84.0824L216.193 84.2443C216.102 84.625 215.929 84.9574 215.673 85.2415C215.42 85.5227 215.097 85.7415 214.702 85.8977C214.307 86.0511 213.855 86.1278 213.347 86.1278ZM218.683 79.4545L220.004 81.8707L221.346 79.4545H222.978L221.005 82.7273L223.012 86H221.389L220.004 83.6435L218.632 86H216.995L218.99 82.7273L217.047 79.4545H218.683ZM227.44 79.4545V80.6477H223.677V79.4545H227.44ZM224.606 77.8864H226.149V84.0312C226.149 84.2386 226.18 84.3977 226.243 84.5085C226.308 84.6165 226.393 84.6903 226.498 84.7301C226.603 84.7699 226.72 84.7898 226.848 84.7898C226.944 84.7898 227.032 84.7827 227.112 84.7685C227.194 84.7543 227.257 84.7415 227.299 84.7301L227.559 85.9361C227.477 85.9645 227.359 85.9957 227.206 86.0298C227.055 86.0639 226.87 86.0838 226.652 86.0895C226.265 86.1009 225.917 86.0426 225.608 85.9148C225.298 85.7841 225.052 85.5824 224.87 85.3097C224.691 85.0369 224.603 84.696 224.606 84.2869V77.8864ZM228.73 86V79.4545H230.226V80.5455H230.294C230.413 80.1676 230.618 79.8764 230.908 79.6719C231.2 79.4645 231.534 79.3608 231.909 79.3608C231.994 79.3608 232.089 79.3651 232.195 79.3736C232.303 79.3793 232.392 79.3892 232.463 79.4034V80.8224C232.398 80.7997 232.294 80.7798 232.152 80.7628C232.013 80.7429 231.878 80.733 231.747 80.733C231.466 80.733 231.213 80.794 230.989 80.9162C230.767 81.0355 230.592 81.2017 230.464 81.4148C230.337 81.6278 230.273 81.8736 230.273 82.152V86H228.73ZM235.254 86.1321C234.839 86.1321 234.466 86.0582 234.134 85.9105C233.804 85.7599 233.543 85.5384 233.349 85.2457C233.159 84.9531 233.064 84.5923 233.064 84.1634C233.064 83.794 233.132 83.4886 233.268 83.2472C233.405 83.0057 233.591 82.8125 233.827 82.6676C234.063 82.5227 234.328 82.4134 234.624 82.3395C234.922 82.2628 235.23 82.2074 235.548 82.1733C235.932 82.1335 236.243 82.098 236.482 82.0668C236.72 82.0327 236.893 81.9815 237.001 81.9134C237.112 81.8423 237.168 81.733 237.168 81.5852V81.5597C237.168 81.2386 237.072 80.9901 236.882 80.8139C236.692 80.6378 236.418 80.5497 236.06 80.5497C235.682 80.5497 235.382 80.6321 235.161 80.7969C234.942 80.9616 234.794 81.1562 234.717 81.3807L233.277 81.1761C233.391 80.7784 233.578 80.446 233.839 80.179C234.101 79.9091 234.42 79.7074 234.798 79.5739C235.176 79.4375 235.594 79.3693 236.051 79.3693C236.366 79.3693 236.68 79.4062 236.993 79.4801C237.305 79.554 237.591 79.6761 237.849 79.8466C238.108 80.0142 238.315 80.2429 238.472 80.5327C238.631 80.8224 238.71 81.1847 238.71 81.6193V86H237.227V85.1009H237.176C237.082 85.2827 236.95 85.4531 236.78 85.6122C236.612 85.7685 236.401 85.8949 236.145 85.9915C235.892 86.0852 235.595 86.1321 235.254 86.1321ZM235.655 84.9986C235.964 84.9986 236.233 84.9375 236.46 84.8153C236.688 84.6903 236.862 84.5256 236.984 84.321C237.109 84.1165 237.172 83.8935 237.172 83.652V82.8807C237.124 82.9205 237.041 82.9574 236.925 82.9915C236.811 83.0256 236.683 83.0554 236.541 83.081C236.399 83.1065 236.259 83.1293 236.119 83.1491C235.98 83.169 235.859 83.1861 235.757 83.2003C235.527 83.2315 235.321 83.2827 235.139 83.3537C234.957 83.4247 234.814 83.5241 234.709 83.652C234.604 83.777 234.551 83.9389 234.551 84.1378C234.551 84.4219 234.655 84.6364 234.862 84.7812C235.07 84.9261 235.334 84.9986 235.655 84.9986ZM20.7926 101V94.4545H22.267V95.5668H22.3438C22.4801 95.1918 22.706 94.8991 23.0213 94.6889C23.3366 94.4759 23.7131 94.3693 24.1506 94.3693C24.5938 94.3693 24.9673 94.4773 25.2713 94.6932C25.5781 94.9062 25.794 95.1974 25.919 95.5668H25.9872C26.1321 95.2031 26.3764 94.9134 26.7202 94.6974C27.0668 94.4787 27.4773 94.3693 27.9517 94.3693C28.554 94.3693 29.0455 94.5597 29.4261 94.9403C29.8068 95.321 29.9972 95.8764 29.9972 96.6065V101H28.4503V96.8452C28.4503 96.4389 28.3423 96.142 28.1264 95.9545C27.9105 95.7642 27.6463 95.669 27.3338 95.669C26.9616 95.669 26.6705 95.7855 26.4602 96.0185C26.2528 96.2486 26.1491 96.5483 26.1491 96.9176V101H24.6364V96.7812C24.6364 96.4432 24.5341 96.1733 24.3295 95.9716C24.1278 95.7699 23.8636 95.669 23.5369 95.669C23.3153 95.669 23.1136 95.7259 22.9318 95.8395C22.75 95.9503 22.6051 96.108 22.4972 96.3125C22.3892 96.5142 22.3352 96.75 22.3352 97.0199V101H20.7926ZM31.5621 101V94.4545H33.1048V101H31.5621ZM32.3377 93.5256C32.0934 93.5256 31.8832 93.4446 31.707 93.2827C31.5309 93.1179 31.4428 92.9205 31.4428 92.6903C31.4428 92.4574 31.5309 92.2599 31.707 92.098C31.8832 91.9332 32.0934 91.8509 32.3377 91.8509C32.5849 91.8509 32.7951 91.9332 32.9684 92.098C33.1445 92.2599 33.2326 92.4574 33.2326 92.6903C33.2326 92.9205 33.1445 93.1179 32.9684 93.2827C32.7951 93.4446 32.5849 93.5256 32.3377 93.5256ZM36.2337 97.1648V101H34.6911V94.4545H36.1655V95.5668H36.2422C36.3928 95.2003 36.6328 94.9091 36.9624 94.6932C37.2947 94.4773 37.7053 94.3693 38.1939 94.3693C38.6456 94.3693 39.0391 94.4659 39.3743 94.6591C39.7124 94.8523 39.9737 95.1321 40.1584 95.4986C40.3459 95.8651 40.4382 96.3097 40.4354 96.8324V101H38.8928V97.071C38.8928 96.6335 38.7791 96.2912 38.5518 96.044C38.3274 95.7969 38.0163 95.6733 37.6186 95.6733C37.3487 95.6733 37.1087 95.733 36.8984 95.8523C36.6911 95.9687 36.5277 96.1378 36.4084 96.3594C36.2919 96.581 36.2337 96.8494 36.2337 97.1648ZM44.4325 101.115C43.9183 101.115 43.4581 100.983 43.0518 100.719C42.6456 100.455 42.3246 100.071 42.0888 99.5682C41.853 99.0653 41.7351 98.4545 41.7351 97.7358C41.7351 97.0085 41.8544 96.3949 42.093 95.8949C42.3345 95.392 42.6598 95.0128 43.0689 94.7571C43.478 94.4986 43.9339 94.3693 44.4368 94.3693C44.8203 94.3693 45.1357 94.4347 45.3828 94.5653C45.63 94.6932 45.826 94.848 45.9709 95.0298C46.1158 95.2088 46.228 95.3778 46.3075 95.5369H46.3714V92.2727H47.9183V101H46.4013V99.9688H46.3075C46.228 100.128 46.1129 100.297 45.9624 100.476C45.8118 100.652 45.6129 100.803 45.3658 100.928C45.1186 101.053 44.8075 101.115 44.4325 101.115ZM44.8629 99.8494C45.1896 99.8494 45.468 99.7614 45.6982 99.5852C45.9283 99.4062 46.103 99.1577 46.2223 98.8395C46.3416 98.5213 46.4013 98.1506 46.4013 97.7273C46.4013 97.304 46.3416 96.9361 46.2223 96.6236C46.1058 96.3111 45.9325 96.0682 45.7024 95.8949C45.4751 95.7216 45.1953 95.6349 44.8629 95.6349C44.5192 95.6349 44.2322 95.7244 44.0021 95.9034C43.772 96.0824 43.5987 96.3295 43.4822 96.6449C43.3658 96.9602 43.3075 97.321 43.3075 97.7273C43.3075 98.1364 43.3658 98.5014 43.4822 98.8224C43.6016 99.1406 43.7763 99.392 44.0064 99.5767C44.2393 99.7585 44.5249 99.8494 44.8629 99.8494ZM52.8775 94.4545V95.6477H49.0082V94.4545H52.8775ZM49.9755 101V93.8366C49.9755 93.3963 50.0664 93.0298 50.2482 92.7372C50.4329 92.4446 50.68 92.2259 50.9897 92.081C51.2994 91.9361 51.6431 91.8636 52.021 91.8636C52.288 91.8636 52.5252 91.8849 52.7326 91.9276C52.94 91.9702 53.0934 92.0085 53.1928 92.0426L52.886 93.2358C52.8207 93.2159 52.7383 93.196 52.6388 93.1761C52.5394 93.1534 52.4286 93.142 52.3065 93.142C52.0195 93.142 51.8164 93.2116 51.6971 93.3509C51.5806 93.4872 51.5224 93.6832 51.5224 93.9389V101H49.9755ZM58.2575 98.2472V94.4545H59.8001V101H58.3043V99.8366H58.2362C58.0884 100.203 57.8455 100.503 57.5075 100.736C57.1722 100.969 56.7589 101.085 56.2674 101.085C55.8384 101.085 55.4592 100.99 55.1296 100.8C54.8029 100.607 54.5472 100.327 54.3626 99.9602C54.1779 99.5909 54.0856 99.1449 54.0856 98.6222V94.4545H55.6282V98.3835C55.6282 98.7983 55.7418 99.1278 55.9691 99.3722C56.1964 99.6165 56.4947 99.7386 56.864 99.7386C57.0913 99.7386 57.3114 99.6832 57.5245 99.5724C57.7376 99.4616 57.9123 99.2969 58.0487 99.0781C58.1879 98.8565 58.2575 98.5795 58.2575 98.2472ZM62.929 92.2727V101H61.3864V92.2727H62.929ZM66.0579 97.1648V101H64.5153V94.4545H65.9897V95.5668H66.0664C66.217 95.2003 66.457 94.9091 66.7866 94.6932C67.119 94.4773 67.5295 94.3693 68.0181 94.3693C68.4698 94.3693 68.8633 94.4659 69.1985 94.6591C69.5366 94.8523 69.7979 95.1321 69.9826 95.4986C70.1701 95.8651 70.2624 96.3097 70.2596 96.8324V101H68.717V97.071C68.717 96.6335 68.6033 96.2912 68.3761 96.044C68.1516 95.7969 67.8406 95.6733 67.4428 95.6733C67.1729 95.6733 66.9329 95.733 66.7227 95.8523C66.5153 95.9687 66.3519 96.1378 66.2326 96.3594C66.1161 96.581 66.0579 96.8494 66.0579 97.1648ZM74.7255 101.128C74.0692 101.128 73.5025 100.991 73.0252 100.719C72.5508 100.443 72.1857 100.054 71.93 99.5511C71.6744 99.0455 71.5465 98.4503 71.5465 97.7656C71.5465 97.0923 71.6744 96.5014 71.93 95.9929C72.1886 95.4815 72.5494 95.0838 73.0124 94.7997C73.4755 94.5128 74.0195 94.3693 74.6445 94.3693C75.0479 94.3693 75.4286 94.4347 75.7866 94.5653C76.1474 94.6932 76.4656 94.892 76.7411 95.1619C77.0195 95.4318 77.2383 95.7756 77.3974 96.1932C77.5565 96.608 77.636 97.1023 77.636 97.6761V98.1491H72.271V97.1094H76.1573C76.1545 96.8139 76.0906 96.5511 75.9656 96.321C75.8406 96.0881 75.6658 95.9048 75.4414 95.7713C75.2198 95.6378 74.9613 95.571 74.6658 95.571C74.3505 95.571 74.0735 95.6477 73.8349 95.8011C73.5962 95.9517 73.4102 96.1506 73.2766 96.3977C73.146 96.642 73.0792 96.9105 73.0763 97.2031V98.1108C73.0763 98.4915 73.146 98.8182 73.2852 99.0909C73.4244 99.3608 73.619 99.5682 73.869 99.7131C74.119 99.8551 74.4116 99.9261 74.7468 99.9261C74.9712 99.9261 75.1744 99.8949 75.3562 99.8324C75.538 99.767 75.6957 99.6719 75.8292 99.5469C75.9627 99.4219 76.0636 99.267 76.1317 99.0824L77.5721 99.2443C77.4812 99.625 77.3079 99.9574 77.0522 100.241C76.7994 100.523 76.4755 100.741 76.0806 100.898C75.6857 101.051 75.234 101.128 74.7255 101.128ZM84.1143 96.1847L82.7081 96.3381C82.6683 96.196 82.5987 96.0625 82.4993 95.9375C82.4027 95.8125 82.272 95.7116 82.1072 95.6349C81.9425 95.5582 81.7408 95.5199 81.5021 95.5199C81.1811 95.5199 80.9112 95.5895 80.6925 95.7287C80.4766 95.8679 80.37 96.0483 80.3729 96.2699C80.37 96.4602 80.4396 96.6151 80.5817 96.7344C80.7266 96.8537 80.9652 96.9517 81.2976 97.0284L82.4141 97.267C83.0334 97.4006 83.4936 97.6122 83.7947 97.902C84.0987 98.1918 84.2521 98.571 84.255 99.0398C84.2521 99.4517 84.1314 99.8153 83.8928 100.131C83.657 100.443 83.3288 100.687 82.9084 100.864C82.4879 101.04 82.005 101.128 81.4595 101.128C80.6584 101.128 80.0135 100.96 79.5249 100.625C79.0362 100.287 78.745 99.8168 78.6513 99.2145L80.1555 99.0696C80.2237 99.3651 80.3686 99.5881 80.5902 99.7386C80.8118 99.8892 81.1001 99.9645 81.4553 99.9645C81.8217 99.9645 82.1158 99.8892 82.3374 99.7386C82.5618 99.5881 82.674 99.402 82.674 99.1804C82.674 98.9929 82.6016 98.8381 82.4567 98.7159C82.3146 98.5937 82.093 98.5 81.7919 98.4347L80.6754 98.2003C80.0476 98.0696 79.5831 97.8494 79.282 97.5398C78.9808 97.2273 78.8317 96.8324 78.8345 96.3551C78.8317 95.9517 78.9411 95.6023 79.1626 95.3068C79.3871 95.0085 79.6982 94.7784 80.0959 94.6165C80.4964 94.4517 80.9581 94.3693 81.4808 94.3693C82.2479 94.3693 82.8516 94.5327 83.2919 94.8594C83.7351 95.1861 84.0092 95.6278 84.1143 96.1847ZM90.7003 96.1847L89.294 96.3381C89.2543 96.196 89.1847 96.0625 89.0852 95.9375C88.9886 95.8125 88.858 95.7116 88.6932 95.6349C88.5284 95.5582 88.3267 95.5199 88.0881 95.5199C87.767 95.5199 87.4972 95.5895 87.2784 95.7287C87.0625 95.8679 86.956 96.0483 86.9588 96.2699C86.956 96.4602 87.0256 96.6151 87.1676 96.7344C87.3125 96.8537 87.5511 96.9517 87.8835 97.0284L89 97.267C89.6193 97.4006 90.0795 97.6122 90.3807 97.902C90.6847 98.1918 90.8381 98.571 90.8409 99.0398C90.8381 99.4517 90.7173 99.8153 90.4787 100.131C90.2429 100.443 89.9148 100.687 89.4943 100.864C89.0739 101.04 88.5909 101.128 88.0455 101.128C87.2443 101.128 86.5994 100.96 86.1108 100.625C85.6222 100.287 85.331 99.8168 85.2372 99.2145L86.7415 99.0696C86.8097 99.3651 86.9545 99.5881 87.1761 99.7386C87.3977 99.8892 87.6861 99.9645 88.0412 99.9645C88.4077 99.9645 88.7017 99.8892 88.9233 99.7386C89.1477 99.5881 89.2599 99.402 89.2599 99.1804C89.2599 98.9929 89.1875 98.8381 89.0426 98.7159C88.9006 98.5937 88.679 98.5 88.3778 98.4347L87.2614 98.2003C86.6335 98.0696 86.169 97.8494 85.8679 97.5398C85.5668 97.2273 85.4176 96.8324 85.4205 96.3551C85.4176 95.9517 85.527 95.6023 85.7486 95.3068C85.973 95.0085 86.2841 94.7784 86.6818 94.6165C87.0824 94.4517 87.544 94.3693 88.0668 94.3693C88.8338 94.3693 89.4375 94.5327 89.8778 94.8594C90.321 95.1861 90.5952 95.6278 90.7003 96.1847ZM98.358 94.4545V95.6477H94.5952V94.4545H98.358ZM95.5241 92.8864H97.0668V99.0312C97.0668 99.2386 97.098 99.3977 97.1605 99.5085C97.2259 99.6165 97.3111 99.6903 97.4162 99.7301C97.5213 99.7699 97.6378 99.7898 97.7656 99.7898C97.8622 99.7898 97.9503 99.7827 98.0298 99.7685C98.1122 99.7543 98.1747 99.7415 98.2173 99.7301L98.4773 100.936C98.3949 100.964 98.277 100.996 98.1236 101.03C97.973 101.064 97.7884 101.084 97.5696 101.089C97.1832 101.101 96.8352 101.043 96.5256 100.915C96.2159 100.784 95.9702 100.582 95.7884 100.31C95.6094 100.037 95.5213 99.696 95.5241 99.2869V92.8864ZM102.433 101.128C101.794 101.128 101.24 100.987 100.771 100.706C100.302 100.425 99.9386 100.031 99.68 99.5256C99.4244 99.0199 99.2965 98.429 99.2965 97.7528C99.2965 97.0767 99.4244 96.4844 99.68 95.9759C99.9386 95.4673 100.302 95.0724 100.771 94.7912C101.24 94.5099 101.794 94.3693 102.433 94.3693C103.072 94.3693 103.626 94.5099 104.095 94.7912C104.564 95.0724 104.926 95.4673 105.181 95.9759C105.44 96.4844 105.569 97.0767 105.569 97.7528C105.569 98.429 105.44 99.0199 105.181 99.5256C104.926 100.031 104.564 100.425 104.095 100.706C103.626 100.987 103.072 101.128 102.433 101.128ZM102.441 99.892C102.788 99.892 103.078 99.7969 103.311 99.6065C103.544 99.4134 103.717 99.1548 103.831 98.831C103.947 98.5071 104.005 98.1463 104.005 97.7486C104.005 97.348 103.947 96.9858 103.831 96.6619C103.717 96.3352 103.544 96.0753 103.311 95.8821C103.078 95.6889 102.788 95.5923 102.441 95.5923C102.086 95.5923 101.791 95.6889 101.555 95.8821C101.322 96.0753 101.147 96.3352 101.031 96.6619C100.917 96.9858 100.86 97.348 100.86 97.7486C100.86 98.1463 100.917 98.5071 101.031 98.831C101.147 99.1548 101.322 99.4134 101.555 99.6065C101.791 99.7969 102.086 99.892 102.441 99.892ZM110.814 103.455C110.604 103.455 110.409 103.438 110.23 103.403C110.054 103.372 109.913 103.335 109.808 103.293L110.166 102.091C110.391 102.156 110.591 102.188 110.767 102.185C110.943 102.182 111.098 102.126 111.232 102.018C111.368 101.913 111.483 101.737 111.577 101.49L111.709 101.136L109.335 94.4545H110.972L112.48 99.3977H112.548L114.061 94.4545H115.702L113.081 101.793C112.959 102.139 112.797 102.436 112.595 102.683C112.393 102.933 112.146 103.124 111.854 103.254C111.564 103.388 111.217 103.455 110.814 103.455ZM119.402 101.128C118.762 101.128 118.208 100.987 117.74 100.706C117.271 100.425 116.907 100.031 116.649 99.5256C116.393 99.0199 116.265 98.429 116.265 97.7528C116.265 97.0767 116.393 96.4844 116.649 95.9759C116.907 95.4673 117.271 95.0724 117.74 94.7912C118.208 94.5099 118.762 94.3693 119.402 94.3693C120.041 94.3693 120.595 94.5099 121.064 94.7912C121.532 95.0724 121.895 95.4673 122.15 95.9759C122.409 96.4844 122.538 97.0767 122.538 97.7528C122.538 98.429 122.409 99.0199 122.15 99.5256C121.895 100.031 121.532 100.425 121.064 100.706C120.595 100.987 120.041 101.128 119.402 101.128ZM119.41 99.892C119.757 99.892 120.047 99.7969 120.279 99.6065C120.512 99.4134 120.686 99.1548 120.799 98.831C120.916 98.5071 120.974 98.1463 120.974 97.7486C120.974 97.348 120.916 96.9858 120.799 96.6619C120.686 96.3352 120.512 96.0753 120.279 95.8821C120.047 95.6889 119.757 95.5923 119.41 95.5923C119.055 95.5923 118.76 95.6889 118.524 95.8821C118.291 96.0753 118.116 96.3352 118 96.6619C117.886 96.9858 117.829 97.348 117.829 97.7486C117.829 98.1463 117.886 98.5071 118 98.831C118.116 99.1548 118.291 99.4134 118.524 99.6065C118.76 99.7969 119.055 99.892 119.41 99.892ZM128.019 98.2472V94.4545H129.562V101H128.066V99.8366H127.998C127.85 100.203 127.607 100.503 127.269 100.736C126.934 100.969 126.521 101.085 126.029 101.085C125.6 101.085 125.221 100.99 124.891 100.8C124.565 100.607 124.309 100.327 124.124 99.9602C123.94 99.5909 123.847 99.1449 123.847 98.6222V94.4545H125.39V98.3835C125.39 98.7983 125.504 99.1278 125.731 99.3722C125.958 99.6165 126.256 99.7386 126.626 99.7386C126.853 99.7386 127.073 99.6832 127.286 99.5724C127.499 99.4616 127.674 99.2969 127.81 99.0781C127.95 98.8565 128.019 98.5795 128.019 98.2472ZM131.148 101V94.4545H132.644V95.5455H132.712C132.831 95.1676 133.036 94.8764 133.326 94.6719C133.618 94.4645 133.952 94.3608 134.327 94.3608C134.412 94.3608 134.507 94.3651 134.613 94.3736C134.721 94.3793 134.81 94.3892 134.881 94.4034V95.8224C134.816 95.7997 134.712 95.7798 134.57 95.7628C134.431 95.7429 134.296 95.733 134.165 95.733C133.884 95.733 133.631 95.794 133.407 95.9162C133.185 96.0355 133.01 96.2017 132.882 96.4148C132.755 96.6278 132.691 96.8736 132.691 97.152V101H131.148ZM140.425 92.2727V101H138.882V92.2727H140.425ZM142.011 101V94.4545H143.554V101H142.011ZM142.787 93.5256C142.543 93.5256 142.332 93.4446 142.156 93.2827C141.98 93.1179 141.892 92.9205 141.892 92.6903C141.892 92.4574 141.98 92.2599 142.156 92.098C142.332 91.9332 142.543 91.8509 142.787 91.8509C143.034 91.8509 143.244 91.9332 143.418 92.098C143.594 92.2599 143.682 92.4574 143.682 92.6903C143.682 92.9205 143.594 93.1179 143.418 93.2827C143.244 93.4446 143.034 93.5256 142.787 93.5256ZM148.456 94.4545V95.6477H144.586V94.4545H148.456ZM145.554 101V93.8366C145.554 93.3963 145.645 93.0298 145.826 92.7372C146.011 92.4446 146.258 92.2259 146.568 92.081C146.877 91.9361 147.221 91.8636 147.599 91.8636C147.866 91.8636 148.103 91.8849 148.311 91.9276C148.518 91.9702 148.672 92.0085 148.771 92.0426L148.464 93.2358C148.399 93.2159 148.316 93.196 148.217 93.1761C148.118 93.1534 148.007 93.142 147.885 93.142C147.598 93.142 147.395 93.2116 147.275 93.3509C147.159 93.4872 147.1 93.6832 147.1 93.9389V101H145.554ZM152.315 101.128C151.659 101.128 151.092 100.991 150.615 100.719C150.141 100.443 149.776 100.054 149.52 99.5511C149.264 99.0455 149.136 98.4503 149.136 97.7656C149.136 97.0923 149.264 96.5014 149.52 95.9929C149.778 95.4815 150.139 95.0838 150.602 94.7997C151.065 94.5128 151.609 94.3693 152.234 94.3693C152.638 94.3693 153.018 94.4347 153.376 94.5653C153.737 94.6932 154.055 94.892 154.331 95.1619C154.609 95.4318 154.828 95.7756 154.987 96.1932C155.146 96.608 155.226 97.1023 155.226 97.6761V98.1491H149.861V97.1094H153.747C153.744 96.8139 153.68 96.5511 153.555 96.321C153.43 96.0881 153.256 95.9048 153.031 95.7713C152.81 95.6378 152.551 95.571 152.256 95.571C151.94 95.571 151.663 95.6477 151.425 95.8011C151.186 95.9517 151 96.1506 150.866 96.3977C150.736 96.642 150.669 96.9105 150.666 97.2031V98.1108C150.666 98.4915 150.736 98.8182 150.875 99.0909C151.014 99.3608 151.209 99.5682 151.459 99.7131C151.709 99.8551 152.001 99.9261 152.337 99.9261C152.561 99.9261 152.764 99.8949 152.946 99.8324C153.128 99.767 153.286 99.6719 153.419 99.5469C153.553 99.4219 153.653 99.267 153.722 99.0824L155.162 99.2443C155.071 99.625 154.898 99.9574 154.642 100.241C154.389 100.523 154.065 100.741 153.67 100.898C153.276 101.051 152.824 101.128 152.315 101.128Z" fill="#FCFCFC"/>
<defs>
<clipPath id="clip0_1254_2878">
<rect width="15" height="15" fill="white" transform="translate(116 27)"/>
</clipPath>
</defs>
</svg>
