<svg width="615" height="608" viewBox="0 0 615 608" fill="none" xmlns="http://www.w3.org/2000/svg">
<path fill-rule="evenodd" clip-rule="evenodd" d="M261.537 185.72L264.77 0.507097L264.933 0.509938L275.835 0.700245L360.254 2.17378L357.021 187.386L496.163 50.6683L562.368 120.427L423.062 257.306L614.033 260.64L612.34 357.63L421.369 354.296L555.813 495.955L487.214 563.36L352.928 421.869L349.695 607.082L349.533 607.079L254.374 605.418L254.211 605.415L257.444 420.203L118.303 556.92L52.0971 487.163L191.403 350.282L0.432761 346.949L2.12572 249.959L193.096 253.292L58.6519 111.634L127.252 44.229L261.537 185.72Z" fill="#64DFDF"/>
</svg>
