<svg width="323" height="129" viewBox="0 0 323 129" fill="none" xmlns="http://www.w3.org/2000/svg">
<g filter="url(#filter0_d_532_2134)">
<rect x="10" y="9" width="303" height="109" rx="20" fill="#9C90E9" shape-rendering="crispEdges"/>
<path d="M33.892 35.9545L37.4077 47.0057H37.5426L41.0653 35.9545H44.4744L39.4602 50.5H35.4972L30.4759 35.9545H33.892ZM46.1683 50.5V39.5909H49.1939V50.5H46.1683ZM47.6882 38.1847C47.2384 38.1847 46.8525 38.0355 46.5305 37.7372C46.2133 37.4342 46.0547 37.072 46.0547 36.6506C46.0547 36.2339 46.2133 35.8764 46.5305 35.5781C46.8525 35.2751 47.2384 35.1236 47.6882 35.1236C48.138 35.1236 48.5215 35.2751 48.8388 35.5781C49.1607 35.8764 49.3217 36.2339 49.3217 36.6506C49.3217 37.072 49.1607 37.4342 48.8388 37.7372C48.5215 38.0355 48.138 38.1847 47.6882 38.1847ZM55.6374 50.6776C54.8088 50.6776 54.0584 50.4645 53.386 50.0384C52.7184 49.6075 52.1881 48.9754 51.7951 48.142C51.4068 47.304 51.2127 46.2765 51.2127 45.0597C51.2127 43.8097 51.4139 42.7704 51.8164 41.9418C52.2189 41.1084 52.7539 40.4858 53.4215 40.0739C54.0939 39.6572 54.8301 39.4489 55.6303 39.4489C56.2411 39.4489 56.7501 39.553 57.1573 39.7614C57.5692 39.965 57.9007 40.2206 58.1516 40.5284C58.4073 40.8314 58.6014 41.1297 58.734 41.4233H58.8263V35.9545H61.8448V50.5H58.8619V48.7528H58.734C58.592 49.0559 58.3907 49.3565 58.1303 49.6548C57.8746 49.9484 57.5408 50.1922 57.1289 50.3864C56.7217 50.5805 56.2246 50.6776 55.6374 50.6776ZM56.5962 48.2699C57.0839 48.2699 57.4959 48.1373 57.832 47.8722C58.1729 47.6023 58.4334 47.2259 58.6133 46.7429C58.7979 46.2599 58.8903 45.6941 58.8903 45.0455C58.8903 44.3968 58.8003 43.8333 58.6204 43.3551C58.4405 42.8769 58.18 42.5076 57.8391 42.2472C57.4982 41.9867 57.0839 41.8565 56.5962 41.8565C56.0991 41.8565 55.68 41.9915 55.3391 42.2614C54.9982 42.5312 54.7402 42.9053 54.565 43.3835C54.3898 43.8617 54.3022 44.4157 54.3022 45.0455C54.3022 45.6799 54.3898 46.241 54.565 46.7287C54.7449 47.2116 55.003 47.5904 55.3391 47.8651C55.68 48.1349 56.0991 48.2699 56.5962 48.2699ZM69.304 50.7131C68.1818 50.7131 67.2159 50.4858 66.4062 50.0312C65.6013 49.572 64.9811 48.9233 64.5455 48.0852C64.1098 47.2424 63.892 46.2457 63.892 45.0952C63.892 43.973 64.1098 42.9882 64.5455 42.1406C64.9811 41.2931 65.5942 40.6326 66.3849 40.1591C67.1804 39.6856 68.1132 39.4489 69.1832 39.4489C69.9029 39.4489 70.5729 39.5649 71.1932 39.7969C71.8182 40.0241 72.3627 40.3674 72.8267 40.8267C73.2955 41.286 73.66 41.8636 73.9205 42.5597C74.1809 43.2509 74.3111 44.0606 74.3111 44.9886V45.8196H65.0994V43.9446H71.4631C71.4631 43.509 71.3684 43.1231 71.179 42.7869C70.9896 42.4508 70.7268 42.188 70.3906 41.9986C70.0592 41.8045 69.6733 41.7074 69.233 41.7074C68.7737 41.7074 68.3665 41.8139 68.0114 42.027C67.661 42.2353 67.3864 42.517 67.1875 42.8722C66.9886 43.2225 66.8868 43.6132 66.8821 44.044V45.8267C66.8821 46.3665 66.9815 46.8329 67.1804 47.2259C67.384 47.6188 67.6705 47.9219 68.0398 48.1349C68.4091 48.348 68.8471 48.4545 69.3537 48.4545C69.6899 48.4545 69.9976 48.4072 70.277 48.3125C70.5563 48.2178 70.7955 48.0758 70.9943 47.8864C71.1932 47.697 71.3447 47.465 71.4489 47.1903L74.2472 47.375C74.1051 48.0473 73.8139 48.6345 73.3736 49.1364C72.938 49.6335 72.3745 50.0218 71.6832 50.3011C70.9967 50.5758 70.2036 50.7131 69.304 50.7131ZM81.2145 50.7131C80.1113 50.7131 79.1572 50.4787 78.3523 50.0099C77.5521 49.5365 76.9342 48.8783 76.4986 48.0355C76.063 47.188 75.8452 46.2055 75.8452 45.0881C75.8452 43.9612 76.063 42.9763 76.4986 42.1335C76.9342 41.286 77.5521 40.6278 78.3523 40.1591C79.1572 39.6856 80.1113 39.4489 81.2145 39.4489C82.3177 39.4489 83.2694 39.6856 84.0696 40.1591C84.8745 40.6278 85.4948 41.286 85.9304 42.1335C86.366 42.9763 86.5838 43.9612 86.5838 45.0881C86.5838 46.2055 86.366 47.188 85.9304 48.0355C85.4948 48.8783 84.8745 49.5365 84.0696 50.0099C83.2694 50.4787 82.3177 50.7131 81.2145 50.7131ZM81.2287 48.3693C81.7306 48.3693 82.1496 48.2273 82.4858 47.9432C82.822 47.6544 83.0753 47.2614 83.2457 46.7642C83.4209 46.267 83.5085 45.7012 83.5085 45.0668C83.5085 44.4323 83.4209 43.8665 83.2457 43.3693C83.0753 42.8722 82.822 42.4792 82.4858 42.1903C82.1496 41.9015 81.7306 41.7571 81.2287 41.7571C80.7221 41.7571 80.2959 41.9015 79.9503 42.1903C79.6094 42.4792 79.3513 42.8722 79.1761 43.3693C79.0057 43.8665 78.9205 44.4323 78.9205 45.0668C78.9205 45.7012 79.0057 46.267 79.1761 46.7642C79.3513 47.2614 79.6094 47.6544 79.9503 47.9432C80.2959 48.2273 80.7221 48.3693 81.2287 48.3693Z" fill="#FCFCFC"/>
<rect x="98" y="29" width="29" height="29" rx="10" fill="#FCFCFC"/>
<path d="M118.191 40.9793L112.088 36.6038C111.612 36.2627 111.048 36.0573 110.459 36.0104C109.87 35.9634 109.279 36.0767 108.752 36.3377C108.225 36.5987 107.783 36.9972 107.473 37.4891C107.164 37.9809 107 38.5468 107 39.1241V47.8752C107 48.4527 107.164 49.0189 107.473 49.511C107.783 50.003 108.226 50.4017 108.753 50.6626C109.28 50.9236 109.871 51.0368 110.46 50.9895C111.049 50.9422 111.614 50.7364 112.09 50.3949L118.193 46.0193C118.598 45.729 118.928 45.3496 119.155 44.9117C119.382 44.4738 119.5 43.9899 119.5 43.499C119.5 43.0081 119.382 42.5242 119.155 42.0863C118.928 41.6484 118.598 41.269 118.193 40.9787L118.191 40.9793ZM117.434 45.0111L111.331 49.3866C111.045 49.5908 110.707 49.7136 110.354 49.7416C110.001 49.7696 109.647 49.7016 109.331 49.5451C109.015 49.3887 108.75 49.1499 108.564 48.8551C108.378 48.5604 108.28 48.2212 108.279 47.8752V39.1241C108.276 38.7774 108.372 38.4367 108.558 38.1413C108.744 37.8458 109.011 37.6076 109.329 37.4539C109.6 37.3194 109.899 37.2492 110.202 37.2488C110.609 37.2504 111.005 37.3794 111.331 37.617L117.434 41.9926C117.676 42.1668 117.874 42.3944 118.01 42.6569C118.146 42.9195 118.217 43.2097 118.217 43.504C118.217 43.7983 118.146 44.0885 118.01 44.3511C117.874 44.6136 117.676 44.8412 117.434 45.0154V45.0111Z" fill="#9C90E9"/>
<path d="M32.6974 80L30.2344 71.2727H31.9347L33.5071 77.6861H33.5881L35.267 71.2727H36.8139L38.4972 77.6903H38.5739L40.1463 71.2727H41.8466L39.3835 80H37.8239L36.0767 73.8764H36.0085L34.2571 80H32.6974ZM44.0902 80.1321C43.6754 80.1321 43.3018 80.0582 42.9695 79.9105C42.6399 79.7599 42.3786 79.5384 42.1854 79.2457C41.995 78.9531 41.8999 78.5923 41.8999 78.1634C41.8999 77.794 41.968 77.4886 42.1044 77.2472C42.2408 77.0057 42.4268 76.8125 42.6626 76.6676C42.8984 76.5227 43.1641 76.4134 43.4595 76.3395C43.7578 76.2628 44.0661 76.2074 44.3842 76.1733C44.7678 76.1335 45.0788 76.098 45.3175 76.0668C45.5561 76.0327 45.7294 75.9815 45.8374 75.9134C45.9482 75.8423 46.0036 75.733 46.0036 75.5852V75.5597C46.0036 75.2386 45.9084 74.9901 45.718 74.8139C45.5277 74.6378 45.2536 74.5497 44.8956 74.5497C44.5178 74.5497 44.218 74.6321 43.9964 74.7969C43.7777 74.9616 43.63 75.1562 43.5533 75.3807L42.1129 75.1761C42.2266 74.7784 42.4141 74.446 42.6754 74.179C42.9368 73.9091 43.2564 73.7074 43.6342 73.5739C44.0121 73.4375 44.4297 73.3693 44.8871 73.3693C45.2024 73.3693 45.5163 73.4062 45.8288 73.4801C46.1413 73.554 46.4268 73.6761 46.6854 73.8466C46.9439 74.0142 47.1513 74.2429 47.3075 74.5327C47.4666 74.8224 47.5462 75.1847 47.5462 75.6193V80H46.0632V79.1009H46.0121C45.9183 79.2827 45.7862 79.4531 45.6158 79.6122C45.4482 79.7685 45.2365 79.8949 44.9808 79.9915C44.728 80.0852 44.4311 80.1321 44.0902 80.1321ZM44.4908 78.9986C44.8004 78.9986 45.0689 78.9375 45.2962 78.8153C45.5234 78.6903 45.6982 78.5256 45.8203 78.321C45.9453 78.1165 46.0078 77.8935 46.0078 77.652V76.8807C45.9595 76.9205 45.8771 76.9574 45.7607 76.9915C45.647 77.0256 45.5192 77.0554 45.3771 77.081C45.2351 77.1065 45.0945 77.1293 44.9553 77.1491C44.8161 77.169 44.6953 77.1861 44.593 77.2003C44.3629 77.2315 44.157 77.2827 43.9751 77.3537C43.7933 77.4247 43.6499 77.5241 43.5447 77.652C43.4396 77.777 43.3871 77.9389 43.3871 78.1378C43.3871 78.4219 43.4908 78.6364 43.6982 78.7812C43.9055 78.9261 44.1697 78.9986 44.4908 78.9986ZM52.3658 73.4545V74.6477H48.603V73.4545H52.3658ZM49.532 71.8864H51.0746V78.0312C51.0746 78.2386 51.1058 78.3977 51.1683 78.5085C51.2337 78.6165 51.3189 78.6903 51.424 78.7301C51.5291 78.7699 51.6456 78.7898 51.7734 78.7898C51.87 78.7898 51.9581 78.7827 52.0376 78.7685C52.12 78.7543 52.1825 78.7415 52.2251 78.7301L52.4851 79.9361C52.4027 79.9645 52.2848 79.9957 52.1314 80.0298C51.9808 80.0639 51.7962 80.0838 51.5774 80.0895C51.1911 80.1009 50.843 80.0426 50.5334 79.9148C50.2237 79.7841 49.978 79.5824 49.7962 79.3097C49.6172 79.0369 49.5291 78.696 49.532 78.2869V71.8864ZM56.4407 80.1278C55.7873 80.1278 55.2262 79.9844 54.7575 79.6974C54.2915 79.4105 53.9322 79.0142 53.6793 78.5085C53.4293 78 53.3043 77.4148 53.3043 76.7528C53.3043 76.0881 53.4322 75.5014 53.6879 74.9929C53.9435 74.4815 54.3043 74.0838 54.7702 73.7997C55.239 73.5128 55.793 73.3693 56.4322 73.3693C56.9634 73.3693 57.4336 73.4673 57.8427 73.6634C58.2546 73.8565 58.5827 74.1307 58.8271 74.4858C59.0714 74.8381 59.2106 75.25 59.2447 75.7216H57.7702C57.7106 75.4062 57.5685 75.1435 57.3441 74.9332C57.1225 74.7202 56.8256 74.6136 56.4535 74.6136C56.1381 74.6136 55.8612 74.6989 55.6225 74.8693C55.3839 75.0369 55.1978 75.2784 55.0643 75.5938C54.9336 75.9091 54.8683 76.2869 54.8683 76.7273C54.8683 77.1733 54.9336 77.5568 55.0643 77.8778C55.195 78.196 55.3782 78.4418 55.614 78.6151C55.8526 78.7855 56.1325 78.8707 56.4535 78.8707C56.6808 78.8707 56.8839 78.8281 57.0629 78.7429C57.2447 78.6548 57.3967 78.5284 57.5188 78.3636C57.641 78.1989 57.7248 77.9986 57.7702 77.7628H59.2447C59.2077 78.2259 59.0714 78.6364 58.8356 78.9943C58.5998 79.3494 58.2788 79.6278 57.8725 79.8295C57.4663 80.0284 56.989 80.1278 56.4407 80.1278ZM62.054 76.1648V80H60.5114V71.2727H62.0199V74.5668H62.0966C62.25 74.1974 62.4872 73.9062 62.8082 73.6932C63.1321 73.4773 63.544 73.3693 64.044 73.3693C64.4986 73.3693 64.8949 73.4645 65.233 73.6548C65.571 73.8452 65.8324 74.1236 66.017 74.4901C66.2045 74.8565 66.2983 75.304 66.2983 75.8324V80H64.7557V76.071C64.7557 75.6307 64.642 75.2884 64.4148 75.044C64.1903 74.7969 63.875 74.6733 63.4688 74.6733C63.196 74.6733 62.9517 74.733 62.7358 74.8523C62.5227 74.9687 62.3551 75.1378 62.233 75.3594C62.1136 75.581 62.054 75.8494 62.054 76.1648ZM76.0206 75.1847L74.6143 75.3381C74.5746 75.196 74.505 75.0625 74.4055 74.9375C74.3089 74.8125 74.1783 74.7116 74.0135 74.6349C73.8487 74.5582 73.647 74.5199 73.4084 74.5199C73.0874 74.5199 72.8175 74.5895 72.5987 74.7287C72.3828 74.8679 72.2763 75.0483 72.2791 75.2699C72.2763 75.4602 72.3459 75.6151 72.4879 75.7344C72.6328 75.8537 72.8714 75.9517 73.2038 76.0284L74.3203 76.267C74.9396 76.4006 75.3999 76.6122 75.701 76.902C76.005 77.1918 76.1584 77.571 76.1612 78.0398C76.1584 78.4517 76.0376 78.8153 75.799 79.1307C75.5632 79.4432 75.2351 79.6875 74.8146 79.8636C74.3942 80.0398 73.9112 80.1278 73.3658 80.1278C72.5646 80.1278 71.9197 79.9602 71.4311 79.625C70.9425 79.2869 70.6513 78.8168 70.5575 78.2145L72.0618 78.0696C72.13 78.3651 72.2749 78.5881 72.4964 78.7386C72.718 78.8892 73.0064 78.9645 73.3615 78.9645C73.728 78.9645 74.022 78.8892 74.2436 78.7386C74.468 78.5881 74.5803 78.402 74.5803 78.1804C74.5803 77.9929 74.5078 77.8381 74.3629 77.7159C74.2209 77.5937 73.9993 77.5 73.6982 77.4347L72.5817 77.2003C71.9538 77.0696 71.4893 76.8494 71.1882 76.5398C70.8871 76.2273 70.7379 75.8324 70.7408 75.3551C70.7379 74.9517 70.8473 74.6023 71.0689 74.3068C71.2933 74.0085 71.6044 73.7784 72.0021 73.6165C72.4027 73.4517 72.8643 73.3693 73.3871 73.3693C74.1541 73.3693 74.7578 73.5327 75.1982 73.8594C75.6413 74.1861 75.9155 74.6278 76.0206 75.1847ZM78.9759 76.1648V80H77.4332V71.2727H78.9418V74.5668H79.0185C79.1719 74.1974 79.4091 73.9062 79.7301 73.6932C80.054 73.4773 80.4659 73.3693 80.9659 73.3693C81.4205 73.3693 81.8168 73.4645 82.1548 73.6548C82.4929 73.8452 82.7543 74.1236 82.9389 74.4901C83.1264 74.8565 83.2202 75.304 83.2202 75.8324V80H81.6776V76.071C81.6776 75.6307 81.5639 75.2884 81.3366 75.044C81.1122 74.7969 80.7969 74.6733 80.3906 74.6733C80.1179 74.6733 79.8736 74.733 79.6577 74.8523C79.4446 74.9687 79.277 75.1378 79.1548 75.3594C79.0355 75.581 78.9759 75.8494 78.9759 76.1648ZM87.6477 80.1278C87.0085 80.1278 86.4545 79.9872 85.9858 79.706C85.517 79.4247 85.1534 79.0312 84.8949 78.5256C84.6392 78.0199 84.5114 77.429 84.5114 76.7528C84.5114 76.0767 84.6392 75.4844 84.8949 74.9759C85.1534 74.4673 85.517 74.0724 85.9858 73.7912C86.4545 73.5099 87.0085 73.3693 87.6477 73.3693C88.2869 73.3693 88.8409 73.5099 89.3097 73.7912C89.7784 74.0724 90.1406 74.4673 90.3963 74.9759C90.6548 75.4844 90.7841 76.0767 90.7841 76.7528C90.7841 77.429 90.6548 78.0199 90.3963 78.5256C90.1406 79.0312 89.7784 79.4247 89.3097 79.706C88.8409 79.9872 88.2869 80.1278 87.6477 80.1278ZM87.6562 78.892C88.0028 78.892 88.2926 78.7969 88.5256 78.6065C88.7585 78.4134 88.9318 78.1548 89.0455 77.831C89.1619 77.5071 89.2202 77.1463 89.2202 76.7486C89.2202 76.348 89.1619 75.9858 89.0455 75.6619C88.9318 75.3352 88.7585 75.0753 88.5256 74.8821C88.2926 74.6889 88.0028 74.5923 87.6562 74.5923C87.3011 74.5923 87.0057 74.6889 86.7699 74.8821C86.5369 75.0753 86.3622 75.3352 86.2457 75.6619C86.1321 75.9858 86.0753 76.348 86.0753 76.7486C86.0753 77.1463 86.1321 77.5071 86.2457 77.831C86.3622 78.1548 86.5369 78.4134 86.7699 78.6065C87.0057 78.7969 87.3011 78.892 87.6562 78.892ZM92.0934 80V73.4545H93.5891V74.5455H93.6573C93.7766 74.1676 93.9812 73.8764 94.271 73.6719C94.5636 73.4645 94.8974 73.3608 95.2724 73.3608C95.3576 73.3608 95.4528 73.3651 95.5579 73.3736C95.6658 73.3793 95.7553 73.3892 95.8263 73.4034V74.8224C95.761 74.7997 95.6573 74.7798 95.5153 74.7628C95.3761 74.7429 95.2411 74.733 95.1104 74.733C94.8292 74.733 94.5763 74.794 94.3519 74.9162C94.1303 75.0355 93.9556 75.2017 93.8278 75.4148C93.6999 75.6278 93.636 75.8736 93.636 76.152V80H92.0934ZM100.471 73.4545V74.6477H96.7085V73.4545H100.471ZM97.6374 71.8864H99.18V78.0312C99.18 78.2386 99.2113 78.3977 99.2738 78.5085C99.3391 78.6165 99.4244 78.6903 99.5295 78.7301C99.6346 78.7699 99.7511 78.7898 99.8789 78.7898C99.9755 78.7898 100.064 78.7827 100.143 78.7685C100.225 78.7543 100.288 78.7415 100.331 78.7301L100.591 79.9361C100.508 79.9645 100.39 79.9957 100.237 80.0298C100.086 80.0639 99.9016 80.0838 99.6829 80.0895C99.2965 80.1009 98.9485 80.0426 98.6388 79.9148C98.3292 79.7841 98.0835 79.5824 97.9016 79.3097C97.7227 79.0369 97.6346 78.696 97.6374 78.2869V71.8864ZM110.585 73.4545L108.254 80H106.549L104.218 73.4545H105.863L107.367 78.3168H107.435L108.944 73.4545H110.585ZM111.652 80V73.4545H113.195V80H111.652ZM112.428 72.5256C112.183 72.5256 111.973 72.4446 111.797 72.2827C111.621 72.1179 111.533 71.9205 111.533 71.6903C111.533 71.4574 111.621 71.2599 111.797 71.098C111.973 70.9332 112.183 70.8509 112.428 70.8509C112.675 70.8509 112.885 70.9332 113.058 71.098C113.234 71.2599 113.322 71.4574 113.322 71.6903C113.322 71.9205 113.234 72.1179 113.058 72.2827C112.885 72.4446 112.675 72.5256 112.428 72.5256ZM117.21 80.1151C116.696 80.1151 116.235 79.983 115.829 79.7188C115.423 79.4545 115.102 79.071 114.866 78.5682C114.63 78.0653 114.512 77.4545 114.512 76.7358C114.512 76.0085 114.632 75.3949 114.87 74.8949C115.112 74.392 115.437 74.0128 115.846 73.7571C116.255 73.4986 116.711 73.3693 117.214 73.3693C117.598 73.3693 117.913 73.4347 118.16 73.5653C118.407 73.6932 118.603 73.848 118.748 74.0298C118.893 74.2088 119.005 74.3778 119.085 74.5369H119.149V71.2727H120.696V80H119.179V78.9688H119.085C119.005 79.1278 118.89 79.2969 118.74 79.4759C118.589 79.652 118.39 79.8026 118.143 79.9276C117.896 80.0526 117.585 80.1151 117.21 80.1151ZM117.64 78.8494C117.967 78.8494 118.245 78.7614 118.475 78.5852C118.706 78.4062 118.88 78.1577 119 77.8395C119.119 77.5213 119.179 77.1506 119.179 76.7273C119.179 76.304 119.119 75.9361 119 75.6236C118.883 75.3111 118.71 75.0682 118.48 74.8949C118.252 74.7216 117.973 74.6349 117.64 74.6349C117.297 74.6349 117.01 74.7244 116.779 74.9034C116.549 75.0824 116.376 75.3295 116.26 75.6449C116.143 75.9602 116.085 76.321 116.085 76.7273C116.085 77.1364 116.143 77.5014 116.26 77.8224C116.379 78.1406 116.554 78.392 116.784 78.5767C117.017 78.7585 117.302 78.8494 117.64 78.8494ZM125.237 80.1278C124.581 80.1278 124.014 79.9915 123.537 79.7188C123.063 79.4432 122.697 79.054 122.442 78.5511C122.186 78.0455 122.058 77.4503 122.058 76.7656C122.058 76.0923 122.186 75.5014 122.442 74.9929C122.7 74.4815 123.061 74.0838 123.524 73.7997C123.987 73.5128 124.531 73.3693 125.156 73.3693C125.56 73.3693 125.94 73.4347 126.298 73.5653C126.659 73.6932 126.977 73.892 127.253 74.1619C127.531 74.4318 127.75 74.7756 127.909 75.1932C128.068 75.608 128.148 76.1023 128.148 76.6761V77.1491H122.783V76.1094H126.669C126.666 75.8139 126.602 75.5511 126.477 75.321C126.352 75.0881 126.178 74.9048 125.953 74.7713C125.732 74.6378 125.473 74.571 125.178 74.571C124.862 74.571 124.585 74.6477 124.347 74.8011C124.108 74.9517 123.922 75.1506 123.788 75.3977C123.658 75.642 123.591 75.9105 123.588 76.2031V77.1108C123.588 77.4915 123.658 77.8182 123.797 78.0909C123.936 78.3608 124.131 78.5682 124.381 78.7131C124.631 78.8551 124.923 78.9261 125.259 78.9261C125.483 78.9261 125.686 78.8949 125.868 78.8324C126.05 78.767 126.207 78.6719 126.341 78.5469C126.474 78.4219 126.575 78.267 126.643 78.0824L128.084 78.2443C127.993 78.625 127.82 78.9574 127.564 79.2415C127.311 79.5227 126.987 79.7415 126.592 79.8977C126.197 80.0511 125.746 80.1278 125.237 80.1278ZM132.308 80.1278C131.669 80.1278 131.115 79.9872 130.646 79.706C130.177 79.4247 129.814 79.0312 129.555 78.5256C129.299 78.0199 129.172 77.429 129.172 76.7528C129.172 76.0767 129.299 75.4844 129.555 74.9759C129.814 74.4673 130.177 74.0724 130.646 73.7912C131.115 73.5099 131.669 73.3693 132.308 73.3693C132.947 73.3693 133.501 73.5099 133.97 73.7912C134.439 74.0724 134.801 74.4673 135.056 74.9759C135.315 75.4844 135.444 76.0767 135.444 76.7528C135.444 77.429 135.315 78.0199 135.056 78.5256C134.801 79.0312 134.439 79.4247 133.97 79.706C133.501 79.9872 132.947 80.1278 132.308 80.1278ZM132.316 78.892C132.663 78.892 132.953 78.7969 133.186 78.6065C133.419 78.4134 133.592 78.1548 133.706 77.831C133.822 77.5071 133.88 77.1463 133.88 76.7486C133.88 76.348 133.822 75.9858 133.706 75.6619C133.592 75.3352 133.419 75.0753 133.186 74.8821C132.953 74.6889 132.663 74.5923 132.316 74.5923C131.961 74.5923 131.666 74.6889 131.43 74.8821C131.197 75.0753 131.022 75.3352 130.906 75.6619C130.792 75.9858 130.735 76.348 130.735 76.7486C130.735 77.1463 130.792 77.5071 130.906 77.831C131.022 78.1548 131.197 78.4134 131.43 78.6065C131.666 78.7969 131.961 78.892 132.316 78.892ZM141.927 75.1847L140.521 75.3381C140.481 75.196 140.411 75.0625 140.312 74.9375C140.215 74.8125 140.085 74.7116 139.92 74.6349C139.755 74.5582 139.553 74.5199 139.315 74.5199C138.994 74.5199 138.724 74.5895 138.505 74.7287C138.289 74.8679 138.183 75.0483 138.185 75.2699C138.183 75.4602 138.252 75.6151 138.394 75.7344C138.539 75.8537 138.778 75.9517 139.11 76.0284L140.227 76.267C140.846 76.4006 141.306 76.6122 141.607 76.902C141.911 77.1918 142.065 77.571 142.067 78.0398C142.065 78.4517 141.944 78.8153 141.705 79.1307C141.469 79.4432 141.141 79.6875 140.721 79.8636C140.3 80.0398 139.817 80.1278 139.272 80.1278C138.471 80.1278 137.826 79.9602 137.337 79.625C136.849 79.2869 136.558 78.8168 136.464 78.2145L137.968 78.0696C138.036 78.3651 138.181 78.5881 138.403 78.7386C138.624 78.8892 138.913 78.9645 139.268 78.9645C139.634 78.9645 139.928 78.8892 140.15 78.7386C140.374 78.5881 140.487 78.402 140.487 78.1804C140.487 77.9929 140.414 77.8381 140.269 77.7159C140.127 77.5937 139.906 77.5 139.604 77.4347L138.488 77.2003C137.86 77.0696 137.396 76.8494 137.094 76.5398C136.793 76.2273 136.644 75.8324 136.647 75.3551C136.644 74.9517 136.754 74.6023 136.975 74.3068C137.2 74.0085 137.511 73.7784 137.908 73.6165C138.309 73.4517 138.771 73.3693 139.293 73.3693C140.06 73.3693 140.664 73.5327 141.104 73.8594C141.548 74.1861 141.822 74.6278 141.927 75.1847ZM149.585 73.4545V74.6477H145.822V73.4545H149.585ZM146.751 71.8864H148.293V78.0312C148.293 78.2386 148.325 78.3977 148.387 78.5085C148.452 78.6165 148.538 78.6903 148.643 78.7301C148.748 78.7699 148.864 78.7898 148.992 78.7898C149.089 78.7898 149.177 78.7827 149.256 78.7685C149.339 78.7543 149.401 78.7415 149.444 78.7301L149.704 79.9361C149.621 79.9645 149.504 79.9957 149.35 80.0298C149.2 80.0639 149.015 80.0838 148.796 80.0895C148.41 80.1009 148.062 80.0426 147.752 79.9148C147.442 79.7841 147.197 79.5824 147.015 79.3097C146.836 79.0369 146.748 78.696 146.751 78.2869V71.8864ZM153.659 80.1278C153.02 80.1278 152.466 79.9872 151.998 79.706C151.529 79.4247 151.165 79.0312 150.907 78.5256C150.651 78.0199 150.523 77.429 150.523 76.7528C150.523 76.0767 150.651 75.4844 150.907 74.9759C151.165 74.4673 151.529 74.0724 151.998 73.7912C152.466 73.5099 153.02 73.3693 153.659 73.3693C154.299 73.3693 154.853 73.5099 155.321 73.7912C155.79 74.0724 156.152 74.4673 156.408 74.9759C156.667 75.4844 156.796 76.0767 156.796 76.7528C156.796 77.429 156.667 78.0199 156.408 78.5256C156.152 79.0312 155.79 79.4247 155.321 79.706C154.853 79.9872 154.299 80.1278 153.659 80.1278ZM153.668 78.892C154.015 78.892 154.304 78.7969 154.537 78.6065C154.77 78.4134 154.944 78.1548 155.057 77.831C155.174 77.5071 155.232 77.1463 155.232 76.7486C155.232 76.348 155.174 75.9858 155.057 75.6619C154.944 75.3352 154.77 75.0753 154.537 74.8821C154.304 74.6889 154.015 74.5923 153.668 74.5923C153.313 74.5923 153.017 74.6889 152.782 74.8821C152.549 75.0753 152.374 75.3352 152.257 75.6619C152.144 75.9858 152.087 76.348 152.087 76.7486C152.087 77.1463 152.144 77.5071 152.257 77.831C152.374 78.1548 152.549 78.4134 152.782 78.6065C153.017 78.7969 153.313 78.892 153.668 78.892ZM161.15 80V71.2727H162.692V74.5369H162.756C162.836 74.3778 162.948 74.2088 163.093 74.0298C163.238 73.848 163.434 73.6932 163.681 73.5653C163.928 73.4347 164.244 73.3693 164.627 73.3693C165.133 73.3693 165.589 73.4986 165.995 73.7571C166.404 74.0128 166.728 74.392 166.967 74.8949C167.208 75.3949 167.329 76.0085 167.329 76.7358C167.329 77.4545 167.211 78.0653 166.975 78.5682C166.739 79.071 166.418 79.4545 166.012 79.7188C165.606 79.983 165.146 80.1151 164.631 80.1151C164.256 80.1151 163.945 80.0526 163.698 79.9276C163.451 79.8026 163.252 79.652 163.102 79.4759C162.954 79.2969 162.839 79.1278 162.756 78.9688H162.667V80H161.15ZM162.663 76.7273C162.663 77.1506 162.722 77.5213 162.842 77.8395C162.964 78.1577 163.138 78.4062 163.366 78.5852C163.596 78.7614 163.874 78.8494 164.201 78.8494C164.542 78.8494 164.827 78.7585 165.058 78.5767C165.288 78.392 165.461 78.1406 165.577 77.8224C165.697 77.5014 165.756 77.1364 165.756 76.7273C165.756 76.321 165.698 75.9602 165.582 75.6449C165.465 75.3295 165.292 75.0824 165.062 74.9034C164.832 74.7244 164.545 74.6349 164.201 74.6349C163.871 74.6349 163.592 74.7216 163.362 74.8949C163.131 75.0682 162.957 75.3111 162.837 75.6236C162.721 75.9361 162.663 76.304 162.663 76.7273ZM171.495 80.1278C170.856 80.1278 170.302 79.9872 169.833 79.706C169.365 79.4247 169.001 79.0312 168.743 78.5256C168.487 78.0199 168.359 77.429 168.359 76.7528C168.359 76.0767 168.487 75.4844 168.743 74.9759C169.001 74.4673 169.365 74.0724 169.833 73.7912C170.302 73.5099 170.856 73.3693 171.495 73.3693C172.135 73.3693 172.689 73.5099 173.157 73.7912C173.626 74.0724 173.988 74.4673 174.244 74.9759C174.502 75.4844 174.632 76.0767 174.632 76.7528C174.632 77.429 174.502 78.0199 174.244 78.5256C173.988 79.0312 173.626 79.4247 173.157 79.706C172.689 79.9872 172.135 80.1278 171.495 80.1278ZM171.504 78.892C171.85 78.892 172.14 78.7969 172.373 78.6065C172.606 78.4134 172.779 78.1548 172.893 77.831C173.01 77.5071 173.068 77.1463 173.068 76.7486C173.068 76.348 173.01 75.9858 172.893 75.6619C172.779 75.3352 172.606 75.0753 172.373 74.8821C172.14 74.6889 171.85 74.5923 171.504 74.5923C171.149 74.5923 170.853 74.6889 170.618 74.8821C170.385 75.0753 170.21 75.3352 170.093 75.6619C169.98 75.9858 169.923 76.348 169.923 76.7486C169.923 77.1463 169.98 77.5071 170.093 77.831C170.21 78.1548 170.385 78.4134 170.618 78.6065C170.853 78.7969 171.149 78.892 171.504 78.892ZM178.796 80.1278C178.157 80.1278 177.603 79.9872 177.134 79.706C176.665 79.4247 176.302 79.0312 176.043 78.5256C175.788 78.0199 175.66 77.429 175.66 76.7528C175.66 76.0767 175.788 75.4844 176.043 74.9759C176.302 74.4673 176.665 74.0724 177.134 73.7912C177.603 73.5099 178.157 73.3693 178.796 73.3693C179.435 73.3693 179.989 73.5099 180.458 73.7912C180.927 74.0724 181.289 74.4673 181.545 74.9759C181.803 75.4844 181.933 76.0767 181.933 76.7528C181.933 77.429 181.803 78.0199 181.545 78.5256C181.289 79.0312 180.927 79.4247 180.458 79.706C179.989 79.9872 179.435 80.1278 178.796 80.1278ZM178.805 78.892C179.151 78.892 179.441 78.7969 179.674 78.6065C179.907 78.4134 180.08 78.1548 180.194 77.831C180.31 77.5071 180.369 77.1463 180.369 76.7486C180.369 76.348 180.31 75.9858 180.194 75.6619C180.08 75.3352 179.907 75.0753 179.674 74.8821C179.441 74.6889 179.151 74.5923 178.805 74.5923C178.45 74.5923 178.154 74.6889 177.918 74.8821C177.685 75.0753 177.511 75.3352 177.394 75.6619C177.281 75.9858 177.224 76.348 177.224 76.7486C177.224 77.1463 177.281 77.5071 177.394 77.831C177.511 78.1548 177.685 78.4134 177.918 78.6065C178.154 78.7969 178.45 78.892 178.805 78.892ZM188.415 75.1847L187.009 75.3381C186.969 75.196 186.9 75.0625 186.8 74.9375C186.703 74.8125 186.573 74.7116 186.408 74.6349C186.243 74.5582 186.042 74.5199 185.803 74.5199C185.482 74.5199 185.212 74.5895 184.993 74.7287C184.777 74.8679 184.671 75.0483 184.674 75.2699C184.671 75.4602 184.74 75.6151 184.882 75.7344C185.027 75.8537 185.266 75.9517 185.598 76.0284L186.715 76.267C187.334 76.4006 187.794 76.6122 188.096 76.902C188.4 77.1918 188.553 77.571 188.556 78.0398C188.553 78.4517 188.432 78.8153 188.194 79.1307C187.958 79.4432 187.63 79.6875 187.209 79.8636C186.789 80.0398 186.306 80.1278 185.76 80.1278C184.959 80.1278 184.314 79.9602 183.826 79.625C183.337 79.2869 183.046 78.8168 182.952 78.2145L184.456 78.0696C184.525 78.3651 184.669 78.5881 184.891 78.7386C185.113 78.8892 185.401 78.9645 185.756 78.9645C186.123 78.9645 186.417 78.8892 186.638 78.7386C186.863 78.5881 186.975 78.402 186.975 78.1804C186.975 77.9929 186.902 77.8381 186.757 77.7159C186.615 77.5937 186.394 77.5 186.093 77.4347L184.976 77.2003C184.348 77.0696 183.884 76.8494 183.583 76.5398C183.282 76.2273 183.132 75.8324 183.135 75.3551C183.132 74.9517 183.242 74.6023 183.463 74.3068C183.688 74.0085 183.999 73.7784 184.397 73.6165C184.797 73.4517 185.259 73.3693 185.782 73.3693C186.549 73.3693 187.152 73.5327 187.593 73.8594C188.036 74.1861 188.31 74.6278 188.415 75.1847ZM193.096 73.4545V74.6477H189.333V73.4545H193.096ZM190.262 71.8864H191.805V78.0312C191.805 78.2386 191.836 78.3977 191.899 78.5085C191.964 78.6165 192.049 78.6903 192.154 78.7301C192.26 78.7699 192.376 78.7898 192.504 78.7898C192.6 78.7898 192.689 78.7827 192.768 78.7685C192.85 78.7543 192.913 78.7415 192.956 78.7301L193.216 79.9361C193.133 79.9645 193.015 79.9957 192.862 80.0298C192.711 80.0639 192.527 80.0838 192.308 80.0895C191.922 80.1009 191.574 80.0426 191.264 79.9148C190.954 79.7841 190.708 79.5824 190.527 79.3097C190.348 79.0369 190.26 78.696 190.262 78.2869V71.8864ZM198.322 82.4545C198.112 82.4545 197.917 82.4375 197.738 82.4034C197.562 82.3722 197.421 82.3352 197.316 82.2926L197.674 81.0909C197.898 81.1563 198.099 81.1875 198.275 81.1847C198.451 81.1818 198.606 81.1264 198.739 81.0185C198.876 80.9134 198.991 80.7372 199.085 80.4901L199.217 80.1364L196.843 73.4545H198.479L199.988 78.3977H200.056L201.569 73.4545H203.21L200.589 80.7926C200.467 81.1392 200.305 81.4361 200.103 81.6832C199.901 81.9332 199.654 82.1236 199.362 82.2543C199.072 82.3878 198.725 82.4545 198.322 82.4545ZM206.909 80.1278C206.27 80.1278 205.716 79.9872 205.248 79.706C204.779 79.4247 204.415 79.0312 204.157 78.5256C203.901 78.0199 203.773 77.429 203.773 76.7528C203.773 76.0767 203.901 75.4844 204.157 74.9759C204.415 74.4673 204.779 74.0724 205.248 73.7912C205.716 73.5099 206.27 73.3693 206.909 73.3693C207.549 73.3693 208.103 73.5099 208.571 73.7912C209.04 74.0724 209.402 74.4673 209.658 74.9759C209.917 75.4844 210.046 76.0767 210.046 76.7528C210.046 77.429 209.917 78.0199 209.658 78.5256C209.402 79.0312 209.04 79.4247 208.571 79.706C208.103 79.9872 207.549 80.1278 206.909 80.1278ZM206.918 78.892C207.265 78.892 207.554 78.7969 207.787 78.6065C208.02 78.4134 208.194 78.1548 208.307 77.831C208.424 77.5071 208.482 77.1463 208.482 76.7486C208.482 76.348 208.424 75.9858 208.307 75.6619C208.194 75.3352 208.02 75.0753 207.787 74.8821C207.554 74.6889 207.265 74.5923 206.918 74.5923C206.563 74.5923 206.267 74.6889 206.032 74.8821C205.799 75.0753 205.624 75.3352 205.507 75.6619C205.394 75.9858 205.337 76.348 205.337 76.7486C205.337 77.1463 205.394 77.5071 205.507 77.831C205.624 78.1548 205.799 78.4134 206.032 78.6065C206.267 78.7969 206.563 78.892 206.918 78.892ZM215.527 77.2472V73.4545H217.07V80H215.574V78.8366H215.506C215.358 79.2031 215.115 79.5028 214.777 79.7358C214.442 79.9687 214.028 80.0852 213.537 80.0852C213.108 80.0852 212.729 79.9901 212.399 79.7997C212.072 79.6065 211.817 79.3267 211.632 78.9602C211.447 78.5909 211.355 78.1449 211.355 77.6222V73.4545H212.898V77.3835C212.898 77.7983 213.011 78.1278 213.239 78.3722C213.466 78.6165 213.764 78.7386 214.134 78.7386C214.361 78.7386 214.581 78.6832 214.794 78.5724C215.007 78.4616 215.182 78.2969 215.318 78.0781C215.457 77.8565 215.527 77.5795 215.527 77.2472ZM218.656 80V73.4545H220.152V74.5455H220.22C220.339 74.1676 220.544 73.8764 220.833 73.6719C221.126 73.4645 221.46 73.3608 221.835 73.3608C221.92 73.3608 222.015 73.3651 222.12 73.3736C222.228 73.3793 222.318 73.3892 222.389 73.4034V74.8224C222.324 74.7997 222.22 74.7798 222.078 74.7628C221.939 74.7429 221.804 74.733 221.673 74.733C221.392 74.733 221.139 74.794 220.914 74.9162C220.693 75.0355 220.518 75.2017 220.39 75.4148C220.262 75.6278 220.199 75.8736 220.199 76.152V80H218.656ZM226.39 80V73.4545H227.865V74.5668H227.941C228.078 74.1918 228.304 73.8991 228.619 73.6889C228.934 73.4759 229.311 73.3693 229.748 73.3693C230.191 73.3693 230.565 73.4773 230.869 73.6932C231.176 73.9062 231.392 74.1974 231.517 74.5668H231.585C231.73 74.2031 231.974 73.9134 232.318 73.6974C232.664 73.4787 233.075 73.3693 233.549 73.3693C234.152 73.3693 234.643 73.5597 235.024 73.9403C235.404 74.321 235.595 74.8764 235.595 75.6065V80H234.048V75.8452C234.048 75.4389 233.94 75.142 233.724 74.9545C233.508 74.7642 233.244 74.669 232.931 74.669C232.559 74.669 232.268 74.7855 232.058 75.0185C231.85 75.2486 231.747 75.5483 231.747 75.9176V80H230.234V75.7812C230.234 75.4432 230.132 75.1733 229.927 74.9716C229.725 74.7699 229.461 74.669 229.135 74.669C228.913 74.669 228.711 74.7259 228.529 74.8395C228.348 74.9503 228.203 75.108 228.095 75.3125C227.987 75.5142 227.933 75.75 227.933 76.0199V80H226.39ZM240.015 80.1278C239.376 80.1278 238.822 79.9872 238.353 79.706C237.884 79.4247 237.521 79.0312 237.262 78.5256C237.006 78.0199 236.879 77.429 236.879 76.7528C236.879 76.0767 237.006 75.4844 237.262 74.9759C237.521 74.4673 237.884 74.0724 238.353 73.7912C238.822 73.5099 239.376 73.3693 240.015 73.3693C240.654 73.3693 241.208 73.5099 241.677 73.7912C242.146 74.0724 242.508 74.4673 242.763 74.9759C243.022 75.4844 243.151 76.0767 243.151 76.7528C243.151 77.429 243.022 78.0199 242.763 78.5256C242.508 79.0312 242.146 79.4247 241.677 79.706C241.208 79.9872 240.654 80.1278 240.015 80.1278ZM240.023 78.892C240.37 78.892 240.66 78.7969 240.893 78.6065C241.126 78.4134 241.299 78.1548 241.413 77.831C241.529 77.5071 241.587 77.1463 241.587 76.7486C241.587 76.348 241.529 75.9858 241.413 75.6619C241.299 75.3352 241.126 75.0753 240.893 74.8821C240.66 74.6889 240.37 74.5923 240.023 74.5923C239.668 74.5923 239.373 74.6889 239.137 74.8821C238.904 75.0753 238.729 75.3352 238.613 75.6619C238.499 75.9858 238.442 76.348 238.442 76.7486C238.442 77.1463 238.499 77.5071 238.613 77.831C238.729 78.1548 238.904 78.4134 239.137 78.6065C239.373 78.7969 239.668 78.892 240.023 78.892ZM247.316 80.1278C246.676 80.1278 246.123 79.9872 245.654 79.706C245.185 79.4247 244.821 79.0312 244.563 78.5256C244.307 78.0199 244.179 77.429 244.179 76.7528C244.179 76.0767 244.307 75.4844 244.563 74.9759C244.821 74.4673 245.185 74.0724 245.654 73.7912C246.123 73.5099 246.676 73.3693 247.316 73.3693C247.955 73.3693 248.509 73.5099 248.978 73.7912C249.446 74.0724 249.809 74.4673 250.064 74.9759C250.323 75.4844 250.452 76.0767 250.452 76.7528C250.452 77.429 250.323 78.0199 250.064 78.5256C249.809 79.0312 249.446 79.4247 248.978 79.706C248.509 79.9872 247.955 80.1278 247.316 80.1278ZM247.324 78.892C247.671 78.892 247.961 78.7969 248.194 78.6065C248.426 78.4134 248.6 78.1548 248.713 77.831C248.83 77.5071 248.888 77.1463 248.888 76.7486C248.888 76.348 248.83 75.9858 248.713 75.6619C248.6 75.3352 248.426 75.0753 248.194 74.8821C247.961 74.6889 247.671 74.5923 247.324 74.5923C246.969 74.5923 246.674 74.6889 246.438 74.8821C246.205 75.0753 246.03 75.3352 245.914 75.6619C245.8 75.9858 245.743 76.348 245.743 76.7486C245.743 77.1463 245.8 77.5071 245.914 77.831C246.03 78.1548 246.205 78.4134 246.438 78.6065C246.674 78.7969 246.969 78.892 247.324 78.892ZM254.19 80.1151C253.676 80.1151 253.216 79.983 252.81 79.7188C252.403 79.4545 252.082 79.071 251.847 78.5682C251.611 78.0653 251.493 77.4545 251.493 76.7358C251.493 76.0085 251.612 75.3949 251.851 74.8949C252.092 74.392 252.418 74.0128 252.827 73.7571C253.236 73.4986 253.692 73.3693 254.195 73.3693C254.578 73.3693 254.893 73.4347 255.141 73.5653C255.388 73.6932 255.584 73.848 255.729 74.0298C255.874 74.2088 255.986 74.3778 256.065 74.5369H256.129V71.2727H257.676V80H256.159V78.9688H256.065C255.986 79.1278 255.871 79.2969 255.72 79.4759C255.57 79.652 255.371 79.8026 255.124 79.9276C254.876 80.0526 254.565 80.1151 254.19 80.1151ZM254.621 78.8494C254.947 78.8494 255.226 78.7614 255.456 78.5852C255.686 78.4062 255.861 78.1577 255.98 77.8395C256.099 77.5213 256.159 77.1506 256.159 76.7273C256.159 76.304 256.099 75.9361 255.98 75.6236C255.864 75.3111 255.69 75.0682 255.46 74.8949C255.233 74.7216 254.953 74.6349 254.621 74.6349C254.277 74.6349 253.99 74.7244 253.76 74.9034C253.53 75.0824 253.357 75.3295 253.24 75.6449C253.124 75.9602 253.065 76.321 253.065 76.7273C253.065 77.1364 253.124 77.5014 253.24 77.8224C253.359 78.1406 253.534 78.392 253.764 78.5767C253.997 78.7585 254.283 78.8494 254.621 78.8494ZM265.152 80.1278C264.512 80.1278 263.958 79.9872 263.49 79.706C263.021 79.4247 262.657 79.0312 262.399 78.5256C262.143 78.0199 262.015 77.429 262.015 76.7528C262.015 76.0767 262.143 75.4844 262.399 74.9759C262.657 74.4673 263.021 74.0724 263.49 73.7912C263.958 73.5099 264.512 73.3693 265.152 73.3693C265.791 73.3693 266.345 73.5099 266.814 73.7912C267.282 74.0724 267.645 74.4673 267.9 74.9759C268.159 75.4844 268.288 76.0767 268.288 76.7528C268.288 77.429 268.159 78.0199 267.9 78.5256C267.645 79.0312 267.282 79.4247 266.814 79.706C266.345 79.9872 265.791 80.1278 265.152 80.1278ZM265.16 78.892C265.507 78.892 265.797 78.7969 266.029 78.6065C266.262 78.4134 266.436 78.1548 266.549 77.831C266.666 77.5071 266.724 77.1463 266.724 76.7486C266.724 76.348 266.666 75.9858 266.549 75.6619C266.436 75.3352 266.262 75.0753 266.029 74.8821C265.797 74.6889 265.507 74.5923 265.16 74.5923C264.805 74.5923 264.51 74.6889 264.274 74.8821C264.041 75.0753 263.866 75.3352 263.75 75.6619C263.636 75.9858 263.579 76.348 263.579 76.7486C263.579 77.1463 263.636 77.5071 263.75 77.831C263.866 78.1548 264.041 78.4134 264.274 78.6065C264.51 78.7969 264.805 78.892 265.16 78.892ZM269.597 80V73.4545H271.093V74.5455H271.161C271.281 74.1676 271.485 73.8764 271.775 73.6719C272.067 73.4645 272.401 73.3608 272.776 73.3608C272.862 73.3608 272.957 73.3651 273.062 73.3736C273.17 73.3793 273.259 73.3892 273.33 73.4034V74.8224C273.265 74.7997 273.161 74.7798 273.019 74.7628C272.88 74.7429 272.745 74.733 272.614 74.733C272.333 74.733 272.08 74.794 271.856 74.9162C271.634 75.0355 271.46 75.2017 271.332 75.4148C271.204 75.6278 271.14 75.8736 271.14 76.152V80H269.597ZM30.7926 88.4545H32.3352V95.375C32.3352 95.8466 32.2457 96.2358 32.0668 96.5426C31.8878 96.8494 31.6293 97.0781 31.2912 97.2287C30.9531 97.3793 30.5426 97.4545 30.0597 97.4545C30.0028 97.4545 29.9503 97.4531 29.902 97.4503C29.8537 97.4503 29.8011 97.4489 29.7443 97.446V96.1889C29.7869 96.1918 29.8253 96.1932 29.8594 96.1932C29.8935 96.196 29.929 96.1974 29.9659 96.1974C30.2614 96.1974 30.473 96.125 30.6009 95.9801C30.7287 95.8381 30.7926 95.6293 30.7926 95.3537V88.4545ZM31.5597 87.5256C31.3125 87.5256 31.1009 87.4446 30.9247 87.2827C30.7514 87.1179 30.6648 86.9205 30.6648 86.6903C30.6648 86.4574 30.7514 86.2599 30.9247 86.098C31.1009 85.9332 31.3125 85.8509 31.5597 85.8509C31.804 85.8509 32.0128 85.9332 32.1861 86.098C32.3622 86.2599 32.4503 86.4574 32.4503 86.6903C32.4503 86.9205 32.3622 87.1179 32.1861 87.2827C32.0128 87.4446 31.804 87.5256 31.5597 87.5256ZM38.0934 92.2472V88.4545H39.636V95H38.1403V93.8366H38.0721C37.9244 94.2031 37.6815 94.5028 37.3434 94.7358C37.0082 94.9687 36.5948 95.0852 36.1033 95.0852C35.6744 95.0852 35.2951 94.9901 34.9656 94.7997C34.6388 94.6065 34.3832 94.3267 34.1985 93.9602C34.0138 93.5909 33.9215 93.1449 33.9215 92.6222V88.4545H35.4641V92.3835C35.4641 92.7983 35.5778 93.1278 35.805 93.3722C36.0323 93.6165 36.3306 93.7386 36.6999 93.7386C36.9272 93.7386 37.1474 93.6832 37.3604 93.5724C37.5735 93.4616 37.7482 93.2969 37.8846 93.0781C38.0238 92.8565 38.0934 92.5795 38.0934 92.2472ZM46.3956 90.1847L44.9893 90.3381C44.9496 90.196 44.88 90.0625 44.7805 89.9375C44.6839 89.8125 44.5533 89.7116 44.3885 89.6349C44.2237 89.5582 44.022 89.5199 43.7834 89.5199C43.4624 89.5199 43.1925 89.5895 42.9737 89.7287C42.7578 89.8679 42.6513 90.0483 42.6541 90.2699C42.6513 90.4602 42.7209 90.6151 42.8629 90.7344C43.0078 90.8537 43.2464 90.9517 43.5788 91.0284L44.6953 91.267C45.3146 91.4006 45.7749 91.6122 46.076 91.902C46.38 92.1918 46.5334 92.571 46.5362 93.0398C46.5334 93.4517 46.4126 93.8153 46.174 94.1307C45.9382 94.4432 45.6101 94.6875 45.1896 94.8636C44.7692 95.0398 44.2862 95.1278 43.7408 95.1278C42.9396 95.1278 42.2947 94.9602 41.8061 94.625C41.3175 94.2869 41.0263 93.8168 40.9325 93.2145L42.4368 93.0696C42.505 93.3651 42.6499 93.5881 42.8714 93.7386C43.093 93.8892 43.3814 93.9645 43.7365 93.9645C44.103 93.9645 44.397 93.8892 44.6186 93.7386C44.843 93.5881 44.9553 93.402 44.9553 93.1804C44.9553 92.9929 44.8828 92.8381 44.7379 92.7159C44.5959 92.5937 44.3743 92.5 44.0732 92.4347L42.9567 92.2003C42.3288 92.0696 41.8643 91.8494 41.5632 91.5398C41.2621 91.2273 41.1129 90.8324 41.1158 90.3551C41.1129 89.9517 41.2223 89.6023 41.4439 89.3068C41.6683 89.0085 41.9794 88.7784 42.3771 88.6165C42.7777 88.4517 43.2393 88.3693 43.7621 88.3693C44.5291 88.3693 45.1328 88.5327 45.5732 88.8594C46.0163 89.1861 46.2905 89.6278 46.3956 90.1847ZM51.0767 88.4545V89.6477H47.3139V88.4545H51.0767ZM48.2429 86.8864H49.7855V93.0312C49.7855 93.2386 49.8168 93.3977 49.8793 93.5085C49.9446 93.6165 50.0298 93.6903 50.1349 93.7301C50.2401 93.7699 50.3565 93.7898 50.4844 93.7898C50.581 93.7898 50.669 93.7827 50.7486 93.7685C50.831 93.7543 50.8935 93.7415 50.9361 93.7301L51.196 94.9361C51.1136 94.9645 50.9957 94.9957 50.8423 95.0298C50.6918 95.0639 50.5071 95.0838 50.2884 95.0895C49.902 95.1009 49.554 95.0426 49.2443 94.9148C48.9347 94.7841 48.6889 94.5824 48.5071 94.3097C48.3281 94.0369 48.2401 93.696 48.2429 93.2869V86.8864ZM58.6587 88.4545V89.6477H54.7894V88.4545H58.6587ZM55.7567 95V87.8366C55.7567 87.3963 55.8477 87.0298 56.0295 86.7372C56.2141 86.4446 56.4613 86.2259 56.771 86.081C57.0806 85.9361 57.4244 85.8636 57.8022 85.8636C58.0692 85.8636 58.3065 85.8849 58.5138 85.9276C58.7212 85.9702 58.8746 86.0085 58.9741 86.0426L58.6673 87.2358C58.6019 87.2159 58.5195 87.196 58.4201 87.1761C58.3207 87.1534 58.2099 87.142 58.0877 87.142C57.8008 87.142 57.5977 87.2116 57.4783 87.3509C57.3619 87.4872 57.3036 87.6832 57.3036 87.9389V95H55.7567ZM62.4759 95.1278C61.8366 95.1278 61.2827 94.9872 60.8139 94.706C60.3452 94.4247 59.9815 94.0312 59.723 93.5256C59.4673 93.0199 59.3395 92.429 59.3395 91.7528C59.3395 91.0767 59.4673 90.4844 59.723 89.9759C59.9815 89.4673 60.3452 89.0724 60.8139 88.7912C61.2827 88.5099 61.8366 88.3693 62.4759 88.3693C63.1151 88.3693 63.669 88.5099 64.1378 88.7912C64.6065 89.0724 64.9688 89.4673 65.2244 89.9759C65.483 90.4844 65.6122 91.0767 65.6122 91.7528C65.6122 92.429 65.483 93.0199 65.2244 93.5256C64.9688 94.0312 64.6065 94.4247 64.1378 94.706C63.669 94.9872 63.1151 95.1278 62.4759 95.1278ZM62.4844 93.892C62.831 93.892 63.1207 93.7969 63.3537 93.6065C63.5866 93.4134 63.7599 93.1548 63.8736 92.831C63.9901 92.5071 64.0483 92.1463 64.0483 91.7486C64.0483 91.348 63.9901 90.9858 63.8736 90.6619C63.7599 90.3352 63.5866 90.0753 63.3537 89.8821C63.1207 89.6889 62.831 89.5923 62.4844 89.5923C62.1293 89.5923 61.8338 89.6889 61.598 89.8821C61.3651 90.0753 61.1903 90.3352 61.0739 90.6619C60.9602 90.9858 60.9034 91.348 60.9034 91.7486C60.9034 92.1463 60.9602 92.5071 61.0739 92.831C61.1903 93.1548 61.3651 93.4134 61.598 93.6065C61.8338 93.7969 62.1293 93.892 62.4844 93.892ZM66.9215 95V88.4545H68.4173V89.5455H68.4854C68.6048 89.1676 68.8093 88.8764 69.0991 88.6719C69.3917 88.4645 69.7255 88.3608 70.1005 88.3608C70.1857 88.3608 70.2809 88.3651 70.386 88.3736C70.494 88.3793 70.5835 88.3892 70.6545 88.4034V89.8224C70.5891 89.7997 70.4854 89.7798 70.3434 89.7628C70.2042 89.7429 70.0692 89.733 69.9386 89.733C69.6573 89.733 69.4045 89.794 69.18 89.9162C68.9585 90.0355 68.7837 90.2017 68.6559 90.4148C68.5281 90.6278 68.4641 90.8736 68.4641 91.152V95H66.9215ZM76.5394 95.1321C76.1246 95.1321 75.7511 95.0582 75.4187 94.9105C75.0891 94.7599 74.8278 94.5384 74.6346 94.2457C74.4442 93.9531 74.3491 93.5923 74.3491 93.1634C74.3491 92.794 74.4173 92.4886 74.5536 92.2472C74.69 92.0057 74.8761 91.8125 75.1119 91.6676C75.3477 91.5227 75.6133 91.4134 75.9087 91.3395C76.207 91.2628 76.5153 91.2074 76.8335 91.1733C77.217 91.1335 77.5281 91.098 77.7667 91.0668C78.0053 91.0327 78.1786 90.9815 78.2866 90.9134C78.3974 90.8423 78.4528 90.733 78.4528 90.5852V90.5597C78.4528 90.2386 78.3576 89.9901 78.1673 89.8139C77.9769 89.6378 77.7028 89.5497 77.3448 89.5497C76.967 89.5497 76.6673 89.6321 76.4457 89.7969C76.2269 89.9616 76.0792 90.1562 76.0025 90.3807L74.5621 90.1761C74.6758 89.7784 74.8633 89.446 75.1246 89.179C75.386 88.9091 75.7056 88.7074 76.0835 88.5739C76.4613 88.4375 76.8789 88.3693 77.3363 88.3693C77.6516 88.3693 77.9656 88.4062 78.2781 88.4801C78.5906 88.554 78.8761 88.6761 79.1346 88.8466C79.3931 89.0142 79.6005 89.2429 79.7567 89.5327C79.9158 89.8224 79.9954 90.1847 79.9954 90.6193V95H78.5124V94.1009H78.4613C78.3675 94.2827 78.2354 94.4531 78.065 94.6122C77.8974 94.7685 77.6857 94.8949 77.43 94.9915C77.1772 95.0852 76.8803 95.1321 76.5394 95.1321ZM76.94 93.9986C77.2496 93.9986 77.5181 93.9375 77.7454 93.8153C77.9727 93.6903 78.1474 93.5256 78.2695 93.321C78.3945 93.1165 78.457 92.8935 78.457 92.652V91.8807C78.4087 91.9205 78.3263 91.9574 78.2099 91.9915C78.0962 92.0256 77.9684 92.0554 77.8263 92.081C77.6843 92.1065 77.5437 92.1293 77.4045 92.1491C77.2653 92.169 77.1445 92.1861 77.0423 92.2003C76.8121 92.2315 76.6062 92.2827 76.4244 92.3537C76.2425 92.4247 76.0991 92.5241 75.994 92.652C75.8888 92.777 75.8363 92.9389 75.8363 93.1378C75.8363 93.4219 75.94 93.6364 76.1474 93.7812C76.3548 93.9261 76.619 93.9986 76.94 93.9986ZM87.3697 97.5909C86.8157 97.5909 86.3398 97.5156 85.9421 97.3651C85.5444 97.2173 85.2248 97.0185 84.9833 96.7685C84.7418 96.5185 84.5742 96.2415 84.4805 95.9375L85.8697 95.6009C85.9322 95.7287 86.0231 95.8551 86.1424 95.9801C86.2617 96.108 86.4222 96.2131 86.6239 96.2955C86.8285 96.3807 87.0856 96.4233 87.3952 96.4233C87.8327 96.4233 88.195 96.3168 88.4819 96.1037C88.7688 95.8935 88.9123 95.5469 88.9123 95.0639V93.8239H88.8356C88.756 93.983 88.6396 94.1463 88.4862 94.3139C88.3356 94.4815 88.1353 94.6222 87.8853 94.7358C87.6381 94.8494 87.3271 94.9062 86.9521 94.9062C86.4492 94.9062 85.9933 94.7884 85.5842 94.5526C85.1779 94.3139 84.854 93.9588 84.6126 93.4872C84.3739 93.0128 84.2546 92.419 84.2546 91.706C84.2546 90.9872 84.3739 90.3807 84.6126 89.8864C84.854 89.3892 85.1793 89.0128 85.5884 88.7571C85.9975 88.4986 86.4535 88.3693 86.9563 88.3693C87.3398 88.3693 87.6552 88.4347 87.9023 88.5653C88.1523 88.6932 88.3512 88.848 88.4989 89.0298C88.6467 89.2088 88.7589 89.3778 88.8356 89.5369H88.9208V88.4545H90.4421V95.1065C90.4421 95.6662 90.3086 96.1293 90.0415 96.4957C89.7745 96.8622 89.4094 97.1364 88.9464 97.3182C88.4833 97.5 87.9577 97.5909 87.3697 97.5909ZM87.3825 93.696C87.7092 93.696 87.9876 93.6165 88.2177 93.4574C88.4478 93.2983 88.6225 93.0696 88.7418 92.7713C88.8612 92.473 88.9208 92.1151 88.9208 91.6974C88.9208 91.2855 88.8612 90.9247 88.7418 90.6151C88.6254 90.3054 88.4521 90.0653 88.2219 89.8949C87.9947 89.7216 87.7148 89.6349 87.3825 89.6349C87.0387 89.6349 86.7518 89.7244 86.5217 89.9034C86.2915 90.0824 86.1183 90.3281 86.0018 90.6406C85.8853 90.9503 85.8271 91.3026 85.8271 91.6974C85.8271 92.098 85.8853 92.4489 86.0018 92.75C86.1211 93.0483 86.2958 93.2812 86.5259 93.4489C86.7589 93.6136 87.0444 93.696 87.3825 93.696ZM94.8782 95.1278C94.239 95.1278 93.685 94.9872 93.2163 94.706C92.7475 94.4247 92.3839 94.0312 92.1254 93.5256C91.8697 93.0199 91.7418 92.429 91.7418 91.7528C91.7418 91.0767 91.8697 90.4844 92.1254 89.9759C92.3839 89.4673 92.7475 89.0724 93.2163 88.7912C93.685 88.5099 94.239 88.3693 94.8782 88.3693C95.5174 88.3693 96.0714 88.5099 96.5401 88.7912C97.0089 89.0724 97.3711 89.4673 97.6268 89.9759C97.8853 90.4844 98.0146 91.0767 98.0146 91.7528C98.0146 92.429 97.8853 93.0199 97.6268 93.5256C97.3711 94.0312 97.0089 94.4247 96.5401 94.706C96.0714 94.9872 95.5174 95.1278 94.8782 95.1278ZM94.8867 93.892C95.2333 93.892 95.5231 93.7969 95.756 93.6065C95.989 93.4134 96.1623 93.1548 96.2759 92.831C96.3924 92.5071 96.4506 92.1463 96.4506 91.7486C96.4506 91.348 96.3924 90.9858 96.2759 90.6619C96.1623 90.3352 95.989 90.0753 95.756 89.8821C95.5231 89.6889 95.2333 89.5923 94.8867 89.5923C94.5316 89.5923 94.2362 89.6889 94.0004 89.8821C93.7674 90.0753 93.5927 90.3352 93.4762 90.6619C93.3626 90.9858 93.3058 91.348 93.3058 91.7486C93.3058 92.1463 93.3626 92.5071 93.4762 92.831C93.5927 93.1548 93.7674 93.4134 94.0004 93.6065C94.2362 93.7969 94.5316 93.892 94.8867 93.892ZM102.179 95.1278C101.54 95.1278 100.986 94.9872 100.517 94.706C100.048 94.4247 99.6847 94.0312 99.4261 93.5256C99.1705 93.0199 99.0426 92.429 99.0426 91.7528C99.0426 91.0767 99.1705 90.4844 99.4261 89.9759C99.6847 89.4673 100.048 89.0724 100.517 88.7912C100.986 88.5099 101.54 88.3693 102.179 88.3693C102.818 88.3693 103.372 88.5099 103.841 88.7912C104.31 89.0724 104.672 89.4673 104.928 89.9759C105.186 90.4844 105.315 91.0767 105.315 91.7528C105.315 92.429 105.186 93.0199 104.928 93.5256C104.672 94.0312 104.31 94.4247 103.841 94.706C103.372 94.9872 102.818 95.1278 102.179 95.1278ZM102.188 93.892C102.534 93.892 102.824 93.7969 103.057 93.6065C103.29 93.4134 103.463 93.1548 103.577 92.831C103.693 92.5071 103.751 92.1463 103.751 91.7486C103.751 91.348 103.693 90.9858 103.577 90.6619C103.463 90.3352 103.29 90.0753 103.057 89.8821C102.824 89.6889 102.534 89.5923 102.188 89.5923C101.832 89.5923 101.537 89.6889 101.301 89.8821C101.068 90.0753 100.893 90.3352 100.777 90.6619C100.663 90.9858 100.607 91.348 100.607 91.7486C100.607 92.1463 100.663 92.5071 100.777 92.831C100.893 93.1548 101.068 93.4134 101.301 93.6065C101.537 93.7969 101.832 93.892 102.188 93.892ZM109.054 95.1151C108.539 95.1151 108.079 94.983 107.673 94.7188C107.267 94.4545 106.946 94.071 106.71 93.5682C106.474 93.0653 106.356 92.4545 106.356 91.7358C106.356 91.0085 106.475 90.3949 106.714 89.8949C106.956 89.392 107.281 89.0128 107.69 88.7571C108.099 88.4986 108.555 88.3693 109.058 88.3693C109.441 88.3693 109.757 88.4347 110.004 88.5653C110.251 88.6932 110.447 88.848 110.592 89.0298C110.737 89.2088 110.849 89.3778 110.929 89.5369H110.993V86.2727H112.539V95H111.022V93.9688H110.929C110.849 94.1278 110.734 94.2969 110.583 94.4759C110.433 94.652 110.234 94.8026 109.987 94.9276C109.74 95.0526 109.429 95.1151 109.054 95.1151ZM109.484 93.8494C109.811 93.8494 110.089 93.7614 110.319 93.5852C110.549 93.4062 110.724 93.1577 110.843 92.8395C110.963 92.5213 111.022 92.1506 111.022 91.7273C111.022 91.304 110.963 90.9361 110.843 90.6236C110.727 90.3111 110.554 90.0682 110.324 89.8949C110.096 89.7216 109.816 89.6349 109.484 89.6349C109.14 89.6349 108.853 89.7244 108.623 89.9034C108.393 90.0824 108.22 90.3295 108.103 90.6449C107.987 90.9602 107.929 91.321 107.929 91.7273C107.929 92.1364 107.987 92.5014 108.103 92.8224C108.223 93.1406 108.397 93.392 108.627 93.5767C108.86 93.7585 109.146 93.8494 109.484 93.8494ZM118.702 86.2727V95H117.16V86.2727H118.702ZM122.172 95.1321C121.757 95.1321 121.384 95.0582 121.051 94.9105C120.722 94.7599 120.461 94.5384 120.267 94.2457C120.077 93.9531 119.982 93.5923 119.982 93.1634C119.982 92.794 120.05 92.4886 120.186 92.2472C120.323 92.0057 120.509 91.8125 120.745 91.6676C120.98 91.5227 121.246 91.4134 121.542 91.3395C121.84 91.2628 122.148 91.2074 122.466 91.1733C122.85 91.1335 123.161 91.098 123.4 91.0668C123.638 91.0327 123.811 90.9815 123.919 90.9134C124.03 90.8423 124.086 90.733 124.086 90.5852V90.5597C124.086 90.2386 123.99 89.9901 123.8 89.8139C123.61 89.6378 123.336 89.5497 122.978 89.5497C122.6 89.5497 122.3 89.6321 122.078 89.7969C121.86 89.9616 121.712 90.1562 121.635 90.3807L120.195 90.1761C120.309 89.7784 120.496 89.446 120.757 89.179C121.019 88.9091 121.338 88.7074 121.716 88.5739C122.094 88.4375 122.512 88.3693 122.969 88.3693C123.284 88.3693 123.598 88.4062 123.911 88.4801C124.223 88.554 124.509 88.6761 124.767 88.8466C125.026 89.0142 125.233 89.2429 125.39 89.5327C125.549 89.8224 125.628 90.1847 125.628 90.6193V95H124.145V94.1009H124.094C124 94.2827 123.868 94.4531 123.698 94.6122C123.53 94.7685 123.319 94.8949 123.063 94.9915C122.81 95.0852 122.513 95.1321 122.172 95.1321ZM122.573 93.9986C122.882 93.9986 123.151 93.9375 123.378 93.8153C123.605 93.6903 123.78 93.5256 123.902 93.321C124.027 93.1165 124.09 92.8935 124.09 92.652V91.8807C124.042 91.9205 123.959 91.9574 123.843 91.9915C123.729 92.0256 123.601 92.0554 123.459 92.081C123.317 92.1065 123.176 92.1293 123.037 92.1491C122.898 92.169 122.777 92.1861 122.675 92.2003C122.445 92.2315 122.239 92.2827 122.057 92.3537C121.875 92.4247 121.732 92.5241 121.627 92.652C121.522 92.777 121.469 92.9389 121.469 93.1378C121.469 93.4219 121.573 93.6364 121.78 93.7812C121.988 93.9261 122.252 93.9986 122.573 93.9986ZM131.351 92.2472V88.4545H132.894V95H131.398V93.8366H131.33C131.182 94.2031 130.939 94.5028 130.601 94.7358C130.266 94.9687 129.853 95.0852 129.361 95.0852C128.932 95.0852 128.553 94.9901 128.223 94.7997C127.897 94.6065 127.641 94.3267 127.456 93.9602C127.272 93.5909 127.179 93.1449 127.179 92.6222V88.4545H128.722V92.3835C128.722 92.7983 128.836 93.1278 129.063 93.3722C129.29 93.6165 129.588 93.7386 129.958 93.7386C130.185 93.7386 130.405 93.6832 130.618 93.5724C130.831 93.4616 131.006 93.2969 131.142 93.0781C131.282 92.8565 131.351 92.5795 131.351 92.2472ZM137.327 97.5909C136.773 97.5909 136.297 97.5156 135.899 97.3651C135.501 97.2173 135.182 97.0185 134.94 96.7685C134.699 96.5185 134.531 96.2415 134.438 95.9375L135.827 95.6009C135.889 95.7287 135.98 95.8551 136.099 95.9801C136.219 96.108 136.379 96.2131 136.581 96.2955C136.786 96.3807 137.043 96.4233 137.352 96.4233C137.79 96.4233 138.152 96.3168 138.439 96.1037C138.726 95.8935 138.869 95.5469 138.869 95.0639V93.8239H138.793C138.713 93.983 138.597 94.1463 138.443 94.3139C138.293 94.4815 138.092 94.6222 137.842 94.7358C137.595 94.8494 137.284 94.9062 136.909 94.9062C136.406 94.9062 135.95 94.7884 135.541 94.5526C135.135 94.3139 134.811 93.9588 134.57 93.4872C134.331 93.0128 134.212 92.419 134.212 91.706C134.212 90.9872 134.331 90.3807 134.57 89.8864C134.811 89.3892 135.136 89.0128 135.545 88.7571C135.955 88.4986 136.411 88.3693 136.913 88.3693C137.297 88.3693 137.612 88.4347 137.859 88.5653C138.109 88.6932 138.308 88.848 138.456 89.0298C138.604 89.2088 138.716 89.3778 138.793 89.5369H138.878V88.4545H140.399V95.1065C140.399 95.6662 140.266 96.1293 139.999 96.4957C139.732 96.8622 139.366 97.1364 138.903 97.3182C138.44 97.5 137.915 97.5909 137.327 97.5909ZM137.339 93.696C137.666 93.696 137.945 93.6165 138.175 93.4574C138.405 93.2983 138.58 93.0696 138.699 92.7713C138.818 92.473 138.878 92.1151 138.878 91.6974C138.878 91.2855 138.818 90.9247 138.699 90.6151C138.582 90.3054 138.409 90.0653 138.179 89.8949C137.952 89.7216 137.672 89.6349 137.339 89.6349C136.996 89.6349 136.709 89.7244 136.479 89.9034C136.249 90.0824 136.075 90.3281 135.959 90.6406C135.842 90.9503 135.784 91.3026 135.784 91.6974C135.784 92.098 135.842 92.4489 135.959 92.75C136.078 93.0483 136.253 93.2812 136.483 93.4489C136.716 93.6136 137.001 93.696 137.339 93.696ZM143.523 91.1648V95H141.98V86.2727H143.489V89.5668H143.565C143.719 89.1974 143.956 88.9062 144.277 88.6932C144.601 88.4773 145.013 88.3693 145.513 88.3693C145.967 88.3693 146.364 88.4645 146.702 88.6548C147.04 88.8452 147.301 89.1236 147.486 89.4901C147.673 89.8565 147.767 90.304 147.767 90.8324V95H146.224V91.071C146.224 90.6307 146.111 90.2884 145.884 90.044C145.659 89.7969 145.344 89.6733 144.938 89.6733C144.665 89.6733 144.42 89.733 144.205 89.8523C143.991 89.9687 143.824 90.1378 143.702 90.3594C143.582 90.581 143.523 90.8494 143.523 91.1648Z" fill="#FCFCFC"/>
</g>
<defs>
<filter id="filter0_d_532_2134" x="0" y="0" width="323" height="129" filterUnits="userSpaceOnUse" color-interpolation-filters="sRGB">
<feFlood flood-opacity="0" result="BackgroundImageFix"/>
<feColorMatrix in="SourceAlpha" type="matrix" values="0 0 0 0 0 0 0 0 0 0 0 0 0 0 0 0 0 0 127 0" result="hardAlpha"/>
<feOffset dy="1"/>
<feGaussianBlur stdDeviation="5"/>
<feComposite in2="hardAlpha" operator="out"/>
<feColorMatrix type="matrix" values="0 0 0 0 0 0 0 0 0 0 0 0 0 0 0 0 0 0 0.1 0"/>
<feBlend mode="normal" in2="BackgroundImageFix" result="effect1_dropShadow_532_2134"/>
<feBlend mode="normal" in="SourceGraphic" in2="effect1_dropShadow_532_2134" result="shape"/>
</filter>
</defs>
</svg>
