<svg width="323" height="144" viewBox="0 0 323 144" fill="none" xmlns="http://www.w3.org/2000/svg">
<g filter="url(#filter0_d_520_1985)">
<rect x="10" y="9" width="303" height="124" rx="20" fill="#7BC4D0" shape-rendering="crispEdges"/>
<path d="M31.2642 50.5V35.9545H37.0881C38.1581 35.9545 39.0507 36.1132 39.7656 36.4304C40.4806 36.7476 41.018 37.188 41.3778 37.7514C41.7377 38.3101 41.9176 38.9541 41.9176 39.6832C41.9176 40.2514 41.804 40.7509 41.5767 41.1818C41.3494 41.608 41.0369 41.9583 40.6392 42.233C40.2462 42.5028 39.7964 42.6946 39.2898 42.8082V42.9503C39.8438 42.974 40.3622 43.1302 40.8452 43.419C41.3329 43.7079 41.7282 44.1127 42.0312 44.6335C42.3343 45.1496 42.4858 45.7652 42.4858 46.4801C42.4858 47.2519 42.294 47.9408 41.9105 48.5469C41.5317 49.1482 40.9706 49.6241 40.2273 49.9744C39.4839 50.3248 38.5677 50.5 37.4787 50.5H31.2642ZM34.3395 47.9858H36.8466C37.7036 47.9858 38.3286 47.8224 38.7216 47.4957C39.1146 47.1643 39.3111 46.724 39.3111 46.1747C39.3111 45.7723 39.214 45.4171 39.0199 45.1094C38.8258 44.8016 38.5488 44.5601 38.1889 44.3849C37.8338 44.2098 37.41 44.1222 36.9176 44.1222H34.3395V47.9858ZM34.3395 42.0412H36.6193C37.0407 42.0412 37.4148 41.9678 37.7415 41.821C38.0729 41.6695 38.3333 41.4564 38.5227 41.1818C38.7169 40.9072 38.8139 40.5781 38.8139 40.1946C38.8139 39.669 38.6269 39.2453 38.2528 38.9233C37.8835 38.6013 37.358 38.4403 36.6761 38.4403H34.3395V42.0412ZM44.43 50.5V39.5909H47.3633V41.4943H47.4769C47.6758 40.8172 48.0096 40.3059 48.4783 39.9602C48.9471 39.6098 49.4869 39.4347 50.0977 39.4347C50.2492 39.4347 50.4125 39.4441 50.5877 39.4631C50.7629 39.482 50.9168 39.508 51.0494 39.5412V42.2259C50.9073 42.1832 50.7108 42.1454 50.4599 42.1122C50.2089 42.0791 49.9793 42.0625 49.771 42.0625C49.3259 42.0625 48.9281 42.1596 48.5778 42.3537C48.2321 42.5431 47.9575 42.8082 47.7539 43.1491C47.555 43.4901 47.4556 43.883 47.4556 44.3281V50.5H44.43ZM57.0774 50.7131C55.9553 50.7131 54.9893 50.4858 54.1797 50.0312C53.3748 49.572 52.7545 48.9233 52.3189 48.0852C51.8833 47.2424 51.6655 46.2457 51.6655 45.0952C51.6655 43.973 51.8833 42.9882 52.3189 42.1406C52.7545 41.2931 53.3677 40.6326 54.1584 40.1591C54.9538 39.6856 55.8866 39.4489 56.9567 39.4489C57.6764 39.4489 58.3464 39.5649 58.9666 39.7969C59.5916 40.0241 60.1361 40.3674 60.6001 40.8267C61.0689 41.286 61.4335 41.8636 61.6939 42.5597C61.9543 43.2509 62.0845 44.0606 62.0845 44.9886V45.8196H52.8729V43.9446H59.2365C59.2365 43.509 59.1418 43.1231 58.9524 42.7869C58.763 42.4508 58.5002 42.188 58.1641 41.9986C57.8326 41.8045 57.4467 41.7074 57.0064 41.7074C56.5471 41.7074 56.1399 41.8139 55.7848 42.027C55.4344 42.2353 55.1598 42.517 54.9609 42.8722C54.7621 43.2225 54.6603 43.6132 54.6555 44.044V45.8267C54.6555 46.3665 54.755 46.8329 54.9538 47.2259C55.1574 47.6188 55.4439 47.9219 55.8132 48.1349C56.1825 48.348 56.6205 48.4545 57.1271 48.4545C57.4633 48.4545 57.7711 48.4072 58.0504 48.3125C58.3298 48.2178 58.5689 48.0758 58.7678 47.8864C58.9666 47.697 59.1181 47.465 59.2223 47.1903L62.0206 47.375C61.8786 48.0473 61.5874 48.6345 61.147 49.1364C60.7114 49.6335 60.148 50.0218 59.4567 50.3011C58.7701 50.5758 57.977 50.7131 57.0774 50.7131ZM67.1697 50.706C66.4737 50.706 65.8535 50.5852 65.3089 50.3438C64.7644 50.0975 64.3336 49.7353 64.0163 49.2571C63.7038 48.7741 63.5476 48.1728 63.5476 47.4531C63.5476 46.8471 63.6589 46.3381 63.8814 45.9261C64.1039 45.5142 64.407 45.1828 64.7905 44.9318C65.174 44.6809 65.6096 44.4915 66.0973 44.3636C66.5897 44.2358 67.1058 44.1458 67.6456 44.0938C68.2801 44.0275 68.7914 43.9659 69.1797 43.9091C69.5679 43.8475 69.8497 43.7576 70.0249 43.6392C70.2 43.5208 70.2876 43.3456 70.2876 43.1136V43.071C70.2876 42.6212 70.1456 42.2732 69.8615 42.027C69.5821 41.7808 69.1844 41.6577 68.6683 41.6577C68.1238 41.6577 67.6906 41.7784 67.3686 42.0199C67.0466 42.2566 66.8336 42.5549 66.7294 42.9148L63.9311 42.6875C64.0732 42.0246 64.3525 41.4517 64.7692 40.9688C65.1858 40.4811 65.7232 40.107 66.3814 39.8466C67.0443 39.5814 67.8113 39.4489 68.6825 39.4489C69.2886 39.4489 69.8686 39.5199 70.4226 39.6619C70.9813 39.804 71.4761 40.0241 71.907 40.3224C72.3426 40.6207 72.6858 41.0043 72.9368 41.473C73.1877 41.937 73.3132 42.4934 73.3132 43.142V50.5H70.4439V48.9872H70.3587C70.1835 49.3281 69.9491 49.6288 69.6555 49.8892C69.362 50.1449 69.0092 50.3461 68.5973 50.4929C68.1854 50.6349 67.7095 50.706 67.1697 50.706ZM68.0362 48.6179C68.4813 48.6179 68.8743 48.5303 69.2152 48.3551C69.5561 48.1752 69.8236 47.9337 70.0178 47.6307C70.2119 47.3277 70.3089 46.9844 70.3089 46.6009V45.4432C70.2143 45.5047 70.084 45.5616 69.9183 45.6136C69.7573 45.661 69.575 45.706 69.3714 45.7486C69.1679 45.7865 68.9643 45.822 68.7607 45.8551C68.5571 45.8835 68.3724 45.9096 68.2067 45.9332C67.8516 45.9853 67.5414 46.0682 67.2763 46.1818C67.0111 46.2955 66.8052 46.4493 66.6584 46.6435C66.5116 46.8329 66.4382 47.0696 66.4382 47.3537C66.4382 47.7656 66.5874 48.0805 66.8857 48.2983C67.1887 48.5114 67.5722 48.6179 68.0362 48.6179ZM81.4631 39.5909V41.8636H74.8935V39.5909H81.4631ZM76.3849 36.9773H79.4105V47.1477C79.4105 47.4271 79.4531 47.6449 79.5384 47.8011C79.6236 47.9527 79.742 48.0592 79.8935 48.1207C80.0497 48.1823 80.2296 48.2131 80.4332 48.2131C80.5753 48.2131 80.7173 48.2012 80.8594 48.1776C81.0014 48.1491 81.1103 48.1278 81.1861 48.1136L81.6619 50.3651C81.5104 50.4124 81.2973 50.4669 81.0227 50.5284C80.7481 50.5947 80.4143 50.6349 80.0213 50.6491C79.2921 50.6776 78.6529 50.5805 78.1037 50.358C77.5592 50.1354 77.1354 49.7898 76.8324 49.321C76.5294 48.8523 76.3802 48.2604 76.3849 47.5455V36.9773ZM86.6939 44.1932V50.5H83.6683V35.9545H86.6087V41.5156H86.7365C86.9827 40.8717 87.3804 40.3674 87.9297 40.0028C88.4789 39.6335 89.1679 39.4489 89.9964 39.4489C90.754 39.4489 91.4145 39.6146 91.978 39.946C92.5462 40.2727 92.9865 40.7438 93.299 41.3594C93.6162 41.9702 93.7725 42.7017 93.7678 43.554V50.5H90.7422V44.0938C90.7469 43.4214 90.5765 42.8982 90.2308 42.5241C89.8899 42.1501 89.4117 41.9631 88.7962 41.9631C88.3842 41.9631 88.0196 42.0507 87.7024 42.2259C87.3899 42.401 87.1437 42.6567 86.9638 42.9929C86.7886 43.3243 86.6986 43.7244 86.6939 44.1932ZM104.109 50.5L99.9467 35.9545H103.306L105.714 46.0611H105.835L108.491 35.9545H111.367L114.016 46.0824H114.144L116.552 35.9545H119.911L115.749 50.5H112.752L109.982 40.9901H109.869L107.106 50.5H104.109ZM125.257 50.7131C124.154 50.7131 123.2 50.4787 122.395 50.0099C121.595 49.5365 120.977 48.8783 120.542 48.0355C120.106 47.188 119.888 46.2055 119.888 45.0881C119.888 43.9612 120.106 42.9763 120.542 42.1335C120.977 41.286 121.595 40.6278 122.395 40.1591C123.2 39.6856 124.154 39.4489 125.257 39.4489C126.361 39.4489 127.312 39.6856 128.113 40.1591C128.917 40.6278 129.538 41.286 129.973 42.1335C130.409 42.9763 130.627 43.9612 130.627 45.0881C130.627 46.2055 130.409 47.188 129.973 48.0355C129.538 48.8783 128.917 49.5365 128.113 50.0099C127.312 50.4787 126.361 50.7131 125.257 50.7131ZM125.272 48.3693C125.774 48.3693 126.193 48.2273 126.529 47.9432C126.865 47.6544 127.118 47.2614 127.289 46.7642C127.464 46.267 127.551 45.7012 127.551 45.0668C127.551 44.4323 127.464 43.8665 127.289 43.3693C127.118 42.8722 126.865 42.4792 126.529 42.1903C126.193 41.9015 125.774 41.7571 125.272 41.7571C124.765 41.7571 124.339 41.9015 123.993 42.1903C123.652 42.4792 123.394 42.8722 123.219 43.3693C123.049 43.8665 122.963 44.4323 122.963 45.0668C122.963 45.7012 123.049 46.267 123.219 46.7642C123.394 47.2614 123.652 47.6544 123.993 47.9432C124.339 48.2273 124.765 48.3693 125.272 48.3693ZM132.594 50.5V39.5909H135.527V41.4943H135.641C135.84 40.8172 136.174 40.3059 136.642 39.9602C137.111 39.6098 137.651 39.4347 138.262 39.4347C138.413 39.4347 138.577 39.4441 138.752 39.4631C138.927 39.482 139.081 39.508 139.213 39.5412V42.2259C139.071 42.1832 138.875 42.1454 138.624 42.1122C138.373 42.0791 138.143 42.0625 137.935 42.0625C137.49 42.0625 137.092 42.1596 136.742 42.3537C136.396 42.5431 136.122 42.8082 135.918 43.1491C135.719 43.4901 135.62 43.883 135.62 44.3281V50.5H132.594ZM143.519 47.3608L143.526 43.7315H143.967L147.461 39.5909H150.934L146.239 45.0739H145.522L143.519 47.3608ZM140.778 50.5V35.9545H143.803V50.5H140.778ZM147.596 50.5L144.386 45.7486L146.403 43.6108L151.14 50.5H147.596Z" fill="#FCFCFC"/>
<rect x="162" y="29" width="29" height="29" rx="10" fill="#FCFCFC"/>
<path d="M176.5 44.5706C176.048 45.2511 175.376 45.7816 174.561 46.0528L172.948 46.5902C172.882 46.6121 172.815 46.6227 172.75 46.6227C172.488 46.6227 172.245 46.4571 172.158 46.1953C172.048 45.8678 172.225 45.5142 172.553 45.4048L174.166 44.8674C175.188 44.5269 175.875 43.574 175.875 42.4961V36.6249C175.875 36.2799 176.155 36 176.5 36C176.846 36 177.125 36.2799 177.125 36.6249V42.4961C177.125 43.574 177.813 44.5269 178.835 44.8674L180.448 45.4048C180.775 45.5142 180.952 45.8678 180.843 46.1953C180.755 46.4571 180.512 46.6227 180.25 46.6227C180.185 46.6227 180.119 46.6121 180.053 46.5902L178.44 46.0528C177.625 45.7816 176.952 45.2505 176.5 44.5706ZM175.25 47.2475C174.905 47.2475 174.625 47.5275 174.625 47.8724C174.625 48.5091 174.195 49.0678 173.58 49.2315L171.895 49.6814C171.764 49.7251 171.64 49.7282 171.497 49.747C171.171 49.747 170.849 49.6126 170.614 49.3777C170.379 49.1434 170.25 48.8303 170.25 48.4954C170.25 47.7137 170.339 46.932 170.515 46.1709L171.55 41.6856C171.813 40.5453 172.815 39.7486 173.986 39.7486C174.331 39.7486 174.611 39.4686 174.611 39.1237C174.611 38.7788 174.331 38.4988 173.986 38.4988C172.229 38.4988 170.726 39.6942 170.331 41.4051L169.297 45.8903C169.101 46.7426 169 47.6193 169 48.4954C169 49.164 169.259 49.7914 169.731 50.2619C170.199 50.7293 170.842 50.9967 171.498 50.9967H171.501C171.768 50.9967 172.035 50.953 172.254 50.878L173.901 50.4393C175.063 50.13 175.875 49.0746 175.875 47.8724C175.875 47.5275 175.596 47.2475 175.25 47.2475ZM183.704 45.891L182.669 41.4057C182.274 39.6948 180.771 38.4995 179.014 38.4995C178.669 38.4995 178.389 38.7794 178.389 39.1243C178.389 39.4692 178.669 39.7492 179.014 39.7492C180.185 39.7492 181.187 40.5459 181.45 41.6863L182.485 46.1715C182.661 46.932 182.75 47.7137 182.75 48.4954C182.75 48.8297 182.621 49.1434 182.386 49.3777C182.151 49.612 181.829 49.747 181.503 49.747C181.343 49.7407 181.236 49.7251 181.069 49.6701L179.42 49.2315C178.805 49.0678 178.375 48.5085 178.375 47.8724C178.375 47.5275 178.095 47.2475 177.75 47.2475C177.404 47.2475 177.125 47.5275 177.125 47.8724C177.125 49.0746 177.937 50.13 179.098 50.4393L180.709 50.8674C180.967 50.9536 181.254 51.0136 181.502 50.9973C182.158 50.9973 182.801 50.7299 183.269 50.2625C183.741 49.792 184 49.1646 184 48.496C184 47.62 183.901 46.7433 183.704 45.891Z" fill="#7BC4D0"/>
<path d="M30.8608 80V71.2727H34.2017C34.8324 71.2727 35.3565 71.3722 35.7741 71.571C36.1946 71.767 36.5085 72.0355 36.7159 72.3764C36.9261 72.7173 37.0312 73.1037 37.0312 73.5355C37.0312 73.8906 36.9631 74.1946 36.8267 74.4474C36.6903 74.6974 36.5071 74.9006 36.277 75.0568C36.0469 75.2131 35.7898 75.3253 35.5057 75.3935V75.4787C35.8153 75.4957 36.1122 75.5909 36.3963 75.7642C36.6832 75.9347 36.9176 76.1761 37.0994 76.4886C37.2813 76.8011 37.3722 77.179 37.3722 77.6222C37.3722 78.0739 37.2628 78.4801 37.044 78.8409C36.8253 79.1989 36.4957 79.4815 36.0554 79.6889C35.6151 79.8963 35.0611 80 34.3935 80H30.8608ZM32.4418 78.679H34.142C34.7159 78.679 35.1293 78.5696 35.3821 78.3509C35.6378 78.1293 35.7656 77.8452 35.7656 77.4986C35.7656 77.2401 35.7017 77.0071 35.5739 76.7997C35.446 76.5895 35.2642 76.4247 35.0284 76.3054C34.7926 76.1832 34.5114 76.1222 34.1847 76.1222H32.4418V78.679ZM32.4418 74.9844H34.0057C34.2784 74.9844 34.5241 74.9347 34.7429 74.8352C34.9616 74.733 35.1335 74.5895 35.2585 74.4048C35.3864 74.2173 35.4503 73.9957 35.4503 73.7401C35.4503 73.402 35.331 73.1236 35.0923 72.9048C34.8565 72.6861 34.5057 72.5767 34.0398 72.5767H32.4418V74.9844ZM38.6793 80V73.4545H40.1751V74.5455H40.2433C40.3626 74.1676 40.5671 73.8764 40.8569 73.6719C41.1495 73.4645 41.4833 73.3608 41.8583 73.3608C41.9435 73.3608 42.0387 73.3651 42.1438 73.3736C42.2518 73.3793 42.3413 73.3892 42.4123 73.4034V74.8224C42.3469 74.7997 42.2433 74.7798 42.1012 74.7628C41.962 74.7429 41.8271 74.733 41.6964 74.733C41.4151 74.733 41.1623 74.794 40.9379 74.9162C40.7163 75.0355 40.5415 75.2017 40.4137 75.4148C40.2859 75.6278 40.2219 75.8736 40.2219 76.152V80H38.6793ZM46.0653 80.1278C45.4091 80.1278 44.8423 79.9915 44.3651 79.7188C43.8906 79.4432 43.5256 79.054 43.2699 78.5511C43.0142 78.0455 42.8864 77.4503 42.8864 76.7656C42.8864 76.0923 43.0142 75.5014 43.2699 74.9929C43.5284 74.4815 43.8892 74.0838 44.3523 73.7997C44.8153 73.5128 45.3594 73.3693 45.9844 73.3693C46.3878 73.3693 46.7685 73.4347 47.1264 73.5653C47.4872 73.6932 47.8054 73.892 48.081 74.1619C48.3594 74.4318 48.5781 74.7756 48.7372 75.1932C48.8963 75.608 48.9759 76.1023 48.9759 76.6761V77.1491H43.6108V76.1094H47.4972C47.4943 75.8139 47.4304 75.5511 47.3054 75.321C47.1804 75.0881 47.0057 74.9048 46.7812 74.7713C46.5597 74.6378 46.3011 74.571 46.0057 74.571C45.6903 74.571 45.4134 74.6477 45.1747 74.8011C44.9361 74.9517 44.75 75.1506 44.6165 75.3977C44.4858 75.642 44.419 75.9105 44.4162 76.2031V77.1108C44.4162 77.4915 44.4858 77.8182 44.625 78.0909C44.7642 78.3608 44.9588 78.5682 45.2088 78.7131C45.4588 78.8551 45.7514 78.9261 46.0866 78.9261C46.3111 78.9261 46.5142 78.8949 46.696 78.8324C46.8778 78.767 47.0355 78.6719 47.169 78.5469C47.3026 78.4219 47.4034 78.267 47.4716 78.0824L48.9119 78.2443C48.821 78.625 48.6477 78.9574 48.392 79.2415C48.1392 79.5227 47.8153 79.7415 47.4205 79.8977C47.0256 80.0511 46.5739 80.1278 46.0653 80.1278ZM52.1644 80.1321C51.7496 80.1321 51.3761 80.0582 51.0437 79.9105C50.7141 79.7599 50.4528 79.5384 50.2596 79.2457C50.0692 78.9531 49.9741 78.5923 49.9741 78.1634C49.9741 77.794 50.0423 77.4886 50.1786 77.2472C50.315 77.0057 50.5011 76.8125 50.7369 76.6676C50.9727 76.5227 51.2383 76.4134 51.5337 76.3395C51.832 76.2628 52.1403 76.2074 52.4585 76.1733C52.842 76.1335 53.1531 76.098 53.3917 76.0668C53.6303 76.0327 53.8036 75.9815 53.9116 75.9134C54.0224 75.8423 54.0778 75.733 54.0778 75.5852V75.5597C54.0778 75.2386 53.9826 74.9901 53.7923 74.8139C53.6019 74.6378 53.3278 74.5497 52.9698 74.5497C52.592 74.5497 52.2923 74.6321 52.0707 74.7969C51.8519 74.9616 51.7042 75.1562 51.6275 75.3807L50.1871 75.1761C50.3008 74.7784 50.4883 74.446 50.7496 74.179C51.011 73.9091 51.3306 73.7074 51.7085 73.5739C52.0863 73.4375 52.5039 73.3693 52.9613 73.3693C53.2766 73.3693 53.5906 73.4062 53.9031 73.4801C54.2156 73.554 54.5011 73.6761 54.7596 73.8466C55.0181 74.0142 55.2255 74.2429 55.3817 74.5327C55.5408 74.8224 55.6204 75.1847 55.6204 75.6193V80H54.1374V79.1009H54.0863C53.9925 79.2827 53.8604 79.4531 53.69 79.6122C53.5224 79.7685 53.3107 79.8949 53.055 79.9915C52.8022 80.0852 52.5053 80.1321 52.1644 80.1321ZM52.565 78.9986C52.8746 78.9986 53.1431 78.9375 53.3704 78.8153C53.5977 78.6903 53.7724 78.5256 53.8945 78.321C54.0195 78.1165 54.082 77.8935 54.082 77.652V76.8807C54.0337 76.9205 53.9513 76.9574 53.8349 76.9915C53.7212 77.0256 53.5934 77.0554 53.4513 77.081C53.3093 77.1065 53.1687 77.1293 53.0295 77.1491C52.8903 77.169 52.7695 77.1861 52.6673 77.2003C52.4371 77.2315 52.2312 77.2827 52.0494 77.3537C51.8675 77.4247 51.7241 77.5241 51.619 77.652C51.5138 77.777 51.4613 77.9389 51.4613 78.1378C51.4613 78.4219 51.565 78.6364 51.7724 78.7812C51.9798 78.9261 52.244 78.9986 52.565 78.9986ZM60.44 73.4545V74.6477H56.6772V73.4545H60.44ZM57.6062 71.8864H59.1488V78.0312C59.1488 78.2386 59.18 78.3977 59.2425 78.5085C59.3079 78.6165 59.3931 78.6903 59.4982 78.7301C59.6033 78.7699 59.7198 78.7898 59.8477 78.7898C59.9442 78.7898 60.0323 78.7827 60.1119 78.7685C60.1942 78.7543 60.2567 78.7415 60.2994 78.7301L60.5593 79.9361C60.4769 79.9645 60.359 79.9957 60.2056 80.0298C60.055 80.0639 59.8704 80.0838 59.6516 80.0895C59.2653 80.1009 58.9173 80.0426 58.6076 79.9148C58.2979 79.7841 58.0522 79.5824 57.8704 79.3097C57.6914 79.0369 57.6033 78.696 57.6062 78.2869V71.8864ZM63.4134 76.1648V80H61.8707V71.2727H63.3793V74.5668H63.456C63.6094 74.1974 63.8466 73.9062 64.1676 73.6932C64.4915 73.4773 64.9034 73.3693 65.4034 73.3693C65.858 73.3693 66.2543 73.4645 66.5923 73.6548C66.9304 73.8452 67.1918 74.1236 67.3764 74.4901C67.5639 74.8565 67.6577 75.304 67.6577 75.8324V80H66.1151V76.071C66.1151 75.6307 66.0014 75.2884 65.7741 75.044C65.5497 74.7969 65.2344 74.6733 64.8281 74.6733C64.5554 74.6733 64.3111 74.733 64.0952 74.8523C63.8821 74.9687 63.7145 75.1378 63.5923 75.3594C63.473 75.581 63.4134 75.8494 63.4134 76.1648ZM74.1115 80L71.6484 71.2727H73.3487L74.9212 77.6861H75.0021L76.6811 71.2727H78.228L79.9112 77.6903H79.9879L81.5604 71.2727H83.2607L80.7976 80H79.2379L77.4908 73.8764H77.4226L75.6712 80H74.1115ZM86.4759 80.1278C85.8366 80.1278 85.2827 79.9872 84.8139 79.706C84.3452 79.4247 83.9815 79.0312 83.723 78.5256C83.4673 78.0199 83.3395 77.429 83.3395 76.7528C83.3395 76.0767 83.4673 75.4844 83.723 74.9759C83.9815 74.4673 84.3452 74.0724 84.8139 73.7912C85.2827 73.5099 85.8366 73.3693 86.4759 73.3693C87.1151 73.3693 87.669 73.5099 88.1378 73.7912C88.6065 74.0724 88.9688 74.4673 89.2244 74.9759C89.483 75.4844 89.6122 76.0767 89.6122 76.7528C89.6122 77.429 89.483 78.0199 89.2244 78.5256C88.9688 79.0312 88.6065 79.4247 88.1378 79.706C87.669 79.9872 87.1151 80.1278 86.4759 80.1278ZM86.4844 78.892C86.831 78.892 87.1207 78.7969 87.3537 78.6065C87.5866 78.4134 87.7599 78.1548 87.8736 77.831C87.9901 77.5071 88.0483 77.1463 88.0483 76.7486C88.0483 76.348 87.9901 75.9858 87.8736 75.6619C87.7599 75.3352 87.5866 75.0753 87.3537 74.8821C87.1207 74.6889 86.831 74.5923 86.4844 74.5923C86.1293 74.5923 85.8338 74.6889 85.598 74.8821C85.3651 75.0753 85.1903 75.3352 85.0739 75.6619C84.9602 75.9858 84.9034 76.348 84.9034 76.7486C84.9034 77.1463 84.9602 77.5071 85.0739 77.831C85.1903 78.1548 85.3651 78.4134 85.598 78.6065C85.8338 78.7969 86.1293 78.892 86.4844 78.892ZM90.9215 80V73.4545H92.4173V74.5455H92.4854C92.6048 74.1676 92.8093 73.8764 93.0991 73.6719C93.3917 73.4645 93.7255 73.3608 94.1005 73.3608C94.1857 73.3608 94.2809 73.3651 94.386 73.3736C94.494 73.3793 94.5835 73.3892 94.6545 73.4034V74.8224C94.5891 74.7997 94.4854 74.7798 94.3434 74.7628C94.2042 74.7429 94.0692 74.733 93.9386 74.733C93.6573 74.733 93.4045 74.794 93.18 74.9162C92.9585 75.0355 92.7837 75.2017 92.6559 75.4148C92.5281 75.6278 92.4641 75.8736 92.4641 76.152V80H90.9215ZM97.0856 77.946L97.0813 76.0838H97.3285L99.6808 73.4545H101.483L98.5898 76.6761H98.2702L97.0856 77.946ZM95.6793 80V71.2727H97.2219V80H95.6793ZM99.7873 80L97.6566 77.0213L98.6964 75.9347L101.632 80H99.7873ZM105.488 80V73.4545H107.031V80H105.488ZM106.263 72.5256C106.019 72.5256 105.809 72.4446 105.633 72.2827C105.457 72.1179 105.369 71.9205 105.369 71.6903C105.369 71.4574 105.457 71.2599 105.633 71.098C105.809 70.9332 106.019 70.8509 106.263 70.8509C106.511 70.8509 106.721 70.9332 106.894 71.098C107.07 71.2599 107.158 71.4574 107.158 71.6903C107.158 71.9205 107.07 72.1179 106.894 72.2827C106.721 72.4446 106.511 72.5256 106.263 72.5256ZM113.79 75.1847L112.384 75.3381C112.344 75.196 112.275 75.0625 112.175 74.9375C112.078 74.8125 111.948 74.7116 111.783 74.6349C111.618 74.5582 111.417 74.5199 111.178 74.5199C110.857 74.5199 110.587 74.5895 110.368 74.7287C110.152 74.8679 110.046 75.0483 110.049 75.2699C110.046 75.4602 110.115 75.6151 110.257 75.7344C110.402 75.8537 110.641 75.9517 110.973 76.0284L112.09 76.267C112.709 76.4006 113.169 76.6122 113.471 76.902C113.775 77.1918 113.928 77.571 113.931 78.0398C113.928 78.4517 113.807 78.8153 113.569 79.1307C113.333 79.4432 113.005 79.6875 112.584 79.8636C112.164 80.0398 111.681 80.1278 111.135 80.1278C110.334 80.1278 109.689 79.9602 109.201 79.625C108.712 79.2869 108.421 78.8168 108.327 78.2145L109.831 78.0696C109.9 78.3651 110.044 78.5881 110.266 78.7386C110.488 78.8892 110.776 78.9645 111.131 78.9645C111.498 78.9645 111.792 78.8892 112.013 78.7386C112.238 78.5881 112.35 78.402 112.35 78.1804C112.35 77.9929 112.277 77.8381 112.132 77.7159C111.99 77.5937 111.769 77.5 111.468 77.4347L110.351 77.2003C109.723 77.0696 109.259 76.8494 108.958 76.5398C108.657 76.2273 108.507 75.8324 108.51 75.3551C108.507 74.9517 108.617 74.6023 108.838 74.3068C109.063 74.0085 109.374 73.7784 109.772 73.6165C110.172 73.4517 110.634 73.3693 111.157 73.3693C111.924 73.3693 112.527 73.5327 112.968 73.8594C113.411 74.1861 113.685 74.6278 113.79 75.1847ZM120.063 80.1321C119.648 80.1321 119.275 80.0582 118.942 79.9105C118.613 79.7599 118.351 79.5384 118.158 79.2457C117.968 78.9531 117.873 78.5923 117.873 78.1634C117.873 77.794 117.941 77.4886 118.077 77.2472C118.213 77.0057 118.4 76.8125 118.635 76.6676C118.871 76.5227 119.137 76.4134 119.432 76.3395C119.73 76.2628 120.039 76.2074 120.357 76.1733C120.74 76.1335 121.051 76.098 121.29 76.0668C121.529 76.0327 121.702 75.9815 121.81 75.9134C121.921 75.8423 121.976 75.733 121.976 75.5852V75.5597C121.976 75.2386 121.881 74.9901 121.691 74.8139C121.5 74.6378 121.226 74.5497 120.868 74.5497C120.49 74.5497 120.191 74.6321 119.969 74.7969C119.75 74.9616 119.603 75.1562 119.526 75.3807L118.086 75.1761C118.199 74.7784 118.387 74.446 118.648 74.179C118.909 73.9091 119.229 73.7074 119.607 73.5739C119.985 73.4375 120.402 73.3693 120.86 73.3693C121.175 73.3693 121.489 73.4062 121.801 73.4801C122.114 73.554 122.4 73.6761 122.658 73.8466C122.917 74.0142 123.124 74.2429 123.28 74.5327C123.439 74.8224 123.519 75.1847 123.519 75.6193V80H122.036V79.1009H121.985C121.891 79.2827 121.759 79.4531 121.588 79.6122C121.421 79.7685 121.209 79.8949 120.953 79.9915C120.701 80.0852 120.404 80.1321 120.063 80.1321ZM120.463 78.9986C120.773 78.9986 121.042 78.9375 121.269 78.8153C121.496 78.6903 121.671 78.5256 121.793 78.321C121.918 78.1165 121.98 77.8935 121.98 77.652V76.8807C121.932 76.9205 121.85 76.9574 121.733 76.9915C121.62 77.0256 121.492 77.0554 121.35 77.081C121.208 77.1065 121.067 77.1293 120.928 77.1491C120.789 77.169 120.668 77.1861 120.566 77.2003C120.336 77.2315 120.13 77.2827 119.948 77.3537C119.766 77.4247 119.623 77.5241 119.517 77.652C119.412 77.777 119.36 77.9389 119.36 78.1378C119.36 78.4219 119.463 78.6364 119.671 78.7812C119.878 78.9261 120.142 78.9986 120.463 78.9986ZM129.453 77.946L129.449 76.0838H129.696L132.048 73.4545H133.85L130.957 76.6761H130.637L129.453 77.946ZM128.047 80V71.2727H129.589V80H128.047ZM132.154 80L130.024 77.0213L131.064 75.9347L134 80H132.154ZM137.507 80.1278C136.85 80.1278 136.284 79.9915 135.806 79.7188C135.332 79.4432 134.967 79.054 134.711 78.5511C134.456 78.0455 134.328 77.4503 134.328 76.7656C134.328 76.0923 134.456 75.5014 134.711 74.9929C134.97 74.4815 135.331 74.0838 135.794 73.7997C136.257 73.5128 136.801 73.3693 137.426 73.3693C137.829 73.3693 138.21 73.4347 138.568 73.5653C138.929 73.6932 139.247 73.892 139.522 74.1619C139.801 74.4318 140.02 74.7756 140.179 75.1932C140.338 75.608 140.417 76.1023 140.417 76.6761V77.1491H135.052V76.1094H138.939C138.936 75.8139 138.872 75.5511 138.747 75.321C138.622 75.0881 138.447 74.9048 138.223 74.7713C138.001 74.6378 137.743 74.571 137.447 74.571C137.132 74.571 136.855 74.6477 136.616 74.8011C136.377 74.9517 136.191 75.1506 136.058 75.3977C135.927 75.642 135.86 75.9105 135.858 76.2031V77.1108C135.858 77.4915 135.927 77.8182 136.066 78.0909C136.206 78.3608 136.4 78.5682 136.65 78.7131C136.9 78.8551 137.193 78.9261 137.528 78.9261C137.752 78.9261 137.956 78.8949 138.137 78.8324C138.319 78.767 138.477 78.6719 138.61 78.5469C138.744 78.4219 138.845 78.267 138.913 78.0824L140.353 78.2443C140.262 78.625 140.089 78.9574 139.833 79.2415C139.581 79.5227 139.257 79.7415 138.862 79.8977C138.467 80.0511 138.015 80.1278 137.507 80.1278ZM142.494 82.4545C142.283 82.4545 142.089 82.4375 141.91 82.4034C141.734 82.3722 141.593 82.3352 141.488 82.2926L141.846 81.0909C142.07 81.1563 142.271 81.1875 142.447 81.1847C142.623 81.1818 142.778 81.1264 142.911 81.0185C143.048 80.9134 143.163 80.7372 143.256 80.4901L143.388 80.1364L141.015 73.4545H142.651L144.16 78.3977H144.228L145.741 73.4545H147.381L144.761 80.7926C144.638 81.1392 144.477 81.4361 144.275 81.6832C144.073 81.9332 143.826 82.1236 143.533 82.2543C143.244 82.3878 142.897 82.4545 142.494 82.4545ZM151.425 82.4545V73.4545H152.942V74.5369H153.032C153.112 74.3778 153.224 74.2088 153.369 74.0298C153.513 73.848 153.71 73.6932 153.957 73.5653C154.204 73.4347 154.519 73.3693 154.903 73.3693C155.408 73.3693 155.864 73.4986 156.271 73.7571C156.68 74.0128 157.004 74.392 157.242 74.8949C157.484 75.3949 157.604 76.0085 157.604 76.7358C157.604 77.4545 157.487 78.0653 157.251 78.5682C157.015 79.071 156.694 79.4545 156.288 79.7188C155.881 79.983 155.421 80.1151 154.907 80.1151C154.532 80.1151 154.221 80.0526 153.974 79.9276C153.727 79.8026 153.528 79.652 153.377 79.4759C153.229 79.2969 153.114 79.1278 153.032 78.9688H152.968V82.4545H151.425ZM152.938 76.7273C152.938 77.1506 152.998 77.5213 153.117 77.8395C153.239 78.1577 153.414 78.4062 153.641 78.5852C153.871 78.7614 154.15 78.8494 154.477 78.8494C154.817 78.8494 155.103 78.7585 155.333 78.5767C155.563 78.392 155.737 78.1406 155.853 77.8224C155.972 77.5014 156.032 77.1364 156.032 76.7273C156.032 76.321 155.974 75.9602 155.857 75.6449C155.741 75.3295 155.567 75.0824 155.337 74.9034C155.107 74.7244 154.82 74.6349 154.477 74.6349C154.147 74.6349 153.867 74.7216 153.637 74.8949C153.407 75.0682 153.232 75.3111 153.113 75.6236C152.996 75.9361 152.938 76.304 152.938 76.7273ZM158.925 80V73.4545H160.468V80H158.925ZM159.701 72.5256C159.457 72.5256 159.246 72.4446 159.07 72.2827C158.894 72.1179 158.806 71.9205 158.806 71.6903C158.806 71.4574 158.894 71.2599 159.07 71.098C159.246 70.9332 159.457 70.8509 159.701 70.8509C159.948 70.8509 160.158 70.9332 160.332 71.098C160.508 71.2599 160.596 71.4574 160.596 71.6903C160.596 71.9205 160.508 72.1179 160.332 72.2827C160.158 72.4446 159.948 72.5256 159.701 72.5256ZM163.597 71.2727V80H162.054V71.2727H163.597ZM166.726 71.2727V80H165.183V71.2727H166.726ZM170.196 80.1321C169.781 80.1321 169.407 80.0582 169.075 79.9105C168.745 79.7599 168.484 79.5384 168.291 79.2457C168.1 78.9531 168.005 78.5923 168.005 78.1634C168.005 77.794 168.074 77.4886 168.21 77.2472C168.346 77.0057 168.532 76.8125 168.768 76.6676C169.004 76.5227 169.27 76.4134 169.565 76.3395C169.863 76.2628 170.172 76.2074 170.49 76.1733C170.873 76.1335 171.184 76.098 171.423 76.0668C171.662 76.0327 171.835 75.9815 171.943 75.9134C172.054 75.8423 172.109 75.733 172.109 75.5852V75.5597C172.109 75.2386 172.014 74.9901 171.824 74.8139C171.633 74.6378 171.359 74.5497 171.001 74.5497C170.623 74.5497 170.324 74.6321 170.102 74.7969C169.883 74.9616 169.735 75.1562 169.659 75.3807L168.218 75.1761C168.332 74.7784 168.52 74.446 168.781 74.179C169.042 73.9091 169.362 73.7074 169.74 73.5739C170.118 73.4375 170.535 73.3693 170.993 73.3693C171.308 73.3693 171.622 73.4062 171.934 73.4801C172.247 73.554 172.532 73.6761 172.791 73.8466C173.049 74.0142 173.257 74.2429 173.413 74.5327C173.572 74.8224 173.652 75.1847 173.652 75.6193V80H172.169V79.1009H172.118C172.024 79.2827 171.892 79.4531 171.721 79.6122C171.554 79.7685 171.342 79.8949 171.086 79.9915C170.833 80.0852 170.537 80.1321 170.196 80.1321ZM170.596 78.9986C170.906 78.9986 171.174 78.9375 171.402 78.8153C171.629 78.6903 171.804 78.5256 171.926 78.321C172.051 78.1165 172.113 77.8935 172.113 77.652V76.8807C172.065 76.9205 171.983 76.9574 171.866 76.9915C171.752 77.0256 171.625 77.0554 171.483 77.081C171.341 77.1065 171.2 77.1293 171.061 77.1491C170.922 77.169 170.801 77.1861 170.699 77.2003C170.468 77.2315 170.262 77.2827 170.081 77.3537C169.899 77.4247 169.755 77.5241 169.65 77.652C169.545 77.777 169.493 77.9389 169.493 78.1378C169.493 78.4219 169.596 78.6364 169.804 78.7812C170.011 78.9261 170.275 78.9986 170.596 78.9986ZM175.203 80V73.4545H176.699V74.5455H176.767C176.886 74.1676 177.091 73.8764 177.38 73.6719C177.673 73.4645 178.007 73.3608 178.382 73.3608C178.467 73.3608 178.562 73.3651 178.667 73.3736C178.775 73.3793 178.865 73.3892 178.936 73.4034V74.8224C178.87 74.7997 178.767 74.7798 178.625 74.7628C178.485 74.7429 178.35 74.733 178.22 74.733C177.939 74.733 177.686 74.794 177.461 74.9162C177.24 75.0355 177.065 75.2017 176.937 75.4148C176.809 75.6278 176.745 75.8736 176.745 76.152V80H175.203ZM185.792 80.1278C185.153 80.1278 184.599 79.9872 184.13 79.706C183.662 79.4247 183.298 79.0312 183.039 78.5256C182.784 78.0199 182.656 77.429 182.656 76.7528C182.656 76.0767 182.784 75.4844 183.039 74.9759C183.298 74.4673 183.662 74.0724 184.13 73.7912C184.599 73.5099 185.153 73.3693 185.792 73.3693C186.431 73.3693 186.985 73.5099 187.454 73.7912C187.923 74.0724 188.285 74.4673 188.541 74.9759C188.799 75.4844 188.929 76.0767 188.929 76.7528C188.929 77.429 188.799 78.0199 188.541 78.5256C188.285 79.0312 187.923 79.4247 187.454 79.706C186.985 79.9872 186.431 80.1278 185.792 80.1278ZM185.801 78.892C186.147 78.892 186.437 78.7969 186.67 78.6065C186.903 78.4134 187.076 78.1548 187.19 77.831C187.306 77.5071 187.365 77.1463 187.365 76.7486C187.365 76.348 187.306 75.9858 187.19 75.6619C187.076 75.3352 186.903 75.0753 186.67 74.8821C186.437 74.6889 186.147 74.5923 185.801 74.5923C185.446 74.5923 185.15 74.6889 184.914 74.8821C184.681 75.0753 184.507 75.3352 184.39 75.6619C184.277 75.9858 184.22 76.348 184.22 76.7486C184.22 77.1463 184.277 77.5071 184.39 77.831C184.507 78.1548 184.681 78.4134 184.914 78.6065C185.15 78.7969 185.446 78.892 185.801 78.892ZM193.553 73.4545V74.6477H189.684V73.4545H193.553ZM190.651 80V72.8366C190.651 72.3963 190.742 72.0298 190.924 71.7372C191.109 71.4446 191.356 71.2259 191.665 71.081C191.975 70.9361 192.319 70.8636 192.697 70.8636C192.964 70.8636 193.201 70.8849 193.408 70.9276C193.616 70.9702 193.769 71.0085 193.869 71.0426L193.562 72.2358C193.496 72.2159 193.414 72.196 193.315 72.1761C193.215 72.1534 193.104 72.142 192.982 72.142C192.695 72.142 192.492 72.2116 192.373 72.3509C192.256 72.4872 192.198 72.6832 192.198 72.9389V80H190.651ZM197.806 80V71.2727H199.349V74.5369H199.413C199.492 74.3778 199.604 74.2088 199.749 74.0298C199.894 73.848 200.09 73.6932 200.337 73.5653C200.585 73.4347 200.9 73.3693 201.283 73.3693C201.789 73.3693 202.245 73.4986 202.651 73.7571C203.06 74.0128 203.384 74.392 203.623 74.8949C203.864 75.3949 203.985 76.0085 203.985 76.7358C203.985 77.4545 203.867 78.0653 203.631 78.5682C203.396 79.071 203.075 79.4545 202.668 79.7188C202.262 79.983 201.802 80.1151 201.288 80.1151C200.913 80.1151 200.602 80.0526 200.354 79.9276C200.107 79.8026 199.908 79.652 199.758 79.4759C199.61 79.2969 199.495 79.1278 199.413 78.9688H199.323V80H197.806ZM199.319 76.7273C199.319 77.1506 199.379 77.5213 199.498 77.8395C199.62 78.1577 199.795 78.4062 200.022 78.5852C200.252 78.7614 200.531 78.8494 200.857 78.8494C201.198 78.8494 201.484 78.7585 201.714 78.5767C201.944 78.392 202.117 78.1406 202.234 77.8224C202.353 77.5014 202.413 77.1364 202.413 76.7273C202.413 76.321 202.354 75.9602 202.238 75.6449C202.121 75.3295 201.948 75.0824 201.718 74.9034C201.488 74.7244 201.201 74.6349 200.857 74.6349C200.528 74.6349 200.248 74.7216 200.018 74.8949C199.788 75.0682 199.613 75.3111 199.494 75.6236C199.377 75.9361 199.319 76.304 199.319 76.7273ZM208.194 80.1278C207.538 80.1278 206.971 79.9915 206.494 79.7188C206.02 79.4432 205.654 79.054 205.399 78.5511C205.143 78.0455 205.015 77.4503 205.015 76.7656C205.015 76.0923 205.143 75.5014 205.399 74.9929C205.657 74.4815 206.018 74.0838 206.481 73.7997C206.944 73.5128 207.488 73.3693 208.113 73.3693C208.517 73.3693 208.897 73.4347 209.255 73.5653C209.616 73.6932 209.934 73.892 210.21 74.1619C210.488 74.4318 210.707 74.7756 210.866 75.1932C211.025 75.608 211.105 76.1023 211.105 76.6761V77.1491H205.74V76.1094H209.626C209.623 75.8139 209.559 75.5511 209.434 75.321C209.309 75.0881 209.135 74.9048 208.91 74.7713C208.689 74.6378 208.43 74.571 208.135 74.571C207.819 74.571 207.542 74.6477 207.304 74.8011C207.065 74.9517 206.879 75.1506 206.745 75.3977C206.615 75.642 206.548 75.9105 206.545 76.2031V77.1108C206.545 77.4915 206.615 77.8182 206.754 78.0909C206.893 78.3608 207.088 78.5682 207.338 78.7131C207.588 78.8551 207.88 78.9261 208.216 78.9261C208.44 78.9261 208.643 78.8949 208.825 78.8324C209.007 78.767 209.164 78.6719 209.298 78.5469C209.431 78.4219 209.532 78.267 209.6 78.0824L211.041 78.2443C210.95 78.625 210.777 78.9574 210.521 79.2415C210.268 79.5227 209.944 79.7415 209.549 79.8977C209.154 80.0511 208.703 80.1278 208.194 80.1278ZM212.41 80V73.4545H213.952V80H212.41ZM213.185 72.5256C212.941 72.5256 212.731 72.4446 212.555 72.2827C212.379 72.1179 212.29 71.9205 212.29 71.6903C212.29 71.4574 212.379 71.2599 212.555 71.098C212.731 70.9332 212.941 70.8509 213.185 70.8509C213.433 70.8509 213.643 70.9332 213.816 71.098C213.992 71.2599 214.08 71.4574 214.08 71.6903C214.08 71.9205 213.992 72.1179 213.816 72.2827C213.643 72.4446 213.433 72.5256 213.185 72.5256ZM217.081 76.1648V80H215.539V73.4545H217.013V74.5668H217.09C217.24 74.2003 217.48 73.9091 217.81 73.6932C218.142 73.4773 218.553 73.3693 219.042 73.3693C219.493 73.3693 219.887 73.4659 220.222 73.6591C220.56 73.8523 220.821 74.1321 221.006 74.4986C221.194 74.8651 221.286 75.3097 221.283 75.8324V80H219.74V76.071C219.74 75.6335 219.627 75.2912 219.4 75.044C219.175 74.7969 218.864 74.6733 218.466 74.6733C218.196 74.6733 217.956 74.733 217.746 74.8523C217.539 74.9687 217.375 75.1378 217.256 75.3594C217.14 75.581 217.081 75.8494 217.081 76.1648ZM225.698 82.5909C225.144 82.5909 224.668 82.5156 224.27 82.3651C223.873 82.2173 223.553 82.0185 223.311 81.7685C223.07 81.5185 222.902 81.2415 222.809 80.9375L224.198 80.6009C224.26 80.7287 224.351 80.8551 224.471 80.9801C224.59 81.108 224.75 81.2131 224.952 81.2955C225.157 81.3807 225.414 81.4233 225.723 81.4233C226.161 81.4233 226.523 81.3168 226.81 81.1037C227.097 80.8935 227.24 80.5469 227.24 80.0639V78.8239H227.164C227.084 78.983 226.968 79.1463 226.814 79.3139C226.664 79.4815 226.463 79.6222 226.213 79.7358C225.966 79.8494 225.655 79.9062 225.28 79.9062C224.777 79.9062 224.321 79.7884 223.912 79.5526C223.506 79.3139 223.182 78.9588 222.941 78.4872C222.702 78.0128 222.583 77.419 222.583 76.706C222.583 75.9872 222.702 75.3807 222.941 74.8864C223.182 74.3892 223.507 74.0128 223.917 73.7571C224.326 73.4986 224.782 73.3693 225.284 73.3693C225.668 73.3693 225.983 73.4347 226.23 73.5653C226.48 73.6932 226.679 73.848 226.827 74.0298C226.975 74.2088 227.087 74.3778 227.164 74.5369H227.249V73.4545H228.77V80.1065C228.77 80.6662 228.637 81.1293 228.37 81.4957C228.103 81.8622 227.738 82.1364 227.275 82.3182C226.811 82.5 226.286 82.5909 225.698 82.5909ZM225.711 78.696C226.037 78.696 226.316 78.6165 226.546 78.4574C226.776 78.2983 226.951 78.0696 227.07 77.7713C227.189 77.473 227.249 77.1151 227.249 76.6974C227.249 76.2855 227.189 75.9247 227.07 75.6151C226.953 75.3054 226.78 75.0653 226.55 74.8949C226.323 74.7216 226.043 74.6349 225.711 74.6349C225.367 74.6349 225.08 74.7244 224.85 74.9034C224.62 75.0824 224.446 75.3281 224.33 75.6406C224.213 75.9503 224.155 76.3026 224.155 76.6974C224.155 77.098 224.213 77.4489 224.33 77.75C224.449 78.0483 224.624 78.2812 224.854 78.4489C225.087 78.6136 225.373 78.696 225.711 78.696ZM233.328 80V73.4545H234.802V74.5668H234.879C235.015 74.1918 235.241 73.8991 235.556 73.6889C235.872 73.4759 236.248 73.3693 236.686 73.3693C237.129 73.3693 237.502 73.4773 237.806 73.6932C238.113 73.9062 238.329 74.1974 238.454 74.5668H238.522C238.667 74.2031 238.912 73.9134 239.255 73.6974C239.602 73.4787 240.012 73.3693 240.487 73.3693C241.089 73.3693 241.581 73.5597 241.961 73.9403C242.342 74.321 242.532 74.8764 242.532 75.6065V80H240.985V75.8452C240.985 75.4389 240.877 75.142 240.662 74.9545C240.446 74.7642 240.181 74.669 239.869 74.669C239.497 74.669 239.206 74.7855 238.995 75.0185C238.788 75.2486 238.684 75.5483 238.684 75.9176V80H237.172V75.7812C237.172 75.4432 237.069 75.1733 236.865 74.9716C236.663 74.7699 236.399 74.669 236.072 74.669C235.85 74.669 235.649 74.7259 235.467 74.8395C235.285 74.9503 235.14 75.108 235.032 75.3125C234.924 75.5142 234.87 75.75 234.87 76.0199V80H233.328ZM246.952 80.1278C246.313 80.1278 245.759 79.9872 245.29 79.706C244.822 79.4247 244.458 79.0312 244.2 78.5256C243.944 78.0199 243.816 77.429 243.816 76.7528C243.816 76.0767 243.944 75.4844 244.2 74.9759C244.458 74.4673 244.822 74.0724 245.29 73.7912C245.759 73.5099 246.313 73.3693 246.952 73.3693C247.592 73.3693 248.146 73.5099 248.614 73.7912C249.083 74.0724 249.445 74.4673 249.701 74.9759C249.96 75.4844 250.089 76.0767 250.089 76.7528C250.089 77.429 249.96 78.0199 249.701 78.5256C249.445 79.0312 249.083 79.4247 248.614 79.706C248.146 79.9872 247.592 80.1278 246.952 80.1278ZM246.961 78.892C247.308 78.892 247.597 78.7969 247.83 78.6065C248.063 78.4134 248.237 78.1548 248.35 77.831C248.467 77.5071 248.525 77.1463 248.525 76.7486C248.525 76.348 248.467 75.9858 248.35 75.6619C248.237 75.3352 248.063 75.0753 247.83 74.8821C247.597 74.6889 247.308 74.5923 246.961 74.5923C246.606 74.5923 246.31 74.6889 246.075 74.8821C245.842 75.0753 245.667 75.3352 245.55 75.6619C245.437 75.9858 245.38 76.348 245.38 76.7486C245.38 77.1463 245.437 77.5071 245.55 77.831C245.667 78.1548 245.842 78.4134 246.075 78.6065C246.31 78.7969 246.606 78.892 246.961 78.892ZM251.398 80V73.4545H252.894V74.5455H252.962C253.081 74.1676 253.286 73.8764 253.576 73.6719C253.868 73.4645 254.202 73.3608 254.577 73.3608C254.662 73.3608 254.757 73.3651 254.863 73.3736C254.971 73.3793 255.06 73.3892 255.131 73.4034V74.8224C255.066 74.7997 254.962 74.7798 254.82 74.7628C254.681 74.7429 254.546 74.733 254.415 74.733C254.134 74.733 253.881 74.794 253.657 74.9162C253.435 75.0355 253.26 75.2017 253.132 75.4148C253.005 75.6278 252.941 75.8736 252.941 76.152V80H251.398ZM258.784 80.1278C258.128 80.1278 257.561 79.9915 257.084 79.7188C256.609 79.4432 256.244 79.054 255.989 78.5511C255.733 78.0455 255.605 77.4503 255.605 76.7656C255.605 76.0923 255.733 75.5014 255.989 74.9929C256.247 74.4815 256.608 74.0838 257.071 73.7997C257.534 73.5128 258.078 73.3693 258.703 73.3693C259.107 73.3693 259.487 73.4347 259.845 73.5653C260.206 73.6932 260.524 73.892 260.8 74.1619C261.078 74.4318 261.297 74.7756 261.456 75.1932C261.615 75.608 261.695 76.1023 261.695 76.6761V77.1491H256.33V76.1094H260.216C260.213 75.8139 260.149 75.5511 260.024 75.321C259.899 75.0881 259.724 74.9048 259.5 74.7713C259.278 74.6378 259.02 74.571 258.724 74.571C258.409 74.571 258.132 74.6477 257.893 74.8011C257.655 74.9517 257.469 75.1506 257.335 75.3977C257.205 75.642 257.138 75.9105 257.135 76.2031V77.1108C257.135 77.4915 257.205 77.8182 257.344 78.0909C257.483 78.3608 257.678 78.5682 257.928 78.7131C258.178 78.8551 258.47 78.9261 258.805 78.9261C259.03 78.9261 259.233 78.8949 259.415 78.8324C259.597 78.767 259.754 78.6719 259.888 78.5469C260.021 78.4219 260.122 78.267 260.19 78.0824L261.631 78.2443C261.54 78.625 261.366 78.9574 261.111 79.2415C260.858 79.5227 260.534 79.7415 260.139 79.8977C259.744 80.0511 259.293 80.1278 258.784 80.1278ZM30.7926 95V88.4545H32.267V89.5668H32.3438C32.4801 89.1918 32.706 88.8991 33.0213 88.6889C33.3366 88.4759 33.7131 88.3693 34.1506 88.3693C34.5938 88.3693 34.9673 88.4773 35.2713 88.6932C35.5781 88.9062 35.794 89.1974 35.919 89.5668H35.9872C36.1321 89.2031 36.3764 88.9134 36.7202 88.6974C37.0668 88.4787 37.4773 88.3693 37.9517 88.3693C38.554 88.3693 39.0455 88.5597 39.4261 88.9403C39.8068 89.321 39.9972 89.8764 39.9972 90.6065V95H38.4503V90.8452C38.4503 90.4389 38.3423 90.142 38.1264 89.9545C37.9105 89.7642 37.6463 89.669 37.3338 89.669C36.9616 89.669 36.6705 89.7855 36.4602 90.0185C36.2528 90.2486 36.1491 90.5483 36.1491 90.9176V95H34.6364V90.7812C34.6364 90.4432 34.5341 90.1733 34.3295 89.9716C34.1278 89.7699 33.8636 89.669 33.5369 89.669C33.3153 89.669 33.1136 89.7259 32.9318 89.8395C32.75 89.9503 32.6051 90.108 32.4972 90.3125C32.3892 90.5142 32.3352 90.75 32.3352 91.0199V95H30.7926ZM41.5621 95V88.4545H43.1048V95H41.5621ZM42.3377 87.5256C42.0934 87.5256 41.8832 87.4446 41.707 87.2827C41.5309 87.1179 41.4428 86.9205 41.4428 86.6903C41.4428 86.4574 41.5309 86.2599 41.707 86.098C41.8832 85.9332 42.0934 85.8509 42.3377 85.8509C42.5849 85.8509 42.7951 85.9332 42.9684 86.098C43.1445 86.2599 43.2326 86.4574 43.2326 86.6903C43.2326 86.9205 43.1445 87.1179 42.9684 87.2827C42.7951 87.4446 42.5849 87.5256 42.3377 87.5256ZM46.2337 91.1648V95H44.6911V88.4545H46.1655V89.5668H46.2422C46.3928 89.2003 46.6328 88.9091 46.9624 88.6932C47.2947 88.4773 47.7053 88.3693 48.1939 88.3693C48.6456 88.3693 49.0391 88.4659 49.3743 88.6591C49.7124 88.8523 49.9737 89.1321 50.1584 89.4986C50.3459 89.8651 50.4382 90.3097 50.4354 90.8324V95H48.8928V91.071C48.8928 90.6335 48.7791 90.2912 48.5518 90.044C48.3274 89.7969 48.0163 89.6733 47.6186 89.6733C47.3487 89.6733 47.1087 89.733 46.8984 89.8523C46.6911 89.9687 46.5277 90.1378 46.4084 90.3594C46.2919 90.581 46.2337 90.8494 46.2337 91.1648ZM54.4325 95.1151C53.9183 95.1151 53.4581 94.983 53.0518 94.7188C52.6456 94.4545 52.3246 94.071 52.0888 93.5682C51.853 93.0653 51.7351 92.4545 51.7351 91.7358C51.7351 91.0085 51.8544 90.3949 52.093 89.8949C52.3345 89.392 52.6598 89.0128 53.0689 88.7571C53.478 88.4986 53.9339 88.3693 54.4368 88.3693C54.8203 88.3693 55.1357 88.4347 55.3828 88.5653C55.63 88.6932 55.826 88.848 55.9709 89.0298C56.1158 89.2088 56.228 89.3778 56.3075 89.5369H56.3714V86.2727H57.9183V95H56.4013V93.9688H56.3075C56.228 94.1278 56.1129 94.2969 55.9624 94.4759C55.8118 94.652 55.6129 94.8026 55.3658 94.9276C55.1186 95.0526 54.8075 95.1151 54.4325 95.1151ZM54.8629 93.8494C55.1896 93.8494 55.468 93.7614 55.6982 93.5852C55.9283 93.4062 56.103 93.1577 56.2223 92.8395C56.3416 92.5213 56.4013 92.1506 56.4013 91.7273C56.4013 91.304 56.3416 90.9361 56.2223 90.6236C56.1058 90.3111 55.9325 90.0682 55.7024 89.8949C55.4751 89.7216 55.1953 89.6349 54.8629 89.6349C54.5192 89.6349 54.2322 89.7244 54.0021 89.9034C53.772 90.0824 53.5987 90.3295 53.4822 90.6449C53.3658 90.9602 53.3075 91.321 53.3075 91.7273C53.3075 92.1364 53.3658 92.5014 53.4822 92.8224C53.6016 93.1406 53.7763 93.392 54.0064 93.5767C54.2393 93.7585 54.5249 93.8494 54.8629 93.8494ZM62.8775 88.4545V89.6477H59.0082V88.4545H62.8775ZM59.9755 95V87.8366C59.9755 87.3963 60.0664 87.0298 60.2482 86.7372C60.4329 86.4446 60.68 86.2259 60.9897 86.081C61.2994 85.9361 61.6431 85.8636 62.021 85.8636C62.288 85.8636 62.5252 85.8849 62.7326 85.9276C62.94 85.9702 63.0934 86.0085 63.1928 86.0426L62.886 87.2358C62.8207 87.2159 62.7383 87.196 62.6388 87.1761C62.5394 87.1534 62.4286 87.142 62.3065 87.142C62.0195 87.142 61.8164 87.2116 61.6971 87.3509C61.5806 87.4872 61.5224 87.6832 61.5224 87.9389V95H59.9755ZM68.2575 92.2472V88.4545H69.8001V95H68.3043V93.8366H68.2362C68.0884 94.2031 67.8455 94.5028 67.5075 94.7358C67.1722 94.9687 66.7589 95.0852 66.2674 95.0852C65.8384 95.0852 65.4592 94.9901 65.1296 94.7997C64.8029 94.6065 64.5472 94.3267 64.3626 93.9602C64.1779 93.5909 64.0856 93.1449 64.0856 92.6222V88.4545H65.6282V92.3835C65.6282 92.7983 65.7418 93.1278 65.9691 93.3722C66.1964 93.6165 66.4947 93.7386 66.864 93.7386C67.0913 93.7386 67.3114 93.6832 67.5245 93.5724C67.7376 93.4616 67.9123 93.2969 68.0487 93.0781C68.1879 92.8565 68.2575 92.5795 68.2575 92.2472ZM72.929 86.2727V95H71.3864V86.2727H72.929ZM77.4918 95V88.4545H79.0344V95H77.4918ZM78.2674 87.5256C78.0231 87.5256 77.8129 87.4446 77.6367 87.2827C77.4606 87.1179 77.3725 86.9205 77.3725 86.6903C77.3725 86.4574 77.4606 86.2599 77.6367 86.098C77.8129 85.9332 78.0231 85.8509 78.2674 85.8509C78.5146 85.8509 78.7248 85.9332 78.8981 86.098C79.0742 86.2599 79.1623 86.4574 79.1623 86.6903C79.1623 86.9205 79.0742 87.1179 78.8981 87.2827C78.7248 87.4446 78.5146 87.5256 78.2674 87.5256ZM82.1634 91.1648V95H80.6207V88.4545H82.0952V89.5668H82.1719C82.3224 89.2003 82.5625 88.9091 82.892 88.6932C83.2244 88.4773 83.6349 88.3693 84.1236 88.3693C84.5753 88.3693 84.9688 88.4659 85.304 88.6591C85.642 88.8523 85.9034 89.1321 86.0881 89.4986C86.2756 89.8651 86.3679 90.3097 86.3651 90.8324V95H84.8224V91.071C84.8224 90.6335 84.7088 90.2912 84.4815 90.044C84.2571 89.7969 83.946 89.6733 83.5483 89.6733C83.2784 89.6733 83.0384 89.733 82.8281 89.8523C82.6207 89.9687 82.4574 90.1378 82.3381 90.3594C82.2216 90.581 82.1634 90.8494 82.1634 91.1648ZM93.7649 95.1278C93.1257 95.1278 92.5717 94.9872 92.103 94.706C91.6342 94.4247 91.2706 94.0312 91.0121 93.5256C90.7564 93.0199 90.6286 92.429 90.6286 91.7528C90.6286 91.0767 90.7564 90.4844 91.0121 89.9759C91.2706 89.4673 91.6342 89.0724 92.103 88.7912C92.5717 88.5099 93.1257 88.3693 93.7649 88.3693C94.4041 88.3693 94.9581 88.5099 95.4268 88.7912C95.8956 89.0724 96.2578 89.4673 96.5135 89.9759C96.772 90.4844 96.9013 91.0767 96.9013 91.7528C96.9013 92.429 96.772 93.0199 96.5135 93.5256C96.2578 94.0312 95.8956 94.4247 95.4268 94.706C94.9581 94.9872 94.4041 95.1278 93.7649 95.1278ZM93.7734 93.892C94.12 93.892 94.4098 93.7969 94.6428 93.6065C94.8757 93.4134 95.049 93.1548 95.1626 92.831C95.2791 92.5071 95.3374 92.1463 95.3374 91.7486C95.3374 91.348 95.2791 90.9858 95.1626 90.6619C95.049 90.3352 94.8757 90.0753 94.6428 89.8821C94.4098 89.6889 94.12 89.5923 93.7734 89.5923C93.4183 89.5923 93.1229 89.6889 92.8871 89.8821C92.6541 90.0753 92.4794 90.3352 92.3629 90.6619C92.2493 90.9858 92.1925 91.348 92.1925 91.7486C92.1925 92.1463 92.2493 92.5071 92.3629 92.831C92.4794 93.1548 92.6541 93.4134 92.8871 93.6065C93.1229 93.7969 93.4183 93.892 93.7734 93.892ZM102.382 92.2472V88.4545H103.925V95H102.429V93.8366H102.361C102.213 94.2031 101.971 94.5028 101.632 94.7358C101.297 94.9687 100.884 95.0852 100.392 95.0852C99.9634 95.0852 99.5842 94.9901 99.2546 94.7997C98.9279 94.6065 98.6722 94.3267 98.4876 93.9602C98.3029 93.5909 98.2106 93.1449 98.2106 92.6222V88.4545H99.7532V92.3835C99.7532 92.7983 99.8668 93.1278 100.094 93.3722C100.321 93.6165 100.62 93.7386 100.989 93.7386C101.216 93.7386 101.436 93.6832 101.65 93.5724C101.863 93.4616 102.037 93.2969 102.174 93.0781C102.313 92.8565 102.382 92.5795 102.382 92.2472ZM108.78 88.4545V89.6477H105.017V88.4545H108.78ZM105.946 86.8864H107.489V93.0312C107.489 93.2386 107.52 93.3977 107.582 93.5085C107.648 93.6165 107.733 93.6903 107.838 93.7301C107.943 93.7699 108.06 93.7898 108.188 93.7898C108.284 93.7898 108.372 93.7827 108.452 93.7685C108.534 93.7543 108.597 93.7415 108.639 93.7301L108.899 94.9361C108.817 94.9645 108.699 94.9957 108.545 95.0298C108.395 95.0639 108.21 95.0838 107.991 95.0895C107.605 95.1009 107.257 95.0426 106.947 94.9148C106.638 94.7841 106.392 94.5824 106.21 94.3097C106.031 94.0369 105.943 93.696 105.946 93.2869V86.8864ZM115.475 95.1151C114.961 95.1151 114.501 94.983 114.095 94.7188C113.689 94.4545 113.368 94.071 113.132 93.5682C112.896 93.0653 112.778 92.4545 112.778 91.7358C112.778 91.0085 112.897 90.3949 113.136 89.8949C113.377 89.392 113.703 89.0128 114.112 88.7571C114.521 88.4986 114.977 88.3693 115.48 88.3693C115.863 88.3693 116.179 88.4347 116.426 88.5653C116.673 88.6932 116.869 88.848 117.014 89.0298C117.159 89.2088 117.271 89.3778 117.35 89.5369H117.414V86.2727H118.961V95H117.444V93.9688H117.35C117.271 94.1278 117.156 94.2969 117.005 94.4759C116.855 94.652 116.656 94.8026 116.409 94.9276C116.162 95.0526 115.85 95.1151 115.475 95.1151ZM115.906 93.8494C116.233 93.8494 116.511 93.7614 116.741 93.5852C116.971 93.4062 117.146 93.1577 117.265 92.8395C117.385 92.5213 117.444 92.1506 117.444 91.7273C117.444 91.304 117.385 90.9361 117.265 90.6236C117.149 90.3111 116.975 90.0682 116.745 89.8949C116.518 89.7216 116.238 89.6349 115.906 89.6349C115.562 89.6349 115.275 89.7244 115.045 89.9034C114.815 90.0824 114.642 90.3295 114.525 90.6449C114.409 90.9602 114.35 91.321 114.35 91.7273C114.35 92.1364 114.409 92.5014 114.525 92.8224C114.645 93.1406 114.819 93.392 115.049 93.5767C115.282 93.7585 115.568 93.8494 115.906 93.8494ZM122.489 95.1321C122.074 95.1321 121.7 95.0582 121.368 94.9105C121.038 94.7599 120.777 94.5384 120.584 94.2457C120.393 93.9531 120.298 93.5923 120.298 93.1634C120.298 92.794 120.366 92.4886 120.503 92.2472C120.639 92.0057 120.825 91.8125 121.061 91.6676C121.297 91.5227 121.563 91.4134 121.858 91.3395C122.156 91.2628 122.464 91.2074 122.783 91.1733C123.166 91.1335 123.477 91.098 123.716 91.0668C123.955 91.0327 124.128 90.9815 124.236 90.9134C124.347 90.8423 124.402 90.733 124.402 90.5852V90.5597C124.402 90.2386 124.307 89.9901 124.116 89.8139C123.926 89.6378 123.652 89.5497 123.294 89.5497C122.916 89.5497 122.616 89.6321 122.395 89.7969C122.176 89.9616 122.028 90.1562 121.952 90.3807L120.511 90.1761C120.625 89.7784 120.813 89.446 121.074 89.179C121.335 88.9091 121.655 88.7074 122.033 88.5739C122.411 88.4375 122.828 88.3693 123.286 88.3693C123.601 88.3693 123.915 88.4062 124.227 88.4801C124.54 88.554 124.825 88.6761 125.084 88.8466C125.342 89.0142 125.55 89.2429 125.706 89.5327C125.865 89.8224 125.945 90.1847 125.945 90.6193V95H124.462V94.1009H124.411C124.317 94.2827 124.185 94.4531 124.014 94.6122C123.847 94.7685 123.635 94.8949 123.379 94.9915C123.126 95.0852 122.83 95.1321 122.489 95.1321ZM122.889 93.9986C123.199 93.9986 123.467 93.9375 123.695 93.8153C123.922 93.6903 124.097 93.5256 124.219 93.321C124.344 93.1165 124.406 92.8935 124.406 92.652V91.8807C124.358 91.9205 124.276 91.9574 124.159 91.9915C124.045 92.0256 123.918 92.0554 123.776 92.081C123.634 92.1065 123.493 92.1293 123.354 92.1491C123.214 92.169 123.094 92.1861 122.991 92.2003C122.761 92.2315 122.555 92.2827 122.374 92.3537C122.192 92.4247 122.048 92.5241 121.943 92.652C121.838 92.777 121.786 92.9389 121.786 93.1378C121.786 93.4219 121.889 93.6364 122.097 93.7812C122.304 93.9261 122.568 93.9986 122.889 93.9986ZM128.22 97.4545C128.01 97.4545 127.815 97.4375 127.636 97.4034C127.46 97.3722 127.32 97.3352 127.214 97.2926L127.572 96.0909C127.797 96.1563 127.997 96.1875 128.173 96.1847C128.349 96.1818 128.504 96.1264 128.638 96.0185C128.774 95.9134 128.889 95.7372 128.983 95.4901L129.115 95.1364L126.741 88.4545H128.378L129.886 93.3977H129.955L131.467 88.4545H133.108L130.487 95.7926C130.365 96.1392 130.203 96.4361 130.001 96.6832C129.8 96.9332 129.553 97.1236 129.26 97.2543C128.97 97.3878 128.624 97.4545 128.22 97.4545ZM140.42 88.4545V89.6477H136.658V88.4545H140.42ZM137.587 86.8864H139.129V93.0312C139.129 93.2386 139.161 93.3977 139.223 93.5085C139.288 93.6165 139.374 93.6903 139.479 93.7301C139.584 93.7699 139.7 93.7898 139.828 93.7898C139.925 93.7898 140.013 93.7827 140.092 93.7685C140.175 93.7543 140.237 93.7415 140.28 93.7301L140.54 94.9361C140.457 94.9645 140.339 94.9957 140.186 95.0298C140.036 95.0639 139.851 95.0838 139.632 95.0895C139.246 95.1009 138.898 95.0426 138.588 94.9148C138.278 94.7841 138.033 94.5824 137.851 94.3097C137.672 94.0369 137.584 93.696 137.587 93.2869V86.8864ZM144.495 95.1278C143.856 95.1278 143.302 94.9872 142.833 94.706C142.365 94.4247 142.001 94.0312 141.743 93.5256C141.487 93.0199 141.359 92.429 141.359 91.7528C141.359 91.0767 141.487 90.4844 141.743 89.9759C142.001 89.4673 142.365 89.0724 142.833 88.7912C143.302 88.5099 143.856 88.3693 144.495 88.3693C145.135 88.3693 145.689 88.5099 146.157 88.7912C146.626 89.0724 146.988 89.4673 147.244 89.9759C147.502 90.4844 147.632 91.0767 147.632 91.7528C147.632 92.429 147.502 93.0199 147.244 93.5256C146.988 94.0312 146.626 94.4247 146.157 94.706C145.689 94.9872 145.135 95.1278 144.495 95.1278ZM144.504 93.892C144.85 93.892 145.14 93.7969 145.373 93.6065C145.606 93.4134 145.779 93.1548 145.893 92.831C146.01 92.5071 146.068 92.1463 146.068 91.7486C146.068 91.348 146.01 90.9858 145.893 90.6619C145.779 90.3352 145.606 90.0753 145.373 89.8821C145.14 89.6889 144.85 89.5923 144.504 89.5923C144.149 89.5923 143.853 89.6889 143.618 89.8821C143.385 90.0753 143.21 90.3352 143.093 90.6619C142.98 90.9858 142.923 91.348 142.923 91.7486C142.923 92.1463 142.98 92.5071 143.093 92.831C143.21 93.1548 143.385 93.4134 143.618 93.6065C143.853 93.7969 144.149 93.892 144.504 93.892ZM154.347 95.1151C153.832 95.1151 153.372 94.983 152.966 94.7188C152.56 94.4545 152.239 94.071 152.003 93.5682C151.767 93.0653 151.649 92.4545 151.649 91.7358C151.649 91.0085 151.768 90.3949 152.007 89.8949C152.249 89.392 152.574 89.0128 152.983 88.7571C153.392 88.4986 153.848 88.3693 154.351 88.3693C154.734 88.3693 155.05 88.4347 155.297 88.5653C155.544 88.6932 155.74 88.848 155.885 89.0298C156.03 89.2088 156.142 89.3778 156.222 89.5369H156.286V86.2727H157.832V95H156.315V93.9688H156.222C156.142 94.1278 156.027 94.2969 155.876 94.4759C155.726 94.652 155.527 94.8026 155.28 94.9276C155.033 95.0526 154.722 95.1151 154.347 95.1151ZM154.777 93.8494C155.104 93.8494 155.382 93.7614 155.612 93.5852C155.842 93.4062 156.017 93.1577 156.136 92.8395C156.256 92.5213 156.315 92.1506 156.315 91.7273C156.315 91.304 156.256 90.9361 156.136 90.6236C156.02 90.3111 155.847 90.0682 155.616 89.8949C155.389 89.7216 155.109 89.6349 154.777 89.6349C154.433 89.6349 154.146 89.7244 153.916 89.9034C153.686 90.0824 153.513 90.3295 153.396 90.6449C153.28 90.9602 153.222 91.321 153.222 91.7273C153.222 92.1364 153.28 92.5014 153.396 92.8224C153.516 93.1406 153.69 93.392 153.92 93.5767C154.153 93.7585 154.439 93.8494 154.777 93.8494ZM161.36 95.1321C160.945 95.1321 160.571 95.0582 160.239 94.9105C159.909 94.7599 159.648 94.5384 159.455 94.2457C159.265 93.9531 159.169 93.5923 159.169 93.1634C159.169 92.794 159.238 92.4886 159.374 92.2472C159.51 92.0057 159.696 91.8125 159.932 91.6676C160.168 91.5227 160.434 91.4134 160.729 91.3395C161.027 91.2628 161.336 91.2074 161.654 91.1733C162.037 91.1335 162.348 91.098 162.587 91.0668C162.826 91.0327 162.999 90.9815 163.107 90.9134C163.218 90.8423 163.273 90.733 163.273 90.5852V90.5597C163.273 90.2386 163.178 89.9901 162.988 89.8139C162.797 89.6378 162.523 89.5497 162.165 89.5497C161.787 89.5497 161.488 89.6321 161.266 89.7969C161.047 89.9616 160.9 90.1562 160.823 90.3807L159.382 90.1761C159.496 89.7784 159.684 89.446 159.945 89.179C160.206 88.9091 160.526 88.7074 160.904 88.5739C161.282 88.4375 161.699 88.3693 162.157 88.3693C162.472 88.3693 162.786 88.4062 163.098 88.4801C163.411 88.554 163.696 88.6761 163.955 88.8466C164.213 89.0142 164.421 89.2429 164.577 89.5327C164.736 89.8224 164.816 90.1847 164.816 90.6193V95H163.333V94.1009H163.282C163.188 94.2827 163.056 94.4531 162.885 94.6122C162.718 94.7685 162.506 94.8949 162.25 94.9915C161.998 95.0852 161.701 95.1321 161.36 95.1321ZM161.76 93.9986C162.07 93.9986 162.338 93.9375 162.566 93.8153C162.793 93.6903 162.968 93.5256 163.09 93.321C163.215 93.1165 163.277 92.8935 163.277 92.652V91.8807C163.229 91.9205 163.147 91.9574 163.03 91.9915C162.917 92.0256 162.789 92.0554 162.647 92.081C162.505 92.1065 162.364 92.1293 162.225 92.1491C162.086 92.169 161.965 92.1861 161.863 92.2003C161.632 92.2315 161.426 92.2827 161.245 92.3537C161.063 92.4247 160.919 92.5241 160.814 92.652C160.709 92.777 160.657 92.9389 160.657 93.1378C160.657 93.4219 160.76 93.6364 160.968 93.7812C161.175 93.9261 161.439 93.9986 161.76 93.9986ZM167.091 97.4545C166.881 97.4545 166.686 97.4375 166.507 97.4034C166.331 97.3722 166.191 97.3352 166.086 97.2926L166.444 96.0909C166.668 96.1563 166.868 96.1875 167.044 96.1847C167.221 96.1818 167.375 96.1264 167.509 96.0185C167.645 95.9134 167.76 95.7372 167.854 95.4901L167.986 95.1364L165.613 88.4545H167.249L168.757 93.3977H168.826L170.338 88.4545H171.979L169.358 95.7926C169.236 96.1392 169.074 96.4361 168.873 96.6832C168.671 96.9332 168.424 97.1236 168.131 97.2543C167.841 97.3878 167.495 97.4545 167.091 97.4545ZM174.447 93.8068L174.392 94.2756C174.352 94.6335 174.281 94.9972 174.179 95.3665C174.08 95.7386 173.974 96.081 173.864 96.3935C173.753 96.706 173.663 96.9517 173.595 97.1307H172.555C172.595 96.9574 172.649 96.7216 172.717 96.4233C172.788 96.125 172.857 95.7898 172.922 95.4176C172.987 95.0455 173.031 94.6676 173.054 94.2841L173.084 93.8068H174.447ZM180.425 91.1648V95H178.882V86.2727H180.391V89.5668H180.468C180.621 89.1974 180.858 88.9062 181.179 88.6932C181.503 88.4773 181.915 88.3693 182.415 88.3693C182.87 88.3693 183.266 88.4645 183.604 88.6548C183.942 88.8452 184.203 89.1236 184.388 89.4901C184.576 89.8565 184.669 90.304 184.669 90.8324V95H183.127V91.071C183.127 90.6307 183.013 90.2884 182.786 90.044C182.561 89.7969 182.246 89.6733 181.84 89.6733C181.567 89.6733 181.323 89.733 181.107 89.8523C180.894 89.9687 180.726 90.1378 180.604 90.3594C180.485 90.581 180.425 90.8494 180.425 91.1648ZM189.14 95.1278C188.483 95.1278 187.917 94.9915 187.439 94.7188C186.965 94.4432 186.6 94.054 186.344 93.5511C186.088 93.0455 185.961 92.4503 185.961 91.7656C185.961 91.0923 186.088 90.5014 186.344 89.9929C186.603 89.4815 186.963 89.0838 187.426 88.7997C187.89 88.5128 188.434 88.3693 189.059 88.3693C189.462 88.3693 189.843 88.4347 190.201 88.5653C190.561 88.6932 190.88 88.892 191.155 89.1619C191.434 89.4318 191.652 89.7756 191.811 90.1932C191.971 90.608 192.05 91.1023 192.05 91.6761V92.1491H186.685V91.1094H190.571C190.569 90.8139 190.505 90.5511 190.38 90.321C190.255 90.0881 190.08 89.9048 189.855 89.7713C189.634 89.6378 189.375 89.571 189.08 89.571C188.765 89.571 188.488 89.6477 188.249 89.8011C188.01 89.9517 187.824 90.1506 187.691 90.3977C187.56 90.642 187.493 90.9105 187.49 91.2031V92.1108C187.49 92.4915 187.56 92.8182 187.699 93.0909C187.838 93.3608 188.033 93.5682 188.283 93.7131C188.533 93.8551 188.826 93.9261 189.161 93.9261C189.385 93.9261 189.588 93.8949 189.77 93.8324C189.952 93.767 190.11 93.6719 190.243 93.5469C190.377 93.4219 190.478 93.267 190.546 93.0824L191.986 93.2443C191.895 93.625 191.722 93.9574 191.466 94.2415C191.213 94.5227 190.89 94.7415 190.495 94.8977C190.1 95.0511 189.648 95.1278 189.14 95.1278ZM193.355 95V88.4545H194.851V89.5455H194.919C195.038 89.1676 195.243 88.8764 195.533 88.6719C195.825 88.4645 196.159 88.3608 196.534 88.3608C196.619 88.3608 196.714 88.3651 196.82 88.3736C196.928 88.3793 197.017 88.3892 197.088 88.4034V89.8224C197.023 89.7997 196.919 89.7798 196.777 89.7628C196.638 89.7429 196.503 89.733 196.372 89.733C196.091 89.733 195.838 89.794 195.614 89.9162C195.392 90.0355 195.217 90.2017 195.089 90.4148C194.962 90.6278 194.898 90.8736 194.898 91.152V95H193.355ZM200.741 95.1278C200.085 95.1278 199.518 94.9915 199.041 94.7188C198.566 94.4432 198.201 94.054 197.946 93.5511C197.69 93.0455 197.562 92.4503 197.562 91.7656C197.562 91.0923 197.69 90.5014 197.946 89.9929C198.204 89.4815 198.565 89.0838 199.028 88.7997C199.491 88.5128 200.035 88.3693 200.66 88.3693C201.064 88.3693 201.444 88.4347 201.802 88.5653C202.163 88.6932 202.481 88.892 202.757 89.1619C203.035 89.4318 203.254 89.7756 203.413 90.1932C203.572 90.608 203.652 91.1023 203.652 91.6761V92.1491H198.287V91.1094H202.173C202.17 90.8139 202.106 90.5511 201.981 90.321C201.856 90.0881 201.681 89.9048 201.457 89.7713C201.235 89.6378 200.977 89.571 200.681 89.571C200.366 89.571 200.089 89.6477 199.85 89.8011C199.612 89.9517 199.426 90.1506 199.292 90.3977C199.162 90.642 199.095 90.9105 199.092 91.2031V92.1108C199.092 92.4915 199.162 92.8182 199.301 93.0909C199.44 93.3608 199.635 93.5682 199.885 93.7131C200.135 93.8551 200.427 93.9261 200.762 93.9261C200.987 93.9261 201.19 93.8949 201.372 93.8324C201.554 93.767 201.711 93.6719 201.845 93.5469C201.978 93.4219 202.079 93.267 202.147 93.0824L203.588 93.2443C203.497 93.625 203.324 93.9574 203.068 94.2415C202.815 94.5227 202.491 94.7415 202.096 94.8977C201.701 95.0511 201.25 95.1278 200.741 95.1278ZM208.892 97.4545C208.682 97.4545 208.487 97.4375 208.308 97.4034C208.132 97.3722 207.991 97.3352 207.886 97.2926L208.244 96.0909C208.469 96.1563 208.669 96.1875 208.845 96.1847C209.021 96.1818 209.176 96.1264 209.31 96.0185C209.446 95.9134 209.561 95.7372 209.655 95.4901L209.787 95.1364L207.413 88.4545H209.05L210.558 93.3977H210.626L212.139 88.4545H213.78L211.159 95.7926C211.037 96.1392 210.875 96.4361 210.673 96.6832C210.472 96.9332 210.224 97.1236 209.932 97.2543C209.642 97.3878 209.295 97.4545 208.892 97.4545ZM217.48 95.1278C216.841 95.1278 216.287 94.9872 215.818 94.706C215.349 94.4247 214.985 94.0312 214.727 93.5256C214.471 93.0199 214.343 92.429 214.343 91.7528C214.343 91.0767 214.471 90.4844 214.727 89.9759C214.985 89.4673 215.349 89.0724 215.818 88.7912C216.287 88.5099 216.841 88.3693 217.48 88.3693C218.119 88.3693 218.673 88.5099 219.142 88.7912C219.61 89.0724 219.973 89.4673 220.228 89.9759C220.487 90.4844 220.616 91.0767 220.616 91.7528C220.616 92.429 220.487 93.0199 220.228 93.5256C219.973 94.0312 219.61 94.4247 219.142 94.706C218.673 94.9872 218.119 95.1278 217.48 95.1278ZM217.488 93.892C217.835 93.892 218.125 93.7969 218.358 93.6065C218.591 93.4134 218.764 93.1548 218.877 92.831C218.994 92.5071 219.052 92.1463 219.052 91.7486C219.052 91.348 218.994 90.9858 218.877 90.6619C218.764 90.3352 218.591 90.0753 218.358 89.8821C218.125 89.6889 217.835 89.5923 217.488 89.5923C217.133 89.5923 216.838 89.6889 216.602 89.8821C216.369 90.0753 216.194 90.3352 216.078 90.6619C215.964 90.9858 215.907 91.348 215.907 91.7486C215.907 92.1463 215.964 92.5071 216.078 92.831C216.194 93.1548 216.369 93.4134 216.602 93.6065C216.838 93.7969 217.133 93.892 217.488 93.892ZM226.097 92.2472V88.4545H227.64V95H226.144V93.8366H226.076C225.928 94.2031 225.685 94.5028 225.347 94.7358C225.012 94.9687 224.599 95.0852 224.107 95.0852C223.678 95.0852 223.299 94.9901 222.969 94.7997C222.643 94.6065 222.387 94.3267 222.202 93.9602C222.018 93.5909 221.925 93.1449 221.925 92.6222V88.4545H223.468V92.3835C223.468 92.7983 223.582 93.1278 223.809 93.3722C224.036 93.6165 224.335 93.7386 224.704 93.7386C224.931 93.7386 225.151 93.6832 225.364 93.5724C225.577 93.4616 225.752 93.2969 225.888 93.0781C226.028 92.8565 226.097 92.5795 226.097 92.2472ZM235.058 95.1278C234.404 95.1278 233.843 94.9844 233.375 94.6974C232.909 94.4105 232.549 94.0142 232.297 93.5085C232.047 93 231.922 92.4148 231.922 91.7528C231.922 91.0881 232.049 90.5014 232.305 89.9929C232.561 89.4815 232.922 89.0838 233.387 88.7997C233.856 88.5128 234.41 88.3693 235.049 88.3693C235.581 88.3693 236.051 88.4673 236.46 88.6634C236.872 88.8565 237.2 89.1307 237.444 89.4858C237.689 89.8381 237.828 90.25 237.862 90.7216H236.387C236.328 90.4062 236.186 90.1435 235.961 89.9332C235.74 89.7202 235.443 89.6136 235.071 89.6136C234.755 89.6136 234.478 89.6989 234.24 89.8693C234.001 90.0369 233.815 90.2784 233.681 90.5938C233.551 90.9091 233.485 91.2869 233.485 91.7273C233.485 92.1733 233.551 92.5568 233.681 92.8778C233.812 93.196 233.995 93.4418 234.231 93.6151C234.47 93.7855 234.75 93.8707 235.071 93.8707C235.298 93.8707 235.501 93.8281 235.68 93.7429C235.862 93.6548 236.014 93.5284 236.136 93.3636C236.258 93.1989 236.342 92.9986 236.387 92.7628H237.862C237.825 93.2259 237.689 93.6364 237.453 93.9943C237.217 94.3494 236.896 94.6278 236.49 94.8295C236.083 95.0284 235.606 95.1278 235.058 95.1278ZM241.012 95.1321C240.597 95.1321 240.224 95.0582 239.891 94.9105C239.562 94.7599 239.3 94.5384 239.107 94.2457C238.917 93.9531 238.822 93.5923 238.822 93.1634C238.822 92.794 238.89 92.4886 239.026 92.2472C239.163 92.0057 239.349 91.8125 239.585 91.6676C239.82 91.5227 240.086 91.4134 240.381 91.3395C240.68 91.2628 240.988 91.2074 241.306 91.1733C241.69 91.1335 242.001 91.098 242.239 91.0668C242.478 91.0327 242.651 90.9815 242.759 90.9134C242.87 90.8423 242.925 90.733 242.925 90.5852V90.5597C242.925 90.2386 242.83 89.9901 242.64 89.8139C242.45 89.6378 242.175 89.5497 241.817 89.5497C241.44 89.5497 241.14 89.6321 240.918 89.7969C240.7 89.9616 240.552 90.1562 240.475 90.3807L239.035 90.1761C239.148 89.7784 239.336 89.446 239.597 89.179C239.859 88.9091 240.178 88.7074 240.556 88.5739C240.934 88.4375 241.352 88.3693 241.809 88.3693C242.124 88.3693 242.438 88.4062 242.751 88.4801C243.063 88.554 243.349 88.6761 243.607 88.8466C243.866 89.0142 244.073 89.2429 244.229 89.5327C244.388 89.8224 244.468 90.1847 244.468 90.6193V95H242.985V94.1009H242.934C242.84 94.2827 242.708 94.4531 242.538 94.6122C242.37 94.7685 242.158 94.8949 241.903 94.9915C241.65 95.0852 241.353 95.1321 241.012 95.1321ZM241.413 93.9986C241.722 93.9986 241.991 93.9375 242.218 93.8153C242.445 93.6903 242.62 93.5256 242.742 93.321C242.867 93.1165 242.93 92.8935 242.93 92.652V91.8807C242.881 91.9205 242.799 91.9574 242.683 91.9915C242.569 92.0256 242.441 92.0554 242.299 92.081C242.157 92.1065 242.016 92.1293 241.877 92.1491C241.738 92.169 241.617 92.1861 241.515 92.2003C241.285 92.2315 241.079 92.2827 240.897 92.3537C240.715 92.4247 240.572 92.5241 240.467 92.652C240.362 92.777 240.309 92.9389 240.309 93.1378C240.309 93.4219 240.413 93.6364 240.62 93.7812C240.827 93.9261 241.092 93.9986 241.413 93.9986ZM247.562 91.1648V95H246.019V88.4545H247.494V89.5668H247.57C247.721 89.2003 247.961 88.9091 248.29 88.6932C248.623 88.4773 249.033 88.3693 249.522 88.3693C249.974 88.3693 250.367 88.4659 250.702 88.6591C251.04 88.8523 251.302 89.1321 251.487 89.4986C251.674 89.8651 251.766 90.3097 251.763 90.8324V95H250.221V91.071C250.221 90.6335 250.107 90.2912 249.88 90.044C249.656 89.7969 249.344 89.6733 248.947 89.6733C248.677 89.6733 248.437 89.733 248.227 89.8523C248.019 89.9687 247.856 90.1378 247.737 90.3594C247.62 90.581 247.562 90.8494 247.562 91.1648ZM261.482 90.1847L260.075 90.3381C260.036 90.196 259.966 90.0625 259.866 89.9375C259.77 89.8125 259.639 89.7116 259.474 89.6349C259.31 89.5582 259.108 89.5199 258.869 89.5199C258.548 89.5199 258.278 89.5895 258.06 89.7287C257.844 89.8679 257.737 90.0483 257.74 90.2699C257.737 90.4602 257.807 90.6151 257.949 90.7344C258.094 90.8537 258.332 90.9517 258.665 91.0284L259.781 91.267C260.401 91.4006 260.861 91.6122 261.162 91.902C261.466 92.1918 261.619 92.571 261.622 93.0398C261.619 93.4517 261.499 93.8153 261.26 94.1307C261.024 94.4432 260.696 94.6875 260.276 94.8636C259.855 95.0398 259.372 95.1278 258.827 95.1278C258.026 95.1278 257.381 94.9602 256.892 94.625C256.403 94.2869 256.112 93.8168 256.018 93.2145L257.523 93.0696C257.591 93.3651 257.736 93.5881 257.957 93.7386C258.179 93.8892 258.467 93.9645 258.822 93.9645C259.189 93.9645 259.483 93.8892 259.705 93.7386C259.929 93.5881 260.041 93.402 260.041 93.1804C260.041 92.9929 259.969 92.8381 259.824 92.7159C259.682 92.5937 259.46 92.5 259.159 92.4347L258.043 92.2003C257.415 92.0696 256.95 91.8494 256.649 91.5398C256.348 91.2273 256.199 90.8324 256.202 90.3551C256.199 89.9517 256.308 89.6023 256.53 89.3068C256.754 89.0085 257.065 88.7784 257.463 88.6165C257.864 88.4517 258.325 88.3693 258.848 88.3693C259.615 88.3693 260.219 88.5327 260.659 88.8594C261.102 89.1861 261.376 89.6278 261.482 90.1847ZM265.792 95.1278C265.136 95.1278 264.569 94.9915 264.092 94.7188C263.617 94.4432 263.252 94.054 262.996 93.5511C262.741 93.0455 262.613 92.4503 262.613 91.7656C262.613 91.0923 262.741 90.5014 262.996 89.9929C263.255 89.4815 263.616 89.0838 264.079 88.7997C264.542 88.5128 265.086 88.3693 265.711 88.3693C266.114 88.3693 266.495 88.4347 266.853 88.5653C267.214 88.6932 267.532 88.892 267.808 89.1619C268.086 89.4318 268.305 89.7756 268.464 90.1932C268.623 90.608 268.702 91.1023 268.702 91.6761V92.1491H263.337V91.1094H267.224C267.221 90.8139 267.157 90.5511 267.032 90.321C266.907 90.0881 266.732 89.9048 266.508 89.7713C266.286 89.6378 266.028 89.571 265.732 89.571C265.417 89.571 265.14 89.6477 264.901 89.8011C264.663 89.9517 264.477 90.1506 264.343 90.3977C264.212 90.642 264.146 90.9105 264.143 91.2031V92.1108C264.143 92.4915 264.212 92.8182 264.352 93.0909C264.491 93.3608 264.685 93.5682 264.935 93.7131C265.185 93.8551 265.478 93.9261 265.813 93.9261C266.038 93.9261 266.241 93.8949 266.423 93.8324C266.604 93.767 266.762 93.6719 266.896 93.5469C267.029 93.4219 267.13 93.267 267.198 93.0824L268.638 93.2443C268.548 93.625 268.374 93.9574 268.119 94.2415C267.866 94.5227 267.542 94.7415 267.147 94.8977C266.752 95.0511 266.3 95.1278 265.792 95.1278ZM272.905 95.1278C272.249 95.1278 271.682 94.9915 271.205 94.7188C270.73 94.4432 270.365 94.054 270.11 93.5511C269.854 93.0455 269.726 92.4503 269.726 91.7656C269.726 91.0923 269.854 90.5014 270.11 89.9929C270.368 89.4815 270.729 89.0838 271.192 88.7997C271.655 88.5128 272.199 88.3693 272.824 88.3693C273.228 88.3693 273.608 88.4347 273.966 88.5653C274.327 88.6932 274.645 88.892 274.921 89.1619C275.199 89.4318 275.418 89.7756 275.577 90.1932C275.736 90.608 275.816 91.1023 275.816 91.6761V92.1491H270.451V91.1094H274.337C274.334 90.8139 274.27 90.5511 274.145 90.321C274.02 90.0881 273.846 89.9048 273.621 89.7713C273.4 89.6378 273.141 89.571 272.846 89.571C272.53 89.571 272.253 89.6477 272.015 89.8011C271.776 89.9517 271.59 90.1506 271.456 90.3977C271.326 90.642 271.259 90.9105 271.256 91.2031V92.1108C271.256 92.4915 271.326 92.8182 271.465 93.0909C271.604 93.3608 271.799 93.5682 272.049 93.7131C272.299 93.8551 272.591 93.9261 272.926 93.9261C273.151 93.9261 273.354 93.8949 273.536 93.8324C273.718 93.767 273.875 93.6719 274.009 93.5469C274.142 93.4219 274.243 93.267 274.311 93.0824L275.752 93.2443C275.661 93.625 275.488 93.9574 275.232 94.2415C274.979 94.5227 274.655 94.7415 274.26 94.8977C273.865 95.0511 273.414 95.1278 272.905 95.1278ZM31.7514 112.455C31.5412 112.455 31.3466 112.438 31.1676 112.403C30.9915 112.372 30.8509 112.335 30.7457 112.293L31.1037 111.091C31.3281 111.156 31.5284 111.188 31.7045 111.185C31.8807 111.182 32.0355 111.126 32.169 111.018C32.3054 110.913 32.4205 110.737 32.5142 110.49L32.6463 110.136L30.2727 103.455H31.9091L33.4176 108.398H33.4858L34.9986 103.455H36.6392L34.0185 110.793C33.8963 111.139 33.7344 111.436 33.5327 111.683C33.331 111.933 33.0838 112.124 32.7912 112.254C32.5014 112.388 32.1548 112.455 31.7514 112.455ZM40.3391 110.128C39.6999 110.128 39.146 109.987 38.6772 109.706C38.2085 109.425 37.8448 109.031 37.5863 108.526C37.3306 108.02 37.2028 107.429 37.2028 106.753C37.2028 106.077 37.3306 105.484 37.5863 104.976C37.8448 104.467 38.2085 104.072 38.6772 103.791C39.146 103.51 39.6999 103.369 40.3391 103.369C40.9783 103.369 41.5323 103.51 42.0011 103.791C42.4698 104.072 42.832 104.467 43.0877 104.976C43.3462 105.484 43.4755 106.077 43.4755 106.753C43.4755 107.429 43.3462 108.02 43.0877 108.526C42.832 109.031 42.4698 109.425 42.0011 109.706C41.5323 109.987 40.9783 110.128 40.3391 110.128ZM40.3477 108.892C40.6942 108.892 40.984 108.797 41.217 108.607C41.4499 108.413 41.6232 108.155 41.7369 107.831C41.8533 107.507 41.9116 107.146 41.9116 106.749C41.9116 106.348 41.8533 105.986 41.7369 105.662C41.6232 105.335 41.4499 105.075 41.217 104.882C40.984 104.689 40.6942 104.592 40.3477 104.592C39.9925 104.592 39.6971 104.689 39.4613 104.882C39.2283 105.075 39.0536 105.335 38.9371 105.662C38.8235 105.986 38.7667 106.348 38.7667 106.749C38.7667 107.146 38.8235 107.507 38.9371 107.831C39.0536 108.155 39.2283 108.413 39.4613 108.607C39.6971 108.797 39.9925 108.892 40.3477 108.892ZM48.9567 107.247V103.455H50.4993V110H49.0036V108.837H48.9354C48.7876 109.203 48.5447 109.503 48.2067 109.736C47.8714 109.969 47.4581 110.085 46.9666 110.085C46.5376 110.085 46.1584 109.99 45.8288 109.8C45.5021 109.607 45.2464 109.327 45.0618 108.96C44.8771 108.591 44.7848 108.145 44.7848 107.622V103.455H46.3274V107.384C46.3274 107.798 46.4411 108.128 46.6683 108.372C46.8956 108.616 47.1939 108.739 47.5632 108.739C47.7905 108.739 48.0107 108.683 48.2237 108.572C48.4368 108.462 48.6115 108.297 48.7479 108.078C48.8871 107.857 48.9567 107.58 48.9567 107.247ZM52.0856 110V103.455H53.5813V104.545H53.6495C53.7688 104.168 53.9734 103.876 54.2631 103.672C54.5558 103.464 54.8896 103.361 55.2646 103.361C55.3498 103.361 55.445 103.365 55.5501 103.374C55.658 103.379 55.7475 103.389 55.8185 103.403V104.822C55.7532 104.8 55.6495 104.78 55.5075 104.763C55.3683 104.743 55.2333 104.733 55.1026 104.733C54.8214 104.733 54.5685 104.794 54.3441 104.916C54.1225 105.036 53.9478 105.202 53.82 105.415C53.6921 105.628 53.6282 105.874 53.6282 106.152V110H52.0856ZM64.9933 105.185L63.587 105.338C63.5472 105.196 63.4776 105.062 63.3782 104.938C63.2816 104.812 63.1509 104.712 62.9862 104.635C62.8214 104.558 62.6197 104.52 62.381 104.52C62.06 104.52 61.7901 104.589 61.5714 104.729C61.3555 104.868 61.2489 105.048 61.2518 105.27C61.2489 105.46 61.3185 105.615 61.4606 105.734C61.6055 105.854 61.8441 105.952 62.1765 106.028L63.293 106.267C63.9123 106.401 64.3725 106.612 64.6737 106.902C64.9776 107.192 65.131 107.571 65.1339 108.04C65.131 108.452 65.0103 108.815 64.7717 109.131C64.5359 109.443 64.2077 109.687 63.7873 109.864C63.3668 110.04 62.8839 110.128 62.3384 110.128C61.5373 110.128 60.8924 109.96 60.4038 109.625C59.9151 109.287 59.6239 108.817 59.5302 108.214L61.0344 108.07C61.1026 108.365 61.2475 108.588 61.4691 108.739C61.6907 108.889 61.979 108.964 62.3342 108.964C62.7006 108.964 62.9947 108.889 63.2163 108.739C63.4407 108.588 63.5529 108.402 63.5529 108.18C63.5529 107.993 63.4805 107.838 63.3356 107.716C63.1935 107.594 62.9719 107.5 62.6708 107.435L61.5543 107.2C60.9265 107.07 60.462 106.849 60.1609 106.54C59.8597 106.227 59.7106 105.832 59.7134 105.355C59.7106 104.952 59.82 104.602 60.0415 104.307C60.266 104.009 60.5771 103.778 60.9748 103.616C61.3754 103.452 61.837 103.369 62.3597 103.369C63.1268 103.369 63.7305 103.533 64.1708 103.859C64.614 104.186 64.8881 104.628 64.9933 105.185ZM69.6744 103.455V104.648H65.9116V103.455H69.6744ZM66.8406 101.886H68.3832V108.031C68.3832 108.239 68.4144 108.398 68.4769 108.509C68.5423 108.616 68.6275 108.69 68.7326 108.73C68.8377 108.77 68.9542 108.79 69.082 108.79C69.1786 108.79 69.2667 108.783 69.3462 108.768C69.4286 108.754 69.4911 108.741 69.5337 108.73L69.7937 109.936C69.7113 109.964 69.5934 109.996 69.44 110.03C69.2894 110.064 69.1048 110.084 68.886 110.089C68.4996 110.101 68.1516 110.043 67.842 109.915C67.5323 109.784 67.2866 109.582 67.1048 109.31C66.9258 109.037 66.8377 108.696 66.8406 108.287V101.886ZM72.848 110.132C72.4332 110.132 72.0597 110.058 71.7273 109.911C71.3977 109.76 71.1364 109.538 70.9432 109.246C70.7528 108.953 70.6577 108.592 70.6577 108.163C70.6577 107.794 70.7259 107.489 70.8622 107.247C70.9986 107.006 71.1847 106.812 71.4205 106.668C71.6563 106.523 71.9219 106.413 72.2173 106.339C72.5156 106.263 72.8239 106.207 73.142 106.173C73.5256 106.134 73.8366 106.098 74.0753 106.067C74.3139 106.033 74.4872 105.982 74.5952 105.913C74.706 105.842 74.7614 105.733 74.7614 105.585V105.56C74.7614 105.239 74.6662 104.99 74.4759 104.814C74.2855 104.638 74.0114 104.55 73.6534 104.55C73.2756 104.55 72.9759 104.632 72.7543 104.797C72.5355 104.962 72.3878 105.156 72.3111 105.381L70.8707 105.176C70.9844 104.778 71.1719 104.446 71.4332 104.179C71.6946 103.909 72.0142 103.707 72.392 103.574C72.7699 103.438 73.1875 103.369 73.6449 103.369C73.9602 103.369 74.2741 103.406 74.5866 103.48C74.8991 103.554 75.1847 103.676 75.4432 103.847C75.7017 104.014 75.9091 104.243 76.0653 104.533C76.2244 104.822 76.304 105.185 76.304 105.619V110H74.821V109.101H74.7699C74.6761 109.283 74.544 109.453 74.3736 109.612C74.206 109.768 73.9943 109.895 73.7386 109.991C73.4858 110.085 73.1889 110.132 72.848 110.132ZM73.2486 108.999C73.5582 108.999 73.8267 108.937 74.054 108.815C74.2813 108.69 74.456 108.526 74.5781 108.321C74.7031 108.116 74.7656 107.893 74.7656 107.652V106.881C74.7173 106.92 74.6349 106.957 74.5185 106.991C74.4048 107.026 74.277 107.055 74.1349 107.081C73.9929 107.107 73.8523 107.129 73.7131 107.149C73.5739 107.169 73.4531 107.186 73.3509 107.2C73.1207 107.232 72.9148 107.283 72.733 107.354C72.5511 107.425 72.4077 107.524 72.3026 107.652C72.1974 107.777 72.1449 107.939 72.1449 108.138C72.1449 108.422 72.2486 108.636 72.456 108.781C72.6634 108.926 72.9276 108.999 73.2486 108.999ZM81.1236 103.455V104.648H77.3608V103.455H81.1236ZM78.2898 101.886H79.8324V108.031C79.8324 108.239 79.8636 108.398 79.9261 108.509C79.9915 108.616 80.0767 108.69 80.1818 108.73C80.2869 108.77 80.4034 108.79 80.5312 108.79C80.6278 108.79 80.7159 108.783 80.7955 108.768C80.8778 108.754 80.9403 108.741 80.983 108.73L81.2429 109.936C81.1605 109.964 81.0426 109.996 80.8892 110.03C80.7386 110.064 80.554 110.084 80.3352 110.089C79.9489 110.101 79.6009 110.043 79.2912 109.915C78.9815 109.784 78.7358 109.582 78.554 109.31C78.375 109.037 78.2869 108.696 78.2898 108.287V101.886ZM82.4137 110V103.455H83.9563V110H82.4137ZM83.1893 102.526C82.945 102.526 82.7347 102.445 82.5586 102.283C82.3825 102.118 82.2944 101.92 82.2944 101.69C82.2944 101.457 82.3825 101.26 82.5586 101.098C82.7347 100.933 82.945 100.851 83.1893 100.851C83.4364 100.851 83.6467 100.933 83.82 101.098C83.9961 101.26 84.0842 101.457 84.0842 101.69C84.0842 101.92 83.9961 102.118 83.82 102.283C83.6467 102.445 83.4364 102.526 83.1893 102.526ZM90.7159 105.185L89.3097 105.338C89.2699 105.196 89.2003 105.062 89.1009 104.938C89.0043 104.812 88.8736 104.712 88.7088 104.635C88.544 104.558 88.3423 104.52 88.1037 104.52C87.7827 104.52 87.5128 104.589 87.294 104.729C87.0781 104.868 86.9716 105.048 86.9744 105.27C86.9716 105.46 87.0412 105.615 87.1832 105.734C87.3281 105.854 87.5668 105.952 87.8991 106.028L89.0156 106.267C89.6349 106.401 90.0952 106.612 90.3963 106.902C90.7003 107.192 90.8537 107.571 90.8565 108.04C90.8537 108.452 90.733 108.815 90.4943 109.131C90.2585 109.443 89.9304 109.687 89.5099 109.864C89.0895 110.04 88.6065 110.128 88.0611 110.128C87.2599 110.128 86.6151 109.96 86.1264 109.625C85.6378 109.287 85.3466 108.817 85.2528 108.214L86.7571 108.07C86.8253 108.365 86.9702 108.588 87.1918 108.739C87.4134 108.889 87.7017 108.964 88.0568 108.964C88.4233 108.964 88.7173 108.889 88.9389 108.739C89.1634 108.588 89.2756 108.402 89.2756 108.18C89.2756 107.993 89.2031 107.838 89.0582 107.716C88.9162 107.594 88.6946 107.5 88.3935 107.435L87.277 107.2C86.6491 107.07 86.1847 106.849 85.8835 106.54C85.5824 106.227 85.4332 105.832 85.4361 105.355C85.4332 104.952 85.5426 104.602 85.7642 104.307C85.9886 104.009 86.2997 103.778 86.6974 103.616C87.098 103.452 87.5597 103.369 88.0824 103.369C88.8494 103.369 89.4531 103.533 89.8935 103.859C90.3366 104.186 90.6108 104.628 90.7159 105.185ZM95.397 103.455V104.648H91.6342V103.455H95.397ZM92.5632 101.886H94.1058V108.031C94.1058 108.239 94.1371 108.398 94.1996 108.509C94.2649 108.616 94.3501 108.69 94.4553 108.73C94.5604 108.77 94.6768 108.79 94.8047 108.79C94.9013 108.79 94.9893 108.783 95.0689 108.768C95.1513 108.754 95.2138 108.741 95.2564 108.73L95.5163 109.936C95.4339 109.964 95.3161 109.996 95.1626 110.03C95.0121 110.064 94.8274 110.084 94.6087 110.089C94.2223 110.101 93.8743 110.043 93.5646 109.915C93.255 109.784 93.0092 109.582 92.8274 109.31C92.6484 109.037 92.5604 108.696 92.5632 108.287V101.886ZM96.6871 110V103.455H98.2298V110H96.6871ZM97.4627 102.526C97.2184 102.526 97.0082 102.445 96.832 102.283C96.6559 102.118 96.5678 101.92 96.5678 101.69C96.5678 101.457 96.6559 101.26 96.832 101.098C97.0082 100.933 97.2184 100.851 97.4627 100.851C97.7099 100.851 97.9201 100.933 98.0934 101.098C98.2695 101.26 98.3576 101.457 98.3576 101.69C98.3576 101.92 98.2695 102.118 98.0934 102.283C97.9201 102.445 97.7099 102.526 97.4627 102.526ZM102.671 110.128C102.018 110.128 101.457 109.984 100.988 109.697C100.522 109.411 100.163 109.014 99.9098 108.509C99.6598 108 99.5348 107.415 99.5348 106.753C99.5348 106.088 99.6626 105.501 99.9183 104.993C100.174 104.482 100.535 104.084 101.001 103.8C101.469 103.513 102.023 103.369 102.663 103.369C103.194 103.369 103.664 103.467 104.073 103.663C104.485 103.857 104.813 104.131 105.058 104.486C105.302 104.838 105.441 105.25 105.475 105.722H104.001C103.941 105.406 103.799 105.143 103.575 104.933C103.353 104.72 103.056 104.614 102.684 104.614C102.369 104.614 102.092 104.699 101.853 104.869C101.614 105.037 101.428 105.278 101.295 105.594C101.164 105.909 101.099 106.287 101.099 106.727C101.099 107.173 101.164 107.557 101.295 107.878C101.425 108.196 101.609 108.442 101.844 108.615C102.083 108.786 102.363 108.871 102.684 108.871C102.911 108.871 103.114 108.828 103.293 108.743C103.475 108.655 103.627 108.528 103.749 108.364C103.871 108.199 103.955 107.999 104.001 107.763H105.475C105.438 108.226 105.302 108.636 105.066 108.994C104.83 109.349 104.509 109.628 104.103 109.83C103.697 110.028 103.219 110.128 102.671 110.128ZM111.915 105.185L110.509 105.338C110.469 105.196 110.4 105.062 110.3 104.938C110.203 104.812 110.073 104.712 109.908 104.635C109.743 104.558 109.542 104.52 109.303 104.52C108.982 104.52 108.712 104.589 108.493 104.729C108.277 104.868 108.171 105.048 108.174 105.27C108.171 105.46 108.24 105.615 108.382 105.734C108.527 105.854 108.766 105.952 109.098 106.028L110.215 106.267C110.834 106.401 111.294 106.612 111.596 106.902C111.9 107.192 112.053 107.571 112.056 108.04C112.053 108.452 111.932 108.815 111.694 109.131C111.458 109.443 111.13 109.687 110.709 109.864C110.289 110.04 109.806 110.128 109.26 110.128C108.459 110.128 107.814 109.96 107.326 109.625C106.837 109.287 106.546 108.817 106.452 108.214L107.956 108.07C108.025 108.365 108.169 108.588 108.391 108.739C108.613 108.889 108.901 108.964 109.256 108.964C109.623 108.964 109.917 108.889 110.138 108.739C110.363 108.588 110.475 108.402 110.475 108.18C110.475 107.993 110.402 107.838 110.257 107.716C110.115 107.594 109.894 107.5 109.593 107.435L108.476 107.2C107.848 107.07 107.384 106.849 107.083 106.54C106.782 106.227 106.632 105.832 106.635 105.355C106.632 104.952 106.742 104.602 106.963 104.307C107.188 104.009 107.499 103.778 107.897 103.616C108.297 103.452 108.759 103.369 109.282 103.369C110.049 103.369 110.652 103.533 111.093 103.859C111.536 104.186 111.81 104.628 111.915 105.185ZM119.62 103.455V104.648H115.75V103.455H119.62ZM116.718 110V102.837C116.718 102.396 116.809 102.03 116.99 101.737C117.175 101.445 117.422 101.226 117.732 101.081C118.042 100.936 118.385 100.864 118.763 100.864C119.03 100.864 119.267 100.885 119.475 100.928C119.682 100.97 119.836 101.009 119.935 101.043L119.628 102.236C119.563 102.216 119.48 102.196 119.381 102.176C119.282 102.153 119.171 102.142 119.049 102.142C118.762 102.142 118.559 102.212 118.439 102.351C118.323 102.487 118.265 102.683 118.265 102.939V110H116.718ZM123.437 110.128C122.798 110.128 122.244 109.987 121.775 109.706C121.306 109.425 120.942 109.031 120.684 108.526C120.428 108.02 120.3 107.429 120.3 106.753C120.3 106.077 120.428 105.484 120.684 104.976C120.942 104.467 121.306 104.072 121.775 103.791C122.244 103.51 122.798 103.369 123.437 103.369C124.076 103.369 124.63 103.51 125.099 103.791C125.567 104.072 125.93 104.467 126.185 104.976C126.444 105.484 126.573 106.077 126.573 106.753C126.573 107.429 126.444 108.02 126.185 108.526C125.93 109.031 125.567 109.425 125.099 109.706C124.63 109.987 124.076 110.128 123.437 110.128ZM123.445 108.892C123.792 108.892 124.082 108.797 124.315 108.607C124.548 108.413 124.721 108.155 124.835 107.831C124.951 107.507 125.009 107.146 125.009 106.749C125.009 106.348 124.951 105.986 124.835 105.662C124.721 105.335 124.548 105.075 124.315 104.882C124.082 104.689 123.792 104.592 123.445 104.592C123.09 104.592 122.795 104.689 122.559 104.882C122.326 105.075 122.151 105.335 122.035 105.662C121.921 105.986 121.864 106.348 121.864 106.749C121.864 107.146 121.921 107.507 122.035 107.831C122.151 108.155 122.326 108.413 122.559 108.607C122.795 108.797 123.09 108.892 123.445 108.892ZM127.882 110V103.455H129.378V104.545H129.446C129.566 104.168 129.77 103.876 130.06 103.672C130.353 103.464 130.686 103.361 131.061 103.361C131.147 103.361 131.242 103.365 131.347 103.374C131.455 103.379 131.544 103.389 131.615 103.403V104.822C131.55 104.8 131.446 104.78 131.304 104.763C131.165 104.743 131.03 104.733 130.9 104.733C130.618 104.733 130.365 104.794 130.141 104.916C129.919 105.036 129.745 105.202 129.617 105.415C129.489 105.628 129.425 105.874 129.425 106.152V110H127.882ZM135.685 110V101.273H137.228V104.537H137.292C137.371 104.378 137.483 104.209 137.628 104.03C137.773 103.848 137.969 103.693 138.216 103.565C138.463 103.435 138.779 103.369 139.162 103.369C139.668 103.369 140.124 103.499 140.53 103.757C140.939 104.013 141.263 104.392 141.502 104.895C141.743 105.395 141.864 106.009 141.864 106.736C141.864 107.455 141.746 108.065 141.51 108.568C141.275 109.071 140.953 109.455 140.547 109.719C140.141 109.983 139.681 110.115 139.167 110.115C138.792 110.115 138.48 110.053 138.233 109.928C137.986 109.803 137.787 109.652 137.637 109.476C137.489 109.297 137.374 109.128 137.292 108.969H137.202V110H135.685ZM137.198 106.727C137.198 107.151 137.257 107.521 137.377 107.839C137.499 108.158 137.674 108.406 137.901 108.585C138.131 108.761 138.409 108.849 138.736 108.849C139.077 108.849 139.363 108.759 139.593 108.577C139.823 108.392 139.996 108.141 140.113 107.822C140.232 107.501 140.292 107.136 140.292 106.727C140.292 106.321 140.233 105.96 140.117 105.645C140 105.33 139.827 105.082 139.597 104.903C139.367 104.724 139.08 104.635 138.736 104.635C138.407 104.635 138.127 104.722 137.897 104.895C137.667 105.068 137.492 105.311 137.373 105.624C137.256 105.936 137.198 106.304 137.198 106.727ZM143.175 110V103.455H144.671V104.545H144.739C144.859 104.168 145.063 103.876 145.353 103.672C145.646 103.464 145.979 103.361 146.354 103.361C146.44 103.361 146.535 103.365 146.64 103.374C146.748 103.379 146.837 103.389 146.908 103.403V104.822C146.843 104.8 146.739 104.78 146.597 104.763C146.458 104.743 146.323 104.733 146.192 104.733C145.911 104.733 145.658 104.794 145.434 104.916C145.212 105.036 145.038 105.202 144.91 105.415C144.782 105.628 144.718 105.874 144.718 106.152V110H143.175ZM150.561 110.128C149.905 110.128 149.338 109.991 148.861 109.719C148.387 109.443 148.022 109.054 147.766 108.551C147.51 108.045 147.382 107.45 147.382 106.766C147.382 106.092 147.51 105.501 147.766 104.993C148.025 104.482 148.385 104.084 148.848 103.8C149.311 103.513 149.855 103.369 150.48 103.369C150.884 103.369 151.265 103.435 151.623 103.565C151.983 103.693 152.301 103.892 152.577 104.162C152.855 104.432 153.074 104.776 153.233 105.193C153.392 105.608 153.472 106.102 153.472 106.676V107.149H148.107V106.109H151.993C151.99 105.814 151.926 105.551 151.801 105.321C151.676 105.088 151.502 104.905 151.277 104.771C151.056 104.638 150.797 104.571 150.502 104.571C150.186 104.571 149.909 104.648 149.671 104.801C149.432 104.952 149.246 105.151 149.113 105.398C148.982 105.642 148.915 105.911 148.912 106.203V107.111C148.912 107.491 148.982 107.818 149.121 108.091C149.26 108.361 149.455 108.568 149.705 108.713C149.955 108.855 150.248 108.926 150.583 108.926C150.807 108.926 151.01 108.895 151.192 108.832C151.374 108.767 151.532 108.672 151.665 108.547C151.799 108.422 151.9 108.267 151.968 108.082L153.408 108.244C153.317 108.625 153.144 108.957 152.888 109.241C152.635 109.523 152.311 109.741 151.917 109.898C151.522 110.051 151.07 110.128 150.561 110.128ZM156.661 110.132C156.246 110.132 155.872 110.058 155.54 109.911C155.21 109.76 154.949 109.538 154.756 109.246C154.565 108.953 154.47 108.592 154.47 108.163C154.47 107.794 154.538 107.489 154.675 107.247C154.811 107.006 154.997 106.812 155.233 106.668C155.469 106.523 155.734 106.413 156.03 106.339C156.328 106.263 156.636 106.207 156.955 106.173C157.338 106.134 157.649 106.098 157.888 106.067C158.126 106.033 158.3 105.982 158.408 105.913C158.518 105.842 158.574 105.733 158.574 105.585V105.56C158.574 105.239 158.479 104.99 158.288 104.814C158.098 104.638 157.824 104.55 157.466 104.55C157.088 104.55 156.788 104.632 156.567 104.797C156.348 104.962 156.2 105.156 156.124 105.381L154.683 105.176C154.797 104.778 154.984 104.446 155.246 104.179C155.507 103.909 155.827 103.707 156.205 103.574C156.582 103.438 157 103.369 157.457 103.369C157.773 103.369 158.087 103.406 158.399 103.48C158.712 103.554 158.997 103.676 159.256 103.847C159.514 104.014 159.722 104.243 159.878 104.533C160.037 104.822 160.116 105.185 160.116 105.619V110H158.634V109.101H158.582C158.489 109.283 158.357 109.453 158.186 109.612C158.018 109.768 157.807 109.895 157.551 109.991C157.298 110.085 157.001 110.132 156.661 110.132ZM157.061 108.999C157.371 108.999 157.639 108.937 157.866 108.815C158.094 108.69 158.268 108.526 158.391 108.321C158.516 108.116 158.578 107.893 158.578 107.652V106.881C158.53 106.92 158.447 106.957 158.331 106.991C158.217 107.026 158.089 107.055 157.947 107.081C157.805 107.107 157.665 107.129 157.526 107.149C157.386 107.169 157.266 107.186 157.163 107.2C156.933 107.232 156.727 107.283 156.545 107.354C156.364 107.425 156.22 107.524 156.115 107.652C156.01 107.777 155.957 107.939 155.957 108.138C155.957 108.422 156.061 108.636 156.268 108.781C156.476 108.926 156.74 108.999 157.061 108.999ZM164.936 103.455V104.648H161.173V103.455H164.936ZM162.102 101.886H163.645V108.031C163.645 108.239 163.676 108.398 163.739 108.509C163.804 108.616 163.889 108.69 163.994 108.73C164.099 108.77 164.216 108.79 164.344 108.79C164.44 108.79 164.528 108.783 164.608 108.768C164.69 108.754 164.753 108.741 164.795 108.73L165.055 109.936C164.973 109.964 164.855 109.996 164.702 110.03C164.551 110.064 164.366 110.084 164.148 110.089C163.761 110.101 163.413 110.043 163.104 109.915C162.794 109.784 162.548 109.582 162.366 109.31C162.188 109.037 162.099 108.696 162.102 108.287V101.886ZM167.909 106.165V110H166.367V101.273H167.875V104.567H167.952C168.105 104.197 168.343 103.906 168.664 103.693C168.988 103.477 169.4 103.369 169.9 103.369C170.354 103.369 170.75 103.464 171.088 103.655C171.426 103.845 171.688 104.124 171.873 104.49C172.06 104.857 172.154 105.304 172.154 105.832V110H170.611V106.071C170.611 105.631 170.498 105.288 170.27 105.044C170.046 104.797 169.73 104.673 169.324 104.673C169.051 104.673 168.807 104.733 168.591 104.852C168.378 104.969 168.211 105.138 168.088 105.359C167.969 105.581 167.909 105.849 167.909 106.165ZM178.054 110L176.204 103.455H177.777L178.927 108.057H178.987L180.163 103.455H181.718L182.895 108.031H182.958L184.092 103.455H185.669L183.815 110H182.208L180.981 105.577H180.892L179.664 110H178.054ZM189.413 110.128C188.774 110.128 188.22 109.987 187.751 109.706C187.283 109.425 186.919 109.031 186.661 108.526C186.405 108.02 186.277 107.429 186.277 106.753C186.277 106.077 186.405 105.484 186.661 104.976C186.919 104.467 187.283 104.072 187.751 103.791C188.22 103.51 188.774 103.369 189.413 103.369C190.053 103.369 190.607 103.51 191.075 103.791C191.544 104.072 191.906 104.467 192.162 104.976C192.42 105.484 192.55 106.077 192.55 106.753C192.55 107.429 192.42 108.02 192.162 108.526C191.906 109.031 191.544 109.425 191.075 109.706C190.607 109.987 190.053 110.128 189.413 110.128ZM189.422 108.892C189.768 108.892 190.058 108.797 190.291 108.607C190.524 108.413 190.697 108.155 190.811 107.831C190.928 107.507 190.986 107.146 190.986 106.749C190.986 106.348 190.928 105.986 190.811 105.662C190.697 105.335 190.524 105.075 190.291 104.882C190.058 104.689 189.768 104.592 189.422 104.592C189.067 104.592 188.771 104.689 188.536 104.882C188.303 105.075 188.128 105.335 188.011 105.662C187.898 105.986 187.841 106.348 187.841 106.749C187.841 107.146 187.898 107.507 188.011 107.831C188.128 108.155 188.303 108.413 188.536 108.607C188.771 108.797 189.067 108.892 189.422 108.892ZM193.859 110V103.455H195.355V104.545H195.423C195.542 104.168 195.747 103.876 196.037 103.672C196.329 103.464 196.663 103.361 197.038 103.361C197.123 103.361 197.218 103.365 197.324 103.374C197.431 103.379 197.521 103.389 197.592 103.403V104.822C197.527 104.8 197.423 104.78 197.281 104.763C197.142 104.743 197.007 104.733 196.876 104.733C196.595 104.733 196.342 104.794 196.118 104.916C195.896 105.036 195.721 105.202 195.593 105.415C195.466 105.628 195.402 105.874 195.402 106.152V110H193.859ZM200.023 107.946L200.019 106.084H200.266L202.618 103.455H204.421L201.527 106.676H201.208L200.023 107.946ZM198.617 110V101.273H200.159V110H198.617ZM202.725 110L200.594 107.021L201.634 105.935L204.57 110H202.725Z" fill="#FCFCFC"/>
</g>
<defs>
<filter id="filter0_d_520_1985" x="0" y="0" width="323" height="144" filterUnits="userSpaceOnUse" color-interpolation-filters="sRGB">
<feFlood flood-opacity="0" result="BackgroundImageFix"/>
<feColorMatrix in="SourceAlpha" type="matrix" values="0 0 0 0 0 0 0 0 0 0 0 0 0 0 0 0 0 0 127 0" result="hardAlpha"/>
<feOffset dy="1"/>
<feGaussianBlur stdDeviation="5"/>
<feComposite in2="hardAlpha" operator="out"/>
<feColorMatrix type="matrix" values="0 0 0 0 0 0 0 0 0 0 0 0 0 0 0 0 0 0 0.1 0"/>
<feBlend mode="normal" in2="BackgroundImageFix" result="effect1_dropShadow_520_1985"/>
<feBlend mode="normal" in="SourceGraphic" in2="effect1_dropShadow_520_1985" result="shape"/>
</filter>
</defs>
</svg>
