<svg width="323" height="144" viewBox="0 0 323 144" fill="none" xmlns="http://www.w3.org/2000/svg">
<g filter="url(#filter0_d_532_2057)">
<rect x="10" y="9" width="303" height="124" rx="20" fill="#EEA953" shape-rendering="crispEdges"/>
<path d="M31.2642 50.5V35.9545H37.0028C38.1061 35.9545 39.0459 36.1652 39.8224 36.5866C40.599 37.0033 41.1908 37.5833 41.598 38.3267C42.0099 39.0653 42.2159 39.9176 42.2159 40.8835C42.2159 41.8494 42.0076 42.7017 41.5909 43.4403C41.1742 44.179 40.5705 44.7543 39.7798 45.1662C38.9938 45.5781 38.0421 45.7841 36.9247 45.7841H33.267V43.3196H36.4276C37.0194 43.3196 37.5071 43.2178 37.8906 43.0142C38.2789 42.8059 38.5677 42.5194 38.7571 42.1548C38.9512 41.7855 39.0483 41.3617 39.0483 40.8835C39.0483 40.4006 38.9512 39.9792 38.7571 39.6193C38.5677 39.2547 38.2789 38.973 37.8906 38.7741C37.5024 38.5705 37.0099 38.4688 36.4134 38.4688H34.3395V50.5H31.2642ZM46.9744 50.706C46.2784 50.706 45.6581 50.5852 45.1136 50.3438C44.5691 50.0975 44.1383 49.7353 43.821 49.2571C43.5085 48.7741 43.3523 48.1728 43.3523 47.4531C43.3523 46.8471 43.4635 46.3381 43.6861 45.9261C43.9086 45.5142 44.2116 45.1828 44.5952 44.9318C44.9787 44.6809 45.4143 44.4915 45.902 44.3636C46.3944 44.2358 46.9105 44.1458 47.4503 44.0938C48.0848 44.0275 48.5961 43.9659 48.9844 43.9091C49.3726 43.8475 49.6544 43.7576 49.8295 43.6392C50.0047 43.5208 50.0923 43.3456 50.0923 43.1136V43.071C50.0923 42.6212 49.9503 42.2732 49.6662 42.027C49.3868 41.7808 48.9891 41.6577 48.473 41.6577C47.9285 41.6577 47.4953 41.7784 47.1733 42.0199C46.8513 42.2566 46.6383 42.5549 46.5341 42.9148L43.7358 42.6875C43.8778 42.0246 44.1572 41.4517 44.5739 40.9688C44.9905 40.4811 45.5279 40.107 46.1861 39.8466C46.849 39.5814 47.616 39.4489 48.4872 39.4489C49.0933 39.4489 49.6733 39.5199 50.2273 39.6619C50.786 39.804 51.2808 40.0241 51.7116 40.3224C52.1473 40.6207 52.4905 41.0043 52.7415 41.473C52.9924 41.937 53.1179 42.4934 53.1179 43.142V50.5H50.2486V48.9872H50.1634C49.9882 49.3281 49.7538 49.6288 49.4602 49.8892C49.1667 50.1449 48.8139 50.3461 48.402 50.4929C47.9901 50.6349 47.5142 50.706 46.9744 50.706ZM47.8409 48.6179C48.286 48.6179 48.679 48.5303 49.0199 48.3551C49.3608 48.1752 49.6283 47.9337 49.8224 47.6307C50.0166 47.3277 50.1136 46.9844 50.1136 46.6009V45.4432C50.0189 45.5047 49.8887 45.5616 49.723 45.6136C49.562 45.661 49.3797 45.706 49.1761 45.7486C48.9725 45.7865 48.7689 45.822 48.5653 45.8551C48.3617 45.8835 48.1771 45.9096 48.0114 45.9332C47.6563 45.9853 47.3461 46.0682 47.081 46.1818C46.8158 46.2955 46.6098 46.4493 46.4631 46.6435C46.3163 46.8329 46.2429 47.0696 46.2429 47.3537C46.2429 47.7656 46.392 48.0805 46.6903 48.2983C46.9934 48.5114 47.3769 48.6179 47.8409 48.6179ZM62.4609 45.8551V39.5909H65.4865V50.5H62.5817V48.5185H62.468C62.2218 49.1577 61.8123 49.6714 61.2393 50.0597C60.6712 50.4479 59.9775 50.642 59.1584 50.642C58.4292 50.642 57.7876 50.4763 57.2337 50.1449C56.6797 49.8134 56.2464 49.3423 55.9339 48.7315C55.6262 48.1207 55.4699 47.3892 55.4652 46.5369V39.5909H58.4908V45.9972C58.4955 46.6411 58.6683 47.1501 59.0092 47.5241C59.3501 47.8982 59.8071 48.0852 60.38 48.0852C60.7446 48.0852 61.0855 48.0024 61.4027 47.8366C61.7199 47.6662 61.9756 47.4152 62.1697 47.0838C62.3686 46.7524 62.4657 46.3428 62.4609 45.8551ZM76.9833 42.7017L74.2134 42.8722C74.1661 42.6354 74.0643 42.4223 73.908 42.233C73.7518 42.0388 73.5458 41.8849 73.2901 41.7713C73.0392 41.6529 72.7385 41.5938 72.3881 41.5938C71.9194 41.5938 71.524 41.6932 71.2021 41.892C70.8801 42.0862 70.7191 42.3466 70.7191 42.6733C70.7191 42.9337 70.8233 43.1539 71.0316 43.3338C71.2399 43.5137 71.5974 43.6581 72.104 43.767L74.0785 44.1648C75.1391 44.3826 75.9298 44.733 76.4506 45.2159C76.9715 45.6989 77.2319 46.3333 77.2319 47.1193C77.2319 47.8343 77.0212 48.4616 76.5998 49.0014C76.1831 49.5412 75.6102 49.9626 74.881 50.2656C74.1566 50.5639 73.3209 50.7131 72.3739 50.7131C70.9298 50.7131 69.7792 50.4124 68.9222 49.8111C68.07 49.205 67.5704 48.3812 67.4237 47.3395L70.3995 47.1832C70.4895 47.6236 70.7073 47.9598 71.0529 48.1918C71.3986 48.419 71.8413 48.5327 72.381 48.5327C72.9113 48.5327 73.3375 48.4309 73.6594 48.2273C73.9862 48.0189 74.1519 47.7514 74.1566 47.4247C74.1519 47.1501 74.0359 46.9252 73.8086 46.75C73.5813 46.5701 73.2309 46.4328 72.7575 46.3381L70.8683 45.9616C69.8029 45.7486 69.0098 45.3793 68.489 44.8537C67.9729 44.3281 67.7148 43.6581 67.7148 42.8438C67.7148 42.143 67.9042 41.5393 68.283 41.0327C68.6665 40.526 69.204 40.1354 69.8952 39.8608C70.5913 39.5862 71.4057 39.4489 72.3384 39.4489C73.7163 39.4489 74.8005 39.7401 75.5913 40.3224C76.3867 40.9048 76.8507 41.6979 76.9833 42.7017ZM79.1371 50.5V39.5909H82.1626V50.5H79.1371ZM80.657 38.1847C80.2071 38.1847 79.8213 38.0355 79.4993 37.7372C79.1821 37.4342 79.0234 37.072 79.0234 36.6506C79.0234 36.2339 79.1821 35.8764 79.4993 35.5781C79.8213 35.2751 80.2071 35.1236 80.657 35.1236C81.1068 35.1236 81.4903 35.2751 81.8075 35.5781C82.1295 35.8764 82.2905 36.2339 82.2905 36.6506C82.2905 37.072 82.1295 37.4342 81.8075 37.7372C81.4903 38.0355 81.1068 38.1847 80.657 38.1847ZM87.6119 44.1932V50.5H84.5863V39.5909H87.4698V41.5156H87.5977C87.8391 40.8812 88.244 40.3793 88.8121 40.0099C89.3803 39.6359 90.0692 39.4489 90.8789 39.4489C91.6365 39.4489 92.297 39.6146 92.8604 39.946C93.4239 40.2775 93.8619 40.7509 94.1744 41.3665C94.4869 41.9773 94.6431 42.7064 94.6431 43.554V50.5H91.6175V44.0938C91.6223 43.4261 91.4518 42.9053 91.1062 42.5312C90.7605 42.1525 90.2847 41.9631 89.6786 41.9631C89.2714 41.9631 88.9116 42.0507 88.5991 42.2259C88.2913 42.401 88.0498 42.6567 87.8746 42.9929C87.7042 43.3243 87.6166 43.7244 87.6119 44.1932ZM101.942 54.8182C100.962 54.8182 100.122 54.6832 99.4212 54.4134C98.7251 54.1482 98.1712 53.786 97.7592 53.3267C97.3473 52.8674 97.0798 52.3513 96.9567 51.7784L99.755 51.402C99.8402 51.6198 99.9751 51.8234 100.16 52.0128C100.344 52.2022 100.588 52.3537 100.891 52.4673C101.199 52.5857 101.573 52.6449 102.013 52.6449C102.672 52.6449 103.214 52.4839 103.64 52.1619C104.071 51.8447 104.286 51.312 104.286 50.5639V48.5682H104.158C104.026 48.8712 103.827 49.1577 103.562 49.4276C103.297 49.6974 102.956 49.9176 102.539 50.0881C102.122 50.2585 101.625 50.3438 101.048 50.3438C100.228 50.3438 99.4827 50.1544 98.8104 49.7756C98.1428 49.392 97.6101 48.8073 97.2124 48.0213C96.8194 47.2306 96.6229 46.2315 96.6229 45.0241C96.6229 43.7884 96.8241 42.7562 97.2266 41.9276C97.629 41.099 98.1641 40.4787 98.8317 40.0668C99.504 39.6548 100.24 39.4489 101.04 39.4489C101.651 39.4489 102.163 39.553 102.575 39.7614C102.987 39.965 103.318 40.2206 103.569 40.5284C103.825 40.8314 104.021 41.1297 104.158 41.4233H104.272V39.5909H107.276V50.6065C107.276 51.5346 107.049 52.3111 106.594 52.9361C106.14 53.5611 105.51 54.0298 104.705 54.3423C103.905 54.6596 102.984 54.8182 101.942 54.8182ZM102.006 48.071C102.494 48.071 102.906 47.9503 103.242 47.7088C103.583 47.4626 103.844 47.1122 104.023 46.6577C104.208 46.1984 104.3 45.6491 104.3 45.0099C104.3 44.3707 104.21 43.8168 104.031 43.348C103.851 42.8745 103.59 42.5076 103.249 42.2472C102.908 41.9867 102.494 41.8565 102.006 41.8565C101.509 41.8565 101.09 41.9915 100.749 42.2614C100.408 42.5265 100.15 42.8958 99.9751 43.3693C99.8 43.8428 99.7124 44.3897 99.7124 45.0099C99.7124 45.6397 99.8 46.1842 99.9751 46.6435C100.155 47.098 100.413 47.4508 100.749 47.7017C101.09 47.9479 101.509 48.071 102.006 48.071Z" fill="#FCFCFC"/>
<rect x="119" y="29" width="29" height="29" rx="10" fill="#FCFCFC"/>
<g clip-path="url(#clip0_532_2057)">
<path d="M138.104 45.2044C138.576 45.0194 138.984 44.7002 139.276 44.2862C139.569 43.8722 139.733 43.3816 139.75 42.875C139.75 41.2362 138.188 40.1537 135.5 39.8444C135.824 39.4715 136.001 38.9938 136 38.5C136 36.9812 134.528 36 132.25 36C129.972 36 128.5 36.9812 128.5 38.5C128.505 38.8961 128.618 39.2833 128.827 39.6195C129.036 39.9557 129.334 40.2281 129.688 40.4069C128.265 41.0325 127.875 42.0037 127.875 42.875C127.872 43.3443 128.001 43.805 128.247 44.2045C128.493 44.6039 128.847 44.926 129.268 45.1337C127.121 45.6125 126 46.5356 126 47.875C126 49.9194 128.593 51 133.5 51C138.477 51 141 49.9488 141 47.875C141 46.5894 140.028 45.6975 138.104 45.2044ZM132.25 37.25C133.494 37.25 134.75 37.6369 134.75 38.5C134.75 39.3631 133.494 39.75 132.25 39.75C131.006 39.75 129.75 39.3631 129.75 38.5C129.75 37.6369 131.006 37.25 132.25 37.25ZM133.812 41C135.975 41 138.5 41.4913 138.5 42.875C138.5 44.2587 135.975 44.75 133.812 44.75C132.403 44.75 129.125 44.5675 129.125 42.875C129.125 41.1825 132.403 41 133.812 41ZM133.5 49.75C129.703 49.75 127.25 49.0138 127.25 47.875C127.25 46.7362 129.703 46 133.5 46C137.414 46 139.75 46.7013 139.75 47.875C139.75 49.0487 137.414 49.75 133.5 49.75Z" fill="#EEA953"/>
</g>
<path d="M30.4773 72.598V71.2727H37.4403V72.598H34.7429V80H33.1747V72.598H30.4773ZM39.7074 80.1321C39.2926 80.1321 38.919 80.0582 38.5866 79.9105C38.2571 79.7599 37.9957 79.5384 37.8026 79.2457C37.6122 78.9531 37.517 78.5923 37.517 78.1634C37.517 77.794 37.5852 77.4886 37.7216 77.2472C37.858 77.0057 38.044 76.8125 38.2798 76.6676C38.5156 76.5227 38.7813 76.4134 39.0767 76.3395C39.375 76.2628 39.6832 76.2074 40.0014 76.1733C40.3849 76.1335 40.696 76.098 40.9347 76.0668C41.1733 76.0327 41.3466 75.9815 41.4545 75.9134C41.5653 75.8423 41.6207 75.733 41.6207 75.5852V75.5597C41.6207 75.2386 41.5256 74.9901 41.3352 74.8139C41.1449 74.6378 40.8707 74.5497 40.5128 74.5497C40.1349 74.5497 39.8352 74.6321 39.6136 74.7969C39.3949 74.9616 39.2472 75.1562 39.1705 75.3807L37.7301 75.1761C37.8438 74.7784 38.0313 74.446 38.2926 74.179C38.554 73.9091 38.8736 73.7074 39.2514 73.5739C39.6293 73.4375 40.0469 73.3693 40.5043 73.3693C40.8196 73.3693 41.1335 73.4062 41.446 73.4801C41.7585 73.554 42.044 73.6761 42.3026 73.8466C42.5611 74.0142 42.7685 74.2429 42.9247 74.5327C43.0838 74.8224 43.1634 75.1847 43.1634 75.6193V80H41.6804V79.1009H41.6293C41.5355 79.2827 41.4034 79.4531 41.233 79.6122C41.0653 79.7685 40.8537 79.8949 40.598 79.9915C40.3452 80.0852 40.0483 80.1321 39.7074 80.1321ZM40.108 78.9986C40.4176 78.9986 40.6861 78.9375 40.9134 78.8153C41.1406 78.6903 41.3153 78.5256 41.4375 78.321C41.5625 78.1165 41.625 77.8935 41.625 77.652V76.8807C41.5767 76.9205 41.4943 76.9574 41.3778 76.9915C41.2642 77.0256 41.1364 77.0554 40.9943 77.081C40.8523 77.1065 40.7116 77.1293 40.5724 77.1491C40.4332 77.169 40.3125 77.1861 40.2102 77.2003C39.9801 77.2315 39.7741 77.2827 39.5923 77.3537C39.4105 77.4247 39.267 77.5241 39.1619 77.652C39.0568 77.777 39.0043 77.9389 39.0043 78.1378C39.0043 78.4219 39.108 78.6364 39.3153 78.7812C39.5227 78.9261 39.7869 78.9986 40.108 78.9986ZM46.1207 77.946L46.1165 76.0838H46.3636L48.7159 73.4545H50.5185L47.625 76.6761H47.3054L46.1207 77.946ZM44.7145 80V71.2727H46.2571V80H44.7145ZM48.8224 80L46.6918 77.0213L47.7315 75.9347L50.6676 80H48.8224ZM51.5465 80V73.4545H53.0891V80H51.5465ZM52.3221 72.5256C52.0778 72.5256 51.8675 72.4446 51.6914 72.2827C51.5153 72.1179 51.4272 71.9205 51.4272 71.6903C51.4272 71.4574 51.5153 71.2599 51.6914 71.098C51.8675 70.9332 52.0778 70.8509 52.3221 70.8509C52.5692 70.8509 52.7795 70.9332 52.9528 71.098C53.1289 71.2599 53.217 71.4574 53.217 71.6903C53.217 71.9205 53.1289 72.1179 52.9528 72.2827C52.7795 72.4446 52.5692 72.5256 52.3221 72.5256ZM56.218 76.1648V80H54.6754V73.4545H56.1499V74.5668H56.2266C56.3771 74.2003 56.6172 73.9091 56.9467 73.6932C57.2791 73.4773 57.6896 73.3693 58.1783 73.3693C58.63 73.3693 59.0234 73.4659 59.3587 73.6591C59.6967 73.8523 59.9581 74.1321 60.1428 74.4986C60.3303 74.8651 60.4226 75.3097 60.4197 75.8324V80H58.8771V76.071C58.8771 75.6335 58.7635 75.2912 58.5362 75.044C58.3118 74.7969 58.0007 74.6733 57.603 74.6733C57.3331 74.6733 57.093 74.733 56.8828 74.8523C56.6754 74.9687 56.5121 75.1378 56.3928 75.3594C56.2763 75.581 56.218 75.8494 56.218 76.1648ZM64.8345 82.5909C64.2805 82.5909 63.8047 82.5156 63.407 82.3651C63.0092 82.2173 62.6896 82.0185 62.4482 81.7685C62.2067 81.5185 62.0391 81.2415 61.9453 80.9375L63.3345 80.6009C63.397 80.7287 63.4879 80.8551 63.6072 80.9801C63.7266 81.108 63.8871 81.2131 64.0888 81.2955C64.2933 81.3807 64.5504 81.4233 64.8601 81.4233C65.2976 81.4233 65.6598 81.3168 65.9467 81.1037C66.2337 80.8935 66.3771 80.5469 66.3771 80.0639V78.8239H66.3004C66.2209 78.983 66.1044 79.1463 65.951 79.3139C65.8004 79.4815 65.6001 79.6222 65.3501 79.7358C65.103 79.8494 64.7919 79.9062 64.4169 79.9062C63.9141 79.9062 63.4581 79.7884 63.049 79.5526C62.6428 79.3139 62.3189 78.9588 62.0774 78.4872C61.8388 78.0128 61.7195 77.419 61.7195 76.706C61.7195 75.9872 61.8388 75.3807 62.0774 74.8864C62.3189 74.3892 62.6442 74.0128 63.0533 73.7571C63.4624 73.4986 63.9183 73.3693 64.4212 73.3693C64.8047 73.3693 65.12 73.4347 65.3672 73.5653C65.6172 73.6932 65.8161 73.848 65.9638 74.0298C66.1115 74.2088 66.2237 74.3778 66.3004 74.5369H66.3857V73.4545H67.907V80.1065C67.907 80.6662 67.7734 81.1293 67.5064 81.4957C67.2393 81.8622 66.8743 82.1364 66.4112 82.3182C65.9482 82.5 65.4226 82.5909 64.8345 82.5909ZM64.8473 78.696C65.174 78.696 65.4524 78.6165 65.6825 78.4574C65.9126 78.2983 66.0874 78.0696 66.2067 77.7713C66.326 77.473 66.3857 77.1151 66.3857 76.6974C66.3857 76.2855 66.326 75.9247 66.2067 75.6151C66.0902 75.3054 65.9169 75.0653 65.6868 74.8949C65.4595 74.7216 65.1797 74.6349 64.8473 74.6349C64.5036 74.6349 64.2166 74.7244 63.9865 74.9034C63.7564 75.0824 63.5831 75.3281 63.4666 75.6406C63.3501 75.9503 63.2919 76.3026 63.2919 76.6974C63.2919 77.098 63.3501 77.4489 63.4666 77.75C63.5859 78.0483 63.7607 78.2812 63.9908 78.4489C64.2237 78.6136 64.5092 78.696 64.8473 78.696ZM75.733 73.4545V74.6477H71.9702V73.4545H75.733ZM72.8991 71.8864H74.4418V78.0312C74.4418 78.2386 74.473 78.3977 74.5355 78.5085C74.6009 78.6165 74.6861 78.6903 74.7912 78.7301C74.8963 78.7699 75.0128 78.7898 75.1406 78.7898C75.2372 78.7898 75.3253 78.7827 75.4048 78.7685C75.4872 78.7543 75.5497 78.7415 75.5923 78.7301L75.8523 79.9361C75.7699 79.9645 75.652 79.9957 75.4986 80.0298C75.348 80.0639 75.1634 80.0838 74.9446 80.0895C74.5582 80.1009 74.2102 80.0426 73.9006 79.9148C73.5909 79.7841 73.3452 79.5824 73.1634 79.3097C72.9844 79.0369 72.8963 78.696 72.8991 78.2869V71.8864ZM77.0231 80V73.4545H78.5657V80H77.0231ZM77.7987 72.5256C77.5543 72.5256 77.3441 72.4446 77.168 72.2827C76.9918 72.1179 76.9038 71.9205 76.9038 71.6903C76.9038 71.4574 76.9918 71.2599 77.168 71.098C77.3441 70.9332 77.5543 70.8509 77.7987 70.8509C78.0458 70.8509 78.256 70.9332 78.4293 71.098C78.6055 71.2599 78.6935 71.4574 78.6935 71.6903C78.6935 71.9205 78.6055 72.1179 78.4293 72.2827C78.256 72.4446 78.0458 72.5256 77.7987 72.5256ZM80.152 80V73.4545H81.6264V74.5668H81.7031C81.8395 74.1918 82.0653 73.8991 82.3807 73.6889C82.696 73.4759 83.0724 73.3693 83.5099 73.3693C83.9531 73.3693 84.3267 73.4773 84.6307 73.6932C84.9375 73.9062 85.1534 74.1974 85.2784 74.5668H85.3466C85.4915 74.2031 85.7358 73.9134 86.0795 73.6974C86.4261 73.4787 86.8366 73.3693 87.3111 73.3693C87.9134 73.3693 88.4048 73.5597 88.7855 73.9403C89.1662 74.321 89.3565 74.8764 89.3565 75.6065V80H87.8097V75.8452C87.8097 75.4389 87.7017 75.142 87.4858 74.9545C87.2699 74.7642 87.0057 74.669 86.6932 74.669C86.321 74.669 86.0298 74.7855 85.8196 75.0185C85.6122 75.2486 85.5085 75.5483 85.5085 75.9176V80H83.9957V75.7812C83.9957 75.4432 83.8935 75.1733 83.6889 74.9716C83.4872 74.7699 83.223 74.669 82.8963 74.669C82.6747 74.669 82.473 74.7259 82.2912 74.8395C82.1094 74.9503 81.9645 75.108 81.8565 75.3125C81.7486 75.5142 81.6946 75.75 81.6946 76.0199V80H80.152ZM93.8192 80.1278C93.163 80.1278 92.5962 79.9915 92.119 79.7188C91.6445 79.4432 91.2795 79.054 91.0238 78.5511C90.7681 78.0455 90.6403 77.4503 90.6403 76.7656C90.6403 76.0923 90.7681 75.5014 91.0238 74.9929C91.2823 74.4815 91.6431 74.0838 92.1062 73.7997C92.5692 73.5128 93.1133 73.3693 93.7383 73.3693C94.1417 73.3693 94.5224 73.4347 94.8803 73.5653C95.2411 73.6932 95.5593 73.892 95.8349 74.1619C96.1133 74.4318 96.332 74.7756 96.4911 75.1932C96.6502 75.608 96.7298 76.1023 96.7298 76.6761V77.1491H91.3647V76.1094H95.2511C95.2482 75.8139 95.1843 75.5511 95.0593 75.321C94.9343 75.0881 94.7596 74.9048 94.5352 74.7713C94.3136 74.6378 94.055 74.571 93.7596 74.571C93.4442 74.571 93.1673 74.6477 92.9286 74.8011C92.69 74.9517 92.5039 75.1506 92.3704 75.3977C92.2397 75.642 92.1729 75.9105 92.1701 76.2031V77.1108C92.1701 77.4915 92.2397 77.8182 92.3789 78.0909C92.5181 78.3608 92.7127 78.5682 92.9627 78.7131C93.2127 78.8551 93.5053 78.9261 93.8406 78.9261C94.065 78.9261 94.2681 78.8949 94.4499 78.8324C94.6317 78.767 94.7894 78.6719 94.9229 78.5469C95.0565 78.4219 95.1573 78.267 95.2255 78.0824L96.6658 78.2443C96.5749 78.625 96.4016 78.9574 96.146 79.2415C95.8931 79.5227 95.5692 79.7415 95.1744 79.8977C94.7795 80.0511 94.3278 80.1278 93.8192 80.1278ZM103.866 80.1278C103.227 80.1278 102.673 79.9872 102.205 79.706C101.736 79.4247 101.372 79.0312 101.114 78.5256C100.858 78.0199 100.73 77.429 100.73 76.7528C100.73 76.0767 100.858 75.4844 101.114 74.9759C101.372 74.4673 101.736 74.0724 102.205 73.7912C102.673 73.5099 103.227 73.3693 103.866 73.3693C104.506 73.3693 105.06 73.5099 105.528 73.7912C105.997 74.0724 106.359 74.4673 106.615 74.9759C106.874 75.4844 107.003 76.0767 107.003 76.7528C107.003 77.429 106.874 78.0199 106.615 78.5256C106.359 79.0312 105.997 79.4247 105.528 79.706C105.06 79.9872 104.506 80.1278 103.866 80.1278ZM103.875 78.892C104.222 78.892 104.511 78.7969 104.744 78.6065C104.977 78.4134 105.151 78.1548 105.264 77.831C105.381 77.5071 105.439 77.1463 105.439 76.7486C105.439 76.348 105.381 75.9858 105.264 75.6619C105.151 75.3352 104.977 75.0753 104.744 74.8821C104.511 74.6889 104.222 74.5923 103.875 74.5923C103.52 74.5923 103.224 74.6889 102.989 74.8821C102.756 75.0753 102.581 75.3352 102.464 75.6619C102.351 75.9858 102.294 76.348 102.294 76.7486C102.294 77.1463 102.351 77.5071 102.464 77.831C102.581 78.1548 102.756 78.4134 102.989 78.6065C103.224 78.7969 103.52 78.892 103.875 78.892ZM112.484 77.2472V73.4545H114.027V80H112.531V78.8366H112.463C112.315 79.2031 112.072 79.5028 111.734 79.7358C111.399 79.9687 110.985 80.0852 110.494 80.0852C110.065 80.0852 109.686 79.9901 109.356 79.7997C109.029 79.6065 108.774 79.3267 108.589 78.9602C108.404 78.5909 108.312 78.1449 108.312 77.6222V73.4545H109.855V77.3835C109.855 77.7983 109.968 78.1278 110.196 78.3722C110.423 78.6165 110.721 78.7386 111.091 78.7386C111.318 78.7386 111.538 78.6832 111.751 78.5724C111.964 78.4616 112.139 78.2969 112.275 78.0781C112.414 77.8565 112.484 77.5795 112.484 77.2472ZM118.881 73.4545V74.6477H115.119V73.4545H118.881ZM116.048 71.8864H117.59V78.0312C117.59 78.2386 117.621 78.3977 117.684 78.5085C117.749 78.6165 117.835 78.6903 117.94 78.7301C118.045 78.7699 118.161 78.7898 118.289 78.7898C118.386 78.7898 118.474 78.7827 118.553 78.7685C118.636 78.7543 118.698 78.7415 118.741 78.7301L119.001 79.9361C118.918 79.9645 118.8 79.9957 118.647 80.0298C118.496 80.0639 118.312 80.0838 118.093 80.0895C117.707 80.1009 117.359 80.0426 117.049 79.9148C116.739 79.7841 116.494 79.5824 116.312 79.3097C116.133 79.0369 116.045 78.696 116.048 78.2869V71.8864ZM126.003 80.1278C125.364 80.1278 124.81 79.9872 124.341 79.706C123.873 79.4247 123.509 79.0312 123.25 78.5256C122.995 78.0199 122.867 77.429 122.867 76.7528C122.867 76.0767 122.995 75.4844 123.25 74.9759C123.509 74.4673 123.873 74.0724 124.341 73.7912C124.81 73.5099 125.364 73.3693 126.003 73.3693C126.642 73.3693 127.196 73.5099 127.665 73.7912C128.134 74.0724 128.496 74.4673 128.752 74.9759C129.01 75.4844 129.14 76.0767 129.14 76.7528C129.14 77.429 129.01 78.0199 128.752 78.5256C128.496 79.0312 128.134 79.4247 127.665 79.706C127.196 79.9872 126.642 80.1278 126.003 80.1278ZM126.012 78.892C126.358 78.892 126.648 78.7969 126.881 78.6065C127.114 78.4134 127.287 78.1548 127.401 77.831C127.517 77.5071 127.576 77.1463 127.576 76.7486C127.576 76.348 127.517 75.9858 127.401 75.6619C127.287 75.3352 127.114 75.0753 126.881 74.8821C126.648 74.6889 126.358 74.5923 126.012 74.5923C125.657 74.5923 125.361 74.6889 125.125 74.8821C124.892 75.0753 124.718 75.3352 124.601 75.6619C124.488 75.9858 124.431 76.348 124.431 76.7486C124.431 77.1463 124.488 77.5071 124.601 77.831C124.718 78.1548 124.892 78.4134 125.125 78.6065C125.361 78.7969 125.657 78.892 126.012 78.892ZM133.764 73.4545V74.6477H129.895V73.4545H133.764ZM130.862 80V72.8366C130.862 72.3963 130.953 72.0298 131.135 71.7372C131.32 71.4446 131.567 71.2259 131.876 71.081C132.186 70.9361 132.53 70.8636 132.908 70.8636C133.175 70.8636 133.412 70.8849 133.619 70.9276C133.827 70.9702 133.98 71.0085 134.08 71.0426L133.773 72.2358C133.707 72.2159 133.625 72.196 133.526 72.1761C133.426 72.1534 133.315 72.142 133.193 72.142C132.906 72.142 132.703 72.2116 132.584 72.3509C132.467 72.4872 132.409 72.6832 132.409 72.9389V80H130.862ZM138.908 82.4545C138.697 82.4545 138.503 82.4375 138.324 82.4034C138.148 82.3722 138.007 82.3352 137.902 82.2926L138.26 81.0909C138.484 81.1563 138.685 81.1875 138.861 81.1847C139.037 81.1818 139.192 81.1264 139.325 81.0185C139.462 80.9134 139.577 80.7372 139.67 80.4901L139.803 80.1364L137.429 73.4545H139.065L140.574 78.3977H140.642L142.155 73.4545H143.795L141.175 80.7926C141.053 81.1392 140.891 81.4361 140.689 81.6832C140.487 81.9332 140.24 82.1236 139.947 82.2543C139.658 82.3878 139.311 82.4545 138.908 82.4545ZM147.495 80.1278C146.856 80.1278 146.302 79.9872 145.833 79.706C145.365 79.4247 145.001 79.0312 144.743 78.5256C144.487 78.0199 144.359 77.429 144.359 76.7528C144.359 76.0767 144.487 75.4844 144.743 74.9759C145.001 74.4673 145.365 74.0724 145.833 73.7912C146.302 73.5099 146.856 73.3693 147.495 73.3693C148.135 73.3693 148.689 73.5099 149.157 73.7912C149.626 74.0724 149.988 74.4673 150.244 74.9759C150.502 75.4844 150.632 76.0767 150.632 76.7528C150.632 77.429 150.502 78.0199 150.244 78.5256C149.988 79.0312 149.626 79.4247 149.157 79.706C148.689 79.9872 148.135 80.1278 147.495 80.1278ZM147.504 78.892C147.85 78.892 148.14 78.7969 148.373 78.6065C148.606 78.4134 148.779 78.1548 148.893 77.831C149.01 77.5071 149.068 77.1463 149.068 76.7486C149.068 76.348 149.01 75.9858 148.893 75.6619C148.779 75.3352 148.606 75.0753 148.373 74.8821C148.14 74.6889 147.85 74.5923 147.504 74.5923C147.149 74.5923 146.853 74.6889 146.618 74.8821C146.385 75.0753 146.21 75.3352 146.093 75.6619C145.98 75.9858 145.923 76.348 145.923 76.7486C145.923 77.1463 145.98 77.5071 146.093 77.831C146.21 78.1548 146.385 78.4134 146.618 78.6065C146.853 78.7969 147.149 78.892 147.504 78.892ZM156.113 77.2472V73.4545H157.656V80H156.16V78.8366H156.092C155.944 79.2031 155.701 79.5028 155.363 79.7358C155.028 79.9687 154.614 80.0852 154.123 80.0852C153.694 80.0852 153.315 79.9901 152.985 79.7997C152.658 79.6065 152.403 79.3267 152.218 78.9602C152.033 78.5909 151.941 78.1449 151.941 77.6222V73.4545H153.484V77.3835C153.484 77.7983 153.597 78.1278 153.825 78.3722C154.052 78.6165 154.35 78.7386 154.719 78.7386C154.947 78.7386 155.167 78.6832 155.38 78.5724C155.593 78.4616 155.768 78.2969 155.904 78.0781C156.043 77.8565 156.113 77.5795 156.113 77.2472ZM159.242 80V73.4545H160.738V74.5455H160.806C160.925 74.1676 161.13 73.8764 161.419 73.6719C161.712 73.4645 162.046 73.3608 162.421 73.3608C162.506 73.3608 162.601 73.3651 162.706 73.3736C162.814 73.3793 162.904 73.3892 162.975 73.4034V74.8224C162.909 74.7997 162.806 74.7798 162.664 74.7628C162.525 74.7429 162.39 74.733 162.259 74.733C161.978 74.733 161.725 74.794 161.5 74.9162C161.279 75.0355 161.104 75.2017 160.976 75.4148C160.848 75.6278 160.784 75.8736 160.784 76.152V80H159.242ZM169.405 80.1151C168.891 80.1151 168.431 79.983 168.025 79.7188C167.618 79.4545 167.297 79.071 167.061 78.5682C166.826 78.0653 166.708 77.4545 166.708 76.7358C166.708 76.0085 166.827 75.3949 167.066 74.8949C167.307 74.392 167.632 74.0128 168.042 73.7571C168.451 73.4986 168.907 73.3693 169.409 73.3693C169.793 73.3693 170.108 73.4347 170.355 73.5653C170.603 73.6932 170.799 73.848 170.944 74.0298C171.088 74.2088 171.201 74.3778 171.28 74.5369H171.344V71.2727H172.891V80H171.374V78.9688H171.28C171.201 79.1278 171.086 79.2969 170.935 79.4759C170.784 79.652 170.586 79.8026 170.338 79.9276C170.091 80.0526 169.78 80.1151 169.405 80.1151ZM169.836 78.8494C170.162 78.8494 170.441 78.7614 170.671 78.5852C170.901 78.4062 171.076 78.1577 171.195 77.8395C171.314 77.5213 171.374 77.1506 171.374 76.7273C171.374 76.304 171.314 75.9361 171.195 75.6236C171.078 75.3111 170.905 75.0682 170.675 74.8949C170.448 74.7216 170.168 74.6349 169.836 74.6349C169.492 74.6349 169.205 74.7244 168.975 74.9034C168.745 75.0824 168.571 75.3295 168.455 75.6449C168.338 75.9602 168.28 76.321 168.28 76.7273C168.28 77.1364 168.338 77.5014 168.455 77.8224C168.574 78.1406 168.749 78.392 168.979 78.5767C169.212 78.7585 169.498 78.8494 169.836 78.8494ZM176.418 80.1321C176.004 80.1321 175.63 80.0582 175.298 79.9105C174.968 79.7599 174.707 79.5384 174.513 79.2457C174.323 78.9531 174.228 78.5923 174.228 78.1634C174.228 77.794 174.296 77.4886 174.433 77.2472C174.569 77.0057 174.755 76.8125 174.991 76.6676C175.227 76.5227 175.492 76.4134 175.788 76.3395C176.086 76.2628 176.394 76.2074 176.712 76.1733C177.096 76.1335 177.407 76.098 177.646 76.0668C177.884 76.0327 178.058 75.9815 178.165 75.9134C178.276 75.8423 178.332 75.733 178.332 75.5852V75.5597C178.332 75.2386 178.237 74.9901 178.046 74.8139C177.856 74.6378 177.582 74.5497 177.224 74.5497C176.846 74.5497 176.546 74.6321 176.325 74.7969C176.106 74.9616 175.958 75.1562 175.881 75.3807L174.441 75.1761C174.555 74.7784 174.742 74.446 175.004 74.179C175.265 73.9091 175.585 73.7074 175.962 73.5739C176.34 73.4375 176.758 73.3693 177.215 73.3693C177.531 73.3693 177.844 73.4062 178.157 73.4801C178.469 73.554 178.755 73.6761 179.013 73.8466C179.272 74.0142 179.479 74.2429 179.636 74.5327C179.795 74.8224 179.874 75.1847 179.874 75.6193V80H178.391V79.1009H178.34C178.246 79.2827 178.114 79.4531 177.944 79.6122C177.776 79.7685 177.565 79.8949 177.309 79.9915C177.056 80.0852 176.759 80.1321 176.418 80.1321ZM176.819 78.9986C177.129 78.9986 177.397 78.9375 177.624 78.8153C177.852 78.6903 178.026 78.5256 178.148 78.321C178.273 78.1165 178.336 77.8935 178.336 77.652V76.8807C178.288 76.9205 178.205 76.9574 178.089 76.9915C177.975 77.0256 177.847 77.0554 177.705 77.081C177.563 77.1065 177.423 77.1293 177.283 77.1491C177.144 77.169 177.023 77.1861 176.921 77.2003C176.691 77.2315 176.485 77.2827 176.303 77.3537C176.121 77.4247 175.978 77.5241 175.873 77.652C175.768 77.777 175.715 77.9389 175.715 78.1378C175.715 78.4219 175.819 78.6364 176.026 78.7812C176.234 78.9261 176.498 78.9986 176.819 78.9986ZM182.15 82.4545C181.94 82.4545 181.745 82.4375 181.566 82.4034C181.39 82.3722 181.249 82.3352 181.144 82.2926L181.502 81.0909C181.727 81.1563 181.927 81.1875 182.103 81.1847C182.279 81.1818 182.434 81.1264 182.567 81.0185C182.704 80.9134 182.819 80.7372 182.913 80.4901L183.045 80.1364L180.671 73.4545H182.308L183.816 78.3977H183.884L185.397 73.4545H187.038L184.417 80.7926C184.295 81.1392 184.133 81.4361 183.931 81.6832C183.729 81.9332 183.482 82.1236 183.19 82.2543C182.9 82.3878 182.553 82.4545 182.15 82.4545ZM194.35 73.4545V74.6477H190.587V73.4545H194.35ZM191.516 71.8864H193.059V78.0312C193.059 78.2386 193.09 78.3977 193.153 78.5085C193.218 78.6165 193.303 78.6903 193.408 78.7301C193.513 78.7699 193.63 78.7898 193.758 78.7898C193.854 78.7898 193.942 78.7827 194.022 78.7685C194.104 78.7543 194.167 78.7415 194.21 78.7301L194.469 79.9361C194.387 79.9645 194.269 79.9957 194.116 80.0298C193.965 80.0639 193.781 80.0838 193.562 80.0895C193.175 80.1009 192.827 80.0426 192.518 79.9148C192.208 79.7841 191.962 79.5824 191.781 79.3097C191.602 79.0369 191.513 78.696 191.516 78.2869V71.8864ZM198.425 80.1278C197.786 80.1278 197.232 79.9872 196.763 79.706C196.294 79.4247 195.931 79.0312 195.672 78.5256C195.417 78.0199 195.289 77.429 195.289 76.7528C195.289 76.0767 195.417 75.4844 195.672 74.9759C195.931 74.4673 196.294 74.0724 196.763 73.7912C197.232 73.5099 197.786 73.3693 198.425 73.3693C199.064 73.3693 199.618 73.5099 200.087 73.7912C200.556 74.0724 200.918 74.4673 201.174 74.9759C201.432 75.4844 201.561 76.0767 201.561 76.7528C201.561 77.429 201.432 78.0199 201.174 78.5256C200.918 79.0312 200.556 79.4247 200.087 79.706C199.618 79.9872 199.064 80.1278 198.425 80.1278ZM198.434 78.892C198.78 78.892 199.07 78.7969 199.303 78.6065C199.536 78.4134 199.709 78.1548 199.823 77.831C199.939 77.5071 199.998 77.1463 199.998 76.7486C199.998 76.348 199.939 75.9858 199.823 75.6619C199.709 75.3352 199.536 75.0753 199.303 74.8821C199.07 74.6889 198.78 74.5923 198.434 74.5923C198.078 74.5923 197.783 74.6889 197.547 74.8821C197.314 75.0753 197.14 75.3352 197.023 75.6619C196.909 75.9858 196.853 76.348 196.853 76.7486C196.853 77.1463 196.909 77.5071 197.023 77.831C197.14 78.1548 197.314 78.4134 197.547 78.6065C197.783 78.7969 198.078 78.892 198.434 78.892ZM205.847 82.4545V73.4545H207.364V74.5369H207.454C207.533 74.3778 207.646 74.2088 207.79 74.0298C207.935 73.848 208.131 73.6932 208.379 73.5653C208.626 73.4347 208.941 73.3693 209.325 73.3693C209.83 73.3693 210.286 73.4986 210.692 73.7571C211.102 74.0128 211.425 74.392 211.664 74.8949C211.906 75.3949 212.026 76.0085 212.026 76.7358C212.026 77.4545 211.908 78.0653 211.673 78.5682C211.437 79.071 211.116 79.4545 210.71 79.7188C210.303 79.983 209.843 80.1151 209.329 80.1151C208.954 80.1151 208.643 80.0526 208.396 79.9276C208.148 79.8026 207.95 79.652 207.799 79.4759C207.651 79.2969 207.536 79.1278 207.454 78.9688H207.39V82.4545H205.847ZM207.36 76.7273C207.36 77.1506 207.42 77.5213 207.539 77.8395C207.661 78.1577 207.836 78.4062 208.063 78.5852C208.293 78.7614 208.572 78.8494 208.898 78.8494C209.239 78.8494 209.525 78.7585 209.755 78.5767C209.985 78.392 210.158 78.1406 210.275 77.8224C210.394 77.5014 210.454 77.1364 210.454 76.7273C210.454 76.321 210.396 75.9602 210.279 75.6449C210.163 75.3295 209.989 75.0824 209.759 74.9034C209.529 74.7244 209.242 74.6349 208.898 74.6349C208.569 74.6349 208.289 74.7216 208.059 74.8949C207.829 75.0682 207.654 75.3111 207.535 75.6236C207.418 75.9361 207.36 76.304 207.36 76.7273ZM215.231 80.1321C214.816 80.1321 214.442 80.0582 214.11 79.9105C213.781 79.7599 213.519 79.5384 213.326 79.2457C213.136 78.9531 213.04 78.5923 213.04 78.1634C213.04 77.794 213.109 77.4886 213.245 77.2472C213.381 77.0057 213.567 76.8125 213.803 76.6676C214.039 76.5227 214.305 76.4134 214.6 76.3395C214.898 76.2628 215.207 76.2074 215.525 76.1733C215.908 76.1335 216.219 76.098 216.458 76.0668C216.697 76.0327 216.87 75.9815 216.978 75.9134C217.089 75.8423 217.144 75.733 217.144 75.5852V75.5597C217.144 75.2386 217.049 74.9901 216.859 74.8139C216.668 74.6378 216.394 74.5497 216.036 74.5497C215.658 74.5497 215.359 74.6321 215.137 74.7969C214.918 74.9616 214.771 75.1562 214.694 75.3807L213.254 75.1761C213.367 74.7784 213.555 74.446 213.816 74.179C214.077 73.9091 214.397 73.7074 214.775 73.5739C215.153 73.4375 215.57 73.3693 216.028 73.3693C216.343 73.3693 216.657 73.4062 216.969 73.4801C217.282 73.554 217.567 73.6761 217.826 73.8466C218.085 74.0142 218.292 74.2429 218.448 74.5327C218.607 74.8224 218.687 75.1847 218.687 75.6193V80H217.204V79.1009H217.153C217.059 79.2827 216.927 79.4531 216.756 79.6122C216.589 79.7685 216.377 79.8949 216.121 79.9915C215.869 80.0852 215.572 80.1321 215.231 80.1321ZM215.631 78.9986C215.941 78.9986 216.21 78.9375 216.437 78.8153C216.664 78.6903 216.839 78.5256 216.961 78.321C217.086 78.1165 217.148 77.8935 217.148 77.652V76.8807C217.1 76.9205 217.018 76.9574 216.901 76.9915C216.788 77.0256 216.66 77.0554 216.518 77.081C216.376 77.1065 216.235 77.1293 216.096 77.1491C215.957 77.169 215.836 77.1861 215.734 77.2003C215.504 77.2315 215.298 77.2827 215.116 77.3537C214.934 77.4247 214.79 77.5241 214.685 77.652C214.58 77.777 214.528 77.9389 214.528 78.1378C214.528 78.4219 214.631 78.6364 214.839 78.7812C215.046 78.9261 215.31 78.9986 215.631 78.9986ZM224.41 77.2472V73.4545H225.952V80H224.457V78.8366H224.388C224.241 79.2031 223.998 79.5028 223.66 79.7358C223.325 79.9687 222.911 80.0852 222.42 80.0852C221.991 80.0852 221.612 79.9901 221.282 79.7997C220.955 79.6065 220.7 79.3267 220.515 78.9602C220.33 78.5909 220.238 78.1449 220.238 77.6222V73.4545H221.781V77.3835C221.781 77.7983 221.894 78.1278 222.121 78.3722C222.349 78.6165 222.647 78.7386 223.016 78.7386C223.244 78.7386 223.464 78.6832 223.677 78.5724C223.89 78.4616 224.065 78.2969 224.201 78.0781C224.34 77.8565 224.41 77.5795 224.41 77.2472ZM232.712 75.1847L231.306 75.3381C231.266 75.196 231.196 75.0625 231.097 74.9375C231 74.8125 230.87 74.7116 230.705 74.6349C230.54 74.5582 230.338 74.5199 230.1 74.5199C229.779 74.5199 229.509 74.5895 229.29 74.7287C229.074 74.8679 228.968 75.0483 228.971 75.2699C228.968 75.4602 229.037 75.6151 229.179 75.7344C229.324 75.8537 229.563 75.9517 229.895 76.0284L231.012 76.267C231.631 76.4006 232.091 76.6122 232.392 76.902C232.696 77.1918 232.85 77.571 232.853 78.0398C232.85 78.4517 232.729 78.8153 232.49 79.1307C232.255 79.4432 231.926 79.6875 231.506 79.8636C231.086 80.0398 230.603 80.1278 230.057 80.1278C229.256 80.1278 228.611 79.9602 228.123 79.625C227.634 79.2869 227.343 78.8168 227.249 78.2145L228.753 78.0696C228.821 78.3651 228.966 78.5881 229.188 78.7386C229.409 78.8892 229.698 78.9645 230.053 78.9645C230.419 78.9645 230.713 78.8892 230.935 78.7386C231.159 78.5881 231.272 78.402 231.272 78.1804C231.272 77.9929 231.199 77.8381 231.054 77.7159C230.912 77.5937 230.691 77.5 230.39 77.4347L229.273 77.2003C228.645 77.0696 228.181 76.8494 227.88 76.5398C227.578 76.2273 227.429 75.8324 227.432 75.3551C227.429 74.9517 227.539 74.6023 227.76 74.3068C227.985 74.0085 228.296 73.7784 228.694 73.6165C229.094 73.4517 229.556 73.3693 230.078 73.3693C230.846 73.3693 231.449 73.5327 231.89 73.8594C232.333 74.1861 232.607 74.6278 232.712 75.1847ZM237.022 80.1278C236.366 80.1278 235.799 79.9915 235.322 79.7188C234.848 79.4432 234.483 79.054 234.227 78.5511C233.971 78.0455 233.843 77.4503 233.843 76.7656C233.843 76.0923 233.971 75.5014 234.227 74.9929C234.485 74.4815 234.846 74.0838 235.309 73.7997C235.772 73.5128 236.316 73.3693 236.941 73.3693C237.345 73.3693 237.725 73.4347 238.083 73.5653C238.444 73.6932 238.762 73.892 239.038 74.1619C239.316 74.4318 239.535 74.7756 239.694 75.1932C239.853 75.608 239.933 76.1023 239.933 76.6761V77.1491H234.568V76.1094H238.454C238.451 75.8139 238.387 75.5511 238.262 75.321C238.137 75.0881 237.963 74.9048 237.738 74.7713C237.517 74.6378 237.258 74.571 236.963 74.571C236.647 74.571 236.37 74.6477 236.132 74.8011C235.893 74.9517 235.707 75.1506 235.574 75.3977C235.443 75.642 235.376 75.9105 235.373 76.2031V77.1108C235.373 77.4915 235.443 77.8182 235.582 78.0909C235.721 78.3608 235.916 78.5682 236.166 78.7131C236.416 78.8551 236.708 78.9261 237.044 78.9261C237.268 78.9261 237.471 78.8949 237.653 78.8324C237.835 78.767 237.993 78.6719 238.126 78.5469C238.26 78.4219 238.36 78.267 238.429 78.0824L239.869 78.2443C239.778 78.625 239.605 78.9574 239.349 79.2415C239.096 79.5227 238.772 79.7415 238.377 79.8977C237.983 80.0511 237.531 80.1278 237.022 80.1278ZM246.098 80.1321C245.683 80.1321 245.31 80.0582 244.977 79.9105C244.648 79.7599 244.386 79.5384 244.193 79.2457C244.003 78.9531 243.908 78.5923 243.908 78.1634C243.908 77.794 243.976 77.4886 244.112 77.2472C244.249 77.0057 244.435 76.8125 244.67 76.6676C244.906 76.5227 245.172 76.4134 245.467 76.3395C245.766 76.2628 246.074 76.2074 246.392 76.1733C246.776 76.1335 247.087 76.098 247.325 76.0668C247.564 76.0327 247.737 75.9815 247.845 75.9134C247.956 75.8423 248.011 75.733 248.011 75.5852V75.5597C248.011 75.2386 247.916 74.9901 247.726 74.8139C247.536 74.6378 247.261 74.5497 246.903 74.5497C246.526 74.5497 246.226 74.6321 246.004 74.7969C245.786 74.9616 245.638 75.1562 245.561 75.3807L244.121 75.1761C244.234 74.7784 244.422 74.446 244.683 74.179C244.945 73.9091 245.264 73.7074 245.642 73.5739C246.02 73.4375 246.438 73.3693 246.895 73.3693C247.21 73.3693 247.524 73.4062 247.837 73.4801C248.149 73.554 248.435 73.6761 248.693 73.8466C248.952 74.0142 249.159 74.2429 249.315 74.5327C249.474 74.8224 249.554 75.1847 249.554 75.6193V80H248.071V79.1009H248.02C247.926 79.2827 247.794 79.4531 247.624 79.6122C247.456 79.7685 247.244 79.8949 246.989 79.9915C246.736 80.0852 246.439 80.1321 246.098 80.1321ZM246.499 78.9986C246.808 78.9986 247.077 78.9375 247.304 78.8153C247.531 78.6903 247.706 78.5256 247.828 78.321C247.953 78.1165 248.016 77.8935 248.016 77.652V76.8807C247.967 76.9205 247.885 76.9574 247.768 76.9915C247.655 77.0256 247.527 77.0554 247.385 77.081C247.243 77.1065 247.102 77.1293 246.963 77.1491C246.824 77.169 246.703 77.1861 246.601 77.2003C246.371 77.2315 246.165 77.2827 245.983 77.3537C245.801 77.4247 245.658 77.5241 245.553 77.652C245.447 77.777 245.395 77.9389 245.395 78.1378C245.395 78.4219 245.499 78.6364 245.706 78.7812C245.913 78.9261 246.178 78.9986 246.499 78.9986ZM252.648 76.1648V80H251.105V73.4545H252.58V74.5668H252.656C252.807 74.2003 253.047 73.9091 253.376 73.6932C253.709 73.4773 254.119 73.3693 254.608 73.3693C255.06 73.3693 255.453 73.4659 255.788 73.6591C256.126 73.8523 256.388 74.1321 256.572 74.4986C256.76 74.8651 256.852 75.3097 256.849 75.8324V80H255.307V76.071C255.307 75.6335 255.193 75.2912 254.966 75.044C254.741 74.7969 254.43 74.6733 254.033 74.6733C253.763 74.6733 253.523 74.733 253.312 74.8523C253.105 74.9687 252.942 75.1378 252.822 75.3594C252.706 75.581 252.648 75.8494 252.648 76.1648ZM260.847 80.1151C260.332 80.1151 259.872 79.983 259.466 79.7188C259.06 79.4545 258.739 79.071 258.503 78.5682C258.267 78.0653 258.149 77.4545 258.149 76.7358C258.149 76.0085 258.268 75.3949 258.507 74.8949C258.749 74.392 259.074 74.0128 259.483 73.7571C259.892 73.4986 260.348 73.3693 260.851 73.3693C261.234 73.3693 261.55 73.4347 261.797 73.5653C262.044 73.6932 262.24 73.848 262.385 74.0298C262.53 74.2088 262.642 74.3778 262.722 74.5369H262.786V71.2727H264.332V80H262.815V78.9688H262.722C262.642 79.1278 262.527 79.2969 262.376 79.4759C262.226 79.652 262.027 79.8026 261.78 79.9276C261.533 80.0526 261.222 80.1151 260.847 80.1151ZM261.277 78.8494C261.604 78.8494 261.882 78.7614 262.112 78.5852C262.342 78.4062 262.517 78.1577 262.636 77.8395C262.756 77.5213 262.815 77.1506 262.815 76.7273C262.815 76.304 262.756 75.9361 262.636 75.6236C262.52 75.3111 262.347 75.0682 262.116 74.8949C261.889 74.7216 261.609 74.6349 261.277 74.6349C260.933 74.6349 260.646 74.7244 260.416 74.9034C260.186 75.0824 260.013 75.3295 259.896 75.6449C259.78 75.9602 259.722 76.321 259.722 76.7273C259.722 77.1364 259.78 77.5014 259.896 77.8224C260.016 78.1406 260.19 78.392 260.42 78.5767C260.653 78.7585 260.939 78.8494 261.277 78.8494ZM269.021 80V71.2727H270.564V74.5369H270.627C270.707 74.3778 270.819 74.2088 270.964 74.0298C271.109 73.848 271.305 73.6932 271.552 73.5653C271.799 73.4347 272.115 73.3693 272.498 73.3693C273.004 73.3693 273.46 73.4986 273.866 73.7571C274.275 74.0128 274.599 74.392 274.838 74.8949C275.079 75.3949 275.2 76.0085 275.2 76.7358C275.2 77.4545 275.082 78.0653 274.846 78.5682C274.61 79.071 274.289 79.4545 273.883 79.7188C273.477 79.983 273.017 80.1151 272.502 80.1151C272.127 80.1151 271.816 80.0526 271.569 79.9276C271.322 79.8026 271.123 79.652 270.973 79.4759C270.825 79.2969 270.71 79.1278 270.627 78.9688H270.538V80H269.021ZM270.534 76.7273C270.534 77.1506 270.593 77.5213 270.713 77.8395C270.835 78.1577 271.01 78.4062 271.237 78.5852C271.467 78.7614 271.745 78.8494 272.072 78.8494C272.413 78.8494 272.699 78.7585 272.929 78.5767C273.159 78.392 273.332 78.1406 273.449 77.8224C273.568 77.5014 273.627 77.1364 273.627 76.7273C273.627 76.321 273.569 75.9602 273.453 75.6449C273.336 75.3295 273.163 75.0824 272.933 74.9034C272.703 74.7244 272.416 74.6349 272.072 74.6349C271.743 74.6349 271.463 74.7216 271.233 74.8949C271.002 75.0682 270.828 75.3111 270.708 75.6236C270.592 75.9361 270.534 76.304 270.534 76.7273ZM279.409 80.1278C278.753 80.1278 278.186 79.9915 277.709 79.7188C277.234 79.4432 276.869 79.054 276.614 78.5511C276.358 78.0455 276.23 77.4503 276.23 76.7656C276.23 76.0923 276.358 75.5014 276.614 74.9929C276.872 74.4815 277.233 74.0838 277.696 73.7997C278.159 73.5128 278.703 73.3693 279.328 73.3693C279.732 73.3693 280.112 73.4347 280.47 73.5653C280.831 73.6932 281.149 73.892 281.425 74.1619C281.703 74.4318 281.922 74.7756 282.081 75.1932C282.24 75.608 282.32 76.1023 282.32 76.6761V77.1491H276.955V76.1094H280.841C280.838 75.8139 280.774 75.5511 280.649 75.321C280.524 75.0881 280.349 74.9048 280.125 74.7713C279.903 74.6378 279.645 74.571 279.349 74.571C279.034 74.571 278.757 74.6477 278.518 74.8011C278.28 74.9517 278.094 75.1506 277.96 75.3977C277.83 75.642 277.763 75.9105 277.76 76.2031V77.1108C277.76 77.4915 277.83 77.8182 277.969 78.0909C278.108 78.3608 278.303 78.5682 278.553 78.7131C278.803 78.8551 279.095 78.9261 279.43 78.9261C279.655 78.9261 279.858 78.8949 280.04 78.8324C280.222 78.767 280.379 78.6719 280.513 78.5469C280.646 78.4219 280.747 78.267 280.815 78.0824L282.256 78.2443C282.165 78.625 281.991 78.9574 281.736 79.2415C281.483 79.5227 281.159 79.7415 280.764 79.8977C280.369 80.0511 279.918 80.1278 279.409 80.1278ZM30.7926 97.4545V88.4545H32.3097V89.5369H32.3991C32.4787 89.3778 32.5909 89.2088 32.7358 89.0298C32.8807 88.848 33.0767 88.6932 33.3239 88.5653C33.571 88.4347 33.8864 88.3693 34.2699 88.3693C34.7756 88.3693 35.2315 88.4986 35.6378 88.7571C36.0469 89.0128 36.3707 89.392 36.6094 89.8949C36.8509 90.3949 36.9716 91.0085 36.9716 91.7358C36.9716 92.4545 36.8537 93.0653 36.6179 93.5682C36.3821 94.071 36.0611 94.4545 35.6548 94.7188C35.2486 94.983 34.7884 95.1151 34.2741 95.1151C33.8991 95.1151 33.5881 95.0526 33.3409 94.9276C33.0938 94.8026 32.8949 94.652 32.7443 94.4759C32.5966 94.2969 32.4815 94.1278 32.3991 93.9688H32.3352V97.4545H30.7926ZM32.3054 91.7273C32.3054 92.1506 32.3651 92.5213 32.4844 92.8395C32.6065 93.1577 32.7813 93.4062 33.0085 93.5852C33.2386 93.7614 33.517 93.8494 33.8438 93.8494C34.1847 93.8494 34.4702 93.7585 34.7003 93.5767C34.9304 93.392 35.1037 93.1406 35.2202 92.8224C35.3395 92.5014 35.3991 92.1364 35.3991 91.7273C35.3991 91.321 35.3409 90.9602 35.2244 90.6449C35.108 90.3295 34.9347 90.0824 34.7045 89.9034C34.4744 89.7244 34.1875 89.6349 33.8438 89.6349C33.5142 89.6349 33.2344 89.7216 33.0043 89.8949C32.7741 90.0682 32.5994 90.3111 32.4801 90.6236C32.3636 90.9361 32.3054 91.304 32.3054 91.7273ZM38.2926 95V88.4545H39.7884V89.5455H39.8565C39.9759 89.1676 40.1804 88.8764 40.4702 88.6719C40.7628 88.4645 41.0966 88.3608 41.4716 88.3608C41.5568 88.3608 41.652 88.3651 41.7571 88.3736C41.8651 88.3793 41.9545 88.3892 42.0256 88.4034V89.8224C41.9602 89.7997 41.8565 89.7798 41.7145 89.7628C41.5753 89.7429 41.4403 89.733 41.3097 89.733C41.0284 89.733 40.7756 89.794 40.5511 89.9162C40.3295 90.0355 40.1548 90.2017 40.027 90.4148C39.8991 90.6278 39.8352 90.8736 39.8352 91.152V95H38.2926ZM45.6786 95.1278C45.0224 95.1278 44.4556 94.9915 43.9783 94.7188C43.5039 94.4432 43.1388 94.054 42.8832 93.5511C42.6275 93.0455 42.4996 92.4503 42.4996 91.7656C42.4996 91.0923 42.6275 90.5014 42.8832 89.9929C43.1417 89.4815 43.5025 89.0838 43.9656 88.7997C44.4286 88.5128 44.9727 88.3693 45.5977 88.3693C46.0011 88.3693 46.3817 88.4347 46.7397 88.5653C47.1005 88.6932 47.4187 88.892 47.6942 89.1619C47.9727 89.4318 48.1914 89.7756 48.3505 90.1932C48.5096 90.608 48.5891 91.1023 48.5891 91.6761V92.1491H43.2241V91.1094H47.1104C47.1076 90.8139 47.0437 90.5511 46.9187 90.321C46.7937 90.0881 46.619 89.9048 46.3945 89.7713C46.1729 89.6378 45.9144 89.571 45.619 89.571C45.3036 89.571 45.0266 89.6477 44.788 89.8011C44.5494 89.9517 44.3633 90.1506 44.2298 90.3977C44.0991 90.642 44.0323 90.9105 44.0295 91.2031V92.1108C44.0295 92.4915 44.0991 92.8182 44.2383 93.0909C44.3775 93.3608 44.5721 93.5682 44.8221 93.7131C45.0721 93.8551 45.3647 93.9261 45.6999 93.9261C45.9244 93.9261 46.1275 93.8949 46.3093 93.8324C46.4911 93.767 46.6488 93.6719 46.7823 93.5469C46.9158 93.4219 47.0167 93.267 47.0849 93.0824L48.5252 93.2443C48.4343 93.625 48.261 93.9574 48.0053 94.2415C47.7525 94.5227 47.4286 94.7415 47.0337 94.8977C46.6388 95.0511 46.1871 95.1278 45.6786 95.1278ZM55.0675 90.1847L53.6612 90.3381C53.6214 90.196 53.5518 90.0625 53.4524 89.9375C53.3558 89.8125 53.2251 89.7116 53.0604 89.6349C52.8956 89.5582 52.6939 89.5199 52.4553 89.5199C52.1342 89.5199 51.8643 89.5895 51.6456 89.7287C51.4297 89.8679 51.3232 90.0483 51.326 90.2699C51.3232 90.4602 51.3928 90.6151 51.5348 90.7344C51.6797 90.8537 51.9183 90.9517 52.2507 91.0284L53.3672 91.267C53.9865 91.4006 54.4467 91.6122 54.7479 91.902C55.0518 92.1918 55.2053 92.571 55.2081 93.0398C55.2053 93.4517 55.0845 93.8153 54.8459 94.1307C54.6101 94.4432 54.282 94.6875 53.8615 94.8636C53.4411 95.0398 52.9581 95.1278 52.4126 95.1278C51.6115 95.1278 50.9666 94.9602 50.478 94.625C49.9893 94.2869 49.6982 93.8168 49.6044 93.2145L51.1087 93.0696C51.1768 93.3651 51.3217 93.5881 51.5433 93.7386C51.7649 93.8892 52.0533 93.9645 52.4084 93.9645C52.7749 93.9645 53.0689 93.8892 53.2905 93.7386C53.5149 93.5881 53.6271 93.402 53.6271 93.1804C53.6271 92.9929 53.5547 92.8381 53.4098 92.7159C53.2678 92.5937 53.0462 92.5 52.745 92.4347L51.6286 92.2003C51.0007 92.0696 50.5362 91.8494 50.2351 91.5398C49.9339 91.2273 49.7848 90.8324 49.7876 90.3551C49.7848 89.9517 49.8942 89.6023 50.1158 89.3068C50.3402 89.0085 50.6513 88.7784 51.049 88.6165C51.4496 88.4517 51.9112 88.3693 52.4339 88.3693C53.201 88.3693 53.8047 88.5327 54.245 88.8594C54.6882 89.1861 54.9624 89.6278 55.0675 90.1847ZM59.3778 95.1278C58.7216 95.1278 58.1548 94.9915 57.6776 94.7188C57.2031 94.4432 56.8381 94.054 56.5824 93.5511C56.3267 93.0455 56.1989 92.4503 56.1989 91.7656C56.1989 91.0923 56.3267 90.5014 56.5824 89.9929C56.8409 89.4815 57.2017 89.0838 57.6648 88.7997C58.1278 88.5128 58.6719 88.3693 59.2969 88.3693C59.7003 88.3693 60.081 88.4347 60.4389 88.5653C60.7997 88.6932 61.1179 88.892 61.3935 89.1619C61.6719 89.4318 61.8906 89.7756 62.0497 90.1932C62.2088 90.608 62.2884 91.1023 62.2884 91.6761V92.1491H56.9233V91.1094H60.8097C60.8068 90.8139 60.7429 90.5511 60.6179 90.321C60.4929 90.0881 60.3182 89.9048 60.0938 89.7713C59.8722 89.6378 59.6136 89.571 59.3182 89.571C59.0028 89.571 58.7259 89.6477 58.4872 89.8011C58.2486 89.9517 58.0625 90.1506 57.929 90.3977C57.7983 90.642 57.7315 90.9105 57.7287 91.2031V92.1108C57.7287 92.4915 57.7983 92.8182 57.9375 93.0909C58.0767 93.3608 58.2713 93.5682 58.5213 93.7131C58.7713 93.8551 59.0639 93.9261 59.3991 93.9261C59.6236 93.9261 59.8267 93.8949 60.0085 93.8324C60.1903 93.767 60.348 93.6719 60.4815 93.5469C60.6151 93.4219 60.7159 93.267 60.7841 93.0824L62.2244 93.2443C62.1335 93.625 61.9602 93.9574 61.7045 94.2415C61.4517 94.5227 61.1278 94.7415 60.733 94.8977C60.3381 95.0511 59.8864 95.1278 59.3778 95.1278ZM65.136 91.1648V95H63.5934V88.4545H65.0678V89.5668H65.1445C65.2951 89.2003 65.5352 88.9091 65.8647 88.6932C66.1971 88.4773 66.6076 88.3693 67.0962 88.3693C67.5479 88.3693 67.9414 88.4659 68.2766 88.6591C68.6147 88.8523 68.8761 89.1321 69.0607 89.4986C69.2482 89.8651 69.3406 90.3097 69.3377 90.8324V95H67.7951V91.071C67.7951 90.6335 67.6815 90.2912 67.4542 90.044C67.2298 89.7969 66.9187 89.6733 66.521 89.6733C66.2511 89.6733 66.011 89.733 65.8008 89.8523C65.5934 89.9687 65.43 90.1378 65.3107 90.3594C65.1942 90.581 65.136 90.8494 65.136 91.1648ZM74.1744 88.4545V89.6477H70.4116V88.4545H74.1744ZM71.3406 86.8864H72.8832V93.0312C72.8832 93.2386 72.9144 93.3977 72.9769 93.5085C73.0423 93.6165 73.1275 93.6903 73.2326 93.7301C73.3377 93.7699 73.4542 93.7898 73.582 93.7898C73.6786 93.7898 73.7667 93.7827 73.8462 93.7685C73.9286 93.7543 73.9911 93.7415 74.0337 93.7301L74.2937 94.9361C74.2113 94.9645 74.0934 94.9957 73.94 95.0298C73.7894 95.0639 73.6048 95.0838 73.386 95.0895C72.9996 95.1009 72.6516 95.0426 72.342 94.9148C72.0323 94.7841 71.7866 94.5824 71.6048 94.3097C71.4258 94.0369 71.3377 93.696 71.3406 93.2869V86.8864ZM78.4411 95V88.4545H79.9837V95H78.4411ZM79.2166 87.5256C78.9723 87.5256 78.7621 87.4446 78.5859 87.2827C78.4098 87.1179 78.3217 86.9205 78.3217 86.6903C78.3217 86.4574 78.4098 86.2599 78.5859 86.098C78.7621 85.9332 78.9723 85.8509 79.2166 85.8509C79.4638 85.8509 79.674 85.9332 79.8473 86.098C80.0234 86.2599 80.1115 86.4574 80.1115 86.6903C80.1115 86.9205 80.0234 87.1179 79.8473 87.2827C79.674 87.4446 79.4638 87.5256 79.2166 87.5256ZM83.1126 91.1648V95H81.57V88.4545H83.0444V89.5668H83.1211C83.2717 89.2003 83.5117 88.9091 83.8413 88.6932C84.1737 88.4773 84.5842 88.3693 85.0728 88.3693C85.5245 88.3693 85.918 88.4659 86.2532 88.6591C86.5913 88.8523 86.8526 89.1321 87.0373 89.4986C87.2248 89.8651 87.3171 90.3097 87.3143 90.8324V95H85.7717V91.071C85.7717 90.6335 85.658 90.2912 85.4308 90.044C85.2063 89.7969 84.8952 89.6733 84.4975 89.6733C84.2276 89.6733 83.9876 89.733 83.7773 89.8523C83.57 89.9687 83.4066 90.1378 83.2873 90.3594C83.1708 90.581 83.1126 90.8494 83.1126 91.1648ZM95.1275 88.4545V89.6477H91.3647V88.4545H95.1275ZM92.2937 86.8864H93.8363V93.0312C93.8363 93.2386 93.8675 93.3977 93.93 93.5085C93.9954 93.6165 94.0806 93.6903 94.1857 93.7301C94.2908 93.7699 94.4073 93.7898 94.5352 93.7898C94.6317 93.7898 94.7198 93.7827 94.7994 93.7685C94.8817 93.7543 94.9442 93.7415 94.9869 93.7301L95.2468 94.9361C95.1644 94.9645 95.0465 94.9957 94.8931 95.0298C94.7425 95.0639 94.5579 95.0838 94.3391 95.0895C93.9528 95.1009 93.6048 95.0426 93.2951 94.9148C92.9854 94.7841 92.7397 94.5824 92.5579 94.3097C92.3789 94.0369 92.2908 93.696 92.2937 93.2869V86.8864ZM98.1009 91.1648V95H96.5582V86.2727H98.0668V89.5668H98.1435C98.2969 89.1974 98.5341 88.9062 98.8551 88.6932C99.179 88.4773 99.5909 88.3693 100.091 88.3693C100.545 88.3693 100.942 88.4645 101.28 88.6548C101.618 88.8452 101.879 89.1236 102.064 89.4901C102.251 89.8565 102.345 90.304 102.345 90.8324V95H100.803V91.071C100.803 90.6307 100.689 90.2884 100.462 90.044C100.237 89.7969 99.9219 89.6733 99.5156 89.6733C99.2429 89.6733 98.9986 89.733 98.7827 89.8523C98.5696 89.9687 98.402 90.1378 98.2798 90.3594C98.1605 90.581 98.1009 90.8494 98.1009 91.1648ZM106.815 95.1278C106.159 95.1278 105.592 94.9915 105.115 94.7188C104.641 94.4432 104.276 94.054 104.02 93.5511C103.764 93.0455 103.636 92.4503 103.636 91.7656C103.636 91.0923 103.764 90.5014 104.02 89.9929C104.278 89.4815 104.639 89.0838 105.102 88.7997C105.565 88.5128 106.109 88.3693 106.734 88.3693C107.138 88.3693 107.518 88.4347 107.876 88.5653C108.237 88.6932 108.555 88.892 108.831 89.1619C109.109 89.4318 109.328 89.7756 109.487 90.1932C109.646 90.608 109.726 91.1023 109.726 91.6761V92.1491H104.361V91.1094H108.247C108.244 90.8139 108.18 90.5511 108.055 90.321C107.93 90.0881 107.756 89.9048 107.531 89.7713C107.31 89.6378 107.051 89.571 106.756 89.571C106.44 89.571 106.163 89.6477 105.925 89.8011C105.686 89.9517 105.5 90.1506 105.366 90.3977C105.236 90.642 105.169 90.9105 105.166 91.2031V92.1108C105.166 92.4915 105.236 92.8182 105.375 93.0909C105.514 93.3608 105.709 93.5682 105.959 93.7131C106.209 93.8551 106.501 93.9261 106.837 93.9261C107.061 93.9261 107.264 93.8949 107.446 93.8324C107.628 93.767 107.786 93.6719 107.919 93.5469C108.053 93.4219 108.153 93.267 108.222 93.0824L109.662 93.2443C109.571 93.625 109.398 93.9574 109.142 94.2415C108.889 94.5227 108.565 94.7415 108.17 94.8977C107.776 95.0511 107.324 95.1278 106.815 95.1278ZM114.007 95V88.4545H115.482V89.5668H115.559C115.695 89.1918 115.921 88.8991 116.236 88.6889C116.551 88.4759 116.928 88.3693 117.365 88.3693C117.809 88.3693 118.182 88.4773 118.486 88.6932C118.793 88.9062 119.009 89.1974 119.134 89.5668H119.202C119.347 89.2031 119.591 88.9134 119.935 88.6974C120.282 88.4787 120.692 88.3693 121.167 88.3693C121.769 88.3693 122.26 88.5597 122.641 88.9403C123.022 89.321 123.212 89.8764 123.212 90.6065V95H121.665V90.8452C121.665 90.4389 121.557 90.142 121.341 89.9545C121.125 89.7642 120.861 89.669 120.549 89.669C120.176 89.669 119.885 89.7855 119.675 90.0185C119.468 90.2486 119.364 90.5483 119.364 90.9176V95H117.851V90.7812C117.851 90.4432 117.749 90.1733 117.544 89.9716C117.343 89.7699 117.078 89.669 116.752 89.669C116.53 89.669 116.328 89.7259 116.147 89.8395C115.965 89.9503 115.82 90.108 115.712 90.3125C115.604 90.5142 115.55 90.75 115.55 91.0199V95H114.007ZM127.632 95.1278C126.993 95.1278 126.439 94.9872 125.97 94.706C125.501 94.4247 125.138 94.0312 124.879 93.5256C124.624 93.0199 124.496 92.429 124.496 91.7528C124.496 91.0767 124.624 90.4844 124.879 89.9759C125.138 89.4673 125.501 89.0724 125.97 88.7912C126.439 88.5099 126.993 88.3693 127.632 88.3693C128.271 88.3693 128.825 88.5099 129.294 88.7912C129.763 89.0724 130.125 89.4673 130.381 89.9759C130.639 90.4844 130.768 91.0767 130.768 91.7528C130.768 92.429 130.639 93.0199 130.381 93.5256C130.125 94.0312 129.763 94.4247 129.294 94.706C128.825 94.9872 128.271 95.1278 127.632 95.1278ZM127.641 93.892C127.987 93.892 128.277 93.7969 128.51 93.6065C128.743 93.4134 128.916 93.1548 129.03 92.831C129.146 92.5071 129.205 92.1463 129.205 91.7486C129.205 91.348 129.146 90.9858 129.03 90.6619C128.916 90.3352 128.743 90.0753 128.51 89.8821C128.277 89.6889 127.987 89.5923 127.641 89.5923C127.286 89.5923 126.99 89.6889 126.754 89.8821C126.521 90.0753 126.347 90.3352 126.23 90.6619C126.116 90.9858 126.06 91.348 126.06 91.7486C126.06 92.1463 126.116 92.5071 126.23 92.831C126.347 93.1548 126.521 93.4134 126.754 93.6065C126.99 93.7969 127.286 93.892 127.641 93.892ZM132.078 95V88.4545H133.552V89.5668H133.629C133.765 89.1918 133.991 88.8991 134.306 88.6889C134.622 88.4759 134.998 88.3693 135.436 88.3693C135.879 88.3693 136.252 88.4773 136.556 88.6932C136.863 88.9062 137.079 89.1974 137.204 89.5668H137.272C137.417 89.2031 137.662 88.9134 138.005 88.6974C138.352 88.4787 138.762 88.3693 139.237 88.3693C139.839 88.3693 140.331 88.5597 140.711 88.9403C141.092 89.321 141.282 89.8764 141.282 90.6065V95H139.735V90.8452C139.735 90.4389 139.627 90.142 139.412 89.9545C139.196 89.7642 138.931 89.669 138.619 89.669C138.247 89.669 137.956 89.7855 137.745 90.0185C137.538 90.2486 137.434 90.5483 137.434 90.9176V95H135.922V90.7812C135.922 90.4432 135.819 90.1733 135.615 89.9716C135.413 89.7699 135.149 89.669 134.822 89.669C134.6 89.669 134.399 89.7259 134.217 89.8395C134.035 89.9503 133.89 90.108 133.782 90.3125C133.674 90.5142 133.62 90.75 133.62 91.0199V95H132.078ZM145.745 95.1278C145.089 95.1278 144.522 94.9915 144.045 94.7188C143.57 94.4432 143.205 94.054 142.95 93.5511C142.694 93.0455 142.566 92.4503 142.566 91.7656C142.566 91.0923 142.694 90.5014 142.95 89.9929C143.208 89.4815 143.569 89.0838 144.032 88.7997C144.495 88.5128 145.039 88.3693 145.664 88.3693C146.067 88.3693 146.448 88.4347 146.806 88.5653C147.167 88.6932 147.485 88.892 147.761 89.1619C148.039 89.4318 148.258 89.7756 148.417 90.1932C148.576 90.608 148.656 91.1023 148.656 91.6761V92.1491H143.29V91.1094H147.177C147.174 90.8139 147.11 90.5511 146.985 90.321C146.86 90.0881 146.685 89.9048 146.461 89.7713C146.239 89.6378 145.981 89.571 145.685 89.571C145.37 89.571 145.093 89.6477 144.854 89.8011C144.616 89.9517 144.43 90.1506 144.296 90.3977C144.165 90.642 144.099 90.9105 144.096 91.2031V92.1108C144.096 92.4915 144.165 92.8182 144.305 93.0909C144.444 93.3608 144.638 93.5682 144.888 93.7131C145.138 93.8551 145.431 93.9261 145.766 93.9261C145.991 93.9261 146.194 93.8949 146.376 93.8324C146.558 93.767 146.715 93.6719 146.849 93.5469C146.982 93.4219 147.083 93.267 147.151 93.0824L148.592 93.2443C148.501 93.625 148.327 93.9574 148.072 94.2415C147.819 94.5227 147.495 94.7415 147.1 94.8977C146.705 95.0511 146.254 95.1278 145.745 95.1278ZM151.503 91.1648V95H149.961V88.4545H151.435V89.5668H151.512C151.662 89.2003 151.902 88.9091 152.232 88.6932C152.564 88.4773 152.975 88.3693 153.463 88.3693C153.915 88.3693 154.309 88.4659 154.644 88.6591C154.982 88.8523 155.243 89.1321 155.428 89.4986C155.615 89.8651 155.708 90.3097 155.705 90.8324V95H154.162V91.071C154.162 90.6335 154.049 90.2912 153.821 90.044C153.597 89.7969 153.286 89.6733 152.888 89.6733C152.618 89.6733 152.378 89.733 152.168 89.8523C151.961 89.9687 151.797 90.1378 151.678 90.3594C151.561 90.581 151.503 90.8494 151.503 91.1648ZM160.542 88.4545V89.6477H156.779V88.4545H160.542ZM157.708 86.8864H159.25V93.0312C159.25 93.2386 159.282 93.3977 159.344 93.5085C159.409 93.6165 159.495 93.6903 159.6 93.7301C159.705 93.7699 159.821 93.7898 159.949 93.7898C160.046 93.7898 160.134 93.7827 160.213 93.7685C160.296 93.7543 160.358 93.7415 160.401 93.7301L160.661 94.9361C160.578 94.9645 160.461 94.9957 160.307 95.0298C160.157 95.0639 159.972 95.0838 159.753 95.0895C159.367 95.1009 159.019 95.0426 158.709 94.9148C158.4 94.7841 158.154 94.5824 157.972 94.3097C157.793 94.0369 157.705 93.696 157.708 93.2869V86.8864ZM166.159 95L164.31 88.4545H165.882L167.033 93.0568H167.092L168.268 88.4545H169.824L171 93.0312H171.064L172.197 88.4545H173.774L171.92 95H170.314L169.087 90.5767H168.997L167.77 95H166.159ZM174.851 95V88.4545H176.394V95H174.851ZM175.627 87.5256C175.382 87.5256 175.172 87.4446 174.996 87.2827C174.82 87.1179 174.732 86.9205 174.732 86.6903C174.732 86.4574 174.82 86.2599 174.996 86.098C175.172 85.9332 175.382 85.8509 175.627 85.8509C175.874 85.8509 176.084 85.9332 176.257 86.098C176.434 86.2599 176.522 86.4574 176.522 86.6903C176.522 86.9205 176.434 87.1179 176.257 87.2827C176.084 87.4446 175.874 87.5256 175.627 87.5256ZM179.523 86.2727V95H177.98V86.2727H179.523ZM182.652 86.2727V95H181.109V86.2727H182.652ZM187.283 95V86.2727H188.825V89.5369H188.889C188.969 89.3778 189.081 89.2088 189.226 89.0298C189.371 88.848 189.567 88.6932 189.814 88.5653C190.061 88.4347 190.376 88.3693 190.76 88.3693C191.266 88.3693 191.722 88.4986 192.128 88.7571C192.537 89.0128 192.861 89.392 193.099 89.8949C193.341 90.3949 193.462 91.0085 193.462 91.7358C193.462 92.4545 193.344 93.0653 193.108 93.5682C192.872 94.071 192.551 94.4545 192.145 94.7188C191.739 94.983 191.278 95.1151 190.764 95.1151C190.389 95.1151 190.078 95.0526 189.831 94.9276C189.584 94.8026 189.385 94.652 189.234 94.4759C189.087 94.2969 188.972 94.1278 188.889 93.9688H188.8V95H187.283ZM188.795 91.7273C188.795 92.1506 188.855 92.5213 188.974 92.8395C189.097 93.1577 189.271 93.4062 189.499 93.5852C189.729 93.7614 190.007 93.8494 190.334 93.8494C190.675 93.8494 190.96 93.7585 191.19 93.5767C191.42 93.392 191.594 93.1406 191.71 92.8224C191.83 92.5014 191.889 92.1364 191.889 91.7273C191.889 91.321 191.831 90.9602 191.714 90.6449C191.598 90.3295 191.425 90.0824 191.195 89.9034C190.964 89.7244 190.678 89.6349 190.334 89.6349C190.004 89.6349 189.724 89.7216 189.494 89.8949C189.264 90.0682 189.089 90.3111 188.97 90.6236C188.854 90.9361 188.795 91.304 188.795 91.7273ZM194.773 95V88.4545H196.269V89.5455H196.337C196.456 89.1676 196.661 88.8764 196.951 88.6719C197.243 88.4645 197.577 88.3608 197.952 88.3608C198.037 88.3608 198.132 88.3651 198.238 88.3736C198.346 88.3793 198.435 88.3892 198.506 88.4034V89.8224C198.441 89.7997 198.337 89.7798 198.195 89.7628C198.056 89.7429 197.921 89.733 197.79 89.733C197.509 89.733 197.256 89.794 197.032 89.9162C196.81 90.0355 196.635 90.2017 196.507 90.4148C196.38 90.6278 196.316 90.8736 196.316 91.152V95H194.773ZM199.531 95V88.4545H201.074V95H199.531ZM200.306 87.5256C200.062 87.5256 199.852 87.4446 199.676 87.2827C199.5 87.1179 199.412 86.9205 199.412 86.6903C199.412 86.4574 199.5 86.2599 199.676 86.098C199.852 85.9332 200.062 85.8509 200.306 85.8509C200.554 85.8509 200.764 85.9332 200.937 86.098C201.113 86.2599 201.201 86.4574 201.201 86.6903C201.201 86.9205 201.113 87.1179 200.937 87.2827C200.764 87.4446 200.554 87.5256 200.306 87.5256ZM204.202 91.1648V95H202.66V88.4545H204.134V89.5668H204.211C204.362 89.2003 204.602 88.9091 204.931 88.6932C205.263 88.4773 205.674 88.3693 206.163 88.3693C206.614 88.3693 207.008 88.4659 207.343 88.6591C207.681 88.8523 207.942 89.1321 208.127 89.4986C208.315 89.8651 208.407 90.3097 208.404 90.8324V95H206.862V91.071C206.862 90.6335 206.748 90.2912 206.521 90.044C206.296 89.7969 205.985 89.6733 205.587 89.6733C205.317 89.6733 205.077 89.733 204.867 89.8523C204.66 89.9687 204.496 90.1378 204.377 90.3594C204.261 90.581 204.202 90.8494 204.202 91.1648ZM212.819 97.5909C212.265 97.5909 211.789 97.5156 211.391 97.3651C210.994 97.2173 210.674 97.0185 210.433 96.7685C210.191 96.5185 210.023 96.2415 209.93 95.9375L211.319 95.6009C211.381 95.7287 211.472 95.8551 211.592 95.9801C211.711 96.108 211.871 96.2131 212.073 96.2955C212.278 96.3807 212.535 96.4233 212.844 96.4233C213.282 96.4233 213.644 96.3168 213.931 96.1037C214.218 95.8935 214.362 95.5469 214.362 95.0639V93.8239H214.285C214.205 93.983 214.089 94.1463 213.935 94.3139C213.785 94.4815 213.585 94.6222 213.335 94.7358C213.087 94.8494 212.776 94.9062 212.401 94.9062C211.898 94.9062 211.442 94.7884 211.033 94.5526C210.627 94.3139 210.303 93.9588 210.062 93.4872C209.823 93.0128 209.704 92.419 209.704 91.706C209.704 90.9872 209.823 90.3807 210.062 89.8864C210.303 89.3892 210.629 89.0128 211.038 88.7571C211.447 88.4986 211.903 88.3693 212.406 88.3693C212.789 88.3693 213.104 88.4347 213.352 88.5653C213.602 88.6932 213.8 88.848 213.948 89.0298C214.096 89.2088 214.208 89.3778 214.285 89.5369H214.37V88.4545H215.891V95.1065C215.891 95.6662 215.758 96.1293 215.491 96.4957C215.224 96.8622 214.859 97.1364 214.396 97.3182C213.933 97.5 213.407 97.5909 212.819 97.5909ZM212.832 93.696C213.158 93.696 213.437 93.6165 213.667 93.4574C213.897 93.2983 214.072 93.0696 214.191 92.7713C214.31 92.473 214.37 92.1151 214.37 91.6974C214.37 91.2855 214.31 90.9247 214.191 90.6151C214.075 90.3054 213.901 90.0653 213.671 89.8949C213.444 89.7216 213.164 89.6349 212.832 89.6349C212.488 89.6349 212.201 89.7244 211.971 89.9034C211.741 90.0824 211.567 90.3281 211.451 90.6406C211.335 90.9503 211.276 91.3026 211.276 91.6974C211.276 92.098 211.335 92.4489 211.451 92.75C211.57 93.0483 211.745 93.2812 211.975 93.4489C212.208 93.6136 212.494 93.696 212.832 93.696ZM223.347 95.1278C222.69 95.1278 222.124 94.9915 221.646 94.7188C221.172 94.4432 220.807 94.054 220.551 93.5511C220.295 93.0455 220.168 92.4503 220.168 91.7656C220.168 91.0923 220.295 90.5014 220.551 89.9929C220.81 89.4815 221.17 89.0838 221.634 88.7997C222.097 88.5128 222.641 88.3693 223.266 88.3693C223.669 88.3693 224.05 88.4347 224.408 88.5653C224.768 88.6932 225.087 88.892 225.362 89.1619C225.641 89.4318 225.859 89.7756 226.018 90.1932C226.178 90.608 226.257 91.1023 226.257 91.6761V92.1491H220.892V91.1094H224.778C224.776 90.8139 224.712 90.5511 224.587 90.321C224.462 90.0881 224.287 89.9048 224.062 89.7713C223.841 89.6378 223.582 89.571 223.287 89.571C222.972 89.571 222.695 89.6477 222.456 89.8011C222.217 89.9517 222.031 90.1506 221.898 90.3977C221.767 90.642 221.7 90.9105 221.697 91.2031V92.1108C221.697 92.4915 221.767 92.8182 221.906 93.0909C222.045 93.3608 222.24 93.5682 222.49 93.7131C222.74 93.8551 223.033 93.9261 223.368 93.9261C223.592 93.9261 223.795 93.8949 223.977 93.8324C224.159 93.767 224.317 93.6719 224.45 93.5469C224.584 93.4219 224.685 93.267 224.753 93.0824L226.193 93.2443C226.102 93.625 225.929 93.9574 225.673 94.2415C225.42 94.5227 225.097 94.7415 224.702 94.8977C224.307 95.0511 223.855 95.1278 223.347 95.1278ZM228.683 88.4545L230.004 90.8707L231.346 88.4545H232.978L231.005 91.7273L233.012 95H231.389L230.004 92.6435L228.632 95H226.995L228.99 91.7273L227.047 88.4545H228.683ZM237.44 88.4545V89.6477H233.677V88.4545H237.44ZM234.606 86.8864H236.149V93.0312C236.149 93.2386 236.18 93.3977 236.243 93.5085C236.308 93.6165 236.393 93.6903 236.498 93.7301C236.603 93.7699 236.72 93.7898 236.848 93.7898C236.944 93.7898 237.032 93.7827 237.112 93.7685C237.194 93.7543 237.257 93.7415 237.299 93.7301L237.559 94.9361C237.477 94.9645 237.359 94.9957 237.206 95.0298C237.055 95.0639 236.87 95.0838 236.652 95.0895C236.265 95.1009 235.917 95.0426 235.608 94.9148C235.298 94.7841 235.052 94.5824 234.87 94.3097C234.691 94.0369 234.603 93.696 234.606 93.2869V86.8864ZM238.73 95V88.4545H240.226V89.5455H240.294C240.413 89.1676 240.618 88.8764 240.908 88.6719C241.2 88.4645 241.534 88.3608 241.909 88.3608C241.994 88.3608 242.089 88.3651 242.195 88.3736C242.303 88.3793 242.392 88.3892 242.463 88.4034V89.8224C242.398 89.7997 242.294 89.7798 242.152 89.7628C242.013 89.7429 241.878 89.733 241.747 89.733C241.466 89.733 241.213 89.794 240.989 89.9162C240.767 90.0355 240.592 90.2017 240.464 90.4148C240.337 90.6278 240.273 90.8736 240.273 91.152V95H238.73ZM245.254 95.1321C244.839 95.1321 244.466 95.0582 244.134 94.9105C243.804 94.7599 243.543 94.5384 243.349 94.2457C243.159 93.9531 243.064 93.5923 243.064 93.1634C243.064 92.794 243.132 92.4886 243.268 92.2472C243.405 92.0057 243.591 91.8125 243.827 91.6676C244.063 91.5227 244.328 91.4134 244.624 91.3395C244.922 91.2628 245.23 91.2074 245.548 91.1733C245.932 91.1335 246.243 91.098 246.482 91.0668C246.72 91.0327 246.893 90.9815 247.001 90.9134C247.112 90.8423 247.168 90.733 247.168 90.5852V90.5597C247.168 90.2386 247.072 89.9901 246.882 89.8139C246.692 89.6378 246.418 89.5497 246.06 89.5497C245.682 89.5497 245.382 89.6321 245.161 89.7969C244.942 89.9616 244.794 90.1562 244.717 90.3807L243.277 90.1761C243.391 89.7784 243.578 89.446 243.839 89.179C244.101 88.9091 244.42 88.7074 244.798 88.5739C245.176 88.4375 245.594 88.3693 246.051 88.3693C246.366 88.3693 246.68 88.4062 246.993 88.4801C247.305 88.554 247.591 88.6761 247.849 88.8466C248.108 89.0142 248.315 89.2429 248.472 89.5327C248.631 89.8224 248.71 90.1847 248.71 90.6193V95H247.227V94.1009H247.176C247.082 94.2827 246.95 94.4531 246.78 94.6122C246.612 94.7685 246.401 94.8949 246.145 94.9915C245.892 95.0852 245.595 95.1321 245.254 95.1321ZM245.655 93.9986C245.964 93.9986 246.233 93.9375 246.46 93.8153C246.688 93.6903 246.862 93.5256 246.984 93.321C247.109 93.1165 247.172 92.8935 247.172 92.652V91.8807C247.124 91.9205 247.041 91.9574 246.925 91.9915C246.811 92.0256 246.683 92.0554 246.541 92.081C246.399 92.1065 246.259 92.1293 246.119 92.1491C245.98 92.169 245.859 92.1861 245.757 92.2003C245.527 92.2315 245.321 92.2827 245.139 92.3537C244.957 92.4247 244.814 92.5241 244.709 92.652C244.604 92.777 244.551 92.9389 244.551 93.1378C244.551 93.4219 244.655 93.6364 244.862 93.7812C245.07 93.9261 245.334 93.9986 245.655 93.9986ZM30.7926 110V103.455H32.267V104.567H32.3438C32.4801 104.192 32.706 103.899 33.0213 103.689C33.3366 103.476 33.7131 103.369 34.1506 103.369C34.5938 103.369 34.9673 103.477 35.2713 103.693C35.5781 103.906 35.794 104.197 35.919 104.567H35.9872C36.1321 104.203 36.3764 103.913 36.7202 103.697C37.0668 103.479 37.4773 103.369 37.9517 103.369C38.554 103.369 39.0455 103.56 39.4261 103.94C39.8068 104.321 39.9972 104.876 39.9972 105.607V110H38.4503V105.845C38.4503 105.439 38.3423 105.142 38.1264 104.955C37.9105 104.764 37.6463 104.669 37.3338 104.669C36.9616 104.669 36.6705 104.786 36.4602 105.018C36.2528 105.249 36.1491 105.548 36.1491 105.918V110H34.6364V105.781C34.6364 105.443 34.5341 105.173 34.3295 104.972C34.1278 104.77 33.8636 104.669 33.5369 104.669C33.3153 104.669 33.1136 104.726 32.9318 104.839C32.75 104.95 32.6051 105.108 32.4972 105.312C32.3892 105.514 32.3352 105.75 32.3352 106.02V110H30.7926ZM41.5621 110V103.455H43.1048V110H41.5621ZM42.3377 102.526C42.0934 102.526 41.8832 102.445 41.707 102.283C41.5309 102.118 41.4428 101.92 41.4428 101.69C41.4428 101.457 41.5309 101.26 41.707 101.098C41.8832 100.933 42.0934 100.851 42.3377 100.851C42.5849 100.851 42.7951 100.933 42.9684 101.098C43.1445 101.26 43.2326 101.457 43.2326 101.69C43.2326 101.92 43.1445 102.118 42.9684 102.283C42.7951 102.445 42.5849 102.526 42.3377 102.526ZM46.2337 106.165V110H44.6911V103.455H46.1655V104.567H46.2422C46.3928 104.2 46.6328 103.909 46.9624 103.693C47.2947 103.477 47.7053 103.369 48.1939 103.369C48.6456 103.369 49.0391 103.466 49.3743 103.659C49.7124 103.852 49.9737 104.132 50.1584 104.499C50.3459 104.865 50.4382 105.31 50.4354 105.832V110H48.8928V106.071C48.8928 105.634 48.7791 105.291 48.5518 105.044C48.3274 104.797 48.0163 104.673 47.6186 104.673C47.3487 104.673 47.1087 104.733 46.8984 104.852C46.6911 104.969 46.5277 105.138 46.4084 105.359C46.2919 105.581 46.2337 105.849 46.2337 106.165ZM54.4325 110.115C53.9183 110.115 53.4581 109.983 53.0518 109.719C52.6456 109.455 52.3246 109.071 52.0888 108.568C51.853 108.065 51.7351 107.455 51.7351 106.736C51.7351 106.009 51.8544 105.395 52.093 104.895C52.3345 104.392 52.6598 104.013 53.0689 103.757C53.478 103.499 53.9339 103.369 54.4368 103.369C54.8203 103.369 55.1357 103.435 55.3828 103.565C55.63 103.693 55.826 103.848 55.9709 104.03C56.1158 104.209 56.228 104.378 56.3075 104.537H56.3714V101.273H57.9183V110H56.4013V108.969H56.3075C56.228 109.128 56.1129 109.297 55.9624 109.476C55.8118 109.652 55.6129 109.803 55.3658 109.928C55.1186 110.053 54.8075 110.115 54.4325 110.115ZM54.8629 108.849C55.1896 108.849 55.468 108.761 55.6982 108.585C55.9283 108.406 56.103 108.158 56.2223 107.839C56.3416 107.521 56.4013 107.151 56.4013 106.727C56.4013 106.304 56.3416 105.936 56.2223 105.624C56.1058 105.311 55.9325 105.068 55.7024 104.895C55.4751 104.722 55.1953 104.635 54.8629 104.635C54.5192 104.635 54.2322 104.724 54.0021 104.903C53.772 105.082 53.5987 105.33 53.4822 105.645C53.3658 105.96 53.3075 106.321 53.3075 106.727C53.3075 107.136 53.3658 107.501 53.4822 107.822C53.6016 108.141 53.7763 108.392 54.0064 108.577C54.2393 108.759 54.5249 108.849 54.8629 108.849ZM62.8775 103.455V104.648H59.0082V103.455H62.8775ZM59.9755 110V102.837C59.9755 102.396 60.0664 102.03 60.2482 101.737C60.4329 101.445 60.68 101.226 60.9897 101.081C61.2994 100.936 61.6431 100.864 62.021 100.864C62.288 100.864 62.5252 100.885 62.7326 100.928C62.94 100.97 63.0934 101.009 63.1928 101.043L62.886 102.236C62.8207 102.216 62.7383 102.196 62.6388 102.176C62.5394 102.153 62.4286 102.142 62.3065 102.142C62.0195 102.142 61.8164 102.212 61.6971 102.351C61.5806 102.487 61.5224 102.683 61.5224 102.939V110H59.9755ZM68.2575 107.247V103.455H69.8001V110H68.3043V108.837H68.2362C68.0884 109.203 67.8455 109.503 67.5075 109.736C67.1722 109.969 66.7589 110.085 66.2674 110.085C65.8384 110.085 65.4592 109.99 65.1296 109.8C64.8029 109.607 64.5472 109.327 64.3626 108.96C64.1779 108.591 64.0856 108.145 64.0856 107.622V103.455H65.6282V107.384C65.6282 107.798 65.7418 108.128 65.9691 108.372C66.1964 108.616 66.4947 108.739 66.864 108.739C67.0913 108.739 67.3114 108.683 67.5245 108.572C67.7376 108.462 67.9123 108.297 68.0487 108.078C68.1879 107.857 68.2575 107.58 68.2575 107.247ZM72.929 101.273V110H71.3864V101.273H72.929ZM76.0579 106.165V110H74.5153V103.455H75.9897V104.567H76.0664C76.217 104.2 76.457 103.909 76.7866 103.693C77.119 103.477 77.5295 103.369 78.0181 103.369C78.4698 103.369 78.8633 103.466 79.1985 103.659C79.5366 103.852 79.7979 104.132 79.9826 104.499C80.1701 104.865 80.2624 105.31 80.2596 105.832V110H78.717V106.071C78.717 105.634 78.6033 105.291 78.3761 105.044C78.1516 104.797 77.8406 104.673 77.4428 104.673C77.1729 104.673 76.9329 104.733 76.7227 104.852C76.5153 104.969 76.3519 105.138 76.2326 105.359C76.1161 105.581 76.0579 105.849 76.0579 106.165ZM84.7255 110.128C84.0692 110.128 83.5025 109.991 83.0252 109.719C82.5508 109.443 82.1857 109.054 81.93 108.551C81.6744 108.045 81.5465 107.45 81.5465 106.766C81.5465 106.092 81.6744 105.501 81.93 104.993C82.1886 104.482 82.5494 104.084 83.0124 103.8C83.4755 103.513 84.0195 103.369 84.6445 103.369C85.0479 103.369 85.4286 103.435 85.7866 103.565C86.1474 103.693 86.4656 103.892 86.7411 104.162C87.0195 104.432 87.2383 104.776 87.3974 105.193C87.5565 105.608 87.636 106.102 87.636 106.676V107.149H82.271V106.109H86.1573C86.1545 105.814 86.0906 105.551 85.9656 105.321C85.8406 105.088 85.6658 104.905 85.4414 104.771C85.2198 104.638 84.9613 104.571 84.6658 104.571C84.3505 104.571 84.0735 104.648 83.8349 104.801C83.5962 104.952 83.4102 105.151 83.2766 105.398C83.146 105.642 83.0792 105.911 83.0763 106.203V107.111C83.0763 107.491 83.146 107.818 83.2852 108.091C83.4244 108.361 83.619 108.568 83.869 108.713C84.119 108.855 84.4116 108.926 84.7468 108.926C84.9712 108.926 85.1744 108.895 85.3562 108.832C85.538 108.767 85.6957 108.672 85.8292 108.547C85.9627 108.422 86.0636 108.267 86.1317 108.082L87.5721 108.244C87.4812 108.625 87.3079 108.957 87.0522 109.241C86.7994 109.523 86.4755 109.741 86.0806 109.898C85.6857 110.051 85.234 110.128 84.7255 110.128ZM94.1143 105.185L92.7081 105.338C92.6683 105.196 92.5987 105.062 92.4993 104.938C92.4027 104.812 92.272 104.712 92.1072 104.635C91.9425 104.558 91.7408 104.52 91.5021 104.52C91.1811 104.52 90.9112 104.589 90.6925 104.729C90.4766 104.868 90.37 105.048 90.3729 105.27C90.37 105.46 90.4396 105.615 90.5817 105.734C90.7266 105.854 90.9652 105.952 91.2976 106.028L92.4141 106.267C93.0334 106.401 93.4936 106.612 93.7947 106.902C94.0987 107.192 94.2521 107.571 94.255 108.04C94.2521 108.452 94.1314 108.815 93.8928 109.131C93.657 109.443 93.3288 109.687 92.9084 109.864C92.4879 110.04 92.005 110.128 91.4595 110.128C90.6584 110.128 90.0135 109.96 89.5249 109.625C89.0362 109.287 88.745 108.817 88.6513 108.214L90.1555 108.07C90.2237 108.365 90.3686 108.588 90.5902 108.739C90.8118 108.889 91.1001 108.964 91.4553 108.964C91.8217 108.964 92.1158 108.889 92.3374 108.739C92.5618 108.588 92.674 108.402 92.674 108.18C92.674 107.993 92.6016 107.838 92.4567 107.716C92.3146 107.594 92.093 107.5 91.7919 107.435L90.6754 107.2C90.0476 107.07 89.5831 106.849 89.282 106.54C88.9808 106.227 88.8317 105.832 88.8345 105.355C88.8317 104.952 88.9411 104.602 89.1626 104.307C89.3871 104.009 89.6982 103.778 90.0959 103.616C90.4964 103.452 90.9581 103.369 91.4808 103.369C92.2479 103.369 92.8516 103.533 93.2919 103.859C93.7351 104.186 94.0092 104.628 94.1143 105.185ZM100.7 105.185L99.294 105.338C99.2543 105.196 99.1847 105.062 99.0852 104.938C98.9886 104.812 98.858 104.712 98.6932 104.635C98.5284 104.558 98.3267 104.52 98.0881 104.52C97.767 104.52 97.4972 104.589 97.2784 104.729C97.0625 104.868 96.956 105.048 96.9588 105.27C96.956 105.46 97.0256 105.615 97.1676 105.734C97.3125 105.854 97.5511 105.952 97.8835 106.028L99 106.267C99.6193 106.401 100.08 106.612 100.381 106.902C100.685 107.192 100.838 107.571 100.841 108.04C100.838 108.452 100.717 108.815 100.479 109.131C100.243 109.443 99.9148 109.687 99.4943 109.864C99.0739 110.04 98.5909 110.128 98.0455 110.128C97.2443 110.128 96.5994 109.96 96.1108 109.625C95.6222 109.287 95.331 108.817 95.2372 108.214L96.7415 108.07C96.8097 108.365 96.9545 108.588 97.1761 108.739C97.3977 108.889 97.6861 108.964 98.0412 108.964C98.4077 108.964 98.7017 108.889 98.9233 108.739C99.1477 108.588 99.2599 108.402 99.2599 108.18C99.2599 107.993 99.1875 107.838 99.0426 107.716C98.9006 107.594 98.679 107.5 98.3778 107.435L97.2614 107.2C96.6335 107.07 96.169 106.849 95.8679 106.54C95.5668 106.227 95.4176 105.832 95.4205 105.355C95.4176 104.952 95.527 104.602 95.7486 104.307C95.973 104.009 96.2841 103.778 96.6818 103.616C97.0824 103.452 97.544 103.369 98.0668 103.369C98.8338 103.369 99.4375 103.533 99.8778 103.859C100.321 104.186 100.595 104.628 100.7 105.185ZM108.358 103.455V104.648H104.595V103.455H108.358ZM105.524 101.886H107.067V108.031C107.067 108.239 107.098 108.398 107.161 108.509C107.226 108.616 107.311 108.69 107.416 108.73C107.521 108.77 107.638 108.79 107.766 108.79C107.862 108.79 107.95 108.783 108.03 108.768C108.112 108.754 108.175 108.741 108.217 108.73L108.477 109.936C108.395 109.964 108.277 109.996 108.124 110.03C107.973 110.064 107.788 110.084 107.57 110.089C107.183 110.101 106.835 110.043 106.526 109.915C106.216 109.784 105.97 109.582 105.788 109.31C105.609 109.037 105.521 108.696 105.524 108.287V101.886ZM112.433 110.128C111.794 110.128 111.24 109.987 110.771 109.706C110.302 109.425 109.939 109.031 109.68 108.526C109.424 108.02 109.297 107.429 109.297 106.753C109.297 106.077 109.424 105.484 109.68 104.976C109.939 104.467 110.302 104.072 110.771 103.791C111.24 103.51 111.794 103.369 112.433 103.369C113.072 103.369 113.626 103.51 114.095 103.791C114.564 104.072 114.926 104.467 115.181 104.976C115.44 105.484 115.569 106.077 115.569 106.753C115.569 107.429 115.44 108.02 115.181 108.526C114.926 109.031 114.564 109.425 114.095 109.706C113.626 109.987 113.072 110.128 112.433 110.128ZM112.441 108.892C112.788 108.892 113.078 108.797 113.311 108.607C113.544 108.413 113.717 108.155 113.831 107.831C113.947 107.507 114.005 107.146 114.005 106.749C114.005 106.348 113.947 105.986 113.831 105.662C113.717 105.335 113.544 105.075 113.311 104.882C113.078 104.689 112.788 104.592 112.441 104.592C112.086 104.592 111.791 104.689 111.555 104.882C111.322 105.075 111.147 105.335 111.031 105.662C110.917 105.986 110.86 106.348 110.86 106.749C110.86 107.146 110.917 107.507 111.031 107.831C111.147 108.155 111.322 108.413 111.555 108.607C111.791 108.797 112.086 108.892 112.441 108.892ZM120.814 112.455C120.604 112.455 120.409 112.438 120.23 112.403C120.054 112.372 119.913 112.335 119.808 112.293L120.166 111.091C120.391 111.156 120.591 111.188 120.767 111.185C120.943 111.182 121.098 111.126 121.232 111.018C121.368 110.913 121.483 110.737 121.577 110.49L121.709 110.136L119.335 103.455H120.972L122.48 108.398H122.548L124.061 103.455H125.702L123.081 110.793C122.959 111.139 122.797 111.436 122.595 111.683C122.393 111.933 122.146 112.124 121.854 112.254C121.564 112.388 121.217 112.455 120.814 112.455ZM129.402 110.128C128.762 110.128 128.208 109.987 127.74 109.706C127.271 109.425 126.907 109.031 126.649 108.526C126.393 108.02 126.265 107.429 126.265 106.753C126.265 106.077 126.393 105.484 126.649 104.976C126.907 104.467 127.271 104.072 127.74 103.791C128.208 103.51 128.762 103.369 129.402 103.369C130.041 103.369 130.595 103.51 131.064 103.791C131.532 104.072 131.895 104.467 132.15 104.976C132.409 105.484 132.538 106.077 132.538 106.753C132.538 107.429 132.409 108.02 132.15 108.526C131.895 109.031 131.532 109.425 131.064 109.706C130.595 109.987 130.041 110.128 129.402 110.128ZM129.41 108.892C129.757 108.892 130.047 108.797 130.279 108.607C130.512 108.413 130.686 108.155 130.799 107.831C130.916 107.507 130.974 107.146 130.974 106.749C130.974 106.348 130.916 105.986 130.799 105.662C130.686 105.335 130.512 105.075 130.279 104.882C130.047 104.689 129.757 104.592 129.41 104.592C129.055 104.592 128.76 104.689 128.524 104.882C128.291 105.075 128.116 105.335 128 105.662C127.886 105.986 127.829 106.348 127.829 106.749C127.829 107.146 127.886 107.507 128 107.831C128.116 108.155 128.291 108.413 128.524 108.607C128.76 108.797 129.055 108.892 129.41 108.892ZM138.019 107.247V103.455H139.562V110H138.066V108.837H137.998C137.85 109.203 137.607 109.503 137.269 109.736C136.934 109.969 136.521 110.085 136.029 110.085C135.6 110.085 135.221 109.99 134.891 109.8C134.565 109.607 134.309 109.327 134.124 108.96C133.94 108.591 133.847 108.145 133.847 107.622V103.455H135.39V107.384C135.39 107.798 135.504 108.128 135.731 108.372C135.958 108.616 136.256 108.739 136.626 108.739C136.853 108.739 137.073 108.683 137.286 108.572C137.499 108.462 137.674 108.297 137.81 108.078C137.95 107.857 138.019 107.58 138.019 107.247ZM141.148 110V103.455H142.644V104.545H142.712C142.831 104.168 143.036 103.876 143.326 103.672C143.618 103.464 143.952 103.361 144.327 103.361C144.412 103.361 144.507 103.365 144.613 103.374C144.721 103.379 144.81 103.389 144.881 103.403V104.822C144.816 104.8 144.712 104.78 144.57 104.763C144.431 104.743 144.296 104.733 144.165 104.733C143.884 104.733 143.631 104.794 143.407 104.916C143.185 105.036 143.01 105.202 142.882 105.415C142.755 105.628 142.691 105.874 142.691 106.152V110H141.148ZM150.425 101.273V110H148.882V101.273H150.425ZM152.011 110V103.455H153.554V110H152.011ZM152.787 102.526C152.543 102.526 152.332 102.445 152.156 102.283C151.98 102.118 151.892 101.92 151.892 101.69C151.892 101.457 151.98 101.26 152.156 101.098C152.332 100.933 152.543 100.851 152.787 100.851C153.034 100.851 153.244 100.933 153.418 101.098C153.594 101.26 153.682 101.457 153.682 101.69C153.682 101.92 153.594 102.118 153.418 102.283C153.244 102.445 153.034 102.526 152.787 102.526ZM158.456 103.455V104.648H154.586V103.455H158.456ZM155.554 110V102.837C155.554 102.396 155.645 102.03 155.826 101.737C156.011 101.445 156.258 101.226 156.568 101.081C156.877 100.936 157.221 100.864 157.599 100.864C157.866 100.864 158.103 100.885 158.311 100.928C158.518 100.97 158.672 101.009 158.771 101.043L158.464 102.236C158.399 102.216 158.316 102.196 158.217 102.176C158.118 102.153 158.007 102.142 157.885 102.142C157.598 102.142 157.395 102.212 157.275 102.351C157.159 102.487 157.1 102.683 157.1 102.939V110H155.554ZM162.315 110.128C161.659 110.128 161.092 109.991 160.615 109.719C160.141 109.443 159.776 109.054 159.52 108.551C159.264 108.045 159.136 107.45 159.136 106.766C159.136 106.092 159.264 105.501 159.52 104.993C159.778 104.482 160.139 104.084 160.602 103.8C161.065 103.513 161.609 103.369 162.234 103.369C162.638 103.369 163.018 103.435 163.376 103.565C163.737 103.693 164.055 103.892 164.331 104.162C164.609 104.432 164.828 104.776 164.987 105.193C165.146 105.608 165.226 106.102 165.226 106.676V107.149H159.861V106.109H163.747C163.744 105.814 163.68 105.551 163.555 105.321C163.43 105.088 163.256 104.905 163.031 104.771C162.81 104.638 162.551 104.571 162.256 104.571C161.94 104.571 161.663 104.648 161.425 104.801C161.186 104.952 161 105.151 160.866 105.398C160.736 105.642 160.669 105.911 160.666 106.203V107.111C160.666 107.491 160.736 107.818 160.875 108.091C161.014 108.361 161.209 108.568 161.459 108.713C161.709 108.855 162.001 108.926 162.337 108.926C162.561 108.926 162.764 108.895 162.946 108.832C163.128 108.767 163.286 108.672 163.419 108.547C163.553 108.422 163.653 108.267 163.722 108.082L165.162 108.244C165.071 108.625 164.898 108.957 164.642 109.241C164.389 109.523 164.065 109.741 163.67 109.898C163.276 110.051 162.824 110.128 162.315 110.128Z" fill="#FCFCFC"/>
</g>
<defs>
<filter id="filter0_d_532_2057" x="0" y="0" width="323" height="144" filterUnits="userSpaceOnUse" color-interpolation-filters="sRGB">
<feFlood flood-opacity="0" result="BackgroundImageFix"/>
<feColorMatrix in="SourceAlpha" type="matrix" values="0 0 0 0 0 0 0 0 0 0 0 0 0 0 0 0 0 0 127 0" result="hardAlpha"/>
<feOffset dy="1"/>
<feGaussianBlur stdDeviation="5"/>
<feComposite in2="hardAlpha" operator="out"/>
<feColorMatrix type="matrix" values="0 0 0 0 0 0 0 0 0 0 0 0 0 0 0 0 0 0 0.1 0"/>
<feBlend mode="normal" in2="BackgroundImageFix" result="effect1_dropShadow_532_2057"/>
<feBlend mode="normal" in="SourceGraphic" in2="effect1_dropShadow_532_2057" result="shape"/>
</filter>
<clipPath id="clip0_532_2057">
<rect width="15" height="15" fill="white" transform="translate(126 36)"/>
</clipPath>
</defs>
</svg>
