<svg width="18" height="18" viewBox="0 0 18 18" fill="none" xmlns="http://www.w3.org/2000/svg">
<path d="M9 0C4.03911 0 0 4.03911 0 9C0 13.9609 4.03911 18 9 18C13.9609 18 18 13.9609 18 9C18 4.03911 13.9609 0 9 0ZM14.9516 4.15161C16.0222 5.45806 16.6718 7.12742 16.6863 8.94193C16.4323 8.8875 13.8919 8.37218 11.3335 8.69516C11.123 8.1871 10.927 7.7371 10.6585 7.18548C13.5 6.02419 14.7883 4.37298 14.9516 4.15524V4.15161ZM14.0952 3.2625C13.9573 3.45847 12.7996 5.01532 10.0669 6.03871C8.80766 3.72339 7.41048 1.82177 7.2 1.53871C9.63871 0.950806 12.2081 1.58589 14.0988 3.2625H14.0952ZM5.73024 2.05403C5.93347 2.33347 7.30524 4.23508 8.57903 6.4996C4.98266 7.45403 1.81452 7.43952 1.47339 7.43589C1.97419 5.05161 3.58185 3.07016 5.73024 2.05403ZM1.31371 9.01089C1.31371 8.93105 1.31371 8.85484 1.31734 8.775C1.65484 8.78226 5.37823 8.82944 9.21774 7.68266C9.43911 8.11452 9.6496 8.55 9.84194 8.98548C7.0621 9.76935 4.53629 12.0157 3.29153 14.1496C2.06129 12.7887 1.31371 10.9851 1.31371 9.01089ZM4.28226 15.075C5.08427 13.4347 7.26532 11.3153 10.3645 10.2556C11.4423 13.0609 11.8887 15.4125 12.0048 16.0839C9.53347 17.1363 6.56129 16.8496 4.28226 15.0714V15.075ZM13.2968 15.3835C13.2169 14.9153 12.8105 12.6653 11.8016 9.90363C14.2113 9.51895 16.327 10.1504 16.5883 10.2339C16.2472 12.3714 15.0169 14.2185 13.2931 15.3871L13.2968 15.3835Z" fill="#FAFAFA"/>
</svg>
